<svg width="220" height="220" viewBox="0 0 220 220" fill="none" xmlns="http://www.w3.org/2000/svg">
<g clip-path="url(#clip0_225_35944)">
<path d="M127.534 141.64L120.565 137.845C119.62 137.08 120.407 134.028 120.446 133.869L127.415 137.664C127.376 137.822 126.589 140.875 127.534 141.64Z" fill="white"/>
<path d="M120.43 133.325L127.399 137.12C127.489 137.171 127.421 137.641 127.416 137.663L120.447 133.869C120.447 133.869 120.52 133.371 120.43 133.325Z" fill="#CACACA"/>
<path d="M125.287 139.703L118.318 135.908C117.944 135.704 117.52 135.41 117.078 135.166L124.047 138.961C124.494 139.204 124.913 139.499 125.287 139.703Z" fill="#CACACA"/>
<path d="M110.281 139.628L117.25 143.423C117.765 143.706 118.19 144.612 118.552 146.52L111.583 142.726C111.221 140.817 110.796 139.911 110.281 139.628Z" fill="#CACACA"/>
<path d="M96.5938 142.902L103.563 146.697C103.563 146.697 103.591 146.748 103.563 146.822L96.5938 143.027C96.6221 142.953 96.6051 142.908 96.5938 142.902Z" fill="#CACACA"/>
<path d="M136.319 77.7259L129.35 73.9313C127.46 72.9005 129.939 69.4514 132.702 69.0663C133.376 68.97 134.072 69.0606 134.717 69.4118L141.686 73.2064C141.035 72.8552 140.344 72.7646 139.671 72.8609C136.914 73.246 134.429 76.6951 136.319 77.7259Z" fill="#CACACA"/>
<path d="M104.75 124.966L97.7812 121.171C97.9567 121.267 98.1606 121.29 98.387 121.256C99.9948 121.029 102.786 117.999 104.263 117.246L111.232 121.041C109.749 121.8 106.964 124.824 105.356 125.05C105.13 125.084 104.926 125.056 104.75 124.966Z" fill="#CACACA"/>
<path d="M111.238 121.041L104.27 117.246C125.465 103.263 116.452 90.6334 123.546 77.7827C124.933 75.2681 127.628 74.7357 130.153 76.112L132.961 77.8224C120.489 92.1738 134.784 105.506 111.238 121.041Z" fill="#CACACA"/>
<path d="M99.2955 113.576L106.264 117.37C106.123 117.291 105.959 117.223 105.778 117.161L98.8086 113.366C98.9954 113.429 99.1539 113.496 99.2955 113.576Z" fill="#CACACA"/>
<path d="M88.7367 161.456L81.7677 157.661C80.4939 156.965 80.0693 154.829 79.9391 152.649C79.7806 149.97 80.0524 147.229 79.707 147.042L86.676 150.837C87.0213 151.023 86.7496 153.765 86.9081 156.444C87.0383 158.618 87.4572 160.759 88.7367 161.456Z" fill="#CACACA"/>
<path d="M90.1799 139.164L83.2109 135.369C83.5733 135.568 83.9299 135.636 84.2696 135.585C86.5228 135.268 88.3174 129.949 90.3724 124.597C92.4274 119.24 94.7542 113.848 98.0717 113.383C98.3094 113.35 98.5585 113.344 98.8076 113.361L105.777 117.155C105.527 117.138 105.278 117.144 105.041 117.178C101.723 117.643 99.402 123.034 97.3414 128.392C95.2863 133.75 93.4917 139.062 91.2386 139.379C90.8989 139.425 90.5479 139.362 90.1799 139.164Z" fill="#CACACA"/>
<path d="M83.2748 155.453L76.3059 151.658C75.9605 151.471 76.1191 150.118 76.1643 148.787C76.204 147.592 76.1474 146.414 75.5586 146.091L82.5276 149.885C83.1163 150.208 83.1729 151.392 83.1333 152.581C83.088 153.918 82.9352 155.266 83.2748 155.453Z" fill="#CACACA"/>
<path d="M73.4698 151.347L80.4387 155.141C79.5669 154.665 78.3271 154.32 76.6174 154.122L69.6484 150.327C71.3581 150.525 72.6036 150.877 73.4698 151.347Z" fill="#CACACA"/>
<path d="M68.9377 157.633L61.9688 153.838C61.9688 153.838 62.0367 153.855 62.099 153.844C62.6764 153.765 64.9182 152.762 69.6397 150.321L76.6087 154.116C71.8872 156.557 69.6454 157.554 69.0679 157.639C69.0056 157.65 68.9604 157.644 68.9377 157.633Z" fill="#CACACA"/>
<path d="M65.479 172.182L58.5101 168.388C56.7211 167.414 56.7041 164.429 54.8359 163.415L61.8049 167.21C63.6731 168.229 63.6901 171.214 65.479 172.182Z" fill="#CACACA"/>
<path d="M48.6561 191.258L41.6871 187.463C41.3474 187.276 41.0757 186.852 40.8945 186.144L47.8635 189.938C48.0447 190.646 48.3164 191.071 48.6561 191.258Z" fill="#CACACA"/>
<path d="M47.8635 189.938L40.8945 186.144C41.2568 183.425 41.4267 182.496 41.4097 182.502L48.3787 186.297C48.3787 186.297 48.2202 187.22 47.8635 189.938Z" fill="#CACACA"/>
<path d="M60.1177 166.757L53.1487 162.962C51.19 161.898 60.0045 154.767 58.5779 153.991L65.5468 157.786C66.9735 158.562 58.1589 165.692 60.1177 166.757Z" fill="#CACACA"/>
<path d="M60.4743 162.413L53.5054 158.619C53.3129 158.511 53.1204 158.211 52.9336 157.645L59.9026 161.439C60.0894 162.005 60.2819 162.311 60.4743 162.413Z" fill="#CACACA"/>
<path d="M52.4414 157.226L59.4104 161.02C59.6198 161.133 59.784 161.269 59.9029 161.439L52.9339 157.645C52.815 157.475 52.6452 157.339 52.4414 157.226Z" fill="#CACACA"/>
<path d="M44.9711 190.357L38.0021 186.563C32.4258 183.527 41.3366 170.331 38.421 168.745L45.39 172.54C48.3055 174.126 39.3948 187.322 44.9711 190.357Z" fill="#CACACA"/>
<path d="M46.3581 158.619L53.3271 162.413C52.1552 161.779 50.9664 161.552 49.6643 161.734L42.6953 157.939C43.9974 157.758 45.1863 157.979 46.3581 158.619Z" fill="#CACACA"/>
<path d="M50.1277 159.87L43.1587 156.075C42.168 155.537 41.8623 154.523 42.8983 152.604L49.8673 156.398C48.8313 158.318 49.137 159.332 50.1277 159.87Z" fill="#CACACA"/>
<path d="M49.8674 156.398L42.8984 152.604C54.6908 145.785 64.462 136.293 77.9244 134.401C79.1982 134.22 80.506 134.112 81.8477 134.078L88.8166 137.873C87.4749 137.907 86.1672 138.02 84.8934 138.196C71.431 140.087 61.6597 149.579 49.8674 156.398Z" fill="#CACACA"/>
<path d="M40.8424 177.331L33.8734 173.537C31.8637 172.444 30.0294 168.751 31.2296 165.251L38.1986 169.046C36.9984 172.546 38.8326 176.238 40.8424 177.331Z" fill="#CACACA"/>
<path d="M38.1994 169.039L31.2305 165.244C36.2916 160.804 39.7733 158.346 42.6945 157.938L49.6634 161.733C46.7422 162.147 43.2606 164.605 38.1994 169.039Z" fill="#CACACA"/>
<path d="M172.414 48.0824L165.445 44.2879C165.615 44.3785 165.825 44.4181 166.074 44.3785C166.402 44.3332 166.804 44.1689 167.291 43.8574L174.26 47.652C173.773 47.9578 173.371 48.1221 173.043 48.1731C172.794 48.207 172.584 48.1731 172.409 48.0824H172.414Z" fill="#CACACA"/>
<path d="M165.528 34.8131L172.497 38.6077C172.497 38.6077 172.451 38.5907 172.429 38.5963C172.236 38.6247 171.863 39.0664 171.223 40.0915L164.254 36.2969C164.894 35.2718 165.267 34.8301 165.46 34.8018C165.488 34.8018 165.511 34.8018 165.528 34.8131Z" fill="#CACACA"/>
<path d="M159.274 41.4621L152.305 37.6675C154.405 38.8115 156.579 39.4855 158.821 39.174C160.593 38.9248 162.404 38.0526 164.25 36.2969L171.219 40.0915C169.373 41.8472 167.562 42.7194 165.79 42.9686C163.548 43.2857 161.374 42.6061 159.274 41.4621Z" fill="#CACACA"/>
<path d="M128.996 60.2197L135.965 64.0143C136.158 64.1219 136.31 64.2918 136.384 64.5467L129.415 60.7521C129.341 60.5029 129.194 60.3273 128.996 60.2197Z" fill="#CACACA"/>
<path d="M133.832 66.7555L126.863 62.9609C128.137 63.6519 130.458 63.7652 131.596 64.3882L138.565 68.1827C137.427 67.5654 135.106 67.4521 133.832 66.7555Z" fill="#CACACA"/>
<path d="M130.882 72.9007L123.913 69.1061C122.945 68.5794 122.277 67.3107 122.152 64.915L129.121 68.7096C129.252 71.0997 129.914 72.3683 130.882 72.9007Z" fill="#CACACA"/>
<path d="M141.049 29.6363L148.018 33.4309C146.67 32.7003 145.385 32.2981 144.168 32.468L137.199 28.6735C138.416 28.5035 139.701 28.9057 141.049 29.6363Z" fill="#CACACA"/>
<path d="M129.116 68.7151L122.147 64.9205C120.358 63.2951 118.541 60.9164 121.281 58.1016L128.25 61.8962C125.504 64.7109 127.327 67.0896 129.116 68.7151Z" fill="#CACACA"/>
<path d="M141.297 34.1843L134.328 30.3897C135.24 29.3419 136.196 28.8096 137.198 28.668L144.167 32.4626C143.165 32.6041 142.209 33.1309 141.297 34.1843Z" fill="#CACACA"/>
<path d="M134.059 53.9388L127.09 50.1442C127.877 50.3934 128.596 50.4557 129.247 50.3651C135.31 49.5099 136.035 35.3113 134.325 30.3896L141.294 34.1842C142.998 39.1059 142.279 53.3101 136.216 54.1596C135.559 54.2503 134.84 54.188 134.059 53.9388Z" fill="#CACACA"/>
<path d="M128.254 61.8962L121.285 58.1016C126.431 55.2358 122.599 50.6427 125.967 50.1669C126.278 50.1216 126.646 50.1159 127.094 50.1443L134.063 53.9389C133.621 53.9105 133.247 53.9162 132.936 53.9615C129.568 54.4372 133.406 59.0247 128.254 61.8962Z" fill="#CACACA"/>
<path d="M127.411 138.292C127.31 138.292 127.202 138.264 127.111 138.213L120.142 134.418C119.91 134.294 119.78 134.033 119.82 133.773C119.831 133.693 119.837 133.608 119.842 133.552C119.774 133.382 119.78 133.189 119.876 133.014C120.04 132.708 120.425 132.595 120.731 132.759L127.7 136.548C128.176 136.808 128.085 137.437 128.04 137.737C128.012 137.941 127.881 138.117 127.7 138.207C127.61 138.253 127.513 138.275 127.417 138.275L127.411 138.292Z" fill="#020202"/>
<path d="M118.546 147.149C118.444 147.149 118.336 147.121 118.246 147.07L111.277 143.275C111.112 143.185 110.994 143.026 110.96 142.839C110.552 140.699 110.133 140.262 109.975 140.178C109.669 140.013 109.556 139.628 109.72 139.322C109.884 139.016 110.269 138.903 110.575 139.067L117.544 142.862C118.285 143.264 118.766 144.323 119.163 146.396C119.208 146.634 119.112 146.883 118.914 147.025C118.806 147.104 118.67 147.144 118.54 147.144L118.546 147.149ZM112.143 142.318L117.617 145.297C117.323 144.301 117.068 144.046 116.949 143.978L111.882 141.22C111.973 141.542 112.064 141.911 112.148 142.318H112.143Z" fill="#020202"/>
<path d="M136.317 78.3601C136.215 78.3601 136.113 78.3375 136.017 78.2808L129.054 74.4919C128.284 74.0728 127.938 73.3082 128.103 72.3964C128.391 70.7879 130.384 68.7604 132.62 68.4432C133.486 68.3186 134.296 68.4602 135.026 68.8623L141.995 72.6569C142.301 72.8212 142.414 73.2063 142.25 73.5121C142.086 73.818 141.701 73.9312 141.395 73.767C140.908 73.5008 140.359 73.4102 139.77 73.4895C138.23 73.7047 136.753 75.0809 136.385 76.174C136.357 76.2533 136.317 76.3213 136.266 76.3836C136.289 76.4515 136.3 76.5251 136.3 76.6044C136.3 76.8763 136.391 77.0462 136.628 77.1765C136.934 77.3407 137.047 77.7258 136.883 78.0316C136.77 78.2412 136.555 78.3601 136.328 78.3601H136.317ZM133.198 69.6666C133.062 69.6666 132.926 69.6779 132.784 69.6949C131.126 69.9271 129.54 71.4846 129.337 72.6229C129.252 73.0987 129.444 73.2743 129.648 73.3819L135.077 76.3382C135.1 76.2816 135.134 76.2306 135.173 76.1853C135.128 76.0607 135.128 75.9135 135.173 75.7776C135.609 74.4749 137.087 72.9401 138.87 72.3964L134.415 69.9724C134.041 69.7685 133.634 69.6666 133.198 69.6666Z" fill="#020202"/>
<path d="M105.356 125.679C105.045 125.679 104.779 125.452 104.733 125.135C104.682 124.789 104.926 124.472 105.271 124.421C106.069 124.308 107.485 123.136 108.628 122.19C109.477 121.488 110.281 120.825 110.921 120.485C124.457 111.542 125.436 103.092 126.382 94.9198C127.022 89.3921 127.684 83.6833 132.151 77.9687L127.707 75.8619C127.163 75.6014 126.501 75.7543 126.133 76.2243C121.972 81.5821 121.355 86.6227 120.698 91.9634C119.758 99.6375 118.779 107.572 106.737 116.305C106.454 116.509 106.058 116.447 105.854 116.164C105.65 115.881 105.713 115.49 105.996 115.28C117.596 106.87 118.496 99.5526 119.447 91.8048C120.092 86.532 120.766 81.078 125.136 75.4484C125.861 74.5139 127.169 74.2081 128.244 74.7235L133.413 77.1758C133.589 77.2608 133.719 77.4194 133.758 77.6119C133.798 77.8045 133.753 78.0027 133.628 78.15C128.941 83.7852 128.307 89.2675 127.633 95.0727C126.654 103.54 125.64 112.296 111.583 121.567C111.566 121.578 111.544 121.59 111.521 121.601C111 121.867 110.236 122.501 109.426 123.17C108.034 124.319 106.596 125.514 105.441 125.673C105.413 125.673 105.379 125.679 105.35 125.679H105.356Z" fill="#020202"/>
<path d="M106.256 118C106.154 118 106.052 117.977 105.956 117.92C105.848 117.858 105.718 117.801 105.571 117.756C105.537 117.745 105.503 117.728 105.475 117.711L98.5057 113.916C98.217 113.758 98.0981 113.412 98.2283 113.112C98.3585 112.812 98.6982 112.665 99.0096 112.767C99.2247 112.84 99.4229 112.925 99.5984 113.021L106.567 116.816C106.873 116.98 106.986 117.365 106.822 117.671C106.709 117.881 106.494 118 106.267 118H106.256Z" fill="#020202"/>
<path d="M88.7336 162.085C88.6317 162.085 88.5298 162.062 88.4336 162.005L83.5253 159.338C83.2196 159.173 83.1064 158.788 83.2705 158.483C83.4347 158.177 83.8197 158.063 84.1254 158.228L86.7805 159.672C86.5201 158.828 86.3559 157.769 86.2767 156.483C86.2087 155.334 86.2144 154.167 86.2257 153.221C86.2257 152.649 86.237 152.145 86.2257 151.754C86.2144 151.409 86.4861 151.114 86.8315 151.103C87.1825 151.092 87.4712 151.363 87.4825 151.709C87.4995 152.117 87.4938 152.638 87.4825 153.232C87.4768 154.201 87.4655 155.3 87.5335 156.41C87.6863 158.93 88.1902 160.442 89.028 160.901C89.3337 161.071 89.447 161.45 89.2828 161.756C89.1696 161.966 88.9544 162.085 88.728 162.085H88.7336Z" fill="#020202"/>
<path d="M91.2313 140.014C90.9199 140.014 90.6539 139.787 90.6086 139.47C90.5576 139.124 90.801 138.807 91.1464 138.756C92.8164 138.524 94.5941 133.835 96.1622 129.7C96.3547 129.191 96.5472 128.681 96.7453 128.165C98.6815 123.131 100.821 118.164 103.89 116.85L98.6249 113.984C98.4663 113.978 98.3078 113.984 98.155 114.007C95.1885 114.426 92.8844 119.806 90.9596 124.824C90.7614 125.334 90.5689 125.849 90.3765 126.353C89.0008 129.972 87.7044 133.387 86.2211 135.058C85.989 135.319 85.5927 135.341 85.3323 135.109C85.0719 134.877 85.0492 134.48 85.2813 134.22C86.6117 132.725 87.8685 129.411 89.1989 125.906C89.3914 125.396 89.5895 124.886 89.782 124.371C91.9333 118.775 94.3337 113.27 97.9795 112.761C98.2682 112.721 98.5626 112.71 98.8513 112.732C98.9419 112.738 99.0268 112.766 99.1004 112.806L106.069 116.6C106.33 116.742 106.454 117.048 106.375 117.331C106.29 117.614 106.018 117.807 105.718 117.778C105.52 117.762 105.316 117.767 105.118 117.795C102.152 118.215 99.8477 123.595 97.9229 128.613C97.7247 129.123 97.5322 129.638 97.3398 130.142C95.398 135.251 93.7279 139.663 91.3219 139.997C91.2936 139.997 91.2596 140.002 91.2313 140.002V140.014Z" fill="#020202"/>
<path d="M65.4784 172.812C65.3765 172.812 65.2746 172.789 65.1783 172.732L58.2094 168.943C57.1394 168.36 56.6355 167.273 56.1487 166.214C55.9449 165.766 55.7467 165.347 55.5146 164.968L52.8482 163.518C52.5255 163.342 52.316 163.053 52.2537 162.697C52.0556 161.575 53.3917 159.972 55.6165 157.475C56.5223 156.455 57.8584 154.954 58.0791 154.371C57.9376 154.179 57.9036 153.912 58.0282 153.691C58.1924 153.386 58.5773 153.272 58.883 153.437L65.852 157.231C66.1068 157.367 66.2709 157.599 66.3219 157.883C66.4747 158.743 65.467 159.921 63.5309 162.102C62.4553 163.308 61.0456 164.9 60.6041 165.828L62.1099 166.65C63.2365 167.261 63.78 168.439 64.2612 169.476C64.6858 170.388 65.0821 171.243 65.7841 171.628C66.0898 171.792 66.203 172.177 66.0388 172.483C65.9256 172.693 65.7105 172.812 65.484 172.812H65.4784ZM53.4879 162.436L56.2562 163.943C56.3468 163.993 56.4261 164.061 56.4827 164.146C56.8054 164.628 57.0545 165.166 57.2922 165.687C57.7168 166.599 58.1131 167.454 58.8151 167.839L63.2252 170.235C63.1912 170.161 63.1573 170.082 63.1176 170.008C62.6817 169.068 62.2685 168.173 61.5042 167.76L59.5397 166.689C59.3076 166.565 59.1831 166.31 59.2171 166.049C59.3642 164.956 60.6437 163.444 62.5855 161.264C63.463 160.273 64.7481 158.828 65.0255 158.217L59.1604 155.022C58.7811 155.793 57.8923 156.818 56.5619 158.313C55.4863 159.525 53.5049 161.751 53.4936 162.43L53.4879 162.436Z" fill="#020202"/>
<path d="M44.9683 190.986C44.8664 190.986 44.7645 190.963 44.6682 190.907L37.6992 187.112C34.5573 185.402 35.3159 181.205 36.6066 176.923C36.7085 176.589 37.0595 176.402 37.3935 176.499C37.7276 176.601 37.9144 176.952 37.8181 177.286C36.6859 181.058 35.9556 184.722 38.305 186.002L42.6981 188.392C41.9622 185.775 43.1453 182.043 44.1587 178.86C44.906 176.504 45.6759 174.075 45.2457 173.253C45.0871 172.942 45.206 172.562 45.5117 172.404C45.8174 172.24 46.2024 172.364 46.3609 172.67C47.0346 173.956 46.293 176.289 45.3532 179.245C44.0738 183.272 42.4886 188.284 45.2683 189.797C45.574 189.961 45.6872 190.346 45.5231 190.652C45.4098 190.861 45.1947 190.98 44.9683 190.98V190.986Z" fill="#020202"/>
<path d="M50.1248 160.498C50.0229 160.498 49.921 160.476 49.8247 160.419L42.8614 156.63C41.8594 156.086 40.9536 154.891 42.3463 152.309C42.5104 152.003 42.8954 151.89 43.2011 152.054C43.5068 152.218 43.62 152.603 43.4559 152.909C42.3689 154.931 43.1049 155.333 43.4615 155.526L48.6019 158.323C48.6246 157.729 48.8284 156.998 49.3152 156.103C49.4794 155.797 49.8644 155.684 50.1701 155.848C50.4758 156.013 50.589 156.398 50.4248 156.704C49.3379 158.725 50.0738 159.128 50.4305 159.32C50.7362 159.484 50.8494 159.87 50.6852 160.175C50.572 160.385 50.3569 160.504 50.1304 160.504L50.1248 160.498Z" fill="#020202"/>
<path d="M49.8712 157.027C49.6561 157.027 49.4409 156.913 49.3221 156.709C49.1466 156.409 49.2485 156.024 49.5542 155.849C52.9056 153.912 56.1382 151.726 59.2688 149.613C67.387 144.125 75.0523 138.943 84.8123 137.572C85.3954 137.487 85.9842 137.425 86.5786 137.368L81.7043 134.712C80.4758 134.752 79.236 134.854 78.0245 135.024C68.5193 136.36 61.3522 141.186 53.7661 146.294C50.7487 148.327 47.6237 150.429 44.2666 152.371C43.9665 152.547 43.5816 152.445 43.4061 152.139C43.2306 151.839 43.3325 151.454 43.6382 151.278C46.9613 149.358 50.0637 147.268 53.0641 145.246C60.7747 140.053 68.0607 135.154 77.849 133.778C79.168 133.591 80.5097 133.483 81.8401 133.449C81.9534 133.449 82.0609 133.472 82.1572 133.529L89.1261 137.323C89.3752 137.459 89.5054 137.748 89.4375 138.025C89.3696 138.303 89.1261 138.501 88.8431 138.507C87.558 138.541 86.2615 138.648 84.9934 138.824C75.5222 140.155 67.9758 145.258 59.9821 150.661C56.8345 152.785 53.585 154.988 50.1939 156.947C50.092 157.004 49.9844 157.032 49.8769 157.032L49.8712 157.027Z" fill="#020202"/>
<path d="M40.8351 177.96C40.7332 177.96 40.6313 177.937 40.5351 177.88L33.5718 174.091C31.1601 172.777 29.3655 168.745 30.6336 165.047C30.6676 164.945 30.7298 164.848 30.8147 164.775C35.5419 160.629 39.3575 157.775 42.6071 157.316C44.0394 157.112 45.3641 157.361 46.6605 158.063L53.6238 161.852C53.9295 162.017 54.0428 162.402 53.8786 162.708C53.7144 163.013 53.3294 163.127 53.0237 162.962C51.9594 162.385 50.9234 162.192 49.7515 162.356C46.8417 162.764 43.2411 165.466 38.7461 169.402C37.7497 172.568 39.4764 175.864 41.1408 176.776C41.4465 176.94 41.5597 177.325 41.3956 177.631C41.2823 177.841 41.0672 177.96 40.8408 177.96H40.8351ZM31.7715 165.607C30.7751 168.773 32.5018 172.075 34.1718 172.981L38.0441 175.088C37.1666 173.304 36.8553 171.01 37.6026 168.836C37.6365 168.734 37.6988 168.637 37.7837 168.564C42.5108 164.418 46.3265 161.564 49.576 161.105C49.5874 161.105 49.5987 161.105 49.6043 161.105L46.0548 159.174C44.9905 158.596 43.9488 158.403 42.7826 158.568C39.8727 158.975 36.2722 161.677 31.7715 165.613V165.607Z" fill="#020202"/>
<path d="M173.257 48.7176C172.515 48.7176 171.779 48.4231 171.44 48.2872C171.117 48.1569 170.958 47.7888 171.089 47.466C171.219 47.1431 171.587 46.9845 171.909 47.1148C171.949 47.1318 171.994 47.1488 172.04 47.1658L171.723 46.9959C171.417 46.8316 171.304 46.4465 171.468 46.1407C171.632 45.8348 172.017 45.7216 172.323 45.8858L174.565 47.1035C174.729 47.1941 174.842 47.347 174.882 47.5283C174.921 47.7095 174.876 47.902 174.757 48.0436C174.361 48.5477 173.806 48.7063 173.257 48.7063V48.7176Z" fill="#020202"/>
<path d="M164.549 43.6993C161.141 43.6993 157.897 41.7284 154.897 39.9104C153.963 39.344 153.074 38.806 152.191 38.3246C152.123 38.2906 152.061 38.2566 151.998 38.217C151.698 38.0471 151.585 37.6676 151.755 37.3618C151.919 37.0559 152.299 36.9427 152.604 37.1069C152.666 37.1409 152.729 37.1749 152.791 37.2089C156.505 39.1288 162.172 37.3448 163.174 36.3084C163.666 35.8043 164.023 35.3852 164.278 35.0794C164.782 34.4903 165.087 34.1279 165.597 34.1845C165.676 34.1958 165.755 34.2185 165.829 34.2581L172.798 38.0527C172.968 38.1433 173.087 38.3133 173.12 38.5058C173.154 38.6984 173.092 38.8909 172.962 39.0382C172.928 39.0722 172.192 39.8764 171.252 40.7599C168.965 42.9064 166.723 43.705 164.555 43.705L164.549 43.6993ZM156.346 39.31C161.022 42.1248 165.484 44.4299 170.386 39.8311C170.799 39.4403 171.184 39.0608 171.473 38.7663L165.546 35.5438C165.455 35.64 165.342 35.776 165.24 35.8949C164.968 36.2121 164.6 36.6538 164.074 37.1919C163.072 38.2283 159.698 39.4177 156.341 39.31H156.346Z" fill="#020202"/>
<path d="M130.882 73.5349C130.78 73.5349 130.678 73.5123 130.582 73.4556C130.406 73.3593 130.242 73.2461 130.089 73.1215C129.399 72.6854 128.538 72.2889 127.627 71.8698C124.83 70.5842 121.377 68.9927 121.507 65.1811C120.505 64.241 119.31 62.8534 119.259 61.1374C119.225 59.9423 119.758 58.7756 120.839 57.6599C120.867 57.6316 120.901 57.6033 120.935 57.5806C123.568 55.7796 123.709 53.9276 123.822 52.4381C123.896 51.4753 123.964 50.5691 124.717 49.9858C125.498 49.3798 126.806 49.3005 129.217 49.7196C134.369 48.1451 134.25 41.8359 134.143 36.263C134.075 32.7232 134.018 29.9254 135.343 28.6681C135.818 28.215 136.436 28.0111 137.166 28.0395C139.283 27.6996 142.567 29.6196 145.476 31.3187C146.201 31.7434 146.863 32.1285 147.424 32.4287C147.718 32.559 148.018 32.7062 148.33 32.8761C148.624 33.0404 148.743 33.4029 148.596 33.7087C148.449 34.0145 148.086 34.1448 147.781 34.0145C147.503 33.8956 147.192 33.737 146.852 33.5558C144.848 32.6892 143.359 32.9441 142.017 34.3543C143.235 38.8286 143.314 49.04 139.125 53.214C137.494 54.8395 135.366 55.3265 132.954 54.6299C132.059 54.9414 132.02 55.3888 131.929 56.4819C131.793 58.113 131.584 60.571 127.796 63.5953C126.993 64.9773 128.323 67.1351 129.557 68.2565C129.682 68.3697 129.755 68.5226 129.761 68.6869C129.851 70.3916 130.225 71.5413 130.871 72.1247C131.012 72.2153 131.148 72.3116 131.272 72.4079C131.539 72.6061 131.601 72.9742 131.425 73.2517C131.306 73.4386 131.103 73.5406 130.893 73.5406L130.882 73.5349ZM121.694 58.5887C120.873 59.4439 120.488 60.2652 120.51 61.1034C120.539 62.1398 121.195 63.2046 122.571 64.4562C122.718 64.5865 122.792 64.779 122.775 64.9773C122.509 68.1262 125.379 69.4458 128.147 70.7258C128.38 70.8334 128.612 70.941 128.838 71.0486C128.668 70.4653 128.555 69.7856 128.498 69.0097C127.01 67.5598 125.43 64.8583 126.772 62.8194C126.811 62.7628 126.857 62.7118 126.908 62.6722C130.35 59.9537 130.52 57.8865 130.65 56.3743C130.752 55.168 130.854 53.922 132.744 53.3669C132.863 53.333 132.993 53.333 133.112 53.3669C135.184 54.0126 136.854 53.6671 138.213 52.3192C139.844 50.6994 140.947 47.6184 141.327 43.6539C141.644 40.3237 141.395 36.6821 140.687 34.377C140.625 34.1674 140.67 33.9466 140.812 33.7823C141.734 32.7119 142.759 32.0776 143.903 31.8794C141.565 30.5258 138.762 29.0249 137.313 29.3024C137.256 29.3138 137.205 29.3194 137.149 29.3138C136.605 29.2741 136.351 29.4553 136.203 29.5913C135.281 30.4691 135.337 33.2726 135.394 36.246C135.507 42.0228 135.643 49.2099 129.416 50.9826C129.325 51.0109 129.229 51.0166 129.133 50.9939C127.157 50.6428 125.928 50.6371 125.475 50.9939C125.181 51.2204 125.13 51.7075 125.068 52.5401C124.949 54.1032 124.773 56.4649 121.688 58.5944L121.694 58.5887Z" fill="#020202"/>
<path d="M102.942 148.339C103.474 149.528 103.276 149.041 104.742 148.837C105.467 148.735 108.478 149.488 113.726 145.473C115.017 144.487 115.946 143.44 116.716 143.332C117.485 143.224 118.063 144 118.544 146.521C118.663 146.526 118.771 146.521 118.878 146.509C121.341 146.164 121.324 140.002 123.605 138.75C124.59 139.169 125.479 140.03 126.107 139.945C126.572 139.877 126.572 140.874 127.517 141.639C127.744 141.825 127.812 142.126 128.146 142.08C128.434 142.041 128.932 141.735 129.917 140.863C133.014 136.298 139.066 133.155 135.703 128.975C134.865 121.618 140.685 115.377 138.494 107.816C138.783 106.638 139.411 106.241 140.136 106.139C140.549 106.083 140.985 106.117 141.41 106.156C141.834 106.196 142.242 106.236 142.593 106.185C143.057 106.117 143.414 105.896 143.55 105.295C142.542 99.6092 149.341 96.2167 147.241 90.3606C146.222 86.5943 142.055 78.065 142.185 73.5568C141.398 72.9225 140.515 72.7469 139.655 72.8658C136.264 73.3416 133.286 78.4501 138.353 77.9914C137.702 79.4809 137.271 80.0529 136.937 80.0982C136.496 80.1605 136.241 79.2883 135.907 78.4218C135.573 77.5553 135.165 76.7001 134.424 76.8077C134.163 76.8417 133.869 76.9946 133.518 77.3004C121.046 91.6519 134.769 105.511 111.23 121.046C109.747 121.805 106.961 124.829 105.353 125.056C105.025 125.101 104.742 125.033 104.533 124.795C104.204 122.45 109.39 118.39 105.767 117.161C105.518 117.144 105.269 117.149 105.031 117.183C101.713 117.648 99.3922 123.039 97.3315 128.397C95.2764 133.755 93.4818 139.067 91.2287 139.384C90.4814 139.492 89.6832 139.045 88.8113 137.872C87.4696 137.906 86.1619 138.02 84.8881 138.195C71.4257 140.087 61.6544 149.579 49.8621 156.398C46.3635 162.888 58.1954 159.014 59.8994 161.438C60.1542 162.214 60.4146 162.492 60.6807 162.452C61.5072 162.333 62.3338 159.094 62.9395 158.312C63.8057 157.989 64.4398 157.808 64.8757 157.746C68.8159 157.191 57.0802 166.292 60.4316 166.864C64.4794 166.977 62.9508 173.071 67.4062 172.448C67.8591 172.386 68.38 172.25 68.9744 172.029C69.1782 167.011 71.0407 164.689 73.7185 164.31C75.23 164.095 77.0077 164.502 78.8929 165.397C81.8367 160.13 85.3806 155.129 76.6057 154.115C71.8843 156.556 69.6424 157.553 69.065 157.638C67.7912 157.819 74.6073 153.538 80.8573 150.355C81.3328 150.021 81.7122 149.851 82.0122 149.805C83.0765 149.658 83.1671 151.108 83.1218 152.575C83.0765 154.047 82.8897 155.537 83.3879 155.469C83.7219 155.424 84.3616 154.682 85.5561 152.779C86.1109 151.425 86.4336 150.853 86.6148 150.825C87.045 150.763 86.7337 153.64 86.9035 156.443C87.0733 159.252 87.7187 161.988 90.0625 161.659C91.925 161.399 94.8632 159.196 99.4771 153.549C101.764 152.467 101.877 152.286 102.047 150.87C102.211 149.488 102.019 149.318 101.521 148.712C101.085 148.18 102.795 148.016 102.936 148.333L102.942 148.339ZM103.559 146.815C103.531 146.73 103.542 146.69 103.559 146.69C103.576 146.69 103.593 146.736 103.559 146.815Z" fill="white"/>
<path d="M49.6597 161.733C46.7385 162.146 43.2568 164.604 38.1957 169.039C36.7125 173.355 39.8488 177.97 42.2435 177.636C43.4833 177.461 44.525 175.954 44.6155 172.38C49.722 172.273 38.4108 187.944 45.5043 190.595C45.6402 190.629 45.7761 190.634 45.9006 190.617C46.7045 190.504 47.3159 189.422 47.7292 188.374C48.1425 187.321 48.3633 186.296 48.3803 186.296C48.3972 186.296 48.2217 187.219 47.8651 189.938C48.1425 191.025 48.635 191.444 49.2634 191.353C52.8866 190.844 61.0954 173.468 59.3121 168.903C55.7625 163.596 53.1017 161.246 49.6597 161.727V161.733Z" fill="white"/>
<path d="M174.263 47.6576C173.776 47.9634 173.374 48.1276 173.046 48.1729C171.495 48.3882 171.585 45.9585 171.942 43.4948C172.299 41.0255 172.916 38.5222 172.429 38.5902C172.236 38.6185 171.863 39.0603 171.223 40.0854C169.377 41.8411 167.566 42.7133 165.794 42.9625C161.639 43.5458 157.704 40.714 154.075 37.8426C150.441 34.9655 147.112 32.0488 144.174 32.4622C143.172 32.6038 142.215 33.1305 141.303 34.1839C143.008 39.1056 142.289 53.3098 136.225 54.1593C135.569 54.2499 134.85 54.1877 134.068 53.9385C133.627 53.9101 133.253 53.9158 132.942 53.9611C129.573 54.4368 133.412 59.0243 128.26 61.8958C125.514 64.7106 127.337 67.0893 129.126 68.7147C129.324 72.4243 130.813 73.4381 132.744 73.1663C134.652 72.9001 136.99 71.3766 138.931 69.9833C140.754 67.0553 134.012 68.0691 133.061 66.0132C132.585 65.1014 133.944 64.0649 135.076 63.9063C135.682 63.8214 136.22 63.9856 136.39 64.552C138.246 63.0738 139.996 62.3602 141.637 62.1336C144.372 61.7485 146.801 62.7113 148.907 63.7138C151.012 64.7219 152.801 65.7697 154.262 65.5658C154.715 65.5035 155.134 65.3222 155.519 64.9768C155.089 52.0978 176.228 57.2573 174.269 47.6689L174.263 47.6576Z" fill="white"/>
<path d="M66.7993 173.123C64.5575 173.123 63.7649 171.412 63.1138 170.008C62.4062 168.479 61.891 167.533 60.4248 167.493C60.3965 167.493 60.3625 167.493 60.3342 167.482C59.6095 167.357 59.3548 166.927 59.2642 166.678C58.9585 165.8 59.7001 164.633 61.0928 162.968C60.9909 163.019 60.8833 163.053 60.7644 163.07C59.8926 163.2 59.4907 162.198 59.3321 161.733C58.7887 161.139 56.6883 161.127 54.99 161.11C52.4707 161.093 50.093 161.076 49.057 159.796C48.6211 159.264 48.4852 158.579 48.6494 157.763C48.8532 156.761 49.5156 155.86 50.4723 155.294C53.4841 153.498 56.4166 151.516 59.2529 149.602C67.3711 144.114 75.0364 138.932 84.7963 137.561C86.1154 137.374 87.4571 137.267 88.7875 137.233C88.9913 137.238 89.1894 137.323 89.3083 137.487C89.9877 138.399 90.6048 138.824 91.1312 138.75C92.8013 138.518 94.5789 133.829 96.1471 129.694C96.3396 129.185 96.5321 128.675 96.7302 128.16C98.8815 122.564 101.282 117.059 104.928 116.549C105.216 116.51 105.511 116.498 105.799 116.521C105.85 116.521 105.901 116.538 105.952 116.555C106.79 116.838 107.328 117.297 107.554 117.914C107.99 119.104 107.141 120.519 106.32 121.884C105.794 122.757 105.211 123.736 105.137 124.427C105.165 124.427 105.205 124.427 105.245 124.422C106.043 124.308 107.458 123.136 108.602 122.19C109.451 121.488 110.255 120.825 110.895 120.485C124.431 111.543 125.41 103.093 126.355 94.9201C127.035 89.0356 127.742 82.9586 133.024 76.876C133.041 76.8533 133.064 76.8363 133.087 76.8137C133.517 76.4399 133.919 76.2303 134.321 76.1737C134.587 76.134 134.819 76.168 135.028 76.2416C135.306 74.4916 137.429 72.532 139.552 72.2318C140.661 72.0733 141.703 72.3621 142.563 73.0587C142.716 73.1833 142.801 73.3702 142.796 73.5684C142.711 76.4908 144.579 81.3558 146.085 85.2694C146.843 87.2403 147.494 88.9394 147.834 90.191C149.029 93.5269 147.54 96.1151 146.096 98.6241C144.879 100.742 143.724 102.741 144.154 105.182C144.171 105.267 144.166 105.352 144.149 105.432C144.024 105.981 143.662 106.666 142.66 106.802C142.252 106.859 141.811 106.819 141.38 106.78C140.91 106.734 140.531 106.706 140.203 106.751C139.784 106.808 139.371 106.983 139.127 107.799C140.299 112.041 139.071 115.881 137.887 119.596C136.908 122.672 135.979 125.577 136.291 128.715C138.821 132.039 136.132 134.854 133.528 137.578C132.436 138.722 131.303 139.912 130.42 141.203C130.392 141.248 130.358 141.288 130.318 141.322C129.118 142.381 128.609 142.636 128.212 142.692C127.601 142.777 125.908 141.237 125.897 141.22C125.659 140.965 125.676 140.563 125.931 140.331C126.18 140.098 126.565 140.104 126.803 140.348C126.972 140.501 127.793 141.146 128.173 141.39C128.348 141.299 128.71 141.056 129.424 140.433C130.352 139.079 131.501 137.878 132.617 136.712C135.561 133.631 137.134 131.767 135.193 129.36C135.119 129.27 135.068 129.156 135.057 129.037C134.66 125.566 135.691 122.337 136.687 119.217C137.882 115.468 139.014 111.928 137.87 107.98C137.842 107.873 137.836 107.759 137.865 107.652C138.176 106.383 138.901 105.658 140.027 105.5C140.491 105.432 140.944 105.466 141.448 105.517C141.867 105.556 142.218 105.585 142.484 105.551C142.699 105.522 142.813 105.466 142.886 105.25C142.439 102.424 143.741 100.165 144.998 97.9841C146.357 95.6224 147.642 93.3909 146.628 90.5591C146.289 89.3245 145.649 87.6481 144.907 85.7168C143.418 81.8429 141.578 77.0459 141.533 73.8629C140.995 73.5118 140.39 73.3872 139.722 73.4778C137.814 73.744 136.144 75.7206 136.257 76.7117C136.342 77.448 137.695 77.4027 138.272 77.3517C138.493 77.3347 138.708 77.431 138.838 77.6122C138.969 77.7935 138.997 78.0313 138.906 78.2352C138.159 79.9513 137.644 80.6252 137.004 80.7159C136.115 80.8405 135.764 79.889 135.419 78.9715L135.294 78.643C135.176 78.3315 134.802 77.38 134.485 77.4253C134.406 77.4367 134.23 77.4933 133.936 77.7425C128.931 83.5193 128.286 89.1263 127.595 95.073C126.616 103.54 125.602 112.296 111.546 121.567C111.529 121.579 111.506 121.59 111.483 121.601C110.963 121.867 110.198 122.502 109.389 123.17C107.996 124.32 106.558 125.515 105.403 125.673C104.701 125.775 104.265 125.481 104.028 125.215C103.943 125.118 103.886 125.005 103.869 124.88C103.71 123.753 104.48 122.479 105.216 121.244C105.85 120.185 106.575 118.979 106.349 118.356C106.264 118.129 106.015 117.937 105.601 117.784C105.426 117.773 105.25 117.784 105.081 117.807C102.114 118.226 99.8099 123.606 97.8851 128.624C97.6869 129.134 97.4945 129.649 97.302 130.153C95.3602 135.262 93.6901 139.674 91.2841 140.008C90.3217 140.144 89.3989 139.651 88.4761 138.513C87.2929 138.552 86.1097 138.66 84.9435 138.818C75.4723 140.149 67.9259 145.252 59.9322 150.655C57.0846 152.581 54.1351 154.574 51.0894 156.387C50.4384 156.772 49.9911 157.367 49.8609 158.024C49.742 158.601 49.8892 158.862 50.0081 159.009C50.6705 159.825 52.9519 159.842 54.973 159.853C57.43 159.87 59.5529 159.887 60.3851 161.065C60.4191 161.116 60.4474 161.173 60.47 161.229C60.538 161.433 60.5946 161.575 60.6455 161.671C60.9343 161.258 61.3249 160.289 61.5513 159.723C61.8627 158.952 62.1288 158.284 62.4175 157.916C62.4911 157.825 62.5873 157.752 62.6949 157.712C63.5894 157.378 64.2631 157.18 64.7669 157.112C65.4859 157.01 65.9671 157.174 66.1935 157.599C66.6634 158.477 65.6501 159.677 63.4931 162.101C62.4232 163.308 60.4474 165.522 60.4248 166.213C60.4361 166.213 60.4531 166.224 60.4757 166.224C62.7628 166.315 63.5724 168.059 64.2234 169.464C64.9934 171.129 65.5199 172.058 67.2918 171.809C67.6089 171.763 67.9599 171.678 68.3392 171.56C68.7015 165.618 71.3849 163.987 73.6041 163.676C75.059 163.472 76.7404 163.772 78.5973 164.576C78.7785 164.259 78.9596 163.942 79.1408 163.631C80.658 161.003 82.0846 158.522 81.343 157.049C80.8505 156.07 79.3163 155.413 76.7914 155.096C76.4743 155.265 76.0837 155.475 75.6478 155.713C72.9644 157.18 70.6489 158.397 69.4771 158.471C69.1317 158.494 68.8317 158.227 68.809 157.882C68.7864 157.537 69.0525 157.236 69.3978 157.214C70.3885 157.151 73.2984 155.56 75.042 154.608C75.5685 154.32 76.0271 154.07 76.3781 153.889C76.4913 153.833 76.6159 153.81 76.7404 153.821C79.922 154.189 81.7393 155.039 82.4696 156.483C83.5169 158.567 81.9204 161.331 80.2277 164.265C79.956 164.735 79.6786 165.216 79.4069 165.698C79.2427 165.987 78.886 166.1 78.586 165.958C76.7404 165.08 75.1156 164.735 73.7739 164.922C70.5244 165.381 69.6978 169.045 69.5733 172.041C69.562 172.296 69.3978 172.517 69.16 172.607C68.543 172.834 67.9712 172.987 67.4617 173.055C67.2126 173.089 66.9805 173.106 66.7597 173.106L66.7993 173.123ZM63.3573 158.833C63.1874 159.134 62.961 159.694 62.7572 160.198C62.4741 160.906 62.225 161.501 61.9703 161.96C62.1684 161.739 62.3722 161.507 62.5817 161.269C63.3969 160.357 64.5575 159.049 64.9424 158.375C64.5744 158.431 64.0366 158.584 63.3573 158.833ZM136.631 78.5184V78.5354C136.727 78.7733 136.846 79.1017 136.953 79.317C137.049 79.1924 137.18 78.9828 137.361 78.6373C137.083 78.6203 136.846 78.5807 136.631 78.5241V78.5184ZM89.6933 162.322C89.0649 162.322 88.5044 162.124 88.0289 161.739C86.9986 160.895 86.4438 159.224 86.2796 156.483C86.2116 155.333 86.2173 154.167 86.2286 153.227C86.2286 153.091 86.2286 152.955 86.2286 152.813C86.2003 152.881 86.172 152.949 86.1437 153.023C86.1324 153.057 86.1154 153.085 86.0928 153.119C84.5869 155.526 84.0094 156.024 83.4829 156.098C83.2338 156.132 82.9904 156.058 82.8092 155.888C82.362 155.475 82.4016 154.682 82.4639 153.362C82.4752 153.102 82.4922 152.83 82.4979 152.558C82.5488 150.972 82.3563 150.553 82.2318 150.446C82.2205 150.44 82.2035 150.417 82.1073 150.434C81.9884 150.451 81.711 150.531 81.2241 150.876C81.2015 150.893 81.1731 150.91 81.1448 150.921C78.6596 152.184 72.5907 155.549 70.5074 156.789C70.2074 156.965 69.8224 156.868 69.6412 156.568C69.4657 156.268 69.562 155.883 69.862 155.702C71.951 154.461 78.0085 151.103 80.5334 149.811C81.0599 149.443 81.5185 149.239 81.9261 149.183C82.4866 149.103 82.8545 149.319 83.0697 149.506C83.6981 150.072 83.8 151.154 83.749 152.598C83.7377 152.875 83.7264 153.153 83.715 153.425C83.6981 153.731 83.6811 154.093 83.6811 154.399C83.9528 154.059 84.3661 153.481 84.9888 152.49C85.7587 150.627 86.0588 150.27 86.523 150.202C86.7325 150.174 86.9419 150.236 87.1005 150.378C87.4854 150.712 87.4967 151.29 87.4798 153.238C87.4741 154.206 87.4628 155.305 87.5307 156.409C87.6666 158.709 88.1025 160.176 88.8215 160.759C89.1328 161.014 89.5008 161.105 89.9764 161.037C91.3011 160.85 93.9392 159.332 98.9947 153.153C99.0513 153.079 99.1306 153.023 99.2155 152.983C102.097 151.618 101.718 150.536 101.491 149.891C101.378 149.562 101.548 149.2 101.876 149.086C102.205 148.973 102.567 149.143 102.68 149.472C103.337 151.352 102.448 152.813 99.8778 154.059C95.598 159.275 92.4163 161.965 90.1519 162.283C89.9933 162.305 89.8405 162.317 89.6876 162.317L89.6933 162.322ZM104.237 149.5C103.343 149.5 102.51 149.205 101.854 148.65C101.588 148.424 101.554 148.027 101.78 147.761C102.006 147.495 102.403 147.461 102.669 147.688C103.195 148.135 103.886 148.316 104.656 148.209C104.882 148.175 105.165 148.175 105.528 148.169C106.4 148.158 107.724 148.141 108.777 147.631C110.493 146.798 112.134 145.972 113.335 144.986C113.612 144.754 113.878 144.527 114.133 144.306C115.095 143.474 115.859 142.817 116.641 142.704C118.056 142.5 118.673 144.069 119.058 145.807C119.828 145.45 120.304 144.018 120.773 142.624C121.34 140.942 121.917 139.198 123.213 138.49C123.383 138.399 123.587 138.388 123.763 138.462C124.193 138.643 124.595 138.898 124.946 139.119C125.127 139.232 125.297 139.339 125.461 139.43C125.767 139.6 125.874 139.979 125.71 140.285C125.54 140.591 125.161 140.699 124.855 140.534C124.674 140.433 124.482 140.314 124.283 140.189C124.051 140.042 123.814 139.895 123.576 139.77C122.862 140.37 122.415 141.718 121.979 143.026C121.345 144.929 120.683 146.895 118.996 147.133C118.849 147.155 118.69 147.161 118.532 147.15C118.243 147.133 118.005 146.923 117.954 146.64C117.462 144.069 116.969 143.944 116.833 143.955C116.42 144.012 115.718 144.618 114.976 145.264C114.716 145.484 114.444 145.722 114.161 145.96C112.859 147.036 111.144 147.903 109.355 148.769C108.047 149.398 106.558 149.421 105.573 149.432C105.273 149.432 105.013 149.438 104.865 149.46C104.667 149.489 104.463 149.5 104.271 149.5H104.237Z" fill="#020202"/>
<path d="M49.1022 192C48.5474 192 47.7718 191.728 47.3416 190.391C46.9339 190.895 46.4811 191.173 45.9942 191.241C45.7791 191.269 45.5639 191.258 45.3545 191.201C45.3318 191.201 45.3092 191.19 45.2922 191.179C40.7859 189.497 42.6597 183.595 44.1599 178.855C44.8959 176.538 45.7281 173.91 45.2129 173.191C44.9242 177.258 43.3108 178.113 42.337 178.249C41.2388 178.407 40.0273 177.79 39.0196 176.567C37.6948 174.958 36.523 171.962 37.6042 168.824C37.6382 168.723 37.7005 168.626 37.7854 168.553C42.5125 164.407 46.3282 161.552 49.5777 161.094C53.5972 160.527 56.4844 163.523 59.8415 168.541C59.8642 168.581 59.8868 168.621 59.9038 168.66C61.2795 172.177 57.5657 181.25 54.6276 186.28C53.1896 188.738 51.1119 191.711 49.357 191.96C49.2834 191.972 49.1984 191.977 49.1079 191.977L49.1022 192ZM48.5078 189.899C48.7625 190.793 49.0739 190.748 49.1758 190.731C49.9118 190.629 51.4403 189.242 53.5349 185.662C56.8128 180.055 59.7396 171.956 58.7489 169.198C55.1314 163.801 52.6858 161.943 49.7532 162.357C46.8434 162.764 43.2428 165.466 38.7478 169.402C37.9836 171.832 38.8101 174.341 39.9933 175.779C40.7066 176.64 41.5105 177.099 42.1615 177.014C43.2372 176.861 43.9222 175.128 43.9901 172.37C44.0014 172.036 44.2675 171.764 44.6072 171.753C45.5017 171.724 45.9715 172.115 46.215 172.438C47.1321 173.661 46.3508 176.13 45.3601 179.251C43.6618 184.609 42.6088 188.806 45.6941 189.995C45.7394 190.006 45.7791 190.006 45.8187 189.995C45.9659 189.972 46.498 189.78 47.1491 188.143C47.4491 187.384 47.6473 186.625 47.7265 186.302C47.7831 186.087 47.8737 185.73 48.2926 185.668C48.4908 185.64 48.6946 185.708 48.8361 185.849C49.0626 186.081 49.0343 186.268 48.9607 186.727C48.8871 187.191 48.7399 188.166 48.5078 189.893V189.899Z" fill="#020202"/>
<path d="M132.168 73.8353C131.365 73.8353 130.674 73.6031 130.113 73.1387C129.174 72.3684 128.647 71.0092 128.506 69.0043C127.498 68.0641 126.275 66.6652 126.224 64.9322C126.19 63.7372 126.722 62.5705 127.804 61.4547C127.849 61.4094 127.894 61.3755 127.951 61.3415C130.476 59.9369 130.578 58.1302 130.663 56.5388C130.736 55.1738 130.821 53.622 132.853 53.3389C133.216 53.2879 133.623 53.2822 134.11 53.3105C134.161 53.3105 134.212 53.3219 134.257 53.3389C134.925 53.5484 135.56 53.6164 136.137 53.5371C137.315 53.3728 138.339 52.5856 139.188 51.198C141.866 46.8201 141.957 37.9849 140.711 34.3942C140.638 34.179 140.683 33.9468 140.83 33.7769C141.793 32.6612 142.891 32.0155 144.091 31.8456C147.052 31.4265 150.205 33.9524 153.551 36.62L154.474 37.3563C158.04 40.1824 161.85 42.8896 165.711 42.3459C167.455 42.1023 169.102 41.2301 170.738 39.6896C171.605 38.3134 171.961 38.0302 172.352 37.9736C172.59 37.9396 172.822 38.0189 172.992 38.1888C173.399 38.6079 173.297 39.3328 172.907 41.57C172.793 42.2099 172.675 42.9009 172.578 43.5918C172.165 46.4803 172.459 47.2732 172.68 47.494C172.714 47.528 172.771 47.5847 172.975 47.5563C173.144 47.5337 173.45 47.4374 173.943 47.1316C174.118 47.0183 174.339 47.0013 174.526 47.0863C174.718 47.1656 174.854 47.3355 174.894 47.5394C175.93 52.6026 171.169 54.0355 166.566 55.4117C161.341 56.9805 155.94 58.6003 156.149 64.9492C156.155 65.1361 156.076 65.3173 155.934 65.4476C155.47 65.8553 154.938 66.0989 154.349 66.1838C152.923 66.3877 151.377 65.6231 149.582 64.7396C149.277 64.5867 148.96 64.4338 148.637 64.2809C146.537 63.2784 144.244 62.4006 141.73 62.7574C140.043 62.9952 138.43 63.7428 136.788 65.0455C136.624 65.1757 136.403 65.2154 136.205 65.1531C136.007 65.0908 135.848 64.9322 135.792 64.7283C135.741 64.5471 135.531 64.4791 135.175 64.5301C134.563 64.615 133.867 65.0398 133.652 65.4532C133.567 65.6118 133.606 65.6854 133.629 65.7251C133.918 66.3481 135.333 66.6539 136.477 66.9031C137.949 67.2259 139.341 67.5261 139.766 68.5285C139.987 69.0553 139.89 69.6556 139.477 70.3239C139.432 70.3919 139.375 70.4542 139.307 70.5051C137.264 71.972 134.892 73.5125 132.842 73.8013C132.616 73.8353 132.401 73.8466 132.191 73.8466L132.168 73.8353ZM128.647 62.4006C127.843 63.2501 127.458 64.0657 127.487 64.8925C127.521 65.929 128.172 66.9937 129.547 68.2454C129.672 68.3586 129.745 68.5116 129.751 68.6758C129.847 70.4315 130.238 71.6039 130.917 72.1646C131.348 72.5157 131.914 72.6403 132.65 72.5384C134.405 72.2892 136.658 70.8223 138.452 69.5423C138.583 69.3045 138.634 69.1119 138.594 69.01C138.424 68.6135 137.139 68.3303 136.199 68.1264C134.637 67.7866 133.023 67.4355 132.491 66.2688C132.276 65.8497 132.282 65.3456 132.525 64.8642C132.978 63.9807 134.11 63.3974 134.993 63.2728C135.627 63.1821 136.165 63.3181 136.539 63.6409C138.169 62.4572 139.851 61.7379 141.549 61.5001C144.397 61.0979 146.899 62.0494 149.175 63.1368C149.503 63.2954 149.82 63.4483 150.137 63.6069C151.739 64.3998 153.132 65.0794 154.174 64.9322C154.434 64.8982 154.666 64.8076 154.881 64.666C154.836 57.6148 161.131 55.7232 166.198 54.2054C170.908 52.7895 173.909 51.7191 173.761 48.6381C173.546 48.723 173.337 48.7797 173.144 48.808C172.459 48.9043 172.024 48.6324 171.78 48.3889C171.061 47.6696 170.925 46.1858 171.327 43.4163C171.429 42.714 171.548 42.006 171.661 41.3604C171.718 41.0262 171.78 40.6638 171.837 40.3183C171.814 40.3579 171.791 40.3919 171.763 40.4316C171.735 40.4769 171.701 40.5165 171.661 40.5562C169.833 42.2949 167.891 43.3143 165.881 43.5975C161.522 44.2148 157.463 41.3377 153.687 38.3474L152.758 37.6111C149.633 35.1191 146.684 32.7574 144.261 33.1029C143.451 33.2162 142.715 33.624 142.013 34.3546C143.242 38.438 143.072 47.2618 140.258 51.872C139.205 53.5937 137.875 54.5848 136.307 54.8001C135.56 54.9077 134.767 54.8284 133.946 54.5792C133.584 54.5565 133.278 54.5622 133.023 54.6018C132.112 54.7321 132.004 55.1002 131.919 56.6181C131.829 58.3285 131.699 60.6675 128.647 62.4119V62.4006Z" fill="#020202"/>
<path d="M110.003 132.391C81.6571 132.391 54.9984 129.961 34.935 125.555C20.3686 122.355 3 116.703 3 107.947C3 99.191 20.363 93.5388 34.935 90.3389C54.9984 85.9326 81.6571 83.5029 110.003 83.5029C111.554 83.5029 113.1 83.5086 114.634 83.5256C115.296 83.5312 115.834 84.075 115.828 84.7433C115.823 85.4059 115.285 85.9439 114.611 85.9383C113.083 85.9213 111.548 85.9156 110.003 85.9156C47.435 85.9156 5.41168 97.3107 5.41168 107.953C5.41168 118.594 47.4406 129.99 110.003 129.99C172.565 129.99 214.594 118.594 214.594 107.953C214.594 101.077 195.855 92.2475 153.996 88.0225C153.334 87.9545 152.853 87.3655 152.921 86.7028C152.989 86.0402 153.577 85.5588 154.24 85.6268C184.578 88.6908 217 96.161 217 107.953C217 116.708 199.637 122.361 185.065 125.561C165.002 129.967 138.343 132.397 109.997 132.397L110.003 132.391Z" fill="#020202"/>
<path fill-rule="evenodd" clip-rule="evenodd" d="M179.449 109.379L179.466 68.7261C179.466 67.8539 180.174 67.1516 181.046 67.1573L203.713 67.2535C204.579 67.2535 205.276 67.9615 205.276 68.8224L205.259 109.475C205.259 110.348 204.551 111.05 203.679 111.044L181.012 110.948C180.146 110.948 179.449 110.24 179.449 109.379Z" fill="white"/>
<path d="M205.259 111.696C204.903 111.696 204.619 111.407 204.619 111.056L204.636 68.8227C204.636 68.3129 204.223 67.8938 203.714 67.8938L181.776 67.8032C181.42 67.8032 181.137 67.5144 181.137 67.1576C181.137 66.8064 181.425 66.5176 181.776 66.5176L203.714 66.6082C204.931 66.6082 205.916 67.605 205.916 68.8227L205.899 111.05C205.899 111.407 205.61 111.69 205.259 111.69V111.696Z" fill="#020202"/>
<path d="M203.22 111.691L181.011 111.6C179.794 111.6 178.809 110.603 178.809 109.386L178.826 67.8206C178.826 67.4638 179.114 67.1807 179.465 67.1807C179.822 67.1807 180.105 67.4695 180.105 67.8206L180.088 109.386C180.088 109.895 180.501 110.314 181.011 110.314L203.22 110.405C203.576 110.405 203.86 110.694 203.86 111.051C203.86 111.402 203.571 111.691 203.22 111.691Z" fill="#020202"/>
<path d="M197.06 111.685C196.703 111.685 196.42 111.396 196.42 111.039L196.431 103.354L188.234 103.291L188.217 110.971C188.217 111.328 187.928 111.611 187.577 111.611C187.221 111.611 186.938 111.322 186.938 110.965L186.954 102.64C186.954 102.47 187.022 102.306 187.147 102.187C187.266 102.068 187.43 102.017 187.606 102L197.088 102.074C197.439 102.074 197.728 102.362 197.722 102.719L197.705 111.045C197.705 111.402 197.416 111.685 197.065 111.685H197.06Z" fill="#020202"/>
<path d="M198.715 75.4496L198.726 71.9042C198.726 71.6153 198.919 71.3831 199.156 71.3888L201.33 71.4001C201.568 71.4001 201.761 71.6323 201.761 71.9212L201.749 75.4665C201.749 75.7554 201.557 75.9876 201.319 75.9819L199.145 75.9706C198.907 75.9706 198.715 75.7384 198.715 75.4496Z" fill="#8D8D8D"/>
<path d="M193.453 75.4261L193.464 71.8807C193.464 71.5919 193.657 71.3597 193.895 71.3653L196.069 71.3767C196.306 71.3767 196.499 71.6089 196.499 71.8977L196.488 75.4431C196.488 75.7319 196.295 75.9642 196.057 75.9585L193.883 75.9472C193.646 75.9472 193.453 75.715 193.453 75.4261Z" fill="#8D8D8D"/>
<path d="M188.199 75.3978L188.211 71.8524C188.211 71.5636 188.403 71.3314 188.641 71.337L190.815 71.3483C191.052 71.3483 191.245 71.5806 191.245 71.8694L191.234 75.4148C191.234 75.7036 191.041 75.9358 190.803 75.9302L188.629 75.9188C188.392 75.9188 188.199 75.6866 188.199 75.3978Z" fill="#8D8D8D"/>
<path d="M182.945 75.3695L182.957 71.8241C182.957 71.5352 183.149 71.303 183.387 71.3087L185.561 71.32C185.799 71.32 185.991 71.5522 185.991 71.8411L185.98 75.3865C185.98 75.6753 185.787 75.9075 185.549 75.9019L183.376 75.8905C183.138 75.8905 182.945 75.6583 182.945 75.3695Z" fill="#8D8D8D"/>
<path d="M198.68 82.3246L198.691 78.7792C198.691 78.4903 198.883 78.2581 199.121 78.2638L201.295 78.2751C201.533 78.2751 201.725 78.5073 201.725 78.7962L201.714 82.3415C201.714 82.6304 201.522 82.8626 201.284 82.8569L199.11 82.8456C198.872 82.8456 198.68 82.6134 198.68 82.3246Z" fill="#8D8D8D"/>
<path d="M193.422 82.2962L193.433 78.7508C193.433 78.462 193.626 78.2298 193.863 78.2355L196.037 78.2468C196.275 78.2468 196.468 78.479 196.468 78.7678L196.456 82.3132C196.456 82.6021 196.264 82.8343 196.026 82.8286L193.852 82.8173C193.614 82.8173 193.422 82.5851 193.422 82.2962Z" fill="#8D8D8D"/>
<path d="M188.168 82.2679L188.179 78.7225C188.179 78.4337 188.372 78.2015 188.61 78.2071L190.783 78.2185C191.021 78.2185 191.214 78.4507 191.214 78.7395L191.202 82.2849C191.202 82.5737 191.01 82.806 190.772 82.8003L188.598 82.789C188.36 82.789 188.168 82.5568 188.168 82.2679Z" fill="#8D8D8D"/>
<path d="M182.906 82.2455L182.918 78.7001C182.918 78.4112 183.11 78.179 183.348 78.1847L185.522 78.196C185.76 78.196 185.952 78.4282 185.952 78.717L185.941 82.2624C185.941 82.5513 185.748 82.7835 185.51 82.7778L183.336 82.7665C183.099 82.7665 182.906 82.5343 182.906 82.2455Z" fill="#8D8D8D"/>
<path d="M198.68 88.8431L198.691 85.2977C198.691 85.0089 198.883 84.7767 199.121 84.7823L201.295 84.7937C201.533 84.7937 201.725 85.0259 201.725 85.3147L201.714 88.8601C201.714 89.1489 201.522 89.3811 201.284 89.3755L199.11 89.3642C198.872 89.3642 198.68 89.1319 198.68 88.8431Z" fill="#8D8D8D"/>
<path d="M193.422 88.8206L193.433 85.2752C193.433 84.9864 193.626 84.7542 193.863 84.7599L196.037 84.7712C196.275 84.7712 196.468 85.0034 196.468 85.2922L196.456 88.8376C196.456 89.1265 196.264 89.3587 196.026 89.353L193.852 89.3417C193.614 89.3417 193.422 89.1095 193.422 88.8206Z" fill="#8D8D8D"/>
<path d="M188.168 88.7923L188.179 85.2469C188.179 84.9581 188.372 84.7259 188.61 84.7315L190.783 84.7429C191.021 84.7429 191.214 84.9751 191.214 85.2639L191.202 88.8093C191.202 89.0982 191.01 89.3304 190.772 89.3247L188.598 89.3134C188.36 89.3134 188.168 89.0812 188.168 88.7923Z" fill="#8D8D8D"/>
<path d="M182.906 88.764L182.918 85.2186C182.918 84.9298 183.11 84.6976 183.348 84.7032L185.522 84.7146C185.76 84.7146 185.952 84.9468 185.952 85.2356L185.941 88.781C185.941 89.0698 185.748 89.302 185.51 89.2964L183.336 89.2851C183.099 89.2851 182.906 89.0528 182.906 88.764Z" fill="#8D8D8D"/>
<path d="M198.68 95.0619L198.691 91.5165C198.691 91.2276 198.883 90.9954 199.121 91.0011L201.295 91.0124C201.533 91.0124 201.725 91.2446 201.725 91.5335L201.714 95.0789C201.714 95.3677 201.522 95.5999 201.284 95.5942L199.11 95.5829C198.872 95.5829 198.68 95.3507 198.68 95.0619Z" fill="#8D8D8D"/>
<path d="M193.422 95.0394L193.433 91.494C193.433 91.2052 193.626 90.973 193.863 90.9786L196.037 90.9899C196.275 90.9899 196.468 91.2222 196.468 91.511L196.456 95.0564C196.456 95.3452 196.264 95.5774 196.026 95.5718L193.852 95.5604C193.614 95.5604 193.422 95.3282 193.422 95.0394Z" fill="#8D8D8D"/>
<path d="M188.168 95.0111L188.179 91.4657C188.179 91.1768 188.372 90.9446 188.61 90.9503L190.783 90.9616C191.021 90.9616 191.214 91.1938 191.214 91.4827L191.202 95.0281C191.202 95.3169 191.01 95.5491 190.772 95.5435L188.598 95.5321C188.36 95.5321 188.168 95.2999 188.168 95.0111Z" fill="#8D8D8D"/>
<path d="M182.906 94.9828L182.918 91.4374C182.918 91.1485 183.11 90.9163 183.348 90.922L185.522 90.9333C185.76 90.9333 185.952 91.1655 185.952 91.4544L185.941 94.9997C185.941 95.2886 185.748 95.5208 185.51 95.5151L183.336 95.5038C183.099 95.5038 182.906 95.2716 182.906 94.9828Z" fill="#8D8D8D"/>
<path d="M192.362 109.787C192.006 109.787 191.723 109.499 191.723 109.147V102.895C191.723 102.538 192.011 102.255 192.362 102.255C192.713 102.255 193.002 102.544 193.002 102.895V109.147C193.002 109.504 192.713 109.787 192.362 109.787Z" fill="#020202"/>
<path fill-rule="evenodd" clip-rule="evenodd" d="M148.965 151.517L148.982 110.864C148.982 109.992 149.689 109.289 150.561 109.295L173.229 109.391C174.095 109.391 174.791 110.099 174.791 110.96L174.774 151.613C174.774 152.485 174.067 153.188 173.195 153.182L150.527 153.086C149.661 153.086 148.965 152.378 148.965 151.517Z" fill="white"/>
<path d="M174.767 153.833C174.41 153.833 174.127 153.544 174.127 153.193L174.144 110.965C174.144 110.456 173.731 110.036 173.222 110.036L151.284 109.946C150.928 109.946 150.645 109.657 150.645 109.3C150.645 108.949 150.933 108.66 151.284 108.66L173.222 108.751C174.439 108.751 175.424 109.748 175.424 110.965L175.407 153.193C175.407 153.55 175.118 153.833 174.767 153.833Z" fill="#B81C22"/>
<path d="M172.735 153.822L150.526 153.731C149.309 153.731 148.324 152.734 148.324 151.516L148.341 109.952C148.341 109.595 148.63 109.312 148.981 109.312C149.338 109.312 149.621 109.6 149.621 109.952L149.604 151.516C149.604 152.026 150.017 152.445 150.526 152.445L172.735 152.536C173.092 152.536 173.375 152.825 173.375 153.182C173.375 153.533 173.086 153.822 172.735 153.822Z" fill="#B81C22"/>
<path d="M166.57 153.821C166.213 153.821 165.93 153.533 165.93 153.176L165.947 145.49L157.75 145.428L157.733 153.108C157.733 153.465 157.444 153.748 157.093 153.748C156.736 153.748 156.453 153.459 156.453 153.102L156.47 144.777C156.47 144.607 156.538 144.443 156.663 144.324C156.781 144.205 156.968 144.148 157.121 144.137L166.604 144.21C166.955 144.21 167.243 144.499 167.238 144.856L167.221 153.181C167.221 153.538 166.932 153.821 166.581 153.821H166.57Z" fill="#B81C22"/>
<path d="M168.223 117.585L168.234 114.04C168.234 113.751 168.426 113.519 168.664 113.525L170.838 113.536C171.076 113.536 171.268 113.768 171.268 114.057L171.257 117.602C171.257 117.891 171.065 118.123 170.827 118.118L168.653 118.106C168.415 118.106 168.223 117.874 168.223 117.585Z" fill="#B81C22"/>
<path d="M162.969 117.557L162.98 114.012C162.98 113.723 163.173 113.491 163.41 113.496L165.584 113.508C165.822 113.508 166.014 113.74 166.014 114.029L166.003 117.574C166.003 117.863 165.811 118.095 165.573 118.089L163.399 118.078C163.161 118.078 162.969 117.846 162.969 117.557Z" fill="#B81C22"/>
<path d="M157.711 117.535L157.722 113.989C157.722 113.7 157.915 113.468 158.153 113.474L160.326 113.485C160.564 113.485 160.757 113.717 160.757 114.006L160.745 117.552C160.745 117.84 160.553 118.073 160.315 118.067L158.141 118.056C157.903 118.056 157.711 117.823 157.711 117.535Z" fill="#B81C22"/>
<path d="M152.457 117.506L152.468 113.961C152.468 113.672 152.661 113.44 152.899 113.445L155.073 113.457C155.31 113.457 155.503 113.689 155.503 113.978L155.491 117.523C155.491 117.812 155.299 118.044 155.061 118.039L152.887 118.027C152.65 118.027 152.457 117.795 152.457 117.506Z" fill="#B81C22"/>
<path d="M168.188 124.455L168.199 120.91C168.199 120.621 168.391 120.389 168.629 120.395L170.803 120.406C171.041 120.406 171.233 120.638 171.233 120.927L171.222 124.472C171.222 124.761 171.029 124.993 170.792 124.988L168.618 124.976C168.38 124.976 168.188 124.744 168.188 124.455Z" fill="#B81C22"/>
<path d="M162.938 124.433L162.949 120.888C162.949 120.599 163.141 120.367 163.379 120.372L165.553 120.383C165.791 120.383 165.983 120.616 165.983 120.905L165.972 124.45C165.972 124.739 165.779 124.971 165.542 124.965L163.368 124.954C163.13 124.954 162.938 124.722 162.938 124.433Z" fill="#B81C22"/>
<path d="M157.676 124.405L157.687 120.859C157.687 120.57 157.88 120.338 158.117 120.344L160.291 120.355C160.529 120.355 160.722 120.587 160.722 120.876L160.71 124.422C160.71 124.71 160.518 124.943 160.28 124.937L158.106 124.926C157.868 124.926 157.676 124.693 157.676 124.405Z" fill="#B81C22"/>
<path d="M152.422 124.376L152.433 120.831C152.433 120.542 152.626 120.31 152.863 120.316L155.037 120.327C155.275 120.327 155.468 120.559 155.468 120.848L155.456 124.393C155.456 124.682 155.264 124.914 155.026 124.909L152.852 124.897C152.614 124.897 152.422 124.665 152.422 124.376Z" fill="#B81C22"/>
<path d="M168.188 130.98L168.199 127.434C168.199 127.146 168.391 126.913 168.629 126.919L170.803 126.93C171.041 126.93 171.233 127.163 171.233 127.451L171.222 130.997C171.222 131.286 171.029 131.518 170.792 131.512L168.618 131.501C168.38 131.501 168.188 131.269 168.188 130.98Z" fill="#B81C22"/>
<path d="M162.938 130.952L162.949 127.406C162.949 127.117 163.141 126.885 163.379 126.891L165.553 126.902C165.791 126.902 165.983 127.134 165.983 127.423L165.972 130.968C165.972 131.257 165.779 131.49 165.542 131.484L163.368 131.473C163.13 131.473 162.938 131.24 162.938 130.952Z" fill="#B81C22"/>
<path d="M157.676 130.929L157.687 127.384C157.687 127.095 157.88 126.863 158.117 126.868L160.291 126.88C160.529 126.88 160.722 127.112 160.722 127.401L160.71 130.946C160.71 131.235 160.518 131.467 160.28 131.461L158.106 131.45C157.868 131.45 157.676 131.218 157.676 130.929Z" fill="#B81C22"/>
<path d="M152.422 130.901L152.433 127.355C152.433 127.066 152.626 126.834 152.863 126.84L155.037 126.851C155.275 126.851 155.468 127.083 155.468 127.372L155.456 130.918C155.456 131.207 155.264 131.439 155.026 131.433L152.852 131.422C152.614 131.422 152.422 131.19 152.422 130.901Z" fill="#B81C22"/>
<path d="M168.188 137.199L168.199 133.653C168.199 133.364 168.391 133.132 168.629 133.138L170.803 133.149C171.041 133.149 171.233 133.381 171.233 133.67L171.222 137.216C171.222 137.504 171.029 137.737 170.792 137.731L168.618 137.72C168.38 137.72 168.188 137.487 168.188 137.199Z" fill="#B81C22"/>
<path d="M162.938 137.17L162.949 133.625C162.949 133.336 163.141 133.104 163.379 133.109L165.553 133.121C165.791 133.121 165.983 133.353 165.983 133.642L165.972 137.187C165.972 137.476 165.779 137.708 165.542 137.703L163.368 137.691C163.13 137.691 162.938 137.459 162.938 137.17Z" fill="#B81C22"/>
<path d="M157.676 137.148L157.687 133.602C157.687 133.314 157.88 133.081 158.117 133.087L160.291 133.098C160.529 133.098 160.722 133.331 160.722 133.619L160.71 137.165C160.71 137.454 160.518 137.686 160.28 137.68L158.106 137.669C157.868 137.669 157.676 137.437 157.676 137.148Z" fill="#B81C22"/>
<path d="M152.422 137.119L152.433 133.574C152.433 133.285 152.626 133.053 152.863 133.059L155.037 133.07C155.275 133.07 155.468 133.302 155.468 133.591L155.456 137.136C155.456 137.425 155.264 137.658 155.026 137.652L152.852 137.641C152.614 137.641 152.422 137.408 152.422 137.119Z" fill="#B81C22"/>
<path d="M161.87 151.918C161.514 151.918 161.23 151.629 161.23 151.278V145.026C161.23 144.669 161.519 144.386 161.87 144.386C162.221 144.386 162.51 144.675 162.51 145.026V151.278C162.51 151.635 162.221 151.918 161.87 151.918Z" fill="#B81C22"/>
<path fill-rule="evenodd" clip-rule="evenodd" d="M50.0156 151.517L50.0326 110.864C50.0326 109.992 50.7403 109.289 51.6121 109.295L74.2796 109.391C75.1458 109.391 75.8421 110.099 75.8421 110.96L75.8252 151.613C75.8252 152.485 75.1175 153.188 74.2457 153.182L51.5781 153.086C50.712 153.086 50.0156 152.378 50.0156 151.517Z" fill="white"/>
<path d="M75.8178 153.833C75.4611 153.833 75.1781 153.544 75.1781 153.193L75.1951 110.965C75.1951 110.456 74.7818 110.036 74.2723 110.036L52.335 109.946C51.9784 109.946 51.6953 109.657 51.6953 109.3C51.6953 108.949 51.984 108.66 52.335 108.66L74.2723 108.751C75.4894 108.751 76.4745 109.748 76.4745 110.965L76.4575 153.193C76.4575 153.55 76.1688 153.833 75.8178 153.833Z" fill="#B81C22"/>
<path d="M73.7862 153.822L51.5772 153.731C50.3601 153.731 49.375 152.734 49.375 151.516L49.392 109.952C49.392 109.595 49.6807 109.312 50.0317 109.312C50.3884 109.312 50.6714 109.6 50.6714 109.952L50.6544 151.516C50.6544 152.026 51.0677 152.445 51.5772 152.445L73.7862 152.536C74.1429 152.536 74.4259 152.825 74.4259 153.182C74.4259 153.533 74.1372 153.822 73.7862 153.822Z" fill="#B81C22"/>
<path d="M67.6205 153.821C67.2639 153.821 66.9808 153.533 66.9808 153.176L66.9978 145.49L58.8003 145.428L58.7833 153.108C58.7833 153.465 58.4946 153.748 58.1436 153.748C57.787 153.748 57.5039 153.459 57.5039 153.102L57.5209 144.777C57.5209 144.607 57.5888 144.443 57.7134 144.324C57.8323 144.205 57.9964 144.148 58.1719 144.137L67.6545 144.21C68.0055 144.21 68.2942 144.499 68.2885 144.856L68.2716 153.181C68.2716 153.538 67.9828 153.821 67.6318 153.821H67.6205Z" fill="#B81C22"/>
<path d="M69.2812 117.585L69.2926 114.04C69.2926 113.751 69.4851 113.519 69.7228 113.525L71.8967 113.536C72.1345 113.536 72.327 113.768 72.327 114.057L72.3157 117.602C72.3157 117.891 72.1232 118.123 71.8854 118.118L69.7115 118.106C69.4737 118.106 69.2812 117.874 69.2812 117.585Z" fill="#B81C22"/>
<path d="M64.0195 117.557L64.0309 114.012C64.0309 113.723 64.2233 113.491 64.4611 113.496L66.635 113.508C66.8728 113.508 67.0653 113.74 67.0653 114.029L67.0539 117.574C67.0539 117.863 66.8615 118.095 66.6237 118.089L64.4498 118.078C64.212 118.078 64.0195 117.846 64.0195 117.557Z" fill="#B81C22"/>
<path d="M58.7656 117.535L58.7769 113.989C58.7769 113.7 58.9694 113.468 59.2072 113.474L61.3811 113.485C61.6189 113.485 61.8114 113.717 61.8114 114.006L61.8 117.552C61.8 117.84 61.6076 118.073 61.3698 118.067L59.1959 118.056C58.9581 118.056 58.7656 117.823 58.7656 117.535Z" fill="#B81C22"/>
<path d="M53.5078 117.506L53.5191 113.961C53.5191 113.672 53.7116 113.44 53.9494 113.445L56.1233 113.457C56.3611 113.457 56.5536 113.689 56.5536 113.978L56.5422 117.523C56.5422 117.812 56.3497 118.044 56.112 118.039L53.9381 118.027C53.7003 118.027 53.5078 117.795 53.5078 117.506Z" fill="#B81C22"/>
<path d="M69.2383 124.455L69.2496 120.91C69.2496 120.621 69.4421 120.389 69.6799 120.395L71.8538 120.406C72.0915 120.406 72.284 120.638 72.284 120.927L72.2727 124.472C72.2727 124.761 72.0802 124.993 71.8424 124.988L69.6685 124.976C69.4308 124.976 69.2383 124.744 69.2383 124.455Z" fill="#B81C22"/>
<path d="M63.9883 124.433L63.9996 120.888C63.9996 120.599 64.1921 120.367 64.4299 120.372L66.6038 120.383C66.8415 120.383 67.034 120.616 67.034 120.905L67.0227 124.45C67.0227 124.739 66.8302 124.971 66.5924 124.965L64.4185 124.954C64.1808 124.954 63.9883 124.722 63.9883 124.433Z" fill="#B81C22"/>
<path d="M58.7344 124.405L58.7457 120.859C58.7457 120.57 58.9382 120.338 59.176 120.344L61.3499 120.355C61.5876 120.355 61.7801 120.587 61.7801 120.876L61.7688 124.422C61.7688 124.71 61.5763 124.943 61.3385 124.937L59.1646 124.926C58.9269 124.926 58.7344 124.693 58.7344 124.405Z" fill="#B81C22"/>
<path d="M53.4727 124.376L53.484 120.831C53.484 120.542 53.6765 120.31 53.9142 120.316L56.0881 120.327C56.3259 120.327 56.5184 120.559 56.5184 120.848L56.5071 124.393C56.5071 124.682 56.3146 124.914 56.0768 124.909L53.9029 124.897C53.6651 124.897 53.4727 124.665 53.4727 124.376Z" fill="#B81C22"/>
<path d="M69.2383 130.98L69.2496 127.434C69.2496 127.146 69.4421 126.913 69.6799 126.919L71.8538 126.93C72.0915 126.93 72.284 127.163 72.284 127.451L72.2727 130.997C72.2727 131.286 72.0802 131.518 71.8424 131.512L69.6685 131.501C69.4308 131.501 69.2383 131.269 69.2383 130.98Z" fill="#B81C22"/>
<path d="M63.9883 130.952L63.9996 127.406C63.9996 127.117 64.1921 126.885 64.4299 126.891L66.6038 126.902C66.8415 126.902 67.034 127.134 67.034 127.423L67.0227 130.968C67.0227 131.257 66.8302 131.49 66.5924 131.484L64.4185 131.473C64.1808 131.473 63.9883 131.24 63.9883 130.952Z" fill="#B81C22"/>
<path d="M58.7344 130.929L58.7457 127.384C58.7457 127.095 58.9382 126.863 59.176 126.868L61.3499 126.88C61.5876 126.88 61.7801 127.112 61.7801 127.401L61.7688 130.946C61.7688 131.235 61.5763 131.467 61.3385 131.461L59.1646 131.45C58.9269 131.45 58.7344 131.218 58.7344 130.929Z" fill="#B81C22"/>
<path d="M53.4727 130.901L53.484 127.355C53.484 127.066 53.6765 126.834 53.9142 126.84L56.0881 126.851C56.3259 126.851 56.5184 127.083 56.5184 127.372L56.5071 130.918C56.5071 131.207 56.3146 131.439 56.0768 131.433L53.9029 131.422C53.6651 131.422 53.4727 131.19 53.4727 130.901Z" fill="#B81C22"/>
<path d="M69.2383 137.199L69.2496 133.653C69.2496 133.364 69.4421 133.132 69.6799 133.138L71.8538 133.149C72.0915 133.149 72.284 133.381 72.284 133.67L72.2727 137.216C72.2727 137.504 72.0802 137.737 71.8424 137.731L69.6685 137.72C69.4308 137.72 69.2383 137.487 69.2383 137.199Z" fill="#B81C22"/>
<path d="M63.9883 137.17L63.9996 133.625C63.9996 133.336 64.1921 133.104 64.4299 133.109L66.6038 133.121C66.8415 133.121 67.034 133.353 67.034 133.642L67.0227 137.187C67.0227 137.476 66.8302 137.708 66.5924 137.703L64.4185 137.691C64.1808 137.691 63.9883 137.459 63.9883 137.17Z" fill="#B81C22"/>
<path d="M58.7344 137.148L58.7457 133.602C58.7457 133.314 58.9382 133.081 59.176 133.087L61.3499 133.098C61.5876 133.098 61.7801 133.331 61.7801 133.619L61.7688 137.165C61.7688 137.454 61.5763 137.686 61.3385 137.68L59.1646 137.669C58.9269 137.669 58.7344 137.437 58.7344 137.148Z" fill="#B81C22"/>
<path d="M53.4727 137.119L53.484 133.574C53.484 133.285 53.6765 133.053 53.9142 133.059L56.0881 133.07C56.3259 133.07 56.5184 133.302 56.5184 133.591L56.5071 137.136C56.5071 137.425 56.3146 137.658 56.0768 137.652L53.9029 137.641C53.6651 137.641 53.4727 137.408 53.4727 137.119Z" fill="#B81C22"/>
<path d="M62.9288 151.918C62.5721 151.918 62.2891 151.629 62.2891 151.278V145.026C62.2891 144.669 62.5778 144.386 62.9288 144.386C63.2798 144.386 63.5685 144.675 63.5685 145.026V151.278C63.5685 151.635 63.2798 151.918 62.9288 151.918Z" fill="#B81C22"/>
<path fill-rule="evenodd" clip-rule="evenodd" d="M15.3477 110.654L15.3646 70.0005C15.3646 69.1283 16.0723 68.426 16.9441 68.4317L39.6117 68.528C40.4778 68.528 41.1742 69.2359 41.1742 70.0968L41.1572 110.75C41.1572 111.622 40.4495 112.324 39.5777 112.319L16.9102 112.222C16.044 112.222 15.3477 111.514 15.3477 110.654Z" fill="white"/>
<path d="M41.1498 112.965C40.7932 112.965 40.5101 112.676 40.5101 112.325L40.5271 70.0971C40.5271 69.5873 40.1138 69.1682 39.6043 69.1682L17.6671 69.0776C17.3104 69.0776 17.0273 68.7888 17.0273 68.432C17.0273 68.0808 17.3161 67.792 17.6671 67.792L39.6043 67.8826C40.8215 67.8826 41.8065 68.8794 41.8065 70.0971L41.7895 112.325C41.7895 112.681 41.5008 112.965 41.1498 112.965Z" fill="#020202"/>
<path d="M39.1182 112.959L16.9092 112.869C15.6921 112.869 14.707 111.872 14.707 110.654L14.724 69.0892C14.724 68.7324 15.0127 68.4492 15.3637 68.4492C15.7204 68.4492 16.0035 68.7381 16.0035 69.0892L15.9865 110.654C15.9865 111.164 16.3997 111.583 16.9092 111.583L39.1182 111.674C39.4749 111.674 39.758 111.962 39.758 112.319C39.758 112.67 39.4692 112.959 39.1182 112.959Z" fill="#020202"/>
<path d="M32.9543 112.953C32.5976 112.953 32.3146 112.664 32.3146 112.308L32.3259 104.622L24.1285 104.56L24.1115 112.24C24.1115 112.596 23.8227 112.88 23.4718 112.88C23.1151 112.88 22.832 112.591 22.832 112.234L22.849 103.909C22.849 103.739 22.917 103.574 23.0415 103.455C23.1604 103.337 23.3415 103.269 23.5001 103.269L32.9826 103.342C33.3336 103.342 33.6223 103.631 33.6167 103.988L33.5997 112.313C33.5997 112.67 33.311 112.953 32.96 112.953H32.9543Z" fill="#020202"/>
<path d="M34.6133 76.723L34.6246 73.1776C34.6246 72.8888 34.8171 72.6565 35.0549 72.6622L37.2288 72.6735C37.4665 72.6735 37.659 72.9057 37.659 73.1946L37.6477 76.74C37.6477 77.0288 37.4552 77.261 37.2174 77.2554L35.0435 77.244C34.8058 77.244 34.6133 77.0118 34.6133 76.723Z" fill="#8D8D8D"/>
<path d="M29.3516 76.6947L29.3629 73.1493C29.3629 72.8604 29.5554 72.6282 29.7931 72.6339L31.967 72.6452C32.2048 72.6452 32.3973 72.8774 32.3973 73.1663L32.386 76.7117C32.386 77.0005 32.1935 77.2327 31.9557 77.227L29.7818 77.2157C29.544 77.2157 29.3516 76.9835 29.3516 76.6947Z" fill="#8D8D8D"/>
<path d="M24.0977 76.6663L24.109 73.121C24.109 72.8321 24.3015 72.5999 24.5392 72.6056L26.7131 72.6169C26.9509 72.6169 27.1434 72.8491 27.1434 73.1379L27.1321 76.6833C27.1321 76.9722 26.9396 77.2044 26.7018 77.1987L24.5279 77.1874C24.2901 77.1874 24.0977 76.9552 24.0977 76.6663Z" fill="#8D8D8D"/>
<path d="M18.8398 76.6439L18.8512 73.0985C18.8512 72.8096 19.0436 72.5774 19.2814 72.5831L21.4553 72.5944C21.6931 72.5944 21.8856 72.8266 21.8856 73.1155L21.8743 76.6609C21.8743 76.9497 21.6818 77.1819 21.444 77.1763L19.2701 77.1649C19.0323 77.1649 18.8398 76.9327 18.8398 76.6439Z" fill="#8D8D8D"/>
<path d="M34.5703 83.5931L34.5816 80.0477C34.5816 79.7589 34.7741 79.5267 35.0119 79.5323L37.1858 79.5437C37.4236 79.5437 37.6161 79.7759 37.6161 80.0647L37.6047 83.6101C37.6047 83.8989 37.4122 84.1311 37.1745 84.1255L35.0006 84.1142C34.7628 84.1142 34.5703 83.882 34.5703 83.5931Z" fill="#8D8D8D"/>
<path d="M29.3203 83.5648L29.3316 80.0194C29.3316 79.7305 29.5241 79.4983 29.7619 79.504L31.9358 79.5153C32.1736 79.5153 32.3661 79.7475 32.3661 80.0364L32.3547 83.5818C32.3547 83.8706 32.1622 84.1028 31.9245 84.0972L29.7506 84.0858C29.5128 84.0858 29.3203 83.8536 29.3203 83.5648Z" fill="#8D8D8D"/>
<path d="M24.0586 83.5423L24.0699 79.9969C24.0699 79.7081 24.2624 79.4759 24.5002 79.4815L26.6741 79.4929C26.9119 79.4929 27.1043 79.7251 27.1043 80.0139L27.093 83.5593C27.093 83.8482 26.9005 84.0804 26.6628 84.0747L24.4888 84.0634C24.2511 84.0634 24.0586 83.8312 24.0586 83.5423Z" fill="#8D8D8D"/>
<path d="M18.8047 83.514L18.816 79.9686C18.816 79.6798 19.0085 79.4476 19.2463 79.4532L21.4202 79.4646C21.6579 79.4646 21.8504 79.6968 21.8504 79.9856L21.8391 83.531C21.8391 83.8198 21.6466 84.052 21.4089 84.0464L19.2349 84.0351C18.9972 84.0351 18.8047 83.8028 18.8047 83.514Z" fill="#8D8D8D"/>
<path d="M34.5703 90.1117L34.5816 86.5663C34.5816 86.2774 34.7741 86.0452 35.0119 86.0509L37.1858 86.0622C37.4236 86.0622 37.6161 86.2944 37.6161 86.5833L37.6047 90.1287C37.6047 90.4175 37.4122 90.6497 37.1745 90.644L35.0006 90.6327C34.7628 90.6327 34.5703 90.4005 34.5703 90.1117Z" fill="#8D8D8D"/>
<path d="M29.3203 90.0892L29.3316 86.5438C29.3316 86.255 29.5241 86.0228 29.7619 86.0284L31.9358 86.0398C32.1736 86.0398 32.3661 86.272 32.3661 86.5608L32.3547 90.1062C32.3547 90.395 32.1622 90.6272 31.9245 90.6216L29.7506 90.6103C29.5128 90.6103 29.3203 90.378 29.3203 90.0892Z" fill="#8D8D8D"/>
<path d="M24.0586 90.0609L24.0699 86.5155C24.0699 86.2266 24.2624 85.9944 24.5002 86.0001L26.6741 86.0114C26.9119 86.0114 27.1043 86.2436 27.1043 86.5325L27.093 90.0779C27.093 90.3667 26.9005 90.5989 26.6628 90.5933L24.4888 90.5819C24.2511 90.5819 24.0586 90.3497 24.0586 90.0609Z" fill="#8D8D8D"/>
<path d="M18.8047 90.0326L18.816 86.4872C18.816 86.1983 19.0085 85.9661 19.2463 85.9718L21.4202 85.9831C21.6579 85.9831 21.8504 86.2153 21.8504 86.5042L21.8391 90.0496C21.8391 90.3384 21.6466 90.5706 21.4089 90.5649L19.2349 90.5536C18.9972 90.5536 18.8047 90.3214 18.8047 90.0326Z" fill="#8D8D8D"/>
<path d="M34.5703 96.3363L34.5816 92.7909C34.5816 92.502 34.7741 92.2698 35.0119 92.2755L37.1858 92.2868C37.4236 92.2868 37.6161 92.519 37.6161 92.8079L37.6047 96.3533C37.6047 96.6421 37.4122 96.8743 37.1745 96.8686L35.0006 96.8573C34.7628 96.8573 34.5703 96.6251 34.5703 96.3363Z" fill="#8D8D8D"/>
<path d="M29.3203 96.308L29.3316 92.7626C29.3316 92.4737 29.5241 92.2415 29.7619 92.2472L31.9358 92.2585C32.1736 92.2585 32.3661 92.4907 32.3661 92.7795L32.3547 96.3249C32.3547 96.6138 32.1622 96.846 31.9245 96.8403L29.7506 96.829C29.5128 96.829 29.3203 96.5968 29.3203 96.308Z" fill="#8D8D8D"/>
<path d="M24.0586 96.2796L24.0699 92.7342C24.0699 92.4454 24.2624 92.2132 24.5002 92.2189L26.6741 92.2302C26.9119 92.2302 27.1043 92.4624 27.1043 92.7512L27.093 96.2966C27.093 96.5855 26.9005 96.8177 26.6628 96.812L24.4888 96.8007C24.2511 96.8007 24.0586 96.5685 24.0586 96.2796Z" fill="#8D8D8D"/>
<path d="M18.8047 96.2572L18.816 92.7118C18.816 92.4229 19.0085 92.1907 19.2463 92.1964L21.4202 92.2077C21.6579 92.2077 21.8504 92.4399 21.8504 92.7288L21.8391 96.2742C21.8391 96.563 21.6466 96.7952 21.4089 96.7895L19.2349 96.7782C18.9972 96.7782 18.8047 96.546 18.8047 96.2572Z" fill="#8D8D8D"/>
<path d="M28.2608 111.056C27.9042 111.056 27.6211 110.767 27.6211 110.416V104.163C27.6211 103.807 27.9098 103.523 28.2608 103.523C28.6118 103.523 28.9005 103.812 28.9005 104.163V110.416C28.9005 110.773 28.6118 111.056 28.2608 111.056Z" fill="#020202"/>
<path fill-rule="evenodd" clip-rule="evenodd" d="M71.8867 98.8743L71.9037 58.2212C71.9037 57.349 72.6114 56.6467 73.4832 56.6524L96.1507 56.7487C97.0169 56.7487 97.7132 57.4566 97.7132 58.3175L97.6962 98.9706C97.6962 99.8428 96.9886 100.545 96.1168 100.539L73.4492 100.443C72.5831 100.443 71.8867 99.7352 71.8867 98.8743Z" fill="white"/>
<path d="M97.6967 101.19C97.34 101.19 97.057 100.901 97.057 100.55L97.074 58.3227C97.074 57.8129 96.6607 57.3938 96.1512 57.3938L74.2139 57.3032C73.8573 57.3032 73.5742 57.0144 73.5742 56.6576C73.5742 56.3064 73.8629 56.0176 74.2139 56.0176L96.1512 56.1082C97.3683 56.1082 98.3534 57.105 98.3534 58.3227L98.3364 100.55C98.3364 100.907 98.0477 101.19 97.6967 101.19Z" fill="#B81C22"/>
<path d="M95.6573 101.185L73.4483 101.094C72.2311 101.094 71.2461 100.097 71.2461 98.8797L71.2631 57.3148C71.2631 56.958 71.5518 56.6748 71.9028 56.6748C72.2595 56.6748 72.5425 56.9636 72.5425 57.3148L72.5255 98.8797C72.5255 99.3895 72.9388 99.8086 73.4483 99.8086L95.6573 99.8992C96.014 99.8992 96.297 100.188 96.297 100.545C96.297 100.896 96.0083 101.185 95.6573 101.185Z" fill="#B81C22"/>
<path d="M89.4994 101.179C89.1428 101.179 88.8597 100.89 88.8597 100.533L88.8767 92.8477L80.6792 92.7854L80.6622 100.465C80.6622 100.822 80.3735 101.105 80.0225 101.105C79.6659 101.105 79.3828 100.816 79.3828 100.46L79.3998 92.1341C79.3998 91.9642 79.4677 91.8 79.5923 91.681C79.7112 91.5621 79.898 91.5055 80.0508 91.4941L89.5334 91.5678C89.8844 91.5678 90.1731 91.8566 90.1674 92.2134L90.1505 100.539C90.1505 100.896 89.8617 101.179 89.5107 101.179H89.4994Z" fill="#B81C22"/>
<path d="M91.1523 64.9496L91.1637 61.4042C91.1637 61.1153 91.3561 60.8831 91.5939 60.8888L93.7678 60.9001C94.0056 60.9001 94.1981 61.1323 94.1981 61.4211L94.1868 64.9665C94.1868 65.2554 93.9943 65.4876 93.7565 65.4819L91.5826 65.4706C91.3448 65.4706 91.1523 65.2384 91.1523 64.9496Z" fill="#B81C22"/>
<path d="M85.8906 64.9212L85.9019 61.3758C85.9019 61.087 86.0944 60.8548 86.3322 60.8605L88.5061 60.8718C88.7439 60.8718 88.9364 61.104 88.9364 61.3928L88.925 64.9382C88.925 65.2271 88.7326 65.4593 88.4948 65.4536L86.3209 65.4423C86.0831 65.4423 85.8906 65.2101 85.8906 64.9212Z" fill="#B81C22"/>
<path d="M80.6367 64.8929L80.648 61.3475C80.648 61.0587 80.8405 60.8265 81.0783 60.8321L83.2522 60.8435C83.49 60.8435 83.6825 61.0757 83.6825 61.3645L83.6711 64.9099C83.6711 65.1987 83.4787 65.431 83.2409 65.4253L81.067 65.414C80.8292 65.414 80.6367 65.1818 80.6367 64.8929Z" fill="#B81C22"/>
<path d="M75.3828 64.8705L75.3941 61.3251C75.3941 61.0362 75.5866 60.804 75.8244 60.8097L77.9983 60.821C78.2361 60.821 78.4286 61.0532 78.4286 61.342L78.4172 64.8874C78.4172 65.1763 78.2248 65.4085 77.987 65.4028L75.8131 65.3915C75.5753 65.3915 75.3828 65.1593 75.3828 64.8705Z" fill="#B81C22"/>
<path d="M91.1172 71.8197L91.1285 68.2743C91.1285 67.9854 91.321 67.7532 91.5588 67.7589L93.7327 67.7702C93.9705 67.7702 94.1629 68.0024 94.1629 68.2913L94.1516 71.8367C94.1516 72.1255 93.9591 72.3577 93.7214 72.352L91.5474 72.3407C91.3097 72.3407 91.1172 72.1085 91.1172 71.8197Z" fill="#B81C22"/>
<path d="M85.8594 71.7913L85.8707 68.246C85.8707 67.9571 86.0632 67.7249 86.3009 67.7306L88.4749 67.7419C88.7126 67.7419 88.9051 67.9741 88.9051 68.2629L88.8938 71.8083C88.8938 72.0972 88.7013 72.3294 88.4635 72.3237L86.2896 72.3124C86.0519 72.3124 85.8594 72.0802 85.8594 71.7913Z" fill="#B81C22"/>
<path d="M80.6055 71.763L80.6168 68.2176C80.6168 67.9288 80.8093 67.6966 81.047 67.7022L83.221 67.7136C83.4587 67.7136 83.6512 67.9458 83.6512 68.2346L83.6399 71.78C83.6399 72.0689 83.4474 72.3011 83.2096 72.2954L81.0357 72.2841C80.7979 72.2841 80.6055 72.0519 80.6055 71.763Z" fill="#B81C22"/>
<path d="M75.3438 71.7396L75.3551 68.1942C75.3551 67.9054 75.5476 67.6731 75.7853 67.6788L77.9592 67.6901C78.197 67.6901 78.3895 67.9223 78.3895 68.2112L78.3782 71.7566C78.3782 72.0454 78.1857 72.2776 77.9479 72.272L75.774 72.2606C75.5362 72.2606 75.3438 72.0284 75.3438 71.7396Z" fill="#B81C22"/>
<path d="M91.1172 78.3382L91.1285 74.7928C91.1285 74.504 91.321 74.2718 91.5588 74.2774L93.7327 74.2888C93.9705 74.2888 94.1629 74.521 94.1629 74.8098L94.1516 78.3552C94.1516 78.6441 93.9591 78.8763 93.7214 78.8706L91.5474 78.8593C91.3097 78.8593 91.1172 78.6271 91.1172 78.3382Z" fill="#B81C22"/>
<path d="M85.8594 78.3148L85.8707 74.7694C85.8707 74.4806 86.0632 74.2483 86.3009 74.254L88.4749 74.2653C88.7126 74.2653 88.9051 74.4975 88.9051 74.7864L88.8938 78.3318C88.8938 78.6206 88.7013 78.8528 88.4635 78.8472L86.2896 78.8358C86.0519 78.8358 85.8594 78.6036 85.8594 78.3148Z" fill="#B81C22"/>
<path d="M80.6055 78.2865L80.6168 74.7411C80.6168 74.4522 80.8093 74.22 81.047 74.2257L83.221 74.237C83.4587 74.237 83.6512 74.4692 83.6512 74.7581L83.6399 78.3035C83.6399 78.5923 83.4474 78.8245 83.2096 78.8188L81.0357 78.8075C80.7979 78.8075 80.6055 78.5753 80.6055 78.2865Z" fill="#B81C22"/>
<path d="M75.3438 78.2581L75.3551 74.7128C75.3551 74.4239 75.5476 74.1917 75.7853 74.1974L77.9592 74.2087C78.197 74.2087 78.3895 74.4409 78.3895 74.7297L78.3782 78.2751C78.3782 78.564 78.1857 78.7962 77.9479 78.7905L75.774 78.7792C75.5362 78.7792 75.3438 78.547 75.3438 78.2581Z" fill="#B81C22"/>
<path d="M91.1172 84.5619L91.1285 81.0165C91.1285 80.7276 91.321 80.4954 91.5588 80.5011L93.7327 80.5124C93.9705 80.5124 94.1629 80.7446 94.1629 81.0335L94.1516 84.5789C94.1516 84.8677 93.9591 85.0999 93.7214 85.0942L91.5474 85.0829C91.3097 85.0829 91.1172 84.8507 91.1172 84.5619Z" fill="#B81C22"/>
<path d="M85.8594 84.5345L85.8707 80.9891C85.8707 80.7003 86.0632 80.4681 86.3009 80.4737L88.4749 80.4851C88.7126 80.4851 88.9051 80.7173 88.9051 81.0061L88.8938 84.5515C88.8938 84.8403 88.7013 85.0726 88.4635 85.0669L86.2896 85.0556C86.0519 85.0556 85.8594 84.8234 85.8594 84.5345Z" fill="#B81C22"/>
<path d="M80.6055 84.5062L80.6168 80.9608C80.6168 80.672 80.8093 80.4398 81.047 80.4454L83.221 80.4567C83.4587 80.4567 83.6512 80.6889 83.6512 80.9778L83.6399 84.5232C83.6399 84.812 83.4474 85.0442 83.2096 85.0386L81.0357 85.0272C80.7979 85.0272 80.6055 84.795 80.6055 84.5062Z" fill="#B81C22"/>
<path d="M75.3438 84.4828L75.3551 80.9374C75.3551 80.6485 75.5476 80.4163 75.7853 80.422L77.9592 80.4333C78.197 80.4333 78.3895 80.6655 78.3895 80.9544L78.3782 84.4997C78.3782 84.7886 78.1857 85.0208 77.9479 85.0151L75.774 85.0038C75.5362 85.0038 75.3438 84.7716 75.3438 84.4828Z" fill="#B81C22"/>
<path d="M84.7999 99.2816C84.4432 99.2816 84.1602 98.9927 84.1602 98.6416V92.389C84.1602 92.0322 84.4489 91.749 84.7999 91.749C85.1509 91.749 85.4396 92.0379 85.4396 92.389V98.6416C85.4396 98.9984 85.1509 99.2816 84.7999 99.2816Z" fill="#B81C22"/>
</g>
<defs>
<clipPath id="clip0_225_35944">
<rect width="214" height="164" fill="white" transform="translate(3 28)"/>
</clipPath>
</defs>
</svg>
