<svg width="829" height="189" viewBox="0 0 829 189" fill="none" xmlns="http://www.w3.org/2000/svg">
<g clip-path="url(#clip0_227_43384)">
<path d="M827.027 159.08C829.737 159.08 832.153 159.728 834.274 161.025C836.396 162.321 838.104 164.059 839.401 166.239C840.697 168.36 841.345 170.747 841.345 173.398C841.345 175.991 840.697 178.377 839.401 180.558C838.104 182.738 836.396 184.476 834.274 185.772C832.153 187.069 829.737 187.717 827.027 187.717C824.434 187.717 822.048 187.069 819.868 185.772C817.688 184.476 815.949 182.738 814.653 180.558C813.416 178.377 812.797 175.991 812.797 173.398C812.797 170.747 813.416 168.36 814.653 166.239C815.949 164.059 817.688 162.321 819.868 161.025C822.048 159.728 824.434 159.08 827.027 159.08ZM827.115 181.353C829.295 181.353 831.151 180.587 832.683 179.055C834.215 177.464 834.982 175.579 834.982 173.398C834.982 171.925 834.628 170.6 833.921 169.421C833.214 168.184 832.242 167.211 831.004 166.504C829.826 165.797 828.529 165.444 827.115 165.444C825.642 165.444 824.316 165.797 823.138 166.504C821.959 167.211 820.987 168.184 820.221 169.421C819.514 170.6 819.161 171.925 819.161 173.398C819.161 174.872 819.514 176.227 820.221 177.464C820.987 178.643 821.959 179.585 823.138 180.292C824.316 181 825.642 181.353 827.115 181.353Z" fill="#020202"/>
<path d="M729.804 120.28H756.938V179.763H729.804V170.482H747.393V129.472H729.804V120.28ZM723.617 120.28H733.251V186.303H723.617V120.28ZM729.451 143.879H751.989V153.071H729.451V143.879ZM736.256 105.873L747.746 107.552C746.804 110.557 745.772 113.533 744.653 116.479C743.592 119.425 742.62 121.93 741.736 123.992L733.251 122.047C733.664 120.515 734.047 118.807 734.4 116.921C734.813 115.036 735.196 113.121 735.549 111.176C735.903 109.232 736.138 107.464 736.256 105.873ZM768.605 119.573H794.502V129.295H768.605V119.573ZM790.79 119.573H800.6C800.6 119.573 800.6 119.897 800.6 120.545C800.6 121.134 800.6 121.812 800.6 122.578C800.6 123.344 800.571 123.933 800.512 124.345C800.276 134.304 799.982 142.759 799.628 149.712C799.334 156.606 798.951 162.322 798.479 166.859C798.067 171.337 797.566 174.843 796.977 177.376C796.387 179.91 795.621 181.766 794.679 182.945C793.5 184.653 792.233 185.832 790.878 186.48C789.523 187.128 787.961 187.6 786.194 187.894C784.485 188.13 782.364 188.218 779.83 188.159C777.355 188.159 774.822 188.13 772.229 188.071C772.17 186.598 771.816 184.86 771.168 182.856C770.52 180.912 769.725 179.203 768.782 177.73C771.61 177.966 774.232 178.113 776.648 178.172C779.123 178.231 780.92 178.26 782.04 178.26C782.923 178.26 783.631 178.172 784.161 177.995C784.75 177.759 785.31 177.347 785.84 176.758C786.606 175.992 787.225 174.43 787.696 172.073C788.227 169.658 788.668 166.269 789.022 161.909C789.376 157.549 789.7 152.039 789.994 145.381C790.289 138.723 790.554 130.798 790.79 121.606V119.573ZM768.87 105.961L779.123 108.348C778.003 112.649 776.619 116.951 774.969 121.252C773.378 125.553 771.61 129.619 769.666 133.449C767.78 137.22 765.836 140.52 763.832 143.348C763.243 142.759 762.389 142.081 761.269 141.315C760.209 140.49 759.119 139.695 757.999 138.929C756.938 138.163 755.996 137.574 755.171 137.161C757.115 134.628 758.942 131.711 760.651 128.411C762.418 125.053 763.98 121.458 765.335 117.628C766.749 113.739 767.928 109.85 768.87 105.961ZM764.539 145.116L772.848 140.432C774.321 142.435 775.882 144.645 777.532 147.06C779.182 149.476 780.743 151.833 782.216 154.131C783.69 156.429 784.897 158.462 785.84 160.23L776.825 165.71C776 163.883 774.88 161.791 773.466 159.434C772.111 157.077 770.638 154.662 769.047 152.187C767.515 149.653 766.013 147.296 764.539 145.116Z" fill="#020202"/>
<path d="M644.421 131.151H692.414V141.227H644.421V131.151ZM644.421 151.657H692.414V161.732H644.421V151.657ZM644.421 172.074H692.414V182.415H644.421V172.074ZM636.82 110.734H699.839V187.983H688.526V121.075H647.515V187.983H636.82V110.734Z" fill="#020202"/>
<path d="M580.608 187.099C578.841 184.86 576.867 182.591 574.686 180.293C572.506 177.995 570.297 175.756 568.058 173.576C565.818 171.337 563.668 169.334 561.605 167.566L570.797 159.611C572.919 161.32 575.187 163.353 577.603 165.71C580.019 168.008 582.317 170.335 584.497 172.692C586.736 175.049 588.592 177.141 590.065 178.968L580.608 187.099Z" fill="#020202"/>
<path d="M507.208 111.795C506.973 112.914 506.708 114.152 506.413 115.507C506.118 116.803 505.853 118.011 505.618 119.131C505.382 120.427 505.087 121.9 504.734 123.55C504.38 125.141 504.027 126.761 503.673 128.411C503.378 130.002 503.054 131.564 502.701 133.096C502.112 135.629 501.375 138.576 500.491 141.934C499.607 145.293 498.576 148.917 497.398 152.806C496.219 156.636 494.894 160.495 493.42 164.384C491.947 168.273 490.386 172.073 488.736 175.786C487.086 179.439 485.318 182.739 483.433 185.685L471.943 181.089C474.005 178.319 475.92 175.226 477.688 171.808C479.515 168.332 481.164 164.796 482.637 161.202C484.111 157.549 485.407 153.955 486.526 150.419C487.705 146.825 488.707 143.496 489.531 140.432C490.415 137.368 491.093 134.746 491.564 132.565C492.389 128.559 493.037 124.699 493.509 120.987C493.98 117.275 494.157 113.769 494.039 110.469L507.208 111.795ZM537.613 120.722C539.027 122.666 540.471 125.053 541.944 127.881C543.476 130.65 544.978 133.597 546.451 136.719C547.924 139.842 549.25 142.848 550.429 145.735C551.607 148.622 552.521 151.126 553.169 153.247L541.944 158.374C541.413 155.899 540.618 153.159 539.557 150.154C538.556 147.149 537.377 144.114 536.022 141.05C534.667 137.927 533.223 134.981 531.691 132.212C530.218 129.442 528.686 127.115 527.095 125.229L537.613 120.722ZM471.324 129.914C472.915 130.032 474.477 130.091 476.009 130.091C477.6 130.032 479.19 129.973 480.781 129.914C482.254 129.855 484.022 129.767 486.085 129.649C488.147 129.472 490.327 129.295 492.625 129.118C494.982 128.942 497.339 128.765 499.696 128.588C502.053 128.352 504.233 128.176 506.236 128.058C508.24 127.94 509.89 127.881 511.186 127.881C514.368 127.881 517.137 128.411 519.494 129.472C521.851 130.474 523.707 132.212 525.062 134.687C526.476 137.161 527.184 140.52 527.184 144.763C527.184 148.239 527.036 152.01 526.742 156.076C526.447 160.141 525.917 164.03 525.151 167.743C524.444 171.455 523.442 174.607 522.146 177.2C520.731 180.264 518.787 182.385 516.312 183.563C513.896 184.742 511.009 185.331 507.65 185.331C506.001 185.331 504.203 185.184 502.259 184.889C500.314 184.654 498.576 184.388 497.044 184.094L495.188 172.427C496.308 172.722 497.545 173.016 498.9 173.311C500.314 173.605 501.64 173.841 502.878 174.018C504.174 174.195 505.205 174.283 505.971 174.283C507.444 174.283 508.741 174.018 509.86 173.488C510.98 172.898 511.893 171.897 512.6 170.483C513.425 168.774 514.103 166.564 514.633 163.854C515.163 161.143 515.546 158.226 515.782 155.104C516.076 151.922 516.224 148.887 516.224 146C516.224 143.643 515.87 141.905 515.163 140.785C514.515 139.666 513.543 138.929 512.246 138.576C511.009 138.163 509.477 137.957 507.65 137.957C506.295 137.957 504.469 138.075 502.171 138.31C499.873 138.487 497.398 138.723 494.746 139.017C492.154 139.253 489.738 139.518 487.499 139.813C485.26 140.108 483.521 140.314 482.284 140.432C480.988 140.667 479.338 140.932 477.334 141.227C475.39 141.463 473.74 141.698 472.385 141.934L471.324 129.914ZM536.022 108.436C536.788 109.497 537.583 110.764 538.408 112.237C539.292 113.71 540.147 115.183 540.972 116.656C541.796 118.129 542.504 119.426 543.093 120.545L535.934 123.639C535.344 122.401 534.667 121.046 533.901 119.573C533.135 118.1 532.339 116.627 531.514 115.154C530.689 113.68 529.865 112.414 529.04 111.353L536.022 108.436ZM546.54 104.459C547.306 105.579 548.131 106.875 549.015 108.348C549.898 109.821 550.753 111.294 551.578 112.767C552.462 114.24 553.139 115.478 553.611 116.479L546.628 119.484C545.685 117.658 544.566 115.595 543.27 113.297C541.973 110.941 540.706 108.937 539.469 107.287L546.54 104.459Z" fill="#020202"/>
<path d="M413.166 115.949H455.061V124.876H413.166V115.949ZM401.588 132.3H458.773V141.227H401.588V132.3ZM411.84 106.757L421.739 109.055C420.207 113.533 418.204 117.864 415.729 122.047C413.313 126.172 410.809 129.649 408.217 132.477C407.509 131.947 406.596 131.357 405.477 130.709C404.416 130.061 403.326 129.442 402.206 128.853C401.087 128.264 400.115 127.793 399.29 127.439C402.059 124.964 404.534 121.871 406.714 118.159C408.894 114.446 410.603 110.646 411.84 106.757ZM425.186 105.873H435.704V138.31H425.186V105.873ZM398.671 140.343V172.957H388.33V150.154H378.077V140.343H398.671ZM398.671 168.361C400.498 171.248 403.061 173.37 406.36 174.725C409.66 176.08 413.608 176.846 418.204 177.023C420.797 177.141 423.861 177.229 427.396 177.288C430.99 177.288 434.761 177.259 438.709 177.2C442.657 177.141 446.517 177.023 450.288 176.846C454.118 176.669 457.506 176.463 460.452 176.227C460.099 177.052 459.686 178.113 459.215 179.409C458.743 180.706 458.301 182.031 457.889 183.387C457.535 184.742 457.27 185.95 457.093 187.01C454.442 187.187 451.407 187.305 447.99 187.364C444.572 187.482 441.066 187.541 437.472 187.541C433.878 187.6 430.401 187.6 427.043 187.541C423.684 187.482 420.679 187.393 418.027 187.276C412.606 187.04 407.981 186.185 404.151 184.712C400.321 183.298 396.933 180.882 393.987 177.465C392.042 179.115 390.039 180.823 387.976 182.591C385.973 184.359 383.763 186.185 381.348 188.071L376.133 177.023C378.195 175.786 380.346 174.43 382.585 172.957C384.824 171.484 386.975 169.952 389.037 168.361H398.671ZM378.166 114.358L386.032 107.994C387.859 109.173 389.715 110.557 391.6 112.148C393.486 113.68 395.253 115.271 396.903 116.921C398.553 118.512 399.879 119.985 400.881 121.34L392.484 128.411C391.6 126.997 390.363 125.465 388.772 123.815C387.24 122.165 385.531 120.515 383.646 118.866C381.76 117.157 379.933 115.654 378.166 114.358ZM419 154.485V163.5H442.333V154.485H419ZM408.658 146H453.381V171.897H408.658V146Z" fill="#020202"/>
<path d="M301.358 123.108H321.952V130.178H301.358V123.108ZM301.093 178.437H327.432V186.038H301.093V178.437ZM296.585 143.966H324.78V150.33H296.585V143.966ZM292.255 133.36H301.358V146.353C301.358 149.299 301.211 152.54 300.916 156.075C300.622 159.552 300.091 163.146 299.325 166.858C298.559 170.57 297.44 174.165 295.967 177.641C294.553 181.118 292.726 184.27 290.487 187.098C290.074 186.509 289.426 185.772 288.542 184.889C287.659 184.064 286.745 183.239 285.802 182.414C284.919 181.648 284.123 181.088 283.416 180.735C286.127 177.317 288.071 173.575 289.249 169.51C290.487 165.444 291.282 161.408 291.636 157.401C292.048 153.335 292.255 149.594 292.255 146.176V133.36ZM297.381 133.36H328.934V161.025H297.116V153.689H319.477V140.785H297.381V133.36ZM297.292 164.56H330.437V188.512H321.156V172.161H306.219V188.778H297.292V164.56ZM334.237 116.655H344.313V166.681H334.237V116.655ZM353.594 107.729H363.935V176.227C363.935 179.232 363.581 181.53 362.874 183.121C362.226 184.712 361.047 185.92 359.339 186.745C357.571 187.629 355.332 188.188 352.621 188.424C349.911 188.719 346.611 188.866 342.722 188.866C342.604 187.864 342.339 186.715 341.927 185.419C341.573 184.123 341.161 182.797 340.689 181.442C340.218 180.145 339.747 179.026 339.275 178.083C341.927 178.142 344.402 178.201 346.7 178.26C348.998 178.26 350.589 178.26 351.472 178.26C352.238 178.26 352.769 178.112 353.063 177.818C353.417 177.464 353.594 176.904 353.594 176.138V107.729ZM305.424 107.021H311.257V109.143H314.616V112.148C311.964 115.742 308.606 119.69 304.54 123.991C300.533 128.234 295.495 132.3 289.426 136.189C289.073 135.423 288.513 134.539 287.747 133.537C286.981 132.535 286.156 131.592 285.272 130.709C284.447 129.825 283.711 129.118 283.062 128.587C286.598 126.584 289.78 124.374 292.608 121.959C295.436 119.484 297.911 116.98 300.032 114.446C302.213 111.912 304.01 109.437 305.424 107.021ZM307.634 107.021H314.881C316.943 108.553 319.124 110.292 321.422 112.236C323.72 114.122 325.929 116.007 328.05 117.893C330.172 119.719 331.939 121.399 333.354 122.931L326.636 130.797C325.34 129.265 323.72 127.527 321.775 125.582C319.831 123.579 317.768 121.576 315.588 119.572C313.467 117.569 311.434 115.889 309.49 114.534H307.634V107.021Z" fill="#020202"/>
<path d="M220.752 114.004H273.252V123.019H220.752V114.004ZM223.492 175.697H273.783V184.8H223.492V175.697ZM243.997 105.961L254.515 106.491C254.338 109.378 254.073 112.384 253.719 115.507C253.366 118.629 252.983 121.635 252.57 124.522C252.217 127.409 251.863 129.972 251.51 132.211H241.699C242.052 129.913 242.376 127.262 242.671 124.257C242.966 121.252 243.231 118.158 243.467 114.976C243.702 111.794 243.879 108.789 243.997 105.961ZM243.555 147.237V151.833H259.376V147.237H243.555ZM243.555 158.904V163.5H259.376V158.904H243.555ZM243.555 135.57V140.078H259.376V135.57H243.555ZM233.744 127.969H269.54V171.101H233.744V127.969ZM218.542 133.184H228.353V188.866H218.542V133.184ZM209.527 106.226L219.514 109.408C217.629 114.358 215.39 119.366 212.797 124.433C210.204 129.442 207.406 134.215 204.4 138.752C201.395 143.23 198.272 147.148 195.032 150.507C194.737 149.623 194.236 148.504 193.529 147.148C192.881 145.734 192.174 144.32 191.408 142.906C190.642 141.492 189.964 140.343 189.375 139.459C192.027 136.748 194.59 133.625 197.064 130.09C199.598 126.555 201.926 122.754 204.047 118.688C206.227 114.623 208.054 110.469 209.527 106.226ZM201.042 130.709L211.118 120.633V120.721V188.778H201.042V130.709Z" fill="#020202"/>
<path d="M123.705 114.535H180.183V124.081H123.705V114.535ZM124.589 135.129H179.741V186.481H169.488V144.409H134.311V187.011H124.589V135.129ZM138.907 115.773H148.895V142.023H138.907V115.773ZM154.728 115.684H164.716V141.935H154.728V115.684ZM129.008 172.869H177.001V181.973H129.008V172.869ZM139.879 141.935H148.806V179.94H139.879V141.935ZM154.728 141.846H163.655V179.852H154.728V141.846ZM116.104 106.139L125.649 109.144C123.882 113.975 121.76 118.837 119.286 123.727C116.811 128.618 114.13 133.243 111.243 137.604C108.355 141.905 105.38 145.706 102.316 149.005C101.962 148.18 101.461 147.09 100.813 145.735C100.224 144.38 99.5464 143.025 98.7804 141.669C98.0733 140.255 97.4252 139.136 96.8359 138.311C99.4286 135.718 101.903 132.713 104.26 129.296C106.676 125.819 108.886 122.107 110.889 118.159C112.893 114.211 114.631 110.204 116.104 106.139ZM107.619 130.798L117.518 120.811L117.606 120.987V188.867H107.619V130.798Z" fill="#020202"/>
<path d="M545.371 53.0801C548.081 53.0801 550.497 53.7282 552.618 55.0246C554.739 56.3209 556.448 58.0591 557.745 60.2393C559.041 62.3605 559.689 64.7469 559.689 67.3984C559.689 69.9911 559.041 72.3775 557.745 74.5576C556.448 76.7378 554.739 78.476 552.618 79.7723C550.497 81.0686 548.081 81.7168 545.371 81.7168C542.778 81.7168 540.392 81.0686 538.211 79.7723C536.031 78.476 534.293 76.7378 532.997 74.5576C531.759 72.3775 531.141 69.9911 531.141 67.3984C531.141 64.7469 531.759 62.3605 532.997 60.2393C534.293 58.0591 536.031 56.3209 538.211 55.0246C540.392 53.7282 542.778 53.0801 545.371 53.0801ZM545.459 75.3531C547.639 75.3531 549.495 74.5871 551.027 73.0551C552.559 71.4641 553.325 69.5786 553.325 67.3984C553.325 65.9254 552.972 64.5996 552.265 63.4211C551.558 62.1837 550.585 61.2115 549.348 60.5044C548.169 59.7973 546.873 59.4438 545.459 59.4438C543.986 59.4438 542.66 59.7973 541.482 60.5044C540.303 61.2115 539.331 62.1837 538.565 63.4211C537.858 64.5996 537.504 65.9254 537.504 67.3984C537.504 68.8715 537.858 70.2268 538.565 71.4641C539.331 72.6426 540.303 73.5854 541.482 74.2925C542.66 74.9995 543.986 75.3531 545.459 75.3531Z" fill="#020202"/>
<path d="M476.427 38.9387H508.864V48.5726H476.427V38.9387ZM450.088 21.792H472.538V31.6027H450.088V21.792ZM450.088 38.8503H473.334V48.7494H450.088V38.8503ZM485.619 3.1428H505.594V12.4232H485.619V3.1428ZM507.362 38.9387H509.395L511.162 38.5852L517.968 41.1483C515.906 48.9262 512.842 55.5845 508.776 61.1233C504.769 66.6621 499.908 71.1992 494.192 74.7346C488.536 78.27 482.172 81.0688 475.101 83.1312C474.748 82.1884 474.247 81.1278 473.599 79.9493C472.951 78.8298 472.273 77.6807 471.566 76.5023C470.859 75.3827 470.152 74.4694 469.445 73.7624C475.749 72.2893 481.465 70.0796 486.591 67.1335C491.718 64.1873 496.078 60.5046 499.672 56.0854C503.267 51.6661 505.83 46.5103 507.362 40.618V38.9387ZM488.801 47.6004C491.57 54.0231 495.783 59.4735 501.44 63.9516C507.097 68.3709 514.05 71.4938 522.299 73.3204C521.533 74.0275 520.678 74.9408 519.736 76.0604C518.852 77.1799 518.027 78.3289 517.261 79.5074C516.495 80.7448 515.876 81.8643 515.405 82.866C506.448 80.2734 499.083 76.2371 493.309 70.7573C487.534 65.2185 482.967 58.3245 479.609 50.0752L488.801 47.6004ZM444.785 5.79434L454.861 8.88782V82.6892H444.785V5.79434ZM437.449 60.2395C440.749 59.8859 444.461 59.444 448.586 58.9137C452.769 58.3834 457.159 57.8236 461.755 57.2344C466.41 56.6451 471.006 56.0264 475.543 55.3783L475.897 65.1006C471.654 65.8077 467.353 66.4853 462.992 67.1335C458.632 67.7227 454.419 68.3119 450.353 68.9012C446.288 69.4904 442.546 70.0502 439.129 70.5805L437.449 60.2395ZM481.023 3.1428H490.834V16.1354C490.834 18.8459 490.51 21.6742 489.861 24.6203C489.272 27.5076 488.153 30.277 486.503 32.9285C484.912 35.5211 482.467 37.7602 479.167 39.6458C478.754 38.9976 478.077 38.2316 477.134 37.3478C476.25 36.405 475.307 35.4917 474.306 34.6078C473.363 33.724 472.567 33.0464 471.919 32.575C474.689 31.043 476.722 29.3637 478.018 27.537C479.314 25.6515 480.139 23.707 480.493 21.7036C480.846 19.7002 481.023 17.7263 481.023 15.7818V3.1428ZM468.296 -0.0390625L477.046 7.47365C474.453 8.76997 471.625 9.94843 468.561 11.0091C465.497 12.0107 462.403 12.9535 459.28 13.8374C456.157 14.6623 453.093 15.3694 450.088 15.9586C449.853 14.8391 449.381 13.5133 448.674 11.9813C448.026 10.3904 447.378 9.06459 446.73 8.00397C449.381 7.35581 452.033 6.61927 454.684 5.79434C457.395 4.91049 459.928 3.96772 462.285 2.96602C464.642 1.96433 466.646 0.962634 468.296 -0.0390625ZM500.026 3.1428H509.925V24.1784C509.925 24.9444 509.925 25.5336 509.925 25.9461C509.925 26.3586 509.984 26.6532 510.102 26.83C510.337 27.1246 510.632 27.2719 510.985 27.2719C511.162 27.2719 511.398 27.2719 511.693 27.2719C511.987 27.2719 512.223 27.2719 512.4 27.2719C512.635 27.2719 512.871 27.2424 513.107 27.1835C513.342 27.1246 513.49 27.0656 513.549 27.0067C513.843 26.83 514.108 26.1818 514.344 25.0623C514.403 24.4141 514.462 23.4713 514.521 22.2339C514.58 20.9966 514.609 19.5235 514.609 17.8147C515.493 18.5807 516.701 19.3762 518.233 20.2011C519.765 20.9671 521.179 21.5858 522.476 22.0572C522.358 23.8249 522.21 25.5631 522.034 27.2719C521.857 28.9807 521.592 30.2475 521.238 31.0724C520.649 32.7812 519.588 33.9891 518.056 34.6962C517.408 35.0498 516.613 35.3149 515.67 35.4917C514.786 35.6095 513.961 35.6684 513.195 35.6684C512.429 35.6684 511.604 35.6684 510.72 35.6684C509.836 35.6684 509.041 35.6684 508.334 35.6684C507.273 35.6684 506.154 35.5211 504.975 35.2265C503.856 34.873 502.942 34.3132 502.235 33.5472C501.469 32.7812 500.91 31.7795 500.556 30.5421C500.203 29.2458 500.026 27.1835 500.026 24.3552V3.1428Z" fill="#020202"/>
<path d="M411.907 -0.304688L419.597 8.53381C415.06 9.71227 410.11 10.7434 404.748 11.6273C399.445 12.4522 393.936 13.1887 388.22 13.8369C382.505 14.4261 376.76 14.927 370.985 15.3394C365.211 15.693 359.642 15.9581 354.28 16.1349C354.104 14.7797 353.75 13.1887 353.22 11.3621C352.689 9.47658 352.159 7.94457 351.629 6.76611C356.932 6.58934 362.353 6.29472 367.892 5.88226C373.489 5.4698 378.94 4.96895 384.243 4.37972C389.605 3.79048 394.643 3.11287 399.357 2.34686C404.071 1.58086 408.254 0.697009 411.907 -0.304688ZM352.513 24.7966H422.337V34.9609H352.513V24.7966ZM346.414 45.3903H427.64V55.8197H346.414V45.3903ZM381.503 12.246H392.551V70.2265C392.551 73.4083 392.109 75.7653 391.225 77.2973C390.4 78.8882 388.898 80.1256 386.718 81.0095C384.655 81.7755 381.974 82.2763 378.675 82.512C375.434 82.7477 371.545 82.8361 367.008 82.7772C366.831 81.7755 366.477 80.6265 365.947 79.3301C365.476 78.0928 364.945 76.8259 364.356 75.5296C363.767 74.2922 363.207 73.2021 362.677 72.2593C364.916 72.3183 367.126 72.3772 369.306 72.4361C371.486 72.495 373.43 72.5245 375.139 72.5245C376.848 72.5245 378.056 72.5245 378.763 72.5245C379.765 72.4656 380.472 72.2593 380.884 71.9058C381.297 71.5523 381.503 70.9336 381.503 70.0497V12.246Z" fill="#020202"/>
<path d="M298.948 81.099C297.18 78.86 295.206 76.5914 293.026 74.2934C290.846 71.9954 288.636 69.7563 286.397 67.5761C284.158 65.3371 282.008 63.3337 279.945 61.566L289.137 53.6113C291.259 55.3201 293.527 57.353 295.943 59.7099C298.359 62.0079 300.657 64.3354 302.837 66.6923C305.076 69.0492 306.932 71.141 308.405 72.9676L298.948 81.099Z" fill="#020202"/>
<path d="M218.164 20.7325C220.698 20.9682 223.232 21.1744 225.765 21.3512C228.358 21.469 230.98 21.5279 233.632 21.5279C239.053 21.5279 244.444 21.2922 249.806 20.8209C255.168 20.3495 260.118 19.6129 264.655 18.6112V29.6593C260.059 30.3075 255.08 30.8378 249.718 31.2503C244.356 31.6038 238.994 31.7806 233.632 31.7806C231.039 31.7806 228.447 31.7511 225.854 31.6922C223.32 31.5744 220.757 31.427 218.164 31.2503V20.7325ZM251.751 5.79541C251.633 6.62034 251.515 7.53365 251.397 8.53535C251.338 9.53705 251.279 10.5387 251.22 11.5404C251.161 12.4832 251.103 13.7501 251.044 15.341C250.985 16.9319 250.955 18.7291 250.955 20.7325C250.955 22.6769 250.955 24.7393 250.955 26.9194C250.955 30.9262 251.014 34.6973 251.132 38.2327C251.25 41.7092 251.397 44.9499 251.574 47.955C251.751 50.9012 251.898 53.6117 252.016 56.0864C252.193 58.5612 252.281 60.8592 252.281 62.9805C252.281 65.2785 251.957 67.3997 251.309 69.3442C250.719 71.2886 249.747 72.9974 248.392 74.4705C247.037 75.9436 245.24 77.0631 243.001 77.8291C240.82 78.6541 238.139 79.0665 234.958 79.0665C228.829 79.0665 223.998 77.8291 220.462 75.3544C216.927 72.8796 215.159 69.3147 215.159 64.6598C215.159 61.6547 215.955 59.0326 217.546 56.7935C219.137 54.4955 221.405 52.7278 224.351 51.4904C227.297 50.1941 230.774 49.546 234.781 49.546C238.964 49.546 242.765 49.9879 246.182 50.8717C249.6 51.7556 252.723 52.934 255.551 54.4071C258.38 55.8802 260.884 57.5006 263.064 59.2683C265.303 60.9771 267.306 62.6269 269.074 64.2179L262.976 73.4983C259.617 70.3164 256.347 67.5765 253.165 65.2785C249.983 62.9805 246.801 61.2128 243.619 59.9754C240.496 58.738 237.256 58.1193 233.897 58.1193C231.422 58.1193 229.389 58.5907 227.798 59.5335C226.266 60.4762 225.5 61.802 225.5 63.5108C225.5 65.2785 226.296 66.5748 227.887 67.3997C229.478 68.2246 231.422 68.6371 233.72 68.6371C235.547 68.6371 236.99 68.3425 238.051 67.7533C239.112 67.1051 239.848 66.1918 240.261 65.0133C240.732 63.7759 240.968 62.3028 240.968 60.5941C240.968 59.0621 240.909 57.0587 240.791 54.5839C240.673 52.1091 240.526 49.3397 240.349 46.2757C240.231 43.2117 240.113 40.0298 239.995 36.7301C239.878 33.3715 239.819 30.1013 239.819 26.9194C239.819 23.5608 239.789 20.5262 239.73 17.8158C239.73 15.0464 239.73 12.9841 239.73 11.6288C239.73 10.9807 239.671 10.0674 239.554 8.88889C239.436 7.71042 239.288 6.67927 239.112 5.79541H251.751ZM208.619 6.76765C208.442 7.35688 208.177 8.18181 207.823 9.24243C207.529 10.303 207.264 11.3342 207.028 12.3359C206.851 13.3376 206.704 14.1036 206.586 14.6339C206.291 15.8713 205.967 17.5506 205.614 19.6718C205.26 21.7342 204.877 24.0911 204.465 26.7426C204.111 29.3353 203.758 32.0163 203.404 34.7857C203.051 37.4961 202.785 40.0888 202.609 42.5635C202.432 44.9794 202.343 47.0712 202.343 48.8389C202.343 49.7227 202.343 50.695 202.343 51.7556C202.402 52.7573 202.52 53.7001 202.697 54.5839C203.109 53.5233 203.522 52.4921 203.934 51.4904C204.406 50.4887 204.877 49.487 205.349 48.4853C205.82 47.4836 206.262 46.4819 206.674 45.4802L212.066 49.8995C211.241 52.3154 210.387 54.8491 209.503 57.5006C208.678 60.1522 207.912 62.6564 207.205 65.0133C206.556 67.3703 206.056 69.3442 205.702 70.9351C205.584 71.5243 205.466 72.2314 205.349 73.0564C205.29 73.8813 205.26 74.5589 205.26 75.0892C205.26 75.5606 205.26 76.1204 205.26 76.7685C205.319 77.4756 205.378 78.1237 205.437 78.713L195.449 79.5084C194.507 76.3855 193.682 72.4082 192.975 67.5765C192.268 62.6859 191.914 57.2354 191.914 51.2253C191.914 47.9256 192.061 44.4786 192.356 40.8842C192.651 37.231 192.975 33.7251 193.328 30.3664C193.741 27.0078 194.153 23.9438 194.566 21.1744C194.978 18.3461 195.302 16.0775 195.538 14.3688C195.715 13.1314 195.891 11.7467 196.068 10.2147C196.245 8.62373 196.363 7.12119 196.422 5.70703L208.619 6.76765Z" fill="#020202"/>
<path d="M119.797 10.5676H175.744V20.0248H119.797V10.5676ZM141.363 -0.126953H152.146V15.0753H141.363V-0.126953ZM141.363 43.5352H150.643V79.0659H141.363V43.5352ZM126.691 42.6514H136.148V51.4015C136.148 53.8762 136.001 56.4689 135.706 59.1793C135.47 61.8898 134.881 64.6297 133.938 67.3991C133.054 70.1685 131.729 72.8201 129.961 75.3538C128.193 77.9464 125.807 80.3623 122.802 82.6013C122.33 81.8943 121.653 81.0988 120.769 80.215C119.885 79.3311 118.942 78.4767 117.941 77.6518C116.998 76.8269 116.114 76.1787 115.289 75.7073C118.707 73.2325 121.211 70.581 122.802 67.7527C124.393 64.9244 125.424 62.0666 125.895 59.1793C126.426 56.2921 126.691 53.5816 126.691 51.0479V42.6514ZM136.325 15.7823L147.461 18.9642C146.342 21.0265 145.193 23.1183 144.014 25.2395C142.836 27.3608 141.687 29.3936 140.567 31.3381C139.448 33.2236 138.387 34.9029 137.385 36.376L128.812 33.3709C129.755 31.78 130.698 29.9534 131.64 27.8911C132.583 25.8288 133.467 23.737 134.292 21.6157C135.176 19.4945 135.853 17.55 136.325 15.7823ZM153.737 24.7092L161.868 20.4667C163.812 22.2344 165.757 24.2378 167.701 26.4769C169.705 28.6571 171.531 30.8372 173.181 33.0174C174.89 35.1976 176.216 37.2304 177.159 39.116L168.232 43.8887C167.466 42.121 166.287 40.1177 164.696 37.8786C163.105 35.6395 161.338 33.3709 159.393 31.0729C157.508 28.7749 155.622 26.6537 153.737 24.7092ZM120.327 30.5426C124.216 30.4837 128.694 30.3953 133.762 30.2775C138.829 30.1007 144.191 29.9534 149.848 29.8355C155.504 29.6588 161.131 29.4525 166.729 29.2168L166.464 38.1437C161.161 38.4383 155.799 38.733 150.378 39.0276C145.016 39.3222 139.86 39.5873 134.911 39.823C129.961 40.0587 125.453 40.265 121.388 40.4417L120.327 30.5426ZM98.4076 8.09284L104.153 0.314971C105.979 1.02205 107.894 1.87643 109.898 2.87813C111.96 3.87983 113.904 4.91099 115.731 5.97161C117.617 7.03223 119.119 8.09284 120.239 9.15346L114.14 17.8152C113.079 16.7546 111.665 15.635 109.898 14.4566C108.13 13.2781 106.215 12.1291 104.153 11.0095C102.149 9.89 100.234 8.91777 98.4076 8.09284ZM93.2812 32.2219L98.9379 24.1789C100.823 24.8271 102.797 25.6225 104.86 26.5653C106.922 27.5081 108.896 28.5098 110.781 29.5704C112.667 30.631 114.199 31.6622 115.377 32.6639L109.279 41.5023C108.218 40.5007 106.775 39.44 104.948 38.3205C103.121 37.142 101.177 36.0225 99.1147 34.9619C97.1113 33.9012 95.1668 32.9879 93.2812 32.2219ZM95.8444 75.0886C97.3175 72.7906 98.9673 70.1096 100.794 67.0456C102.621 63.9227 104.477 60.623 106.362 57.1465C108.248 53.67 110.015 50.1935 111.665 46.7171L119.708 53.3459C118.235 56.4689 116.674 59.6802 115.024 62.9799C113.433 66.2796 111.783 69.5204 110.074 72.7022C108.425 75.8252 106.775 78.8303 105.125 81.7175L95.8444 75.0886ZM155.946 42.6514H165.757V70.2274C165.757 71.7005 165.845 72.5549 166.022 72.7906C166.14 72.9085 166.258 73.0263 166.376 73.1441C166.552 73.2031 166.729 73.2325 166.906 73.2325C167.142 73.2325 167.377 73.2325 167.613 73.2325C167.908 73.2325 168.143 73.2325 168.32 73.2325C168.556 73.2325 168.791 73.2031 169.027 73.1441C169.263 73.0852 169.41 72.9968 169.469 72.879C169.764 72.7022 169.999 71.9362 170.176 70.581C170.235 69.8739 170.265 68.7838 170.265 67.3107C170.323 65.8377 170.382 64.0994 170.441 62.096C171.266 62.862 172.356 63.628 173.712 64.394C175.126 65.1011 176.422 65.6609 177.6 66.0734C177.542 68.0178 177.394 69.9918 177.159 71.9951C176.982 73.9985 176.776 75.4716 176.54 76.4144C175.951 78.2999 174.949 79.6552 173.535 80.4801C172.946 80.8336 172.18 81.0988 171.237 81.2756C170.353 81.5113 169.499 81.6291 168.674 81.6291C168.025 81.6291 167.23 81.6291 166.287 81.6291C165.403 81.6291 164.667 81.6291 164.078 81.6291C163.076 81.6291 162.015 81.4523 160.896 81.0988C159.776 80.7453 158.863 80.1855 158.156 79.4195C157.39 78.6535 156.83 77.6223 156.476 76.326C156.123 75.0886 155.946 72.9674 155.946 69.9623V42.6514Z" fill="#020202"/>
<path d="M43.6041 -0.126953L53.238 1.72913C52.1185 6.61976 50.7633 11.3925 49.1723 16.0475C47.5814 20.6435 45.7548 24.9449 43.6925 28.9517C41.6301 32.8995 39.3911 36.376 36.9752 39.3811C36.4449 38.7919 35.6789 38.1437 34.6772 37.4366C33.6755 36.6706 32.6443 35.9341 31.5837 35.227C30.582 34.461 29.7276 33.8423 29.0206 33.3709C31.3775 30.7783 33.4693 27.7143 35.2959 24.1789C37.1814 20.6435 38.8018 16.8135 40.1571 12.6889C41.5712 8.50531 42.7202 4.23337 43.6041 -0.126953ZM73.3014 13.6611H83.3773C83.3773 13.6611 83.3478 13.9852 83.2889 14.6333C83.2889 15.2226 83.2889 15.9002 83.2889 16.6662C83.2889 17.4322 83.2595 18.0214 83.2005 18.4339C82.7881 28.3919 82.3461 36.8474 81.8748 43.8004C81.4623 50.7533 80.9909 56.4983 80.4606 61.0354C79.9892 65.5136 79.4294 69.049 78.7813 71.6416C78.1331 74.1753 77.3966 76.0019 76.5717 77.1215C75.511 78.5946 74.4504 79.6552 73.3898 80.3033C72.3292 80.9515 71.0623 81.4229 69.5893 81.7175C68.3519 81.9532 66.8493 82.071 65.0816 82.071C63.3139 82.13 61.4578 82.1005 59.5134 81.9826C59.3955 80.4506 59.0714 78.7124 58.5411 76.7679C58.0697 74.8235 57.4216 73.1147 56.5967 71.6416C58.2465 71.8184 59.7785 71.9362 61.1927 71.9951C62.6068 71.9951 63.7264 71.9951 64.5513 71.9951C65.2584 71.9951 65.8182 71.8773 66.2306 71.6416C66.702 71.4059 67.2029 70.964 67.7332 70.3158C68.3224 69.6088 68.8822 68.1357 69.4125 65.8966C69.9428 63.5986 70.4436 60.3283 70.915 56.0859C71.3864 51.8434 71.7989 46.4519 72.1524 39.9114C72.5649 33.312 72.9479 25.3279 73.3014 15.9591V13.6611ZM46.2556 13.6611H77.8091V23.4718H41.4828L46.2556 13.6611ZM52.531 16.8429L60.2204 20.6435C59.042 25.7109 57.4216 30.8962 55.3593 36.1993C53.297 41.4434 50.8811 46.3635 48.1117 50.9595C45.4012 55.5556 42.4551 59.3561 39.2732 62.3612C38.2715 61.4184 37.0047 60.3873 35.4727 59.2677C33.9407 58.0893 32.4676 57.1465 31.0534 56.4394C33.646 54.436 36.0619 51.9612 38.301 49.0151C40.5401 46.01 42.5729 42.7397 44.3995 39.2043C46.2262 35.61 47.8171 31.9273 49.1723 28.1562C50.5276 24.3262 51.6471 20.5551 52.531 16.8429ZM64.8165 17.9036L73.0363 21.7041C71.9167 27.4197 70.5026 33.1352 68.7938 38.8508C67.1439 44.5664 65.1405 50.0462 62.7836 55.2904C60.4856 60.5346 57.8341 65.3663 54.829 69.7855C51.8239 74.1458 48.4653 77.8286 44.7531 80.8336C43.7514 79.8319 42.4256 78.7419 40.7758 77.5634C39.1848 76.3849 37.6528 75.4127 36.1797 74.6467C40.0098 71.8773 43.4568 68.4597 46.5208 64.394C49.6437 60.2694 52.3837 55.7029 54.7406 50.6944C57.0975 45.627 59.1009 40.3239 60.7508 34.7851C62.4006 29.1874 63.7558 23.5602 64.8165 17.9036ZM0.383849 48.1312C3.27109 47.4241 6.54133 46.5992 10.1946 45.6564C13.9067 44.7137 17.7957 43.6825 21.8614 42.563C25.986 41.3845 30.0812 40.2355 34.1469 39.116L35.4727 48.3964C29.9339 50.1641 24.2772 51.9318 18.5028 53.6995C12.7872 55.4082 7.60195 56.9403 2.94701 58.2955L0.383849 48.1312ZM16.2048 -0.0385695H25.9271V82.9549H16.2048V-0.0385695ZM4.53794 4.99937L13.4648 6.41353C13.0524 10.3025 12.5515 14.2209 11.9623 18.1687C11.373 22.0577 10.666 25.7404 9.84104 29.2168C9.01611 32.6933 8.07334 35.7573 7.01272 38.4089C6.48241 37.9964 5.74587 37.4956 4.8031 36.9063C3.86032 36.2582 2.91755 35.6395 1.97478 35.0502C1.03201 34.4021 0.207079 33.9307 -0.5 33.6361C0.442772 31.2202 1.23824 28.4803 1.88639 25.4163C2.59347 22.2934 3.15324 18.9937 3.56571 15.5172C4.03709 11.9818 4.36117 8.47584 4.53794 4.99937ZM7.01272 17.0197H33.3514V27.0956H4.97987L7.01272 17.0197Z" fill="#020202"/>
</g>
<defs>
<clipPath id="clip0_227_43384">
<rect width="829" height="189" fill="white"/>
</clipPath>
</defs>
</svg>
