<svg width="834" height="309" viewBox="0 0 834 309" fill="none" xmlns="http://www.w3.org/2000/svg">
<g clip-path="url(#clip0_227_43367)">
<rect width="834" height="309" fill="#F6F6F6"/>
<g clip-path="url(#clip1_227_43367)">
<path d="M440.884 156.209H494.729V102.365H440.884V156.209Z" fill="#B81C22"/>
<path d="M680.515 187.854H713.939V154.429H680.515V187.854Z" fill="#B81C22"/>
<path d="M478.87 208.174C479.772 209.001 480.674 209.778 481.601 210.529L559.824 126.142C558.997 125.265 558.145 124.413 557.269 123.587C556.993 123.311 556.692 123.085 556.392 122.81L478.043 207.347C478.319 207.623 478.594 207.898 478.87 208.174Z" fill="white"/>
<path d="M498.739 220.201L570.773 142.479C570.097 140.925 569.32 139.397 568.493 137.894L494.003 218.247C495.557 218.973 497.135 219.6 498.739 220.176V220.201Z" fill="white"/>
<path d="M474.711 203.889L552.684 119.752C551.381 118.775 550.053 117.873 548.7 117.021L471.679 200.105C472.631 201.383 473.633 202.661 474.711 203.889Z" fill="white"/>
<path d="M468.922 196.047L544.414 114.591C542.911 113.815 541.382 113.113 539.854 112.487L466.491 191.637C467.243 193.14 468.07 194.594 468.947 196.022L468.922 196.047Z" fill="white"/>
<path d="M464.362 186.902L534.943 110.733C533.189 110.207 531.436 109.756 529.657 109.38L462.608 181.716C463.109 183.47 463.685 185.174 464.362 186.877V186.902Z" fill="white"/>
<path d="M560.351 205.066C563.282 201.884 565.788 198.476 567.893 194.868L550.755 213.359C554.187 211.004 557.394 208.248 560.351 205.066Z" fill="white"/>
<path d="M538.151 219.924L573.454 181.84C574.306 178.883 574.907 175.876 575.283 172.82L529.306 222.43C532.313 221.828 535.269 221.002 538.151 219.924Z" fill="white"/>
<path d="M509.312 222.881L574.23 152.851C573.805 151.022 573.303 149.243 572.702 147.464L503.824 221.778C505.628 222.229 507.482 222.605 509.312 222.881Z" fill="white"/>
<path d="M521.89 223.382L575.709 165.329C575.709 163.124 575.559 160.944 575.283 158.764L515.325 223.457C517.53 223.558 519.71 223.533 521.915 223.382H521.89Z" fill="white"/>
<path d="M489.593 216.016L565.887 133.683C564.985 132.355 564.033 131.027 563.005 129.749L485.458 213.41C486.811 214.337 488.189 215.189 489.593 215.991V216.016Z" fill="white"/>
<path d="M460.479 162.924L510.74 108.704C508.034 109.054 505.353 109.581 502.722 110.307L461.481 154.806C460.955 157.487 460.629 160.193 460.479 162.924Z" fill="white"/>
<path d="M475.788 126.693C470.827 132.055 467.094 138.093 464.538 144.482L492.676 114.115C486.487 117.147 480.749 121.331 475.788 126.693Z" fill="white"/>
<path d="M461.33 176.104L523.969 108.529C521.889 108.328 519.81 108.228 517.705 108.253L460.578 169.89C460.729 171.969 460.979 174.049 461.33 176.104Z" fill="white"/>
<path d="M715.243 310H835.51V189.733H715.243V310Z" fill="#B81C22"/>
<path d="M384.51 310H397.062V297.447H384.51V310Z" fill="#B81C22"/>
<path d="M806.519 75.4297H819.072V62.8769H806.519V75.4297Z" fill="#B81C22"/>
<path d="M384.509 95.1484H420.213V59.4443H384.509V95.1484Z" fill="#B81C22"/>
<path d="M384.509 243.178H420.213V207.474H384.509V243.178Z" fill="#B81C22"/>
<path d="M579.542 122.135H615.246V86.4306H579.542V122.135Z" fill="#B81C22"/>
<g style="mix-blend-mode:color-dodge">
<path d="M441.336 302.533C442.263 302.533 443.19 302.483 444.117 302.433V214.062C443.19 214.012 442.263 213.962 441.336 213.962C441.035 213.962 440.735 213.962 440.434 213.962V302.508C440.735 302.508 441.035 302.508 441.336 302.508V302.533Z" fill="url(#paint0_linear_227_43367)"/>
<path d="M458.799 298.95V217.57C457.596 217.043 456.368 216.592 455.116 216.192V300.328C456.368 299.927 457.596 299.451 458.799 298.95Z" fill="url(#paint1_linear_227_43367)"/>
<path d="M436.75 302.309V214.213C435.497 214.339 434.295 214.539 433.067 214.764V301.757C434.269 301.983 435.497 302.183 436.75 302.309Z" fill="url(#paint2_linear_227_43367)"/>
<path d="M429.41 300.904V215.615C428.157 215.966 426.93 216.367 425.727 216.818V299.702C426.93 300.153 428.157 300.554 429.41 300.904Z" fill="url(#paint3_linear_227_43367)"/>
<path d="M422.043 298.123V218.371C420.79 218.973 419.562 219.649 418.36 220.376V296.119C419.537 296.845 420.765 297.497 422.043 298.123Z" fill="url(#paint4_linear_227_43367)"/>
<path d="M485.609 258.26C485.609 254.928 485.234 251.696 484.532 248.589V267.932C485.234 264.825 485.609 261.593 485.609 258.26Z" fill="url(#paint5_linear_227_43367)"/>
<path d="M480.85 278.203V238.315C479.772 236.21 478.544 234.181 477.166 232.302V284.217C478.544 282.313 479.772 280.308 480.85 278.203Z" fill="url(#paint6_linear_227_43367)"/>
<path d="M466.166 294.917V221.579C464.988 220.777 463.761 220.026 462.483 219.349V297.172C463.736 296.495 464.963 295.744 466.166 294.942V294.917Z" fill="url(#paint7_linear_227_43367)"/>
<path d="M473.508 288.652V227.867C472.355 226.64 471.128 225.487 469.825 224.385V292.135C471.128 291.057 472.33 289.88 473.508 288.652Z" fill="url(#paint8_linear_227_43367)"/>
<path d="M451.459 301.355V215.164C450.256 214.888 449.029 214.638 447.776 214.462V302.057C449.029 301.881 450.231 301.631 451.459 301.355Z" fill="url(#paint9_linear_227_43367)"/>
<path d="M407.361 286.648V229.873C406.008 231.476 404.781 233.18 403.678 234.959V281.562C404.781 283.341 406.008 285.045 407.361 286.648Z" fill="url(#paint10_linear_227_43367)"/>
<path d="M397.063 258.259C397.063 263.872 398.115 269.209 400.02 274.145V242.349C398.115 247.285 397.063 252.647 397.063 258.234V258.259Z" fill="url(#paint11_linear_227_43367)"/>
<path d="M414.701 293.639V222.882C413.423 223.859 412.196 224.886 411.018 225.989V290.532C412.196 291.634 413.398 292.662 414.701 293.639Z" fill="url(#paint12_linear_227_43367)"/>
</g>
<g style="mix-blend-mode:color-dodge" opacity="0.15">
<path d="M665.308 245.032C666.41 246.059 667.563 247.036 668.716 247.988L766.332 142.655C765.305 141.577 764.252 140.5 763.125 139.473C762.774 139.147 762.398 138.821 762.022 138.496L664.231 244.004C664.581 244.355 664.907 244.681 665.283 245.032H665.308Z" fill="url(#paint13_linear_227_43367)"/>
<path d="M690.087 260.064L780.012 163.074C779.16 161.145 778.208 159.241 777.155 157.362L684.199 257.659C686.154 258.561 688.108 259.363 690.112 260.064H690.087Z" fill="url(#paint14_linear_227_43367)"/>
<path d="M660.096 239.694L757.412 134.711C755.783 133.483 754.13 132.356 752.426 131.303L656.313 235.008C657.491 236.612 658.743 238.19 660.096 239.719V239.694Z" fill="url(#paint15_linear_227_43367)"/>
<path d="M652.906 229.898L747.115 128.248C745.236 127.296 743.332 126.394 741.403 125.617L649.825 224.411C650.752 226.265 651.779 228.094 652.881 229.898H652.906Z" fill="url(#paint16_linear_227_43367)"/>
<path d="M647.192 218.498L735.287 123.462C733.107 122.786 730.902 122.235 728.697 121.784L645.012 212.059C645.638 214.239 646.365 216.393 647.192 218.498Z" fill="url(#paint17_linear_227_43367)"/>
<path d="M766.983 241.172C770.667 237.213 773.773 232.928 776.404 228.443L755.032 251.52C759.291 248.563 763.325 245.13 767.008 241.172H766.983Z" fill="url(#paint18_linear_227_43367)"/>
<path d="M739.298 259.688L783.37 212.158C784.423 208.475 785.199 204.716 785.65 200.908L728.273 262.82C732.006 262.069 735.715 261.041 739.323 259.688H739.298Z" fill="url(#paint19_linear_227_43367)"/>
<path d="M703.293 263.396L784.322 175.978C783.796 173.698 783.17 171.468 782.418 169.238L696.452 261.993C698.707 262.57 701.013 263.021 703.318 263.371L703.293 263.396Z" fill="url(#paint20_linear_227_43367)"/>
<path d="M719.002 264.048L786.176 191.587C786.151 188.856 785.975 186.1 785.625 183.394L710.784 264.148C713.515 264.274 716.271 264.248 719.002 264.073V264.048Z" fill="url(#paint21_linear_227_43367)"/>
<path d="M678.662 254.828L773.898 152.075C772.771 150.397 771.568 148.768 770.29 147.164L673.501 251.596C675.18 252.749 676.908 253.826 678.662 254.828Z" fill="url(#paint22_linear_227_43367)"/>
<path d="M642.356 188.557L705.07 120.882C701.713 121.308 698.355 121.984 695.073 122.886L643.584 178.434C642.933 181.792 642.507 185.174 642.356 188.557Z" fill="url(#paint23_linear_227_43367)"/>
<path d="M661.45 143.33C655.261 150.02 650.601 157.562 647.419 165.529L682.547 127.645C674.83 131.429 667.664 136.64 661.475 143.33H661.45Z" fill="url(#paint24_linear_227_43367)"/>
<path d="M643.409 205.018L721.582 120.681C718.976 120.405 716.37 120.305 713.765 120.33L642.457 197.25C642.632 199.856 642.958 202.437 643.409 205.018Z" fill="url(#paint25_linear_227_43367)"/>
</g>
<g opacity="0.6">
<path d="M397.722 137.011L392.85 141.883L415.155 164.188L420.027 159.316L397.722 137.011Z" fill="white"/>
<path d="M405.513 128.821L400.641 133.693L422.946 155.999L427.818 151.127L405.513 128.821Z" fill="white"/>
<path d="M414.284 120.421L409.412 125.293L431.718 147.599L436.59 142.726L414.284 120.421Z" fill="white"/>
</g>
<g opacity="0.15">
<path d="M506.724 252.247L501.852 257.119L524.157 279.425L529.029 274.553L506.724 252.247Z" fill="white"/>
<path d="M514.54 244.058L509.668 248.93L531.974 271.235L536.846 266.363L514.54 244.058Z" fill="white"/>
<path d="M523.269 235.673L518.396 240.545L540.702 262.851L545.574 257.978L523.269 235.673Z" fill="white"/>
</g>
<g opacity="0.15">
<path d="M390.362 80.1337L385.49 85.0059L407.796 107.311L412.668 102.439L390.362 80.1337Z" fill="white"/>
<path d="M398.179 71.9696L393.307 76.8418L415.612 99.1474L420.484 94.2753L398.179 71.9696Z" fill="white"/>
<path d="M406.925 63.5419L402.053 68.4141L424.358 90.7197L429.231 85.8475L406.925 63.5419Z" fill="white"/>
</g>
<path d="M826.619 249.533L829.121 247.039L826.273 244.182L823.771 246.676L826.619 249.533Z" fill="white"/>
<path d="M819.99 256.191L822.492 253.697L819.644 250.84L817.142 253.335L819.99 256.191Z" fill="white"/>
<path d="M813.953 262.189L816.455 259.695L813.607 256.838L811.105 259.333L813.953 262.189Z" fill="white"/>
<path d="M473.141 123.246L475.643 120.752L472.795 117.895L470.293 120.389L473.141 123.246Z" fill="white"/>
<path d="M466.504 129.947L469.006 127.453L466.158 124.596L463.656 127.09L466.504 129.947Z" fill="white"/>
<path d="M460.467 135.922L462.969 133.428L460.121 130.571L457.619 133.065L460.467 135.922Z" fill="white"/>
<g opacity="0.87">
<path d="M448.4 184.597V180.889H384.509V184.597H448.4Z" fill="url(#paint26_linear_227_43367)"/>
<path d="M467.143 193.665V189.957H384.509V193.665H467.143Z" fill="url(#paint27_linear_227_43367)"/>
<path d="M497.836 203.313V199.129H384.51V203.313H497.836Z" fill="url(#paint28_linear_227_43367)"/>
</g>
<g style="mix-blend-mode:color-dodge">
<path d="M821.153 192.264H783.244C783.319 190.81 783.395 189.357 783.395 187.879C783.395 186.401 783.345 184.947 783.244 183.494H821.003C821.153 185.699 821.229 187.904 821.229 190.134C821.229 190.836 821.203 191.562 821.178 192.264H821.153Z" fill="white"/>
<path d="M647.043 187.854C647.043 189.332 647.093 190.785 647.194 192.238H609.335C609.31 191.537 609.285 190.81 609.285 190.109C609.285 187.879 609.36 185.649 609.51 183.469H647.219C647.144 184.922 647.068 186.375 647.068 187.854H647.043Z" fill="white"/>
<path d="M815.941 157.061H776.078C774.55 153.979 772.746 151.047 770.741 148.266H812.634C813.862 151.122 814.964 154.054 815.941 157.061Z" fill="white"/>
<path d="M659.746 148.291C657.742 151.048 655.963 154.004 654.409 157.086H614.546C615.523 154.104 616.625 151.148 617.853 148.291H659.746Z" fill="white"/>
<path d="M819.375 209.854H779.762C780.764 206.997 781.566 204.091 782.117 201.059H820.678C820.352 204.016 819.901 206.972 819.375 209.854Z" fill="white"/>
<path d="M648.371 201.059C648.947 204.091 649.699 206.997 650.701 209.854H611.113C610.562 206.972 610.111 204.041 609.811 201.059H648.371Z" fill="white"/>
<path d="M814.439 227.441H770.742C772.746 224.685 774.525 221.729 776.079 218.647H817.32C816.493 221.629 815.516 224.585 814.439 227.441Z" fill="white"/>
<path d="M654.409 218.672C655.938 221.754 657.742 224.686 659.746 227.467H616.049C614.972 224.61 613.995 221.679 613.168 218.672H654.409Z" fill="white"/>
<path d="M805.919 245.031H752.4C756.334 242.476 759.992 239.519 763.3 236.237H810.68C809.226 239.268 807.623 242.2 805.919 245.031Z" fill="white"/>
<path d="M667.212 236.262C670.519 239.544 674.178 242.501 678.111 245.057H624.593C622.889 242.225 621.285 239.294 619.807 236.262H667.237H667.212Z" fill="white"/>
<path d="M715.244 84.1244C707.276 84.1244 699.534 85.0264 692.092 86.7051H738.42C730.953 85.0514 723.211 84.1244 715.269 84.1244H715.244Z" fill="white"/>
<path d="M762.974 95.4985H667.488C662.426 98.0541 657.616 100.986 653.056 104.293H777.406C772.846 100.986 768.035 98.0541 762.974 95.4985Z" fill="white"/>
<path d="M808.35 139.471H763.275C759.968 136.188 756.31 133.257 752.376 130.676H803.013C804.942 133.507 806.746 136.439 808.375 139.471H808.35Z" fill="white"/>
<path d="M678.111 130.702C674.178 133.232 670.519 136.214 667.212 139.496H622.112C623.766 136.464 625.57 133.533 627.499 130.702H678.111Z" fill="white"/>
<path d="M732.458 121.883C726.945 120.455 721.183 119.678 715.244 119.678C709.306 119.678 703.518 120.455 698.031 121.883H634.19C636.795 118.801 639.577 115.869 642.508 113.088H788.006C790.937 115.844 793.743 118.801 796.324 121.883H732.458Z" fill="white"/>
<path d="M820.102 174.674H782.117C781.541 171.692 780.739 168.736 779.762 165.879H818.398C819.074 168.761 819.651 171.692 820.102 174.674Z" fill="white"/>
<path d="M650.701 165.879C649.699 168.736 648.922 171.667 648.371 174.674H610.387C610.838 171.717 611.414 168.761 612.066 165.879H650.701Z" fill="white"/>
<path d="M783.193 271.44H647.292C651.126 274.647 655.21 277.578 659.469 280.234H771.016C775.276 277.578 779.36 274.647 783.193 271.44Z" fill="white"/>
<path d="M715.243 296.119C728.648 296.119 741.477 293.614 753.303 289.053H677.209C689.035 293.614 701.839 296.119 715.268 296.119H715.243Z" fill="white"/>
<path d="M792.49 262.67H637.998C635.367 259.839 632.886 256.932 630.581 253.85H698.031C703.543 255.279 709.306 256.055 715.244 256.055C721.182 256.055 726.97 255.279 732.457 253.85H799.932C797.627 256.932 795.146 259.839 792.49 262.67Z" fill="white"/>
</g>
<path d="M585.154 267.43C585.655 267.43 586.131 267.43 586.607 267.38V220.801C586.131 220.776 585.63 220.751 585.154 220.751C585.004 220.751 584.828 220.751 584.678 220.751V267.405C584.828 267.405 585.004 267.405 585.154 267.405V267.43Z" fill="white"/>
<path d="M594.35 265.525V222.63C593.723 222.355 593.072 222.129 592.42 221.904V266.252C593.072 266.026 593.723 265.801 594.35 265.525Z" fill="white"/>
<path d="M578.865 266.553V221.603C578.214 221.778 577.562 222.004 576.936 222.229V265.926C577.562 266.177 578.214 266.377 578.865 266.553Z" fill="white"/>
<path d="M608.48 244.078C608.48 242.324 608.28 240.62 607.904 238.966V249.164C608.28 247.51 608.48 245.807 608.48 244.053V244.078Z" fill="white"/>
<path d="M602.117 260.114V228.068C601.516 227.417 600.864 226.815 600.188 226.239V261.943C600.864 261.367 601.516 260.766 602.117 260.114Z" fill="white"/>
<path d="M561.802 244.079C561.802 247.035 562.353 249.867 563.355 252.447V235.685C562.353 238.291 561.802 241.122 561.802 244.054V244.079Z" fill="white"/>
<path d="M571.098 262.719V225.411C570.421 225.912 569.77 226.463 569.168 227.04V261.065C569.795 261.641 570.421 262.193 571.098 262.694V262.719Z" fill="white"/>
<path d="M582.725 278.105V231.678C582.073 231.753 581.422 231.853 580.795 231.953V277.83C581.422 277.955 582.073 278.055 582.725 278.105Z" fill="#B81C22"/>
<path d="M574.982 275.9V233.857C574.331 234.183 573.68 234.534 573.053 234.91V274.848C573.68 275.224 574.331 275.575 574.982 275.9Z" fill="#B81C22"/>
<path d="M605.977 265.402V244.38C605.425 243.278 604.774 242.2 604.047 241.198V268.584C604.774 267.582 605.425 266.529 605.977 265.402Z" fill="#B81C22"/>
<path d="M598.234 274.221V235.56C597.608 235.134 596.957 234.733 596.305 234.382V275.398C596.982 275.048 597.608 274.647 598.234 274.221Z" fill="#B81C22"/>
<path d="M590.492 277.605V232.154C589.866 232.004 589.214 231.878 588.563 231.778V277.98C589.214 277.88 589.866 277.755 590.492 277.605Z" fill="#B81C22"/>
<path d="M567.24 269.861V239.945C566.539 240.797 565.887 241.699 565.311 242.626V267.18C565.887 268.132 566.539 269.009 567.24 269.861Z" fill="#B81C22"/>
<path d="M830.499 86.0273H835.51V80.5402H830.499V86.0273Z" fill="white"/>
<path d="M793.34 86.0273H798.352V80.5402H793.34V86.0273Z" fill="white"/>
<path d="M756.159 86.0273H761.17V80.5402H756.159V86.0273Z" fill="white"/>
<path d="M719.001 86.0273H724.012V80.5402H719.001V86.0273Z" fill="white"/>
<path d="M681.844 86.0273H686.855V80.5402H681.844V86.0273Z" fill="white"/>
<path d="M644.661 86.0273H649.672V80.5402H644.661V86.0273Z" fill="white"/>
<path d="M607.505 86.0273H612.516V80.5402H607.505V86.0273Z" fill="white"/>
<path d="M570.346 86.0273H575.357V80.5402H570.346V86.0273Z" fill="white"/>
<path d="M533.19 86.0273H538.201V80.5402H533.19V86.0273Z" fill="white"/>
<path d="M496.006 86.0273H501.018V80.5402H496.006V86.0273Z" fill="white"/>
<path d="M458.85 86.0273H463.861V80.5402H458.85V86.0273Z" fill="white"/>
<path d="M421.692 86.0273H426.703V80.5402H421.692V86.0273Z" fill="white"/>
<path d="M384.51 86.0273H389.521V80.5402H384.51V86.0273Z" fill="white"/>
<path d="M791.337 293.588H795.471V291.533H791.337V293.588Z" fill="white"/>
<path d="M760.768 293.588H764.902V291.533H760.768V293.588Z" fill="white"/>
<path d="M730.202 293.588H734.336V291.533H730.202V293.588Z" fill="white"/>
<path d="M699.633 293.588H703.768V291.533H699.633V293.588Z" fill="white"/>
<path d="M669.065 293.588H673.199V291.533H669.065V293.588Z" fill="white"/>
<path d="M638.499 293.588H642.633V291.533H638.499V293.588Z" fill="white"/>
<path d="M607.93 293.588H612.064V291.533H607.93V293.588Z" fill="white"/>
<path d="M577.362 293.588H581.496V291.533H577.362V293.588Z" fill="white"/>
<path d="M546.819 293.588H550.953V291.533H546.819V293.588Z" fill="white"/>
<path d="M516.251 293.588H520.385V291.533H516.251V293.588Z" fill="white"/>
<path d="M485.684 293.588H489.818V291.533H485.684V293.588Z" fill="white"/>
<path d="M455.116 293.588H459.25V291.533H455.116V293.588Z" fill="white"/>
<path d="M424.547 293.588H428.682V291.533H424.547V293.588Z" fill="white"/>
</g>
<path d="M828.539 163.08C831.249 163.08 833.665 163.728 835.786 165.025C837.907 166.321 839.616 168.059 840.912 170.239C842.209 172.36 842.857 174.747 842.857 177.398C842.857 179.991 842.209 182.377 840.912 184.558C839.616 186.738 837.907 188.476 835.786 189.772C833.665 191.069 831.249 191.717 828.539 191.717C825.946 191.717 823.56 191.069 821.379 189.772C819.199 188.476 817.461 186.738 816.165 184.558C814.927 182.377 814.309 179.991 814.309 177.398C814.309 174.747 814.927 172.36 816.165 170.239C817.461 168.059 819.199 166.321 821.379 165.025C823.56 163.728 825.946 163.08 828.539 163.08ZM828.627 185.353C830.807 185.353 832.663 184.587 834.195 183.055C835.727 181.464 836.493 179.579 836.493 177.398C836.493 175.925 836.14 174.6 835.433 173.421C834.726 172.184 833.753 171.211 832.516 170.504C831.337 169.797 830.041 169.444 828.627 169.444C827.154 169.444 825.828 169.797 824.65 170.504C823.471 171.211 822.499 172.184 821.733 173.421C821.026 174.6 820.672 175.925 820.672 177.398C820.672 178.872 821.026 180.227 821.733 181.464C822.499 182.643 823.471 183.585 824.65 184.292C825.828 185 827.154 185.353 828.627 185.353Z" fill="#020202"/>
<path d="M731.316 124.28H758.45V183.763H731.316V174.482H748.904V133.472H731.316V124.28ZM725.129 124.28H734.763V190.303H725.129V124.28ZM730.962 147.879H753.5V157.071H730.962V147.879ZM737.768 109.873L749.258 111.552C748.315 114.557 747.284 117.533 746.165 120.479C745.104 123.425 744.132 125.93 743.248 127.992L734.763 126.047C735.175 124.515 735.558 122.807 735.912 120.921C736.324 119.036 736.707 117.121 737.061 115.176C737.414 113.232 737.65 111.464 737.768 109.873ZM770.117 123.573H796.014V133.295H770.117V123.573ZM792.301 123.573H802.112C802.112 123.573 802.112 123.897 802.112 124.545C802.112 125.134 802.112 125.812 802.112 126.578C802.112 127.344 802.083 127.933 802.024 128.345C801.788 138.304 801.493 146.759 801.14 153.712C800.845 160.606 800.462 166.322 799.991 170.859C799.579 175.337 799.078 178.843 798.488 181.376C797.899 183.91 797.133 185.766 796.19 186.945C795.012 188.653 793.745 189.832 792.39 190.48C791.035 191.128 789.473 191.6 787.705 191.894C785.997 192.13 783.875 192.218 781.342 192.159C778.867 192.159 776.333 192.13 773.741 192.071C773.682 190.598 773.328 188.86 772.68 186.856C772.032 184.912 771.236 183.203 770.294 181.73C773.122 181.966 775.744 182.113 778.16 182.172C780.635 182.231 782.432 182.26 783.551 182.26C784.435 182.26 785.142 182.172 785.673 181.995C786.262 181.759 786.822 181.347 787.352 180.758C788.118 179.992 788.737 178.43 789.208 176.073C789.738 173.658 790.18 170.269 790.534 165.909C790.887 161.549 791.211 156.039 791.506 149.381C791.801 142.723 792.066 134.798 792.301 125.606V123.573ZM770.382 109.961L780.635 112.348C779.515 116.649 778.13 120.951 776.481 125.252C774.89 129.553 773.122 133.619 771.177 137.449C769.292 141.22 767.347 144.52 765.344 147.348C764.755 146.759 763.9 146.081 762.781 145.315C761.72 144.49 760.63 143.695 759.511 142.929C758.45 142.163 757.507 141.574 756.682 141.161C758.627 138.628 760.453 135.711 762.162 132.411C763.93 129.053 765.491 125.458 766.847 121.628C768.261 117.739 769.439 113.85 770.382 109.961ZM766.051 149.116L774.359 144.432C775.832 146.435 777.394 148.645 779.044 151.06C780.694 153.476 782.255 155.833 783.728 158.131C785.201 160.429 786.409 162.462 787.352 164.23L778.337 169.71C777.512 167.883 776.392 165.791 774.978 163.434C773.623 161.077 772.15 158.662 770.559 156.187C769.027 153.653 767.524 151.296 766.051 149.116Z" fill="#020202"/>
<path d="M645.937 135.151H693.93V145.227H645.937V135.151ZM645.937 155.657H693.93V165.732H645.937V155.657ZM645.937 176.074H693.93V186.415H645.937V176.074ZM638.336 114.734H701.354V191.983H690.041V125.075H649.031V191.983H638.336V114.734Z" fill="#020202"/>
<path d="M582.122 191.099C580.354 188.86 578.38 186.591 576.2 184.293C574.02 181.995 571.81 179.756 569.571 177.576C567.332 175.337 565.181 173.334 563.119 171.566L572.311 163.611C574.432 165.32 576.701 167.353 579.117 169.71C581.533 172.008 583.831 174.335 586.011 176.692C588.25 179.049 590.106 181.141 591.579 182.968L582.122 191.099Z" fill="#020202"/>
<path d="M508.722 115.795C508.486 116.914 508.221 118.152 507.927 119.507C507.632 120.803 507.367 122.011 507.131 123.131C506.896 124.427 506.601 125.9 506.247 127.55C505.894 129.141 505.54 130.761 505.187 132.411C504.892 134.002 504.568 135.564 504.215 137.096C503.625 139.629 502.889 142.576 502.005 145.934C501.121 149.293 500.09 152.917 498.911 156.806C497.733 160.636 496.407 164.495 494.934 168.384C493.461 172.273 491.9 176.073 490.25 179.786C488.6 183.439 486.832 186.739 484.947 189.685L473.457 185.089C475.519 182.319 477.434 179.226 479.202 175.808C481.028 172.332 482.678 168.796 484.151 165.202C485.624 161.549 486.921 157.955 488.04 154.419C489.219 150.825 490.22 147.496 491.045 144.432C491.929 141.368 492.607 138.746 493.078 136.565C493.903 132.559 494.551 128.699 495.022 124.987C495.494 121.275 495.671 117.769 495.553 114.469L508.722 115.795ZM539.127 124.722C540.541 126.666 541.984 129.053 543.457 131.881C544.989 134.65 546.492 137.597 547.965 140.719C549.438 143.842 550.764 146.847 551.942 149.735C553.121 152.622 554.034 155.126 554.682 157.247L543.457 162.374C542.927 159.899 542.132 157.159 541.071 154.154C540.069 151.149 538.891 148.114 537.536 145.05C536.18 141.927 534.737 138.981 533.205 136.212C531.732 133.442 530.2 131.115 528.609 129.229L539.127 124.722ZM472.838 133.914C474.429 134.032 475.99 134.091 477.522 134.091C479.113 134.032 480.704 133.973 482.295 133.914C483.768 133.855 485.536 133.767 487.598 133.649C489.66 133.472 491.841 133.295 494.139 133.118C496.496 132.942 498.853 132.765 501.209 132.588C503.566 132.352 505.747 132.176 507.75 132.058C509.753 131.94 511.403 131.881 512.699 131.881C515.881 131.881 518.651 132.411 521.008 133.472C523.365 134.474 525.221 136.212 526.576 138.687C527.99 141.161 528.697 144.52 528.697 148.763C528.697 152.239 528.55 156.01 528.255 160.076C527.961 164.141 527.43 168.03 526.664 171.743C525.957 175.455 524.956 178.607 523.659 181.2C522.245 184.264 520.301 186.385 517.826 187.563C515.41 188.742 512.523 189.331 509.164 189.331C507.514 189.331 505.717 189.184 503.773 188.889C501.828 188.654 500.09 188.388 498.558 188.094L496.702 176.427C497.821 176.722 499.059 177.016 500.414 177.311C501.828 177.605 503.154 177.841 504.391 178.018C505.688 178.195 506.719 178.283 507.485 178.283C508.958 178.283 510.254 178.018 511.374 177.488C512.493 176.898 513.407 175.897 514.114 174.483C514.939 172.774 515.616 170.564 516.147 167.854C516.677 165.143 517.06 162.226 517.296 159.104C517.59 155.922 517.737 152.887 517.737 150C517.737 147.643 517.384 145.905 516.677 144.785C516.029 143.666 515.056 142.929 513.76 142.576C512.523 142.163 510.991 141.957 509.164 141.957C507.809 141.957 505.982 142.075 503.684 142.31C501.386 142.487 498.911 142.723 496.26 143.017C493.667 143.253 491.251 143.518 489.012 143.813C486.773 144.108 485.035 144.314 483.798 144.432C482.501 144.667 480.851 144.932 478.848 145.227C476.904 145.463 475.254 145.698 473.898 145.934L472.838 133.914ZM537.536 112.436C538.302 113.497 539.097 114.764 539.922 116.237C540.806 117.71 541.66 119.183 542.485 120.656C543.31 122.129 544.017 123.426 544.606 124.545L537.447 127.639C536.858 126.401 536.18 125.046 535.414 123.573C534.648 122.1 533.853 120.627 533.028 119.154C532.203 117.68 531.378 116.414 530.553 115.353L537.536 112.436ZM548.053 108.459C548.819 109.579 549.644 110.875 550.528 112.348C551.412 113.821 552.266 115.294 553.091 116.767C553.975 118.24 554.653 119.478 555.124 120.479L548.142 123.484C547.199 121.658 546.08 119.595 544.783 117.297C543.487 114.941 542.22 112.937 540.983 111.287L548.053 108.459Z" fill="#020202"/>
<path d="M414.68 119.949H456.574V128.876H414.68V119.949ZM403.101 136.3H460.286V145.227H403.101V136.3ZM413.354 110.757L423.253 113.055C421.721 117.533 419.718 121.864 417.243 126.047C414.827 130.172 412.323 133.649 409.73 136.477C409.023 135.947 408.11 135.357 406.99 134.709C405.93 134.061 404.84 133.442 403.72 132.853C402.601 132.264 401.628 131.793 400.803 131.439C403.573 128.964 406.048 125.871 408.228 122.159C410.408 118.446 412.117 114.646 413.354 110.757ZM426.7 109.873H437.218V142.31H426.7V109.873ZM400.185 144.343V176.957H389.844V154.154H379.591V144.343H400.185ZM400.185 172.361C402.011 175.248 404.574 177.37 407.874 178.725C411.174 180.08 415.122 180.846 419.718 181.023C422.31 181.141 425.374 181.229 428.91 181.288C432.504 181.288 436.275 181.259 440.223 181.2C444.171 181.141 448.03 181.023 451.801 180.846C455.631 180.669 459.02 180.463 461.966 180.227C461.612 181.052 461.2 182.113 460.728 183.409C460.257 184.706 459.815 186.031 459.403 187.387C459.049 188.742 458.784 189.95 458.607 191.01C455.956 191.187 452.921 191.305 449.503 191.364C446.086 191.482 442.58 191.541 438.986 191.541C435.391 191.6 431.915 191.6 428.556 191.541C425.198 191.482 422.193 191.393 419.541 191.276C414.12 191.04 409.495 190.185 405.665 188.712C401.835 187.298 398.446 184.882 395.5 181.465C393.556 183.115 391.552 184.823 389.49 186.591C387.487 188.359 385.277 190.185 382.861 192.071L377.646 181.023C379.709 179.786 381.86 178.43 384.099 176.957C386.338 175.484 388.488 173.952 390.551 172.361H400.185ZM379.679 118.358L387.546 111.994C389.372 113.173 391.228 114.557 393.114 116.148C394.999 117.68 396.767 119.271 398.417 120.921C400.067 122.512 401.393 123.985 402.394 125.34L393.998 132.411C393.114 130.997 391.876 129.465 390.286 127.815C388.754 126.165 387.045 124.515 385.159 122.866C383.274 121.157 381.447 119.654 379.679 118.358ZM420.513 158.485V167.5H443.847V158.485H420.513ZM410.172 150H454.895V175.897H410.172V150Z" fill="#020202"/>
<path d="M302.872 127.108H323.466V134.178H302.872V127.108ZM302.607 182.437H328.945V190.038H302.607V182.437ZM298.099 147.966H326.294V154.33H298.099V147.966ZM293.768 137.36H302.872V150.353C302.872 153.299 302.725 156.54 302.43 160.075C302.135 163.552 301.605 167.146 300.839 170.858C300.073 174.57 298.953 178.165 297.48 181.641C296.066 185.118 294.24 188.27 292 191.098C291.588 190.509 290.94 189.772 290.056 188.889C289.172 188.064 288.259 187.239 287.316 186.414C286.432 185.648 285.637 185.088 284.93 184.735C287.64 181.317 289.585 177.575 290.763 173.51C292.001 169.444 292.796 165.408 293.15 161.401C293.562 157.335 293.768 153.594 293.768 150.176V137.36ZM298.895 137.36H330.448V165.025H298.629V157.689H320.991V144.785H298.895V137.36ZM298.806 168.56H331.95V192.512H322.67V176.161H307.733V192.778H298.806V168.56ZM335.751 120.655H345.827V170.681H335.751V120.655ZM355.107 111.729H365.448V180.227C365.448 183.232 365.095 185.53 364.388 187.121C363.74 188.712 362.561 189.92 360.852 190.745C359.085 191.629 356.846 192.188 354.135 192.424C351.425 192.719 348.125 192.866 344.236 192.866C344.118 191.864 343.853 190.715 343.441 189.419C343.087 188.123 342.675 186.797 342.203 185.442C341.732 184.145 341.26 183.026 340.789 182.083C343.441 182.142 345.915 182.201 348.213 182.26C350.511 182.26 352.102 182.26 352.986 182.26C353.752 182.26 354.282 182.112 354.577 181.818C354.931 181.464 355.107 180.905 355.107 180.138V111.729ZM306.938 111.021H312.771V113.143H316.13V116.148C313.478 119.742 310.119 123.69 306.054 127.991C302.047 132.234 297.009 136.3 290.94 140.189C290.586 139.423 290.027 138.539 289.261 137.537C288.495 136.535 287.67 135.592 286.786 134.709C285.961 133.825 285.224 133.118 284.576 132.587C288.112 130.584 291.293 128.374 294.122 125.959C296.95 123.484 299.425 120.98 301.546 118.446C303.726 115.912 305.523 113.437 306.938 111.021ZM309.147 111.021H316.395C318.457 112.553 320.637 114.292 322.935 116.236C325.233 118.122 327.443 120.007 329.564 121.893C331.685 123.719 333.453 125.399 334.867 126.931L328.15 134.797C326.854 133.265 325.233 131.527 323.289 129.582C321.344 127.579 319.282 125.576 317.102 123.572C314.981 121.569 312.948 119.889 311.003 118.534H309.147V111.021Z" fill="#020202"/>
<path d="M222.265 118.004H274.766V127.019H222.265V118.004ZM225.005 179.697H275.296V188.8H225.005V179.697ZM245.511 109.961L256.028 110.491C255.852 113.378 255.586 116.384 255.233 119.507C254.879 122.629 254.496 125.635 254.084 128.522C253.73 131.409 253.377 133.972 253.023 136.211H243.213C243.566 133.913 243.89 131.262 244.185 128.257C244.479 125.252 244.745 122.158 244.98 118.976C245.216 115.794 245.393 112.789 245.511 109.961ZM245.069 151.237V155.833H260.89V151.237H245.069ZM245.069 162.904V167.5H260.89V162.904H245.069ZM245.069 139.57V144.078H260.89V139.57H245.069ZM235.258 131.969H271.054V175.101H235.258V131.969ZM220.056 137.184H229.866V192.866H220.056V137.184ZM211.04 110.226L221.028 113.408C219.142 118.358 216.903 123.366 214.311 128.433C211.718 133.442 208.919 138.215 205.914 142.752C202.909 147.23 199.786 151.148 196.545 154.507C196.251 153.623 195.75 152.504 195.043 151.148C194.395 149.734 193.688 148.32 192.922 146.906C192.156 145.492 191.478 144.343 190.889 143.459C193.54 140.748 196.103 137.625 198.578 134.09C201.112 130.555 203.439 126.754 205.561 122.688C207.741 118.623 209.567 114.469 211.04 110.226ZM202.555 134.709L212.631 124.633V124.721V192.778H202.555V134.709Z" fill="#020202"/>
<path d="M125.219 118.535H181.697V128.081H125.219V118.535ZM126.102 139.129H181.255V190.481H171.002V148.409H135.825V191.011H126.102V139.129ZM140.421 119.773H150.408V146.023H140.421V119.773ZM156.242 119.684H166.229V145.935H156.242V119.684ZM130.522 176.869H178.515V185.973H130.522V176.869ZM141.393 145.935H150.32V183.94H141.393V145.935ZM156.242 145.846H165.169V183.852H156.242V145.846ZM117.618 110.139L127.163 113.144C125.395 117.975 123.274 122.837 120.799 127.727C118.325 132.618 115.644 137.243 112.756 141.604C109.869 145.905 106.893 149.706 103.829 153.005C103.476 152.18 102.975 151.09 102.327 149.735C101.738 148.38 101.06 147.025 100.294 145.669C99.587 144.255 98.9388 143.136 98.3496 142.311C100.942 139.718 103.417 136.713 105.774 133.296C108.19 129.819 110.399 126.107 112.403 122.159C114.406 118.211 116.144 114.204 117.618 110.139ZM109.133 134.798L119.032 124.811L119.12 124.987V192.867H109.133V134.798Z" fill="#020202"/>
<path d="M546.882 57.0801C549.593 57.0801 552.009 57.7282 554.13 59.0246C556.251 60.3209 557.96 62.0591 559.256 64.2393C560.553 66.3605 561.201 68.7469 561.201 71.3984C561.201 73.9911 560.553 76.3775 559.256 78.5576C557.96 80.7378 556.251 82.476 554.13 83.7723C552.009 85.0686 549.593 85.7168 546.882 85.7168C544.29 85.7168 541.903 85.0686 539.723 83.7723C537.543 82.476 535.805 80.7378 534.508 78.5576C533.271 76.3775 532.652 73.9911 532.652 71.3984C532.652 68.7469 533.271 66.3605 534.508 64.2393C535.805 62.0591 537.543 60.3209 539.723 59.0246C541.903 57.7282 544.29 57.0801 546.882 57.0801ZM546.971 79.3531C549.151 79.3531 551.007 78.5871 552.539 77.0551C554.071 75.4641 554.837 73.5786 554.837 71.3984C554.837 69.9254 554.483 68.5996 553.776 67.4211C553.069 66.1837 552.097 65.2115 550.86 64.5044C549.681 63.7973 548.385 63.4438 546.971 63.4438C545.498 63.4438 544.172 63.7973 542.993 64.5044C541.815 65.2115 540.843 66.1837 540.077 67.4211C539.37 68.5996 539.016 69.9254 539.016 71.3984C539.016 72.8715 539.37 74.2268 540.077 75.4641C540.843 76.6426 541.815 77.5854 542.993 78.2925C544.172 78.9995 545.498 79.3531 546.971 79.3531Z" fill="#020202"/>
<path d="M477.941 42.9387H510.378V52.5726H477.941V42.9387ZM451.602 25.792H474.052V35.6027H451.602V25.792ZM451.602 42.8503H474.847V52.7494H451.602V42.8503ZM487.133 7.1428H507.108V16.4232H487.133V7.1428ZM508.875 42.9387H510.908L512.676 42.5852L519.482 45.1483C517.419 52.9262 514.355 59.5845 510.29 65.1233C506.283 70.6621 501.422 75.1992 495.706 78.7346C490.049 82.27 483.686 85.0688 476.615 87.1312C476.261 86.1884 475.76 85.1278 475.112 83.9493C474.464 82.8298 473.787 81.6807 473.079 80.5023C472.372 79.3827 471.665 78.4694 470.958 77.7624C477.263 76.2893 482.979 74.0797 488.105 71.1335C493.231 68.1873 497.592 64.5046 501.186 60.0854C504.78 55.6661 507.343 50.5103 508.875 44.618V42.9387ZM490.315 51.6004C493.084 58.0231 497.297 63.4735 502.954 67.9516C508.61 72.3709 515.563 75.4938 523.812 77.3204C523.046 78.0275 522.192 78.9408 521.249 80.0604C520.365 81.1799 519.54 82.3289 518.774 83.5074C518.008 84.7448 517.39 85.8643 516.918 86.866C507.962 84.2734 500.597 80.2371 494.822 74.7573C489.048 69.2185 484.481 62.3245 481.122 54.0752L490.315 51.6004ZM446.299 9.79434L456.375 12.8878V86.6892H446.299V9.79434ZM438.963 64.2395C442.263 63.8859 445.975 63.444 450.099 62.9137C454.283 62.3834 458.673 61.8236 463.269 61.2344C467.924 60.6451 472.52 60.0264 477.057 59.3783L477.41 69.1006C473.168 69.8077 468.866 70.4853 464.506 71.1335C460.146 71.7227 455.933 72.3119 451.867 72.9012C447.801 73.4904 444.06 74.0502 440.642 74.5805L438.963 64.2395ZM482.537 7.1428H492.347V20.1354C492.347 22.8459 492.023 25.6742 491.375 28.6203C490.786 31.5076 489.666 34.277 488.017 36.9285C486.426 39.5211 483.98 41.7602 480.681 43.6458C480.268 42.9976 479.591 42.2316 478.648 41.3478C477.764 40.405 476.821 39.4917 475.819 38.6078C474.877 37.724 474.081 37.0464 473.433 36.575C476.202 35.043 478.235 33.3637 479.532 31.537C480.828 29.6515 481.653 27.707 482.006 25.7036C482.36 23.7002 482.537 21.7263 482.537 19.7818V7.1428ZM469.809 3.96094L478.559 11.4737C475.967 12.77 473.138 13.9484 470.074 15.0091C467.01 16.0107 463.917 16.9535 460.794 17.8374C457.671 18.6623 454.607 19.3694 451.602 19.9586C451.366 18.8391 450.895 17.5133 450.188 15.9813C449.54 14.3904 448.891 13.0646 448.243 12.004C450.895 11.3558 453.546 10.6193 456.198 9.79434C458.908 8.91049 461.442 7.96772 463.799 6.96602C466.156 5.96433 468.159 4.96263 469.809 3.96094ZM501.539 7.1428H511.439V28.1784C511.439 28.9444 511.439 29.5336 511.439 29.9461C511.439 30.3586 511.497 30.6532 511.615 30.83C511.851 31.1246 512.146 31.2719 512.499 31.2719C512.676 31.2719 512.912 31.2719 513.206 31.2719C513.501 31.2719 513.737 31.2719 513.913 31.2719C514.149 31.2719 514.385 31.2424 514.62 31.1835C514.856 31.1246 515.003 31.0656 515.062 31.0067C515.357 30.83 515.622 30.1818 515.858 29.0623C515.917 28.4141 515.976 27.4713 516.035 26.2339C516.093 24.9966 516.123 23.5235 516.123 21.8147C517.007 22.5807 518.215 23.3762 519.747 24.2011C521.279 24.9671 522.693 25.5858 523.989 26.0572C523.871 27.8249 523.724 29.5631 523.547 31.2719C523.371 32.9807 523.105 34.2475 522.752 35.0724C522.163 36.7812 521.102 37.9891 519.57 38.6962C518.922 39.0498 518.126 39.3149 517.184 39.4917C516.3 39.6095 515.475 39.6684 514.709 39.6684C513.943 39.6684 513.118 39.6684 512.234 39.6684C511.35 39.6684 510.555 39.6684 509.848 39.6684C508.787 39.6684 507.667 39.5211 506.489 39.2265C505.369 38.873 504.456 38.3132 503.749 37.5472C502.983 36.7812 502.423 35.7795 502.07 34.5421C501.716 33.2458 501.539 31.1835 501.539 28.3552V7.1428Z" fill="#020202"/>
<path d="M413.421 3.69531L421.11 12.5338C416.573 13.7123 411.624 14.7434 406.262 15.6273C400.959 16.4522 395.449 17.1887 389.734 17.8369C384.018 18.4261 378.273 18.927 372.499 19.3394C366.724 19.693 361.156 19.9581 355.794 20.1349C355.617 18.7797 355.264 17.1887 354.733 15.3621C354.203 13.4766 353.673 11.9446 353.142 10.7661C358.446 10.5893 363.866 10.2947 369.405 9.88226C375.003 9.4698 380.453 8.96895 385.757 8.37972C391.119 7.79048 396.156 7.11287 400.87 6.34686C405.584 5.58086 409.768 4.69701 413.421 3.69531ZM354.026 28.7966H423.85V38.9609H354.026V28.7966ZM347.928 49.3903H429.154V59.8197H347.928V49.3903ZM383.017 16.246H394.065V74.2265C394.065 77.4083 393.623 79.7653 392.739 81.2973C391.914 82.8882 390.411 84.1256 388.231 85.0095C386.169 85.7755 383.488 86.2763 380.188 86.512C376.947 86.7477 373.059 86.8361 368.521 86.7772C368.345 85.7755 367.991 84.6264 367.461 83.3301C366.989 82.0928 366.459 80.8259 365.87 79.5296C365.281 78.2922 364.721 77.2021 364.191 76.2593C366.43 76.3183 368.639 76.3772 370.819 76.4361C373 76.495 374.944 76.5245 376.653 76.5245C378.362 76.5245 379.57 76.5245 380.277 76.5245C381.278 76.4656 381.985 76.2593 382.398 75.9058C382.81 75.5523 383.017 74.9336 383.017 74.0497V16.246Z" fill="#020202"/>
<path d="M300.464 85.099C298.696 82.86 296.722 80.5914 294.542 78.2934C292.362 75.9954 290.152 73.7563 287.913 71.5761C285.674 69.3371 283.523 67.3337 281.461 65.566L290.653 57.6113C292.774 59.3201 295.043 61.353 297.459 63.7099C299.874 66.0079 302.172 68.3354 304.353 70.6923C306.592 73.0492 308.448 75.141 309.921 76.9676L300.464 85.099Z" fill="#020202"/>
<path d="M219.68 24.7325C222.214 24.9682 224.747 25.1744 227.281 25.3512C229.874 25.469 232.496 25.5279 235.147 25.5279C240.568 25.5279 245.96 25.2922 251.322 24.8209C256.684 24.3495 261.633 23.6129 266.17 22.6112V33.6593C261.574 34.3075 256.595 34.8378 251.233 35.2503C245.871 35.6038 240.509 35.7806 235.147 35.7806C232.555 35.7806 229.962 35.7511 227.37 35.6922C224.836 35.5744 222.273 35.427 219.68 35.2503V24.7325ZM253.266 9.79541C253.148 10.6203 253.031 11.5337 252.913 12.5353C252.854 13.537 252.795 14.5387 252.736 15.5404C252.677 16.4832 252.618 17.7501 252.559 19.341C252.5 20.9319 252.471 22.7291 252.471 24.7325C252.471 26.6769 252.471 28.7393 252.471 30.9194C252.471 34.9262 252.53 38.6973 252.648 42.2327C252.765 45.7092 252.913 48.9499 253.09 51.955C253.266 54.9012 253.414 57.6117 253.531 60.0864C253.708 62.5612 253.797 64.8592 253.797 66.9805C253.797 69.2785 253.473 71.3997 252.824 73.3442C252.235 75.2886 251.263 76.9974 249.908 78.4705C248.552 79.9436 246.755 81.0631 244.516 81.8291C242.336 82.6541 239.655 83.0665 236.473 83.0665C230.345 83.0665 225.513 81.8291 221.978 79.3544C218.443 76.8796 216.675 73.3147 216.675 68.6598C216.675 65.6547 217.47 63.0326 219.061 60.7935C220.652 58.4955 222.921 56.7278 225.867 55.4904C228.813 54.1941 232.29 53.546 236.296 53.546C240.48 53.546 244.28 53.9879 247.698 54.8717C251.116 55.7556 254.239 56.934 257.067 58.4071C259.895 59.8802 262.399 61.5006 264.58 63.2683C266.819 64.9771 268.822 66.6269 270.59 68.2179L264.491 77.4983C261.133 74.3164 257.862 71.5765 254.68 69.2785C251.499 66.9805 248.317 65.2128 245.135 63.9754C242.012 62.738 238.771 62.1193 235.413 62.1193C232.938 62.1193 230.905 62.5907 229.314 63.5335C227.782 64.4762 227.016 65.802 227.016 67.5108C227.016 69.2785 227.811 70.5748 229.402 71.3997C230.993 72.2246 232.938 72.6371 235.236 72.6371C237.062 72.6371 238.506 72.3425 239.567 71.7533C240.627 71.1051 241.364 70.1918 241.776 69.0133C242.248 67.7759 242.483 66.3028 242.483 64.5941C242.483 63.0621 242.424 61.0587 242.307 58.5839C242.189 56.1091 242.041 53.3397 241.865 50.2757C241.747 47.2117 241.629 44.0298 241.511 40.7301C241.393 37.3715 241.334 34.1013 241.334 30.9194C241.334 27.5608 241.305 24.5262 241.246 21.8158C241.246 19.0464 241.246 16.9841 241.246 15.6288C241.246 14.9807 241.187 14.0674 241.069 12.8889C240.951 11.7104 240.804 10.6793 240.627 9.79541H253.266ZM210.134 10.7677C209.958 11.3569 209.693 12.1818 209.339 13.2424C209.044 14.303 208.779 15.3342 208.544 16.3359C208.367 17.3376 208.219 18.1036 208.102 18.6339C207.807 19.8713 207.483 21.5506 207.129 23.6718C206.776 25.7342 206.393 28.0911 205.98 30.7426C205.627 33.3353 205.273 36.0163 204.92 38.7857C204.566 41.4961 204.301 44.0888 204.124 46.5635C203.947 48.9794 203.859 51.0712 203.859 52.8389C203.859 53.7227 203.859 54.695 203.859 55.7556C203.918 56.7573 204.036 57.7001 204.213 58.5839C204.625 57.5233 205.038 56.4921 205.45 55.4904C205.921 54.4887 206.393 53.487 206.864 52.4853C207.336 51.4836 207.778 50.4819 208.19 49.4802L213.581 53.8995C212.757 56.3154 211.902 58.8491 211.018 61.5006C210.193 64.1521 209.427 66.6564 208.72 69.0133C208.072 71.3703 207.571 73.3442 207.218 74.9351C207.1 75.5243 206.982 76.2314 206.864 77.0564C206.805 77.8813 206.776 78.5589 206.776 79.0892C206.776 79.5606 206.776 80.1204 206.776 80.7685C206.835 81.4756 206.894 82.1237 206.953 82.713L196.965 83.5084C196.022 80.3855 195.197 76.4082 194.49 71.5765C193.783 66.6859 193.43 61.2354 193.43 55.2253C193.43 51.9256 193.577 48.4786 193.872 44.8842C194.166 41.231 194.49 37.7251 194.844 34.3664C195.256 31.0078 195.669 27.9438 196.081 25.1744C196.494 22.3461 196.818 20.0775 197.053 18.3688C197.23 17.1314 197.407 15.7467 197.584 14.2147C197.761 12.6237 197.878 11.1212 197.937 9.70703L210.134 10.7677Z" fill="#020202"/>
<path d="M121.308 14.5676H177.256V24.0248H121.308V14.5676ZM142.874 3.87305H153.657V19.0753H142.874V3.87305ZM142.874 47.5352H152.155V83.0659H142.874V47.5352ZM128.202 46.6514H137.66V55.4015C137.66 57.8762 137.512 60.4689 137.218 63.1793C136.982 65.8898 136.393 68.6297 135.45 71.3991C134.566 74.1685 133.24 76.8201 131.473 79.3538C129.705 81.9464 127.319 84.3623 124.314 86.6013C123.842 85.8943 123.165 85.0988 122.281 84.215C121.397 83.3311 120.454 82.4767 119.452 81.6518C118.51 80.8269 117.626 80.1787 116.801 79.7073C120.218 77.2325 122.723 74.581 124.314 71.7527C125.904 68.9244 126.936 66.0666 127.407 63.1793C127.937 60.2921 128.202 57.5816 128.202 55.0479V46.6514ZM137.836 19.7823L148.973 22.9642C147.853 25.0265 146.704 27.1183 145.526 29.2395C144.347 31.3608 143.198 33.3936 142.079 35.3381C140.959 37.2236 139.899 38.9029 138.897 40.376L130.324 37.3709C131.266 35.78 132.209 33.9534 133.152 31.8911C134.095 29.8288 134.979 27.737 135.804 25.6157C136.687 23.4945 137.365 21.55 137.836 19.7823ZM155.248 28.7092L163.38 24.4667C165.324 26.2344 167.269 28.2378 169.213 30.4769C171.216 32.6571 173.043 34.8372 174.693 37.0174C176.402 39.1976 177.728 41.2304 178.67 43.116L169.743 47.8887C168.977 46.121 167.799 44.1176 166.208 41.8786C164.617 39.6395 162.849 37.3709 160.905 35.0729C159.019 32.7749 157.134 30.6537 155.248 28.7092ZM121.839 34.5426C125.728 34.4837 130.206 34.3953 135.273 34.2775C140.341 34.1007 145.703 33.9534 151.359 33.8355C157.016 33.6588 162.643 33.4525 168.241 33.2168L167.976 42.1437C162.673 42.4383 157.311 42.733 151.89 43.0276C146.528 43.3222 141.372 43.5873 136.422 43.823C131.473 44.0587 126.965 44.265 122.899 44.4417L121.839 34.5426ZM99.9193 12.0928L105.664 4.31497C107.491 5.02205 109.406 5.87643 111.409 6.87813C113.472 7.87983 115.416 8.91099 117.243 9.97161C119.128 11.0322 120.631 12.0928 121.75 13.1535L115.652 21.8152C114.591 20.7546 113.177 19.635 111.409 18.4566C109.642 17.2781 107.727 16.1291 105.664 15.0095C103.661 13.89 101.746 12.9178 99.9193 12.0928ZM94.793 36.2219L100.45 28.1789C102.335 28.8271 104.309 29.6225 106.371 30.5653C108.434 31.5081 110.408 32.5098 112.293 33.5704C114.179 34.631 115.711 35.6622 116.889 36.6639L110.791 45.5023C109.73 44.5007 108.286 43.44 106.46 42.3205C104.633 41.142 102.689 40.0225 100.626 38.9619C98.623 37.9012 96.6785 36.9879 94.793 36.2219ZM97.3561 79.0886C98.8292 76.7906 100.479 74.1096 102.306 71.0456C104.132 67.9227 105.988 64.623 107.874 61.1465C109.759 57.67 111.527 54.1935 113.177 50.7171L121.22 57.3459C119.747 60.4689 118.186 63.6802 116.536 66.9799C114.945 70.2796 113.295 73.5204 111.586 76.7022C109.936 79.8252 108.286 82.8303 106.637 85.7175L97.3561 79.0886ZM157.458 46.6514H167.269V74.2274C167.269 75.7005 167.357 76.5549 167.534 76.7906C167.652 76.9085 167.769 77.0263 167.887 77.1441C168.064 77.2031 168.241 77.2325 168.418 77.2325C168.653 77.2325 168.889 77.2325 169.125 77.2325C169.419 77.2325 169.655 77.2325 169.832 77.2325C170.067 77.2325 170.303 77.2031 170.539 77.1441C170.775 77.0852 170.922 76.9968 170.981 76.879C171.275 76.7022 171.511 75.9362 171.688 74.581C171.747 73.8739 171.776 72.7838 171.776 71.3107C171.835 69.8377 171.894 68.0994 171.953 66.096C172.778 66.862 173.868 67.628 175.223 68.394C176.637 69.1011 177.934 69.6609 179.112 70.0734C179.053 72.0178 178.906 73.9918 178.67 75.9951C178.493 77.9985 178.287 79.4716 178.052 80.4144C177.462 82.2999 176.461 83.6552 175.046 84.4801C174.457 84.8336 173.691 85.0988 172.748 85.2756C171.865 85.5113 171.01 85.6291 170.185 85.6291C169.537 85.6291 168.742 85.6291 167.799 85.6291C166.915 85.6291 166.179 85.6291 165.589 85.6291C164.588 85.6291 163.527 85.4523 162.407 85.0988C161.288 84.7453 160.375 84.1855 159.668 83.4195C158.902 82.6535 158.342 81.6223 157.988 80.326C157.635 79.0886 157.458 76.9674 157.458 73.9623V46.6514Z" fill="#020202"/>
<path d="M45.1197 3.87305L54.7537 5.72913C53.6341 10.6198 52.2789 15.3925 50.688 20.0475C49.097 24.6435 47.2704 28.9449 45.2081 32.9517C43.1458 36.8995 40.9067 40.376 38.4908 43.3811C37.9605 42.7919 37.1945 42.1437 36.1928 41.4366C35.1911 40.6706 34.16 39.9341 33.0994 39.227C32.0977 38.461 31.2433 37.8423 30.5362 37.3709C32.8931 34.7783 34.9849 31.7143 36.8115 28.1789C38.6971 24.6435 40.3175 20.8135 41.6727 16.6889C43.0869 12.5053 44.2359 8.23337 45.1197 3.87305ZM74.817 17.6611H84.8929C84.8929 17.6611 84.8635 17.9852 84.8045 18.6333C84.8045 19.2226 84.8045 19.9002 84.8045 20.6662C84.8045 21.4322 84.7751 22.0214 84.7162 22.4339C84.3037 32.3919 83.8618 40.8474 83.3904 47.8004C82.9779 54.7533 82.5065 60.4983 81.9762 65.0354C81.5048 69.5136 80.9451 73.049 80.2969 75.6416C79.6488 78.1753 78.9122 80.0019 78.0873 81.1215C77.0267 82.5946 75.9661 83.6552 74.9054 84.3033C73.8448 84.9515 72.578 85.4229 71.1049 85.7175C69.8675 85.9532 68.365 86.071 66.5973 86.071C64.8296 86.13 62.9735 86.1005 61.029 85.9826C60.9111 84.4506 60.5871 82.7124 60.0568 80.7679C59.5854 78.8235 58.9372 77.1147 58.1123 75.6416C59.7621 75.8184 61.2941 75.9362 62.7083 75.9951C64.1225 75.9951 65.242 75.9951 66.0669 75.9951C66.774 75.9951 67.3338 75.8773 67.7462 75.6416C68.2176 75.4059 68.7185 74.964 69.2488 74.3158C69.838 73.6088 70.3978 72.1357 70.9281 69.8966C71.4584 67.5986 71.9593 64.3283 72.4306 60.0859C72.902 55.8434 73.3145 50.4519 73.668 43.9114C74.0805 37.312 74.4635 29.3279 74.817 19.9591V17.6611ZM47.7713 17.6611H79.3247V27.4718H42.9985L47.7713 17.6611ZM54.0466 20.8429L61.7361 24.6435C60.5576 29.7109 58.9372 34.8962 56.8749 40.1993C54.8126 45.4434 52.3967 50.3635 49.6273 54.9595C46.9169 59.5555 43.9707 63.3561 40.7888 66.3612C39.7871 65.4184 38.5203 64.3873 36.9883 63.2677C35.4563 62.0893 33.9832 61.1465 32.569 60.4394C35.1617 58.436 37.5775 55.9612 39.8166 53.0151C42.0557 50.01 44.0885 46.7397 45.9152 43.2043C47.7418 39.61 49.3327 35.9273 50.688 32.1562C52.0432 28.3262 53.1627 24.5551 54.0466 20.8429ZM66.3321 21.9036L74.5519 25.7041C73.4323 31.4197 72.0182 37.1352 70.3094 42.8508C68.6596 48.5664 66.6562 54.0462 64.2992 59.2904C62.0012 64.5346 59.3497 69.3663 56.3446 73.7855C53.3395 78.1458 49.9809 81.8286 46.2687 84.8336C45.267 83.8319 43.9412 82.7419 42.2914 81.5634C40.7005 80.3849 39.1685 79.4127 37.6954 78.6467C41.5254 75.8773 44.9724 72.4597 48.0364 68.394C51.1593 64.2694 53.8993 59.7029 56.2562 54.6944C58.6131 49.627 60.6165 44.3239 62.2664 38.7851C63.9162 33.1874 65.2715 27.5602 66.3321 21.9036ZM1.89947 52.1312C4.78672 51.4241 8.05696 50.5992 11.7102 49.6564C15.4224 48.7137 19.3113 47.6825 23.377 46.563C27.5016 45.3845 31.5968 44.2355 35.6625 43.116L36.9883 52.3964C31.4495 54.1641 25.7929 55.9318 20.0184 57.6995C14.3028 59.4082 9.11758 60.9403 4.46264 62.2955L1.89947 52.1312ZM17.7204 3.96143H27.4427V86.9549H17.7204V3.96143ZM6.05357 8.99937L14.9804 10.4135C14.568 14.3025 14.0671 18.2209 13.4779 22.1687C12.8887 26.0577 12.1816 29.7404 11.3567 33.2168C10.5317 36.6933 9.58896 39.7573 8.52834 42.4089C7.99803 41.9964 7.26149 41.4956 6.31872 40.9063C5.37595 40.2582 4.43318 39.6395 3.4904 39.0502C2.54763 38.4021 1.7227 37.9307 1.01562 37.6361C1.9584 35.2202 2.75386 32.4803 3.40202 29.4163C4.1091 26.2934 4.66887 22.9937 5.08133 19.5172C5.55272 15.9818 5.8768 12.4758 6.05357 8.99937ZM8.52834 21.0197H34.8671V31.0956H6.49549L8.52834 21.0197Z" fill="#020202"/>
</g>
<defs>
<linearGradient id="paint0_linear_227_43367" x1="485.609" y1="258.26" x2="397.038" y2="258.26" gradientUnits="userSpaceOnUse">
<stop stop-color="white"/>
<stop offset="1" stop-color="#4F4F4F"/>
</linearGradient>
<linearGradient id="paint1_linear_227_43367" x1="485.608" y1="258.26" x2="397.037" y2="258.26" gradientUnits="userSpaceOnUse">
<stop stop-color="white"/>
<stop offset="1" stop-color="#4F4F4F"/>
</linearGradient>
<linearGradient id="paint2_linear_227_43367" x1="485.608" y1="258.261" x2="397.062" y2="258.261" gradientUnits="userSpaceOnUse">
<stop stop-color="white"/>
<stop offset="1" stop-color="#4F4F4F"/>
</linearGradient>
<linearGradient id="paint3_linear_227_43367" x1="485.61" y1="258.26" x2="397.038" y2="258.26" gradientUnits="userSpaceOnUse">
<stop stop-color="white"/>
<stop offset="1" stop-color="#4F4F4F"/>
</linearGradient>
<linearGradient id="paint4_linear_227_43367" x1="485.609" y1="258.26" x2="397.063" y2="258.26" gradientUnits="userSpaceOnUse">
<stop stop-color="white"/>
<stop offset="1" stop-color="#4F4F4F"/>
</linearGradient>
<linearGradient id="paint5_linear_227_43367" x1="485.609" y1="258.26" x2="397.061" y2="258.26" gradientUnits="userSpaceOnUse">
<stop stop-color="white"/>
<stop offset="1" stop-color="#4F4F4F"/>
</linearGradient>
<linearGradient id="paint6_linear_227_43367" x1="485.61" y1="258.259" x2="397.064" y2="258.259" gradientUnits="userSpaceOnUse">
<stop stop-color="white"/>
<stop offset="1" stop-color="#4F4F4F"/>
</linearGradient>
<linearGradient id="paint7_linear_227_43367" x1="485.609" y1="258.261" x2="397.063" y2="258.261" gradientUnits="userSpaceOnUse">
<stop stop-color="white"/>
<stop offset="1" stop-color="#4F4F4F"/>
</linearGradient>
<linearGradient id="paint8_linear_227_43367" x1="485.61" y1="258.26" x2="397.063" y2="258.26" gradientUnits="userSpaceOnUse">
<stop stop-color="white"/>
<stop offset="1" stop-color="#4F4F4F"/>
</linearGradient>
<linearGradient id="paint9_linear_227_43367" x1="485.61" y1="258.26" x2="397.063" y2="258.26" gradientUnits="userSpaceOnUse">
<stop stop-color="white"/>
<stop offset="1" stop-color="#4F4F4F"/>
</linearGradient>
<linearGradient id="paint10_linear_227_43367" x1="485.61" y1="258.26" x2="397.063" y2="258.26" gradientUnits="userSpaceOnUse">
<stop stop-color="white"/>
<stop offset="1" stop-color="#4F4F4F"/>
</linearGradient>
<linearGradient id="paint11_linear_227_43367" x1="485.61" y1="258.259" x2="397.063" y2="258.259" gradientUnits="userSpaceOnUse">
<stop stop-color="white"/>
<stop offset="1" stop-color="#4F4F4F"/>
</linearGradient>
<linearGradient id="paint12_linear_227_43367" x1="485.608" y1="258.26" x2="397.062" y2="258.26" gradientUnits="userSpaceOnUse">
<stop stop-color="white"/>
<stop offset="1" stop-color="#4F4F4F"/>
</linearGradient>
<linearGradient id="paint13_linear_227_43367" x1="767.057" y1="241.202" x2="661.437" y2="143.294" gradientUnits="userSpaceOnUse">
<stop stop-color="white"/>
<stop offset="1" stop-color="#4F4F4F"/>
</linearGradient>
<linearGradient id="paint14_linear_227_43367" x1="767.038" y1="241.185" x2="661.437" y2="143.294" gradientUnits="userSpaceOnUse">
<stop stop-color="white"/>
<stop offset="1" stop-color="#4F4F4F"/>
</linearGradient>
<linearGradient id="paint15_linear_227_43367" x1="767.057" y1="241.201" x2="661.456" y2="143.31" gradientUnits="userSpaceOnUse">
<stop stop-color="white"/>
<stop offset="1" stop-color="#4F4F4F"/>
</linearGradient>
<linearGradient id="paint16_linear_227_43367" x1="767.058" y1="241.203" x2="661.456" y2="143.312" gradientUnits="userSpaceOnUse">
<stop stop-color="white"/>
<stop offset="1" stop-color="#4F4F4F"/>
</linearGradient>
<linearGradient id="paint17_linear_227_43367" x1="767.056" y1="241.202" x2="661.455" y2="143.311" gradientUnits="userSpaceOnUse">
<stop stop-color="white"/>
<stop offset="1" stop-color="#4F4F4F"/>
</linearGradient>
<linearGradient id="paint18_linear_227_43367" x1="767.021" y1="241.167" x2="661.456" y2="143.31" gradientUnits="userSpaceOnUse">
<stop stop-color="white"/>
<stop offset="1" stop-color="#4F4F4F"/>
</linearGradient>
<linearGradient id="paint19_linear_227_43367" x1="767.021" y1="241.167" x2="661.438" y2="143.293" gradientUnits="userSpaceOnUse">
<stop stop-color="white"/>
<stop offset="1" stop-color="#4F4F4F"/>
</linearGradient>
<linearGradient id="paint20_linear_227_43367" x1="767.039" y1="241.184" x2="661.438" y2="143.293" gradientUnits="userSpaceOnUse">
<stop stop-color="white"/>
<stop offset="1" stop-color="#4F4F4F"/>
</linearGradient>
<linearGradient id="paint21_linear_227_43367" x1="767.039" y1="241.184" x2="661.437" y2="143.293" gradientUnits="userSpaceOnUse">
<stop stop-color="white"/>
<stop offset="1" stop-color="#4F4F4F"/>
</linearGradient>
<linearGradient id="paint22_linear_227_43367" x1="767.057" y1="241.202" x2="661.437" y2="143.294" gradientUnits="userSpaceOnUse">
<stop stop-color="white"/>
<stop offset="1" stop-color="#4F4F4F"/>
</linearGradient>
<linearGradient id="paint23_linear_227_43367" x1="767.056" y1="241.202" x2="661.473" y2="143.328" gradientUnits="userSpaceOnUse">
<stop stop-color="white"/>
<stop offset="1" stop-color="#4F4F4F"/>
</linearGradient>
<linearGradient id="paint24_linear_227_43367" x1="767.04" y1="241.184" x2="661.475" y2="143.327" gradientUnits="userSpaceOnUse">
<stop stop-color="white"/>
<stop offset="1" stop-color="#4F4F4F"/>
</linearGradient>
<linearGradient id="paint25_linear_227_43367" x1="767.057" y1="241.202" x2="661.473" y2="143.328" gradientUnits="userSpaceOnUse">
<stop stop-color="white"/>
<stop offset="1" stop-color="#4F4F4F"/>
</linearGradient>
<linearGradient id="paint26_linear_227_43367" x1="420.543" y1="169.168" x2="420.543" y2="172.914" gradientUnits="userSpaceOnUse">
<stop stop-color="#FCFFFF"/>
<stop offset="1" stop-color="white"/>
</linearGradient>
<linearGradient id="paint27_linear_227_43367" x1="429.944" y1="178.354" x2="429.944" y2="182.099" gradientUnits="userSpaceOnUse">
<stop stop-color="#FCFFFF"/>
<stop offset="1" stop-color="white"/>
</linearGradient>
<linearGradient id="paint28_linear_227_43367" x1="445.275" y1="187.66" x2="445.275" y2="191.888" gradientUnits="userSpaceOnUse">
<stop stop-color="#FCFFFF"/>
<stop offset="1" stop-color="white"/>
</linearGradient>
<clipPath id="clip0_227_43367">
<rect width="834" height="309" fill="white"/>
</clipPath>
<clipPath id="clip1_227_43367">
<rect width="451" height="250.556" fill="white" transform="matrix(-1 0 0 -1 835.51 310)"/>
</clipPath>
</defs>
</svg>
