<svg width="450" height="250" viewBox="0 0 450 250" fill="none" xmlns="http://www.w3.org/2000/svg">
<g clip-path="url(#clip0_225_36398)">
<rect width="450" height="250" fill="#F6F6F6"/>
<path d="M393.748 153.449H340.023V207.174H393.748V153.449Z" fill="#B81C22"/>
<path d="M154.651 121.875H121.301V155.225H154.651V121.875Z" fill="#B81C22"/>
<path d="M355.853 101.6C354.953 100.775 354.053 100 353.128 99.25L275.078 183.45C275.903 184.325 276.753 185.175 277.628 186C277.903 186.275 278.203 186.5 278.503 186.775L356.678 102.425C356.403 102.15 356.128 101.875 355.853 101.6Z" fill="white"/>
<path d="M336.027 89.5996L264.152 167.15C264.827 168.7 265.602 170.225 266.427 171.725L340.752 91.5496C339.202 90.8246 337.627 90.1996 336.027 89.6246V89.5996Z" fill="white"/>
<path d="M360.003 105.875L282.203 189.825C283.503 190.8 284.828 191.7 286.178 192.55L363.028 109.65C362.078 108.375 361.078 107.1 360.003 105.875Z" fill="white"/>
<path d="M365.778 113.7L290.453 194.975C291.953 195.75 293.478 196.45 295.003 197.075L368.203 118.1C367.453 116.6 366.628 115.15 365.753 113.725L365.778 113.7Z" fill="white"/>
<path d="M370.327 122.825L299.902 198.825C301.652 199.35 303.402 199.8 305.177 200.175L372.077 128C371.577 126.25 371.002 124.55 370.327 122.85V122.825Z" fill="white"/>
<path d="M274.552 104.7C271.627 107.875 269.127 111.275 267.027 114.875L284.127 96.4248C280.702 98.7748 277.502 101.525 274.552 104.7Z" fill="white"/>
<path d="M296.702 89.875L261.477 127.875C260.627 130.825 260.027 133.825 259.652 136.875L305.527 87.375C302.527 87.975 299.577 88.8 296.702 89.875Z" fill="white"/>
<path d="M325.478 86.9248L260.703 156.8C261.128 158.625 261.628 160.4 262.228 162.175L330.953 88.0248C329.153 87.5748 327.303 87.1998 325.478 86.9248Z" fill="white"/>
<path d="M312.927 86.425L259.227 144.35C259.227 146.55 259.377 148.725 259.652 150.9L319.477 86.35C317.277 86.25 315.102 86.275 312.902 86.425H312.927Z" fill="white"/>
<path d="M345.152 93.7744L269.027 175.924C269.927 177.249 270.877 178.574 271.902 179.849L349.277 96.3744C347.927 95.4494 346.552 94.5994 345.152 93.7994V93.7744Z" fill="white"/>
<path d="M374.201 146.75L324.051 200.85C326.751 200.5 329.426 199.975 332.051 199.25L373.201 154.85C373.726 152.175 374.051 149.475 374.201 146.75Z" fill="white"/>
<path d="M358.928 182.899C363.878 177.549 367.603 171.524 370.153 165.149L342.078 195.449C348.253 192.424 353.978 188.249 358.928 182.899Z" fill="white"/>
<path d="M373.352 133.601L310.852 201.026C312.927 201.226 315.002 201.326 317.102 201.301L374.102 139.801C373.952 137.726 373.702 135.651 373.352 133.601Z" fill="white"/>
<path d="M120 0H0V120H120V0Z" fill="#B81C22"/>
<path d="M450.002 0H437.477V12.525H450.002V0Z" fill="#B81C22"/>
<path d="M28.9234 234.05H16.3984V246.575H28.9234V234.05Z" fill="#B81C22"/>
<path d="M450 214.375H414.375V250H450V214.375Z" fill="#B81C22"/>
<path d="M450 66.6748H414.375V102.3H450V66.6748Z" fill="#B81C22"/>
<path d="M255.398 187.45H219.773V223.075H255.398V187.45Z" fill="#B81C22"/>
<g style="mix-blend-mode:color-dodge">
<path d="M393.298 7.4502C392.373 7.4502 391.448 7.5002 390.523 7.5502V95.7252C391.448 95.7752 392.373 95.8252 393.298 95.8252C393.598 95.8252 393.898 95.8252 394.198 95.8252V7.4752C393.898 7.4752 393.598 7.4752 393.298 7.4752V7.4502Z" fill="url(#paint0_linear_225_36398)"/>
<path d="M375.875 11.0254V92.2254C377.075 92.7504 378.3 93.2004 379.55 93.6004V9.65039C378.3 10.0504 377.075 10.5254 375.875 11.0254Z" fill="url(#paint1_linear_225_36398)"/>
<path d="M397.875 7.67578V95.5758C399.125 95.4508 400.325 95.2508 401.55 95.0258V8.22578C400.35 8.00078 399.125 7.80078 397.875 7.67578Z" fill="url(#paint2_linear_225_36398)"/>
<path d="M405.199 9.0752V94.1752C406.449 93.8252 407.674 93.4252 408.874 92.9752V10.2752C407.674 9.8252 406.449 9.4252 405.199 9.0752Z" fill="url(#paint3_linear_225_36398)"/>
<path d="M412.551 11.8506V91.4256C413.801 90.8256 415.026 90.1506 416.226 89.4256V13.8506C415.051 13.1256 413.826 12.4756 412.551 11.8506Z" fill="url(#paint4_linear_225_36398)"/>
<path d="M349.125 51.6256C349.125 54.9506 349.5 58.1756 350.2 61.2756V41.9756C349.5 45.0756 349.125 48.3006 349.125 51.6256Z" fill="url(#paint5_linear_225_36398)"/>
<path d="M353.875 31.7256V71.5256C354.95 73.6256 356.175 75.6506 357.55 77.5256V25.7256C356.175 27.6256 354.95 29.6256 353.875 31.7256Z" fill="url(#paint6_linear_225_36398)"/>
<path d="M368.523 15.0498V88.2248C369.698 89.0248 370.923 89.7748 372.198 90.4498V12.7998C370.948 13.4748 369.723 14.2248 368.523 15.0248V15.0498Z" fill="url(#paint7_linear_225_36398)"/>
<path d="M361.199 21.3002V81.9502C362.349 83.1752 363.574 84.3252 364.874 85.4252V17.8252C363.574 18.9002 362.374 20.0752 361.199 21.3002Z" fill="url(#paint8_linear_225_36398)"/>
<path d="M383.199 8.6248V94.6248C384.399 94.8998 385.624 95.1498 386.874 95.3248V7.9248C385.624 8.0998 384.424 8.3498 383.199 8.6248Z" fill="url(#paint9_linear_225_36398)"/>
<path d="M427.199 23.3008V79.9508C428.549 78.3508 429.774 76.6508 430.874 74.8758V28.3758C429.774 26.6008 428.549 24.9008 427.199 23.3008Z" fill="url(#paint10_linear_225_36398)"/>
<path d="M437.473 51.6254C437.473 46.0254 436.423 40.7004 434.523 35.7754V67.5004C436.423 62.5754 437.473 57.2254 437.473 51.6504V51.6254Z" fill="url(#paint11_linear_225_36398)"/>
<path d="M419.875 16.3252V86.9252C421.15 85.9502 422.375 84.9252 423.55 83.8252V19.4252C422.375 18.3252 421.175 17.3002 419.875 16.3252Z" fill="url(#paint12_linear_225_36398)"/>
</g>
<g style="mix-blend-mode:color-dodge" opacity="0.15">
<path d="M169.827 64.825C168.727 63.8 167.577 62.825 166.427 61.875L69.0273 166.975C70.0523 168.05 71.1023 169.125 72.2273 170.15C72.5773 170.475 72.9523 170.8 73.3273 171.125L170.902 65.85C170.552 65.5 170.227 65.175 169.852 64.825H169.827Z" fill="url(#paint13_linear_225_36398)"/>
<path d="M145.1 49.8242L55.375 146.599C56.225 148.524 57.175 150.424 58.225 152.299L150.975 52.2242C149.025 51.3242 147.075 50.5242 145.075 49.8242H145.1Z" fill="url(#paint14_linear_225_36398)"/>
<path d="M175.026 70.15L77.9258 174.9C79.5508 176.125 81.2008 177.25 82.9008 178.3L178.801 74.825C177.626 73.225 176.376 71.65 175.026 70.125V70.15Z" fill="url(#paint15_linear_225_36398)"/>
<path d="M182.203 79.9248L88.2031 181.35C90.0781 182.3 91.9781 183.2 93.9031 183.975L185.278 85.3998C184.353 83.5498 183.328 81.7248 182.228 79.9248H182.203Z" fill="url(#paint16_linear_225_36398)"/>
<path d="M187.9 91.2998L100 186.125C102.175 186.8 104.375 187.35 106.575 187.8L190.075 97.7248C189.45 95.5498 188.725 93.3998 187.9 91.2998Z" fill="url(#paint17_linear_225_36398)"/>
<path d="M68.3766 68.6756C64.7016 72.6256 61.6016 76.9006 58.9766 81.3756L80.3016 58.3506C76.0516 61.3006 72.0266 64.7256 68.3516 68.6756H68.3766Z" fill="url(#paint18_linear_225_36398)"/>
<path d="M96 50.2002L52.025 97.6252C50.975 101.3 50.2 105.05 49.75 108.85L107 47.0752C103.275 47.8252 99.575 48.8502 95.975 50.2002H96Z" fill="url(#paint19_linear_225_36398)"/>
<path d="M131.928 46.5L51.0781 133.725C51.6031 136 52.2281 138.225 52.9781 140.45L138.753 47.9C136.503 47.325 134.203 46.875 131.903 46.525L131.928 46.5Z" fill="url(#paint20_linear_225_36398)"/>
<path d="M116.252 45.85L49.2266 118.15C49.2516 120.875 49.4266 123.625 49.7766 126.325L124.452 45.75C121.727 45.625 118.977 45.65 116.252 45.825V45.85Z" fill="url(#paint21_linear_225_36398)"/>
<path d="M156.502 55.0498L61.4766 157.575C62.6016 159.25 63.8016 160.875 65.0766 162.475L161.652 58.2748C159.977 57.1248 158.252 56.0498 156.502 55.0498Z" fill="url(#paint22_linear_225_36398)"/>
<path d="M192.727 121.175L130.152 188.7C133.502 188.275 136.852 187.6 140.127 186.7L191.502 131.275C192.152 127.925 192.577 124.55 192.727 121.175Z" fill="url(#paint23_linear_225_36398)"/>
<path d="M173.675 166.3C179.85 159.625 184.5 152.1 187.675 144.15L152.625 181.95C160.325 178.175 167.475 172.975 173.65 166.3H173.675Z" fill="url(#paint24_linear_225_36398)"/>
<path d="M191.676 104.75L113.676 188.9C116.276 189.175 118.876 189.275 121.476 189.25L192.626 112.5C192.451 109.9 192.126 107.325 191.676 104.75Z" fill="url(#paint25_linear_225_36398)"/>
</g>
<g opacity="0.6">
<path d="M436.818 172.605L441.68 167.744L419.423 145.488L414.562 150.349L436.818 172.605Z" fill="white"/>
<path d="M429.045 180.777L433.906 175.916L411.65 153.66L406.789 158.521L429.045 180.777Z" fill="white"/>
<path d="M420.291 189.16L425.152 184.299L402.896 162.043L398.035 166.904L420.291 189.16Z" fill="white"/>
</g>
<g opacity="0.15">
<path d="M328.057 57.625L332.918 52.7637L310.662 30.5075L305.8 35.3689L328.057 57.625Z" fill="white"/>
<path d="M320.26 65.7969L325.121 60.9355L302.865 38.6794L298.004 43.5407L320.26 65.7969Z" fill="white"/>
<path d="M311.549 74.1621L316.41 69.3008L294.154 47.0446L289.293 51.906L311.549 74.1621Z" fill="white"/>
</g>
<g opacity="0.15">
<path d="M444.162 229.357L449.023 224.496L426.767 202.24L421.906 207.101L444.162 229.357Z" fill="white"/>
<path d="M436.361 237.504L441.223 232.643L418.966 210.386L414.105 215.248L436.361 237.504Z" fill="white"/>
<path d="M427.635 245.912L432.496 241.051L410.24 218.795L405.379 223.656L427.635 245.912Z" fill="white"/>
</g>
<path d="M8.87146 60.3336L6.375 62.8223L9.21663 65.6728L11.7131 63.1842L8.87146 60.3336Z" fill="white"/>
<path d="M15.4847 53.6901L12.9883 56.1787L15.8299 59.0293L18.3264 56.5407L15.4847 53.6901Z" fill="white"/>
<path d="M21.5082 47.7037L19.0117 50.1924L21.8533 53.043L24.3498 50.5543L21.5082 47.7037Z" fill="white"/>
<path d="M361.567 186.34L359.07 188.828L361.912 191.679L364.408 189.19L361.567 186.34Z" fill="white"/>
<path d="M368.188 179.653L365.691 182.142L368.533 184.992L371.03 182.504L368.188 179.653Z" fill="white"/>
<path d="M374.211 173.692L371.715 176.181L374.556 179.031L377.053 176.543L374.211 173.692Z" fill="white"/>
<g opacity="0.87">
<path d="M386.25 125.125V128.825H450V125.125H386.25Z" fill="url(#paint26_linear_225_36398)"/>
<path d="M367.551 116.075V119.775H450.001V116.075H367.551Z" fill="url(#paint27_linear_225_36398)"/>
<path d="M336.926 106.45V110.625H450.001V106.45H336.926Z" fill="url(#paint28_linear_225_36398)"/>
</g>
<g style="mix-blend-mode:color-dodge">
<path d="M14.325 117.475H52.15C52.075 118.925 52 120.375 52 121.85C52 123.325 52.05 124.775 52.15 126.225H14.475C14.325 124.025 14.25 121.825 14.25 119.6C14.25 118.9 14.275 118.175 14.3 117.475H14.325Z" fill="white"/>
<path d="M188.05 121.875C188.05 120.4 188 118.95 187.9 117.5H225.675C225.7 118.2 225.725 118.925 225.725 119.625C225.725 121.85 225.65 124.075 225.5 126.25H187.875C187.95 124.8 188.025 123.35 188.025 121.875H188.05Z" fill="white"/>
<path d="M19.5234 152.6H59.2984C60.8234 155.675 62.6234 158.6 64.6234 161.375H22.8234C21.5984 158.525 20.4984 155.6 19.5234 152.6Z" fill="white"/>
<path d="M175.375 161.349C177.375 158.599 179.15 155.649 180.7 152.574H220.475C219.5 155.549 218.4 158.499 217.175 161.349H175.375Z" fill="white"/>
<path d="M16.1008 99.9248H55.6258C54.6258 102.775 53.8258 105.675 53.2758 108.7H14.8008C15.1258 105.75 15.5758 102.8 16.1008 99.9248Z" fill="white"/>
<path d="M186.723 108.7C186.148 105.675 185.398 102.775 184.398 99.9248H223.898C224.448 102.8 224.898 105.725 225.198 108.7H186.723Z" fill="white"/>
<path d="M21.0234 82.375H64.6234C62.6234 85.125 60.8484 88.075 59.2984 91.15H18.1484C18.9734 88.175 19.9484 85.225 21.0234 82.375Z" fill="white"/>
<path d="M180.7 91.1246C179.175 88.0496 177.375 85.1246 175.375 82.3496H218.975C220.05 85.1996 221.025 88.1246 221.85 91.1246H180.7Z" fill="white"/>
<path d="M29.5234 64.8242H82.9234C78.9984 67.3742 75.3484 70.3242 72.0484 73.5992H24.7734C26.2234 70.5742 27.8234 67.6492 29.5234 64.8242Z" fill="white"/>
<path d="M167.926 73.5748C164.626 70.2998 160.976 67.3498 157.051 64.7998H210.451C212.151 67.6248 213.751 70.5498 215.226 73.5748H167.901H167.926Z" fill="white"/>
<path d="M120 225.375C127.95 225.375 135.675 224.475 143.1 222.8H96.875C104.325 224.45 112.05 225.375 119.975 225.375H120Z" fill="white"/>
<path d="M72.3766 214.025H167.652C172.702 211.475 177.502 208.55 182.052 205.25H57.9766C62.5266 208.55 67.3266 211.475 72.3766 214.025Z" fill="white"/>
<path d="M27.0992 170.15H72.0742C75.3742 173.425 79.0242 176.35 82.9492 178.925H32.4242C30.4992 176.1 28.6992 173.175 27.0742 170.15H27.0992Z" fill="white"/>
<path d="M157.051 178.9C160.976 176.375 164.626 173.4 167.926 170.125H212.926C211.276 173.15 209.476 176.075 207.551 178.9H157.051Z" fill="white"/>
<path d="M102.827 187.7C108.327 189.125 114.077 189.9 120.002 189.9C125.927 189.9 131.702 189.125 137.177 187.7H200.877C198.277 190.775 195.502 193.7 192.577 196.475H47.4016C44.4766 193.725 41.6766 190.775 39.1016 187.7H102.827Z" fill="white"/>
<path d="M15.375 135.024H53.275C53.85 137.999 54.65 140.949 55.625 143.799H17.075C16.4 140.924 15.825 137.999 15.375 135.024Z" fill="white"/>
<path d="M184.398 143.799C185.398 140.949 186.173 138.024 186.723 135.024H224.623C224.173 137.974 223.598 140.924 222.948 143.799H184.398Z" fill="white"/>
<path d="M52.1992 38.4752H187.799C183.974 35.2752 179.899 32.3502 175.649 29.7002H64.3492C60.0992 32.3502 56.0242 35.2752 52.1992 38.4752Z" fill="white"/>
<path d="M119.998 13.8496C106.623 13.8496 93.8234 16.3496 82.0234 20.8996H157.948C146.148 16.3496 133.373 13.8496 119.973 13.8496H119.998Z" fill="white"/>
<path d="M42.925 47.2246H197.075C199.7 50.0496 202.175 52.9496 204.475 56.0246H137.175C131.675 54.5996 125.925 53.8246 120 53.8246C114.075 53.8246 108.3 54.5996 102.825 56.0246H35.5C37.8 52.9496 40.275 50.0496 42.925 47.2246Z" fill="white"/>
</g>
<path d="M249.798 42.4746C249.298 42.4746 248.823 42.4746 248.348 42.5246V88.9996C248.823 89.0246 249.323 89.0496 249.798 89.0496C249.948 89.0496 250.123 89.0496 250.273 89.0496V42.4996C250.123 42.4996 249.948 42.4996 249.798 42.4996V42.4746Z" fill="white"/>
<path d="M240.625 44.3744V87.1744C241.25 87.4494 241.9 87.6744 242.55 87.8994V43.6494C241.9 43.8744 241.25 44.0994 240.625 44.3744Z" fill="white"/>
<path d="M256.074 43.3496V88.1996C256.724 88.0246 257.374 87.7996 257.999 87.5746V43.9746C257.374 43.7246 256.724 43.5246 256.074 43.3496Z" fill="white"/>
<path d="M226.523 65.7742C226.523 67.5242 226.723 69.2242 227.098 70.8742V60.6992C226.723 62.3492 226.523 64.0492 226.523 65.7992V65.7742Z" fill="white"/>
<path d="M232.875 49.7742V81.7492C233.475 82.3992 234.125 82.9992 234.8 83.5742V47.9492C234.125 48.5242 233.475 49.1242 232.875 49.7742Z" fill="white"/>
<path d="M273.097 65.7748C273.097 62.8248 272.547 59.9998 271.547 57.4248V74.1498C272.547 71.5498 273.097 68.7248 273.097 65.7998V65.7748Z" fill="white"/>
<path d="M263.824 47.1738V84.3988C264.499 83.8988 265.149 83.3488 265.749 82.7738V48.8238C265.124 48.2488 264.499 47.6988 263.824 47.1988V47.1738Z" fill="white"/>
<path d="M252.223 31.8252V78.1502C252.873 78.0752 253.523 77.9752 254.148 77.8752V32.1002C253.523 31.9752 252.873 31.8752 252.223 31.8252Z" fill="#B81C22"/>
<path d="M259.949 34.0244V75.9744C260.599 75.6494 261.249 75.2994 261.874 74.9244V35.0744C261.249 34.6994 260.599 34.3494 259.949 34.0244Z" fill="#B81C22"/>
<path d="M229.023 44.5002V65.4752C229.573 66.5752 230.223 67.6502 230.948 68.6502V41.3252C230.223 42.3252 229.573 43.3752 229.023 44.5002Z" fill="#B81C22"/>
<path d="M236.75 35.7004V74.2754C237.375 74.7004 238.025 75.1004 238.675 75.4504V34.5254C238 34.8754 237.375 35.2754 236.75 35.7004Z" fill="#B81C22"/>
<path d="M244.473 32.3252V77.6752C245.098 77.8252 245.748 77.9502 246.398 78.0502V31.9502C245.748 32.0502 245.098 32.1752 244.473 32.3252Z" fill="#B81C22"/>
<path d="M267.672 40.0498V69.8998C268.372 69.0498 269.022 68.1498 269.597 67.2248V42.7248C269.022 41.7748 268.372 40.8998 267.672 40.0498Z" fill="#B81C22"/>
<path d="M5 223.475H0V228.95H5V223.475Z" fill="white"/>
<path d="M42.0742 223.475H37.0742V228.95H42.0742V223.475Z" fill="white"/>
<path d="M79.1758 223.475H74.1758V228.95H79.1758V223.475Z" fill="white"/>
<path d="M116.25 223.475H111.25V228.95H116.25V223.475Z" fill="white"/>
<path d="M153.324 223.475H148.324V228.95H153.324V223.475Z" fill="white"/>
<path d="M190.426 223.475H185.426V228.95H190.426V223.475Z" fill="white"/>
<path d="M227.5 223.475H222.5V228.95H227.5V223.475Z" fill="white"/>
<path d="M264.574 223.475H259.574V228.95H264.574V223.475Z" fill="white"/>
<path d="M301.648 223.475H296.648V228.95H301.648V223.475Z" fill="white"/>
<path d="M338.75 223.475H333.75V228.95H338.75V223.475Z" fill="white"/>
<path d="M375.824 223.475H370.824V228.95H375.824V223.475Z" fill="white"/>
<path d="M412.898 223.475H407.898V228.95H412.898V223.475Z" fill="white"/>
<path d="M450 223.475H445V228.95H450V223.475Z" fill="white"/>
<path d="M44.0742 16.375H39.9492V18.425H44.0742V16.375Z" fill="white"/>
<path d="M74.5742 16.375H70.4492V18.425H74.5742V16.375Z" fill="white"/>
<path d="M105.074 16.375H100.949V18.425H105.074V16.375Z" fill="white"/>
<path d="M135.574 16.375H131.449V18.425H135.574V16.375Z" fill="white"/>
<path d="M166.074 16.375H161.949V18.425H166.074V16.375Z" fill="white"/>
<path d="M196.574 16.375H192.449V18.425H196.574V16.375Z" fill="white"/>
<path d="M227.074 16.375H222.949V18.425H227.074V16.375Z" fill="white"/>
<path d="M257.574 16.375H253.449V18.425H257.574V16.375Z" fill="white"/>
<path d="M288.051 16.375H283.926V18.425H288.051V16.375Z" fill="white"/>
<path d="M318.551 16.375H314.426V18.425H318.551V16.375Z" fill="white"/>
<path d="M349.051 16.375H344.926V18.425H349.051V16.375Z" fill="white"/>
<path d="M379.551 16.375H375.426V18.425H379.551V16.375Z" fill="white"/>
<path d="M410.051 16.375H405.926V18.425H410.051V16.375Z" fill="white"/>
</g>
<defs>
<linearGradient id="paint0_linear_225_36398" x1="349.124" y1="51.6252" x2="437.498" y2="51.6252" gradientUnits="userSpaceOnUse">
<stop stop-color="white"/>
<stop offset="1" stop-color="#4F4F4F"/>
</linearGradient>
<linearGradient id="paint1_linear_225_36398" x1="349.125" y1="51.6254" x2="437.5" y2="51.6254" gradientUnits="userSpaceOnUse">
<stop stop-color="white"/>
<stop offset="1" stop-color="#4F4F4F"/>
</linearGradient>
<linearGradient id="paint2_linear_225_36398" x1="349.125" y1="51.6258" x2="437.475" y2="51.6258" gradientUnits="userSpaceOnUse">
<stop stop-color="white"/>
<stop offset="1" stop-color="#4F4F4F"/>
</linearGradient>
<linearGradient id="paint3_linear_225_36398" x1="349.124" y1="51.6252" x2="437.499" y2="51.6252" gradientUnits="userSpaceOnUse">
<stop stop-color="white"/>
<stop offset="1" stop-color="#4F4F4F"/>
</linearGradient>
<linearGradient id="paint4_linear_225_36398" x1="349.126" y1="51.6256" x2="437.476" y2="51.6256" gradientUnits="userSpaceOnUse">
<stop stop-color="white"/>
<stop offset="1" stop-color="#4F4F4F"/>
</linearGradient>
<linearGradient id="paint5_linear_225_36398" x1="349.125" y1="51.6256" x2="437.477" y2="51.6256" gradientUnits="userSpaceOnUse">
<stop stop-color="white"/>
<stop offset="1" stop-color="#4F4F4F"/>
</linearGradient>
<linearGradient id="paint6_linear_225_36398" x1="349.125" y1="51.6256" x2="437.475" y2="51.6256" gradientUnits="userSpaceOnUse">
<stop stop-color="white"/>
<stop offset="1" stop-color="#4F4F4F"/>
</linearGradient>
<linearGradient id="paint7_linear_225_36398" x1="349.123" y1="51.6248" x2="437.473" y2="51.6248" gradientUnits="userSpaceOnUse">
<stop stop-color="white"/>
<stop offset="1" stop-color="#4F4F4F"/>
</linearGradient>
<linearGradient id="paint8_linear_225_36398" x1="349.124" y1="51.6252" x2="437.474" y2="51.6252" gradientUnits="userSpaceOnUse">
<stop stop-color="white"/>
<stop offset="1" stop-color="#4F4F4F"/>
</linearGradient>
<linearGradient id="paint9_linear_225_36398" x1="349.124" y1="51.6248" x2="437.474" y2="51.6248" gradientUnits="userSpaceOnUse">
<stop stop-color="white"/>
<stop offset="1" stop-color="#4F4F4F"/>
</linearGradient>
<linearGradient id="paint10_linear_225_36398" x1="349.124" y1="51.6258" x2="437.474" y2="51.6258" gradientUnits="userSpaceOnUse">
<stop stop-color="white"/>
<stop offset="1" stop-color="#4F4F4F"/>
</linearGradient>
<linearGradient id="paint11_linear_225_36398" x1="349.123" y1="51.6254" x2="437.473" y2="51.6254" gradientUnits="userSpaceOnUse">
<stop stop-color="white"/>
<stop offset="1" stop-color="#4F4F4F"/>
</linearGradient>
<linearGradient id="paint12_linear_225_36398" x1="349.125" y1="51.6252" x2="437.475" y2="51.6252" gradientUnits="userSpaceOnUse">
<stop stop-color="white"/>
<stop offset="1" stop-color="#4F4F4F"/>
</linearGradient>
<linearGradient id="paint13_linear_225_36398" x1="68.3036" y1="68.646" x2="173.689" y2="166.337" gradientUnits="userSpaceOnUse">
<stop stop-color="white"/>
<stop offset="1" stop-color="#4F4F4F"/>
</linearGradient>
<linearGradient id="paint14_linear_225_36398" x1="68.3196" y1="68.6622" x2="173.687" y2="166.336" gradientUnits="userSpaceOnUse">
<stop stop-color="white"/>
<stop offset="1" stop-color="#4F4F4F"/>
</linearGradient>
<linearGradient id="paint15_linear_225_36398" x1="68.3021" y1="68.646" x2="173.67" y2="166.32" gradientUnits="userSpaceOnUse">
<stop stop-color="white"/>
<stop offset="1" stop-color="#4F4F4F"/>
</linearGradient>
<linearGradient id="paint16_linear_225_36398" x1="68.3044" y1="68.6458" x2="173.672" y2="166.32" gradientUnits="userSpaceOnUse">
<stop stop-color="white"/>
<stop offset="1" stop-color="#4F4F4F"/>
</linearGradient>
<linearGradient id="paint17_linear_225_36398" x1="68.3013" y1="68.6458" x2="173.669" y2="166.32" gradientUnits="userSpaceOnUse">
<stop stop-color="white"/>
<stop offset="1" stop-color="#4F4F4F"/>
</linearGradient>
<linearGradient id="paint18_linear_225_36398" x1="68.3395" y1="68.6806" x2="173.67" y2="166.32" gradientUnits="userSpaceOnUse">
<stop stop-color="white"/>
<stop offset="1" stop-color="#4F4F4F"/>
</linearGradient>
<linearGradient id="paint19_linear_225_36398" x1="68.338" y1="68.6802" x2="173.687" y2="166.337" gradientUnits="userSpaceOnUse">
<stop stop-color="white"/>
<stop offset="1" stop-color="#4F4F4F"/>
</linearGradient>
<linearGradient id="paint20_linear_225_36398" x1="68.3228" y1="68.663" x2="173.69" y2="166.337" gradientUnits="userSpaceOnUse">
<stop stop-color="white"/>
<stop offset="1" stop-color="#4F4F4F"/>
</linearGradient>
<linearGradient id="paint21_linear_225_36398" x1="68.3212" y1="68.663" x2="173.689" y2="166.337" gradientUnits="userSpaceOnUse">
<stop stop-color="white"/>
<stop offset="1" stop-color="#4F4F4F"/>
</linearGradient>
<linearGradient id="paint22_linear_225_36398" x1="68.3029" y1="68.6458" x2="173.689" y2="166.337" gradientUnits="userSpaceOnUse">
<stop stop-color="white"/>
<stop offset="1" stop-color="#4F4F4F"/>
</linearGradient>
<linearGradient id="paint23_linear_225_36398" x1="68.3037" y1="68.6458" x2="173.653" y2="166.303" gradientUnits="userSpaceOnUse">
<stop stop-color="white"/>
<stop offset="1" stop-color="#4F4F4F"/>
</linearGradient>
<linearGradient id="paint24_linear_225_36398" x1="68.3196" y1="68.6634" x2="173.65" y2="166.303" gradientUnits="userSpaceOnUse">
<stop stop-color="white"/>
<stop offset="1" stop-color="#4F4F4F"/>
</linearGradient>
<linearGradient id="paint25_linear_225_36398" x1="68.3021" y1="68.646" x2="173.651" y2="166.303" gradientUnits="userSpaceOnUse">
<stop stop-color="white"/>
<stop offset="1" stop-color="#4F4F4F"/>
</linearGradient>
<linearGradient id="paint26_linear_225_36398" x1="414.045" y1="140.52" x2="414.045" y2="136.783" gradientUnits="userSpaceOnUse">
<stop stop-color="#FCFFFF"/>
<stop offset="1" stop-color="white"/>
</linearGradient>
<linearGradient id="paint27_linear_225_36398" x1="404.667" y1="131.353" x2="404.667" y2="127.616" gradientUnits="userSpaceOnUse">
<stop stop-color="#FCFFFF"/>
<stop offset="1" stop-color="white"/>
</linearGradient>
<linearGradient id="paint28_linear_225_36398" x1="389.37" y1="122.068" x2="389.37" y2="117.85" gradientUnits="userSpaceOnUse">
<stop stop-color="#FCFFFF"/>
<stop offset="1" stop-color="white"/>
</linearGradient>
<clipPath id="clip0_225_36398">
<rect width="450" height="250" fill="white"/>
</clipPath>
</defs>
</svg>
