<svg width="310" height="267" viewBox="0 0 310 267" fill="none" xmlns="http://www.w3.org/2000/svg">
<path d="M225.166 213.499L253.313 195.708L225.166 177.918V213.499Z" fill="#FFB89D"/>
<path d="M168.877 249.087L197.017 231.289L168.877 213.499V249.087Z" fill="#002A38"/>
<path d="M168.878 249.087V213.499L140.73 231.289L168.878 249.087Z" fill="#002A38"/>
<path d="M168.878 177.918V142.33L140.73 160.128L168.878 177.918Z" fill="#FDD000"/>
<path d="M112.582 249.087L140.729 231.289L112.582 213.499V249.087Z" fill="#FFB89D"/>
<path d="M112.582 249.087V213.499L84.4414 231.289L112.582 249.087Z" fill="#FFB89D"/>
<path d="M112.582 213.499L140.729 195.708L112.582 177.918V213.499Z" fill="#FF8333"/>
<path d="M112.582 142.331L140.729 124.54L112.582 106.75V142.331Z" fill="#00E6D4"/>
<path d="M112.582 142.331V106.75L84.4414 124.54L112.582 142.331Z" fill="#009795"/>
<path d="M112.582 71.169V35.5811L84.4414 53.3786L112.582 71.169Z" fill="#00E6D4"/>
<path d="M56.2949 249.087L84.4423 231.289L56.2949 213.499V249.087Z" fill="#002A38"/>
<path d="M56.2949 213.499L84.4423 195.708L56.2949 177.918V213.499Z" fill="white"/>
<path d="M56.2949 106.75L84.4423 88.9594L56.2949 71.1689V106.75Z" fill="#FDD000"/>
<path d="M56.2939 106.75V71.1689L28.1465 88.9594L56.2939 106.75Z" fill="#FDD000"/>
<path d="M56.2949 71.169L84.4423 53.3786L56.2949 35.5811V71.169Z" fill="#FF8333"/>
<path d="M56.2939 71.169V35.5811L28.1465 53.3786L56.2939 71.169Z" fill="#FF8333"/>
<path d="M56.2939 35.5808V0L28.1465 17.7904L56.2939 35.5808Z" fill="#FDD000"/>
<path d="M0 249.087L28.1474 231.289L0 213.499V249.087Z" fill="#002A38"/>
<path d="M0 213.499L28.1474 195.708L0 177.918V213.499Z" fill="#009795"/>
<path d="M0 142.331L28.1474 124.54L0 106.75V142.331Z" fill="#002A38"/>
<path d="M0 106.75L28.1474 88.9594L0 71.1689V106.75Z" fill="#009795"/>
<path d="M0 71.169L28.1474 53.3786L0 35.5811V71.169Z" fill="#00E6D4"/>
<path d="M0 35.5808L28.1474 17.7975L0 0V35.5808Z" fill="#002A38"/>
<path d="M253.313 266.863V231.275L225.166 249.066L253.313 266.863Z" fill="#009795"/>
<path d="M197.018 266.863L225.165 249.066L197.018 231.275V266.863Z" fill="#002A38"/>
<path d="M197.017 266.863V231.275L168.877 249.066L197.017 266.863Z" fill="#002A38"/>
<path d="M197.018 231.275L225.165 213.485L197.018 195.694V231.275Z" fill="#FDD000"/>
<path d="M197.017 231.275V195.694L168.877 213.485L197.017 231.275Z" fill="#FDD000"/>
<path d="M140.729 231.275V195.694L112.582 213.485L140.729 231.275Z" fill="#FFB89D"/>
<path d="M140.729 195.73V160.149L112.582 177.94L140.729 195.73Z" fill="#FF8333"/>
<path d="M140.73 195.695L168.878 177.905L140.73 160.114V195.695Z" fill="#FF8333"/>
<path d="M140.729 124.526V88.9453L112.582 106.736L140.729 124.526Z" fill="#00E6D4"/>
<path d="M112.582 177.897V142.316L84.4414 160.107L112.582 177.897Z" fill="#FFB89D"/>
<path d="M140.73 160.093L168.878 142.302L140.73 124.512V160.093Z" fill="#FDD000"/>
<path d="M84.4414 231.275L112.582 213.485L84.4414 195.694V231.275Z" fill="#009795"/>
<path d="M84.4416 231.275V195.694L56.2871 213.485L84.4416 231.275Z" fill="#009795"/>
<path d="M84.4414 195.695L112.582 177.905L84.4414 160.114V195.695Z" fill="#FFB89D"/>
<path d="M84.4416 195.695V160.114L56.2871 177.905L84.4416 195.695Z" fill="white"/>
<path d="M84.4414 160.114L112.582 142.317L84.4414 124.526V160.114Z" fill="#FFB89D"/>
<path d="M84.4416 160.114V124.526L56.2871 142.317L84.4416 160.114Z" fill="#FFB89D"/>
<path d="M84.4414 124.526L112.582 106.736L84.4414 88.9453V124.526Z" fill="#009795"/>
<path d="M28.1403 266.863V231.275L0 249.066L28.1403 266.863Z" fill="#002A38"/>
<path d="M28.1403 231.275V195.694L0 213.485L28.1403 231.275Z" fill="#009795"/>
<path d="M28.1406 160.114L56.288 142.317L28.1406 124.526V160.114Z" fill="#B81C22"/>
<path d="M28.1403 160.114V124.526L0 142.317L28.1403 160.114Z" fill="#B81C22"/>
<path d="M28.1403 195.702V160.114L0 177.905L28.1403 195.702Z" fill="white"/>
<path d="M56.2949 177.869L84.4423 160.078L56.2949 142.288V177.869Z" fill="#B81C22"/>
<path d="M56.2939 177.869V142.288L28.1465 160.078L56.2939 177.869Z" fill="#B81C22"/>
<path d="M56.2939 213.414V177.833L28.1465 195.631L56.2939 213.414Z" fill="#B81C22"/>
<path d="M56.2939 249.08V213.492L28.1465 231.29L56.2939 249.08Z" fill="#B81C22"/>
<path d="M28.1406 195.645L56.288 177.855L28.1406 160.064V195.645Z" fill="white"/>
<path d="M28.1406 124.526L56.288 106.736L28.1406 88.9453V124.526Z" fill="#B81C22"/>
<path d="M28.1403 124.526V88.9453L0 106.736L28.1403 124.526Z" fill="#002A38"/>
<path d="M28.1406 88.9451L56.288 71.1547L28.1406 53.3643V88.9451Z" fill="#00E6D4"/>
<path d="M28.1403 88.9451V53.3643L0 71.1547L28.1403 88.9451Z" fill="#00E6D4"/>
<path d="M28.1406 53.3572L56.288 35.5668L28.1406 17.7764V53.3572Z" fill="#FF8333"/>
<path d="M28.1403 53.3572V17.7764L0 35.5668L28.1403 53.3572Z" fill="#002A38"/>
<path d="M27.9767 266.764L0 249.087V266.764H27.9767Z" fill="#002A38"/>
<path d="M140.73 266.863L168.878 249.066L140.73 231.275V266.863Z" fill="#009795"/>
<path d="M140.729 266.863V231.275L112.582 249.066L140.729 266.863Z" fill="#009795"/>
<path d="M84.4414 266.863L112.582 249.066L84.4414 231.275V266.863Z" fill="#002A38"/>
<path d="M84.4416 266.863V231.275L56.2871 249.066L84.4416 266.863Z" fill="#002A38"/>
<path d="M28.1406 266.863L56.288 249.066L28.1406 231.275V266.863Z" fill="#B81C22"/>
<path d="M56.2951 266.764V249.087L28.3184 266.764H56.2951Z" fill="white"/>
<path d="M84.2645 266.764L56.2949 249.087V266.764H84.2645Z" fill="white"/>
<path d="M112.583 266.764V249.087L84.6133 266.764H112.583Z" fill="#002A38"/>
<path d="M140.559 266.764L112.582 249.087V266.764H140.559Z" fill="#002A38"/>
<path d="M168.878 266.764V249.087L140.908 266.764H168.878Z" fill="#00E6D4"/>
<path d="M196.847 266.764L168.877 249.087V266.764H196.847Z" fill="#00E6D4"/>
<path d="M309.38 266.764L281.41 249.087V266.764H309.38Z" fill="#B81C22"/>
<path d="M281.339 266.764V249.087L253.369 266.764H281.339Z" fill="#B81C22"/>
<path d="M225.165 266.764V249.087L197.195 266.764H225.165Z" fill="#009795"/>
<path d="M253.143 266.764L225.166 249.087V266.764H253.143Z" fill="#009795"/>
</svg>
