<svg width="177" height="179" viewBox="0 0 177 179" fill="none" xmlns="http://www.w3.org/2000/svg">
<path d="M35.3691 22.3281V67.0387L70.73 44.6834L35.3691 22.3281Z" fill="#FFB89D"/>
<path d="M106.1 22.3281L70.7305 44.6834L106.1 67.0387V22.3281Z" fill="#009795"/>
<path d="M106.1 22.3281V67.0387L141.469 44.6834L106.1 22.3281Z" fill="#FFB89D"/>
<path d="M106.1 67.0391L70.7305 89.3943L106.1 111.741V67.0391Z" fill="#B81C22"/>
<path d="M106.1 67.0391V111.741L141.469 89.3943L106.1 67.0391Z" fill="#B81C22"/>
<path d="M176.84 22.3281L141.471 44.6834L176.84 67.0387V22.3281Z" fill="#002A38"/>
<path d="M176.84 67.0391L141.471 89.3943L176.84 111.741V67.0391Z" fill="white"/>
<path d="M176.84 111.74L141.471 134.096L176.84 156.442V111.74Z" fill="#FFB89D"/>
<path d="M70.7389 0L35.3691 22.3553L70.7389 44.7016V0Z" fill="#00E6D4"/>
<path d="M35.3608 22.3467L0 44.702L35.3608 67.0483V22.3467Z" fill="#FFB89D"/>
<path d="M70.7402 0V44.7016L106.11 22.3553L70.7402 0Z" fill="#009795"/>
<path d="M70.7389 89.4033L35.3691 111.759L70.7389 134.114V89.4033Z" fill="#009795"/>
<path d="M141.479 0L106.109 22.3553L141.479 44.7016V0Z" fill="#002A38"/>
<path d="M141.479 0V44.7016L176.839 22.3553L141.479 0Z" fill="#002A38"/>
<path d="M141.479 44.7012L106.109 67.0564L141.479 89.4028V44.7012Z" fill="#B81C22"/>
<path d="M141.479 44.7012V89.4028L176.839 67.0564L141.479 44.7012Z" fill="#B81C22"/>
<path d="M141.479 134.114L106.109 156.461L141.479 178.816V134.114Z" fill="#002A38"/>
<path d="M141.479 134.114V178.816L176.839 156.461L141.479 134.114Z" fill="#B81C22"/>
<path d="M106.1 111.804V156.505L141.469 134.15L106.1 111.804Z" fill="#FDD000"/>
<path d="M141.479 89.4658L106.109 111.812L141.479 134.167V89.4658Z" fill="#FDD000"/>
<path d="M141.479 89.4658V134.167L176.839 111.812L141.479 89.4658Z" fill="#FFB89D"/>
<path d="M141.686 0.125L176.841 22.3283V0.125H141.686Z" fill="#FDD000"/>
<path d="M106.1 0.125V22.3283L141.255 0.125H106.1Z" fill="#00E6D4"/>
<path d="M70.9551 0.125L106.101 22.3283V0.125H70.9551Z" fill="#00E6D4"/>
<path d="M35.3691 0.125V22.3283L70.5155 0.125H35.3691Z" fill="#00E6D4"/>
</svg>
