<svg width="330" height="330" viewBox="0 0 330 330" fill="none" xmlns="http://www.w3.org/2000/svg">
<g clip-path="url(#clip0_292_44265)">
<path d="M189.369 22.3281V67.0387L224.73 44.6834L189.369 22.3281Z" fill="#FFB89D"/>
<path d="M260.1 22.3281L224.73 44.6834L260.1 67.0387V22.3281Z" fill="#009795"/>
<path d="M260.1 22.3281V67.0387L295.469 44.6834L260.1 22.3281Z" fill="#FFB89D"/>
<path d="M260.1 67.0391L224.73 89.3943L260.1 111.741V67.0391Z" fill="#B81C22"/>
<path d="M260.1 67.0391V111.741L295.469 89.3943L260.1 67.0391Z" fill="#B81C22"/>
<path d="M330.84 22.3281L295.471 44.6834L330.84 67.0387V22.3281Z" fill="#002A38"/>
<path d="M330.84 67.0391L295.471 89.3943L330.84 111.741V67.0391Z" fill="white"/>
<path d="M330.84 111.74L295.471 134.096L330.84 156.442V111.74Z" fill="#FFB89D"/>
<path d="M224.739 0L189.369 22.3553L224.739 44.7016V0Z" fill="#00E6D4"/>
<path d="M189.361 22.3467L154 44.702L189.361 67.0483V22.3467Z" fill="#FFB89D"/>
<path d="M224.74 0V44.7016L260.11 22.3553L224.74 0Z" fill="#009795"/>
<path d="M224.739 89.4033L189.369 111.759L224.739 134.114V89.4033Z" fill="#009795"/>
<path d="M295.479 0L260.109 22.3553L295.479 44.7016V0Z" fill="#002A38"/>
<path d="M295.479 0V44.7016L330.839 22.3553L295.479 0Z" fill="#002A38"/>
<path d="M295.479 44.7012L260.109 67.0564L295.479 89.4028V44.7012Z" fill="#B81C22"/>
<path d="M295.479 44.7012V89.4028L330.839 67.0564L295.479 44.7012Z" fill="#B81C22"/>
<path d="M295.479 134.114L260.109 156.461L295.479 178.816V134.114Z" fill="#002A38"/>
<path d="M295.479 134.114V178.816L330.839 156.461L295.479 134.114Z" fill="#B81C22"/>
<path d="M260.1 111.804V156.505L295.469 134.15L260.1 111.804Z" fill="#FDD000"/>
<path d="M295.479 89.4658L260.109 111.812L295.479 134.167V89.4658Z" fill="#FDD000"/>
<path d="M295.479 89.4658V134.167L330.839 111.812L295.479 89.4658Z" fill="#FFB89D"/>
<path d="M295.686 0.125L330.841 22.3283V0.125H295.686Z" fill="#FDD000"/>
<path d="M260.1 0.125V22.3283L295.255 0.125H260.1Z" fill="#00E6D4"/>
<path d="M224.955 0.125L260.101 22.3283V0.125H224.955Z" fill="#00E6D4"/>
<path d="M189.369 0.125V22.3283L224.515 0.125H189.369Z" fill="#00E6D4"/>
</g>
<defs>
<clipPath id="clip0_292_44265">
<rect width="330" height="330" fill="white"/>
</clipPath>
</defs>
</svg>
