<svg width="330" height="330" viewBox="0 0 330 330" fill="none" xmlns="http://www.w3.org/2000/svg">
<g clip-path="url(#clip0_292_44189)">
<path d="M225.166 277.499L253.313 259.708L225.166 241.918V277.499Z" fill="#FFB89D"/>
<path d="M168.877 313.087L197.017 295.289L168.877 277.499V313.087Z" fill="#002A38"/>
<path d="M168.878 313.087V277.499L140.73 295.289L168.878 313.087Z" fill="#002A38"/>
<path d="M168.878 241.918V206.33L140.73 224.128L168.878 241.918Z" fill="#FDD000"/>
<path d="M112.582 313.087L140.729 295.289L112.582 277.499V313.087Z" fill="#FFB89D"/>
<path d="M112.582 313.087V277.499L84.4414 295.289L112.582 313.087Z" fill="#FFB89D"/>
<path d="M112.582 277.499L140.729 259.708L112.582 241.918V277.499Z" fill="#FF8333"/>
<path d="M112.582 206.331L140.729 188.54L112.582 170.75V206.331Z" fill="#00E6D4"/>
<path d="M112.582 206.331V170.75L84.4414 188.54L112.582 206.331Z" fill="#009795"/>
<path d="M112.582 135.169V99.5811L84.4414 117.379L112.582 135.169Z" fill="#00E6D4"/>
<path d="M56.2949 313.087L84.4423 295.289L56.2949 277.499V313.087Z" fill="#002A38"/>
<path d="M56.2949 277.499L84.4423 259.708L56.2949 241.918V277.499Z" fill="white"/>
<path d="M56.2949 170.75L84.4423 152.959L56.2949 135.169V170.75Z" fill="#FDD000"/>
<path d="M56.2939 170.75V135.169L28.1465 152.959L56.2939 170.75Z" fill="#FDD000"/>
<path d="M56.2949 135.169L84.4423 117.379L56.2949 99.5811V135.169Z" fill="#FF8333"/>
<path d="M56.2939 135.169V99.5811L28.1465 117.379L56.2939 135.169Z" fill="#FF8333"/>
<path d="M56.2939 99.5808V64L28.1465 81.7904L56.2939 99.5808Z" fill="#FDD000"/>
<path d="M0 313.087L28.1474 295.289L0 277.499V313.087Z" fill="#002A38"/>
<path d="M0 277.499L28.1474 259.708L0 241.918V277.499Z" fill="#009795"/>
<path d="M0 206.331L28.1474 188.54L0 170.75V206.331Z" fill="#002A38"/>
<path d="M0 170.75L28.1474 152.959L0 135.169V170.75Z" fill="#009795"/>
<path d="M0 135.169L28.1474 117.379L0 99.5811V135.169Z" fill="#00E6D4"/>
<path d="M0 99.5808L28.1474 81.7975L0 64V99.5808Z" fill="#002A38"/>
<path d="M253.313 330.863V295.275L225.166 313.066L253.313 330.863Z" fill="#009795"/>
<path d="M197.018 330.863L225.165 313.066L197.018 295.275V330.863Z" fill="#002A38"/>
<path d="M197.017 330.863V295.275L168.877 313.066L197.017 330.863Z" fill="#002A38"/>
<path d="M197.018 295.275L225.165 277.485L197.018 259.694V295.275Z" fill="#FDD000"/>
<path d="M197.017 295.275V259.694L168.877 277.485L197.017 295.275Z" fill="#FDD000"/>
<path d="M140.729 295.275V259.694L112.582 277.485L140.729 295.275Z" fill="#FFB89D"/>
<path d="M140.729 259.73V224.149L112.582 241.94L140.729 259.73Z" fill="#FF8333"/>
<path d="M140.73 259.695L168.878 241.905L140.73 224.114V259.695Z" fill="#FF8333"/>
<path d="M140.729 188.526V152.945L112.582 170.736L140.729 188.526Z" fill="#00E6D4"/>
<path d="M112.582 241.897V206.316L84.4414 224.107L112.582 241.897Z" fill="#FFB89D"/>
<path d="M140.73 224.093L168.878 206.302L140.73 188.512V224.093Z" fill="#FDD000"/>
<path d="M84.4414 295.275L112.582 277.485L84.4414 259.694V295.275Z" fill="#009795"/>
<path d="M84.4416 295.275V259.694L56.2871 277.485L84.4416 295.275Z" fill="#009795"/>
<path d="M84.4414 259.695L112.582 241.905L84.4414 224.114V259.695Z" fill="#FFB89D"/>
<path d="M84.4416 259.695V224.114L56.2871 241.905L84.4416 259.695Z" fill="white"/>
<path d="M84.4414 224.114L112.582 206.317L84.4414 188.526V224.114Z" fill="#FFB89D"/>
<path d="M84.4416 224.114V188.526L56.2871 206.317L84.4416 224.114Z" fill="#FFB89D"/>
<path d="M84.4414 188.526L112.582 170.736L84.4414 152.945V188.526Z" fill="#009795"/>
<path d="M28.1403 330.863V295.275L0 313.066L28.1403 330.863Z" fill="#002A38"/>
<path d="M28.1403 295.275V259.694L0 277.485L28.1403 295.275Z" fill="#009795"/>
<path d="M28.1406 224.114L56.288 206.317L28.1406 188.526V224.114Z" fill="#B81C22"/>
<path d="M28.1403 224.114V188.526L0 206.317L28.1403 224.114Z" fill="#B81C22"/>
<path d="M28.1403 259.702V224.114L0 241.905L28.1403 259.702Z" fill="white"/>
<path d="M56.2949 241.869L84.4423 224.078L56.2949 206.288V241.869Z" fill="#B81C22"/>
<path d="M56.2939 241.869V206.288L28.1465 224.078L56.2939 241.869Z" fill="#B81C22"/>
<path d="M56.2939 277.414V241.833L28.1465 259.631L56.2939 277.414Z" fill="#B81C22"/>
<path d="M56.2939 313.08V277.492L28.1465 295.29L56.2939 313.08Z" fill="#B81C22"/>
<path d="M28.1406 259.645L56.288 241.855L28.1406 224.064V259.645Z" fill="white"/>
<path d="M28.1406 188.526L56.288 170.736L28.1406 152.945V188.526Z" fill="#B81C22"/>
<path d="M28.1403 188.526V152.945L0 170.736L28.1403 188.526Z" fill="#002A38"/>
<path d="M28.1406 152.945L56.288 135.155L28.1406 117.364V152.945Z" fill="#00E6D4"/>
<path d="M28.1403 152.945V117.364L0 135.155L28.1403 152.945Z" fill="#00E6D4"/>
<path d="M28.1406 117.357L56.288 99.5668L28.1406 81.7764V117.357Z" fill="#FF8333"/>
<path d="M28.1403 117.357V81.7764L0 99.5668L28.1403 117.357Z" fill="#002A38"/>
<path d="M27.9767 330.764L0 313.087V330.764H27.9767Z" fill="#002A38"/>
<path d="M140.73 330.863L168.878 313.066L140.73 295.275V330.863Z" fill="#009795"/>
<path d="M140.729 330.863V295.275L112.582 313.066L140.729 330.863Z" fill="#009795"/>
<path d="M84.4414 330.863L112.582 313.066L84.4414 295.275V330.863Z" fill="#002A38"/>
<path d="M84.4416 330.863V295.275L56.2871 313.066L84.4416 330.863Z" fill="#002A38"/>
<path d="M28.1406 330.863L56.288 313.066L28.1406 295.275V330.863Z" fill="#B81C22"/>
<path d="M56.2951 330.764V313.087L28.3184 330.764H56.2951Z" fill="white"/>
<path d="M84.2645 330.764L56.2949 313.087V330.764H84.2645Z" fill="white"/>
<path d="M112.583 330.764V313.087L84.6133 330.764H112.583Z" fill="#002A38"/>
<path d="M140.559 330.764L112.582 313.087V330.764H140.559Z" fill="#002A38"/>
<path d="M168.878 330.764V313.087L140.908 330.764H168.878Z" fill="#00E6D4"/>
<path d="M196.847 330.764L168.877 313.087V330.764H196.847Z" fill="#00E6D4"/>
<path d="M309.38 330.764L281.41 313.087V330.764H309.38Z" fill="#B81C22"/>
<path d="M281.339 330.764V313.087L253.369 330.764H281.339Z" fill="#B81C22"/>
<path d="M225.165 330.764V313.087L197.195 330.764H225.165Z" fill="#009795"/>
<path d="M253.143 330.764L225.166 313.087V330.764H253.143Z" fill="#009795"/>
</g>
<defs>
<clipPath id="clip0_292_44189">
<rect width="330" height="330" fill="white"/>
</clipPath>
</defs>
</svg>
