<svg width="120" height="129" viewBox="0 0 120 129" fill="none" xmlns="http://www.w3.org/2000/svg">
<g clip-path="url(#clip0_227_38013)">
<path d="M99.3074 92.8035C77.7538 72.7458 46.8167 97.2807 25.2632 77.223C28.7372 60.7068 32.2136 44.1903 35.6879 27.6764C57.2415 47.7342 88.1786 23.1992 109.732 43.257C106.258 59.7732 102.782 76.2896 99.3074 92.8035Z" fill="#B81C22" stroke="#B81C22" stroke-width="2.55708" stroke-linecap="round" stroke-linejoin="round"/>
<path d="M38.3893 14.8595L14.6706 127.584" stroke="#B81C22" stroke-width="2.55708" stroke-linecap="round" stroke-linejoin="round"/>
<path d="M41.4929 19.6169C44.1223 17.9014 44.8631 14.3791 43.1476 11.7497C41.4321 9.12034 37.9099 8.37947 35.2805 10.095C32.6511 11.8105 31.9102 15.3327 33.6257 17.9621C35.3412 20.5915 38.8635 21.3324 41.4929 19.6169Z" fill="white" stroke="#B81C22" stroke-width="2.55708" stroke-linecap="round" stroke-linejoin="round"/>
</g>
<path d="M48.7413 56.8822C49.0517 54.9722 49.4637 53.3704 49.9773 52.0769C50.5174 50.7643 51.1114 49.6939 51.7595 48.8656C52.4113 48.0146 53.0885 47.3661 53.7911 46.9202C54.5202 46.4552 55.2252 46.138 55.9062 45.9686C56.6137 45.7802 57.2704 45.6885 57.8764 45.6936C58.5051 45.7024 59.0469 45.7438 59.5016 45.8177C59.9564 45.8916 60.472 46.0221 61.0484 46.2091C61.6476 46.3999 62.2415 46.6948 62.8301 47.0938C63.4452 47.4738 64.0135 47.998 64.5351 48.6662C65.0831 49.3154 65.5315 50.1468 65.8802 51.1604C66.2326 52.1512 66.4458 53.3528 66.5197 54.7652C66.62 56.1585 66.515 57.8102 66.2046 59.7202C65.8941 61.6303 65.4689 63.2416 64.9289 64.5542C64.4152 65.8477 63.8325 66.92 63.1808 67.771C62.5327 68.5992 61.8442 69.2458 61.1151 69.7108C60.4125 70.1568 59.7074 70.474 59 70.6624C58.3189 70.8318 57.6641 70.9121 57.0353 70.9033C56.4293 70.8982 55.899 70.8586 55.4442 70.7847C54.9894 70.7108 54.4625 70.5785 53.8633 70.3878C53.2869 70.2008 52.6911 69.9172 52.076 69.5372C51.4874 69.1381 50.9191 68.614 50.3711 67.9648C49.8495 67.2966 49.4125 66.467 49.0601 65.4762C48.7113 64.4626 48.4868 63.2591 48.3865 61.8658C48.3126 60.4535 48.4309 58.7923 48.7413 56.8822ZM52.8342 57.5474C52.7123 58.2978 52.6155 59.1806 52.5439 60.1959C52.4987 61.1921 52.5632 62.1595 52.7374 63.098C52.9116 64.0366 53.2558 64.8627 53.77 65.5764C54.2841 66.2901 55.0529 66.7301 56.0761 66.8964C57.0993 67.0627 57.9678 66.8888 58.6815 66.3746C59.3952 65.8604 59.9833 65.1858 60.4458 64.3507C60.9082 63.5157 61.2644 62.6166 61.5142 61.6537C61.7905 60.6716 61.9897 59.8054 62.1116 59.0551C62.2335 58.3047 62.3171 57.4314 62.3623 56.4351C62.434 55.4199 62.3827 54.443 62.2084 53.5044C62.0342 52.5659 61.69 51.7397 61.1759 51.026C60.6617 50.3123 59.893 49.8723 58.8697 49.706C57.8465 49.5397 56.978 49.7137 56.2643 50.2278C55.5506 50.742 54.9625 51.4166 54.5 52.2517C54.0376 53.0868 53.6682 53.9953 53.3919 54.9774C53.1421 55.9403 52.9562 56.797 52.8342 57.5474ZM66.9517 67.7886L77.8059 60.2402C78.1231 60.0117 78.4535 59.7737 78.7971 59.5261C79.1445 59.2558 79.4595 58.9686 79.7424 58.6645C80.0479 58.364 80.3098 58.0448 80.5281 57.7069C80.7501 57.3462 80.8944 56.9612 80.9609 56.5519C81.0422 56.0517 81.0119 55.5916 80.8701 55.1718C80.751 54.7557 80.5545 54.3853 80.2805 54.0607C80.0065 53.7361 79.6645 53.4705 79.2547 53.2639C78.8712 53.0382 78.4408 52.8866 77.9633 52.8089C76.94 52.6427 76.0507 52.8015 75.2952 53.2856C74.5397 53.7696 74.0124 54.5008 73.7134 55.4791L69.4712 54.4396C69.7432 53.3402 70.1636 52.405 70.7324 51.6338C71.3276 50.8437 72.0238 50.2216 72.8211 49.7677C73.6184 49.3138 74.5072 49.0148 75.4875 48.8707C76.4678 48.7266 77.5037 48.7433 78.5952 48.9206C79.6866 49.098 80.6745 49.4103 81.5587 49.8574C82.4694 50.2854 83.231 50.841 83.8435 51.524C84.4597 52.1843 84.9023 52.9797 85.1711 53.9103C85.44 54.8409 85.4802 55.886 85.2917 57.0457C85.0442 58.5692 84.4774 59.8307 83.5914 60.8304C82.7319 61.811 81.6751 62.7128 80.421 63.5359L71.8262 69.246L83.0136 71.064L82.415 74.7477L66.2478 72.1203L66.9517 67.7886Z" fill="white"/>
<defs>
<clipPath id="clip0_227_38013">
<rect width="106.714" height="117.479" fill="white" transform="translate(0 12.3057) rotate(-6.62164)"/>
</clipPath>
</defs>
</svg>
