<svg width="120" height="129" viewBox="0 0 120 129" fill="none" xmlns="http://www.w3.org/2000/svg">
<g clip-path="url(#clip0_227_38159)">
<path d="M99.3074 92.8035C77.7538 72.7458 46.8167 97.2807 25.2632 77.223C28.7372 60.7068 32.2136 44.1903 35.6879 27.6764C57.2415 47.7342 88.1786 23.1992 109.732 43.257C106.258 59.7732 102.782 76.2896 99.3074 92.8035Z" fill="#B81C22" stroke="#B81C22" stroke-width="2.55708" stroke-linecap="round" stroke-linejoin="round"/>
<path d="M38.3893 14.8595L14.6706 127.584" stroke="#B81C22" stroke-width="2.55708" stroke-linecap="round" stroke-linejoin="round"/>
<path d="M41.4929 19.6169C44.1223 17.9014 44.8631 14.3791 43.1476 11.7497C41.4321 9.12034 37.9099 8.37947 35.2805 10.095C32.6511 11.8105 31.9102 15.3327 33.6257 17.9621C35.3412 20.5915 38.8635 21.3324 41.4929 19.6169Z" fill="white" stroke="#B81C22" stroke-width="2.55708" stroke-linecap="round" stroke-linejoin="round"/>
</g>
<path d="M48.7413 56.8822C49.0517 54.9722 49.4637 53.3704 49.9773 52.0769C50.5174 50.7643 51.1114 49.6939 51.7595 48.8656C52.4113 48.0146 53.0885 47.3661 53.7911 46.9202C54.5202 46.4552 55.2252 46.138 55.9062 45.9686C56.6137 45.7802 57.2704 45.6885 57.8764 45.6936C58.5051 45.7024 59.0469 45.7438 59.5016 45.8177C59.9564 45.8916 60.472 46.0221 61.0484 46.2091C61.6476 46.3999 62.2415 46.6948 62.8301 47.0938C63.4452 47.4738 64.0135 47.998 64.5351 48.6662C65.0831 49.3154 65.5315 50.1468 65.8802 51.1604C66.2326 52.1512 66.4458 53.3528 66.5197 54.7652C66.62 56.1585 66.515 57.8102 66.2046 59.7202C65.8941 61.6303 65.4689 63.2416 64.9289 64.5542C64.4152 65.8477 63.8325 66.92 63.1808 67.771C62.5327 68.5992 61.8442 69.2458 61.1151 69.7108C60.4125 70.1568 59.7074 70.474 59 70.6624C58.3189 70.8318 57.6641 70.9121 57.0353 70.9033C56.4293 70.8982 55.899 70.8586 55.4442 70.7847C54.9894 70.7108 54.4625 70.5785 53.8633 70.3878C53.2869 70.2008 52.6911 69.9172 52.076 69.5372C51.4874 69.1381 50.9191 68.614 50.3711 67.9648C49.8495 67.2966 49.4125 66.467 49.0601 65.4762C48.7113 64.4626 48.4868 63.2591 48.3865 61.8658C48.3126 60.4535 48.4309 58.7923 48.7413 56.8822ZM52.8342 57.5474C52.7123 58.2978 52.6155 59.1806 52.5439 60.1959C52.4987 61.1921 52.5632 62.1595 52.7374 63.098C52.9116 64.0366 53.2558 64.8627 53.77 65.5764C54.2841 66.2901 55.0529 66.7301 56.0761 66.8964C57.0993 67.0627 57.9678 66.8888 58.6815 66.3746C59.3952 65.8604 59.9833 65.1858 60.4458 64.3507C60.9082 63.5157 61.2644 62.6166 61.5142 61.6537C61.7905 60.6716 61.9897 59.8054 62.1116 59.0551C62.2335 58.3047 62.3171 57.4314 62.3623 56.4351C62.434 55.4199 62.3827 54.443 62.2084 53.5044C62.0342 52.5659 61.69 51.7397 61.1759 51.026C60.6617 50.3123 59.893 49.8723 58.8697 49.706C57.8465 49.5397 56.978 49.7137 56.2643 50.2278C55.5506 50.742 54.9625 51.4166 54.5 52.2517C54.0376 53.0868 53.6682 53.9953 53.3919 54.9774C53.1421 55.9403 52.9562 56.797 52.8342 57.5474ZM74.1521 58.5962L75.2094 58.768C75.8006 58.8641 76.3746 58.9224 76.9314 58.9428C77.511 58.967 78.0352 58.9005 78.5042 58.7433C78.996 58.5898 79.4134 58.3193 79.7564 57.9316C80.0995 57.5439 80.3302 56.9862 80.4484 56.2586C80.5999 55.3263 80.4054 54.5128 79.8648 53.8181C79.3242 53.1235 78.5422 52.693 77.519 52.5267C76.7004 52.3937 75.9226 52.5123 75.1856 52.8827C74.475 53.234 73.9035 53.8063 73.4712 54.5996L69.328 52.7359C69.7449 51.8935 70.2571 51.1832 70.8646 50.6051C71.472 50.0269 72.15 49.5887 72.8987 49.2902C73.6511 48.969 74.4532 48.7727 75.305 48.701C76.1569 48.6294 77.0262 48.6657 77.913 48.8098C78.959 48.9798 79.9259 49.2769 80.8139 49.7013C81.7018 50.1257 82.4539 50.668 83.0701 51.3283C83.69 51.9658 84.1381 52.7272 84.4144 53.6123C84.7171 54.4783 84.7816 55.4457 84.6079 56.5144C84.3973 57.8105 83.845 58.9111 82.9511 59.8161C82.0608 60.6983 80.9418 61.1933 79.594 61.301L79.5829 61.3692C81.0921 61.8479 82.156 62.6976 82.7745 63.9184C83.393 65.1392 83.5803 66.5 83.3364 68.0007C83.1479 69.1604 82.7542 70.1467 82.1554 70.9596C81.5792 71.7762 80.8661 72.4305 80.0159 72.9225C79.1695 73.3917 78.2201 73.7042 77.1679 73.86C76.1421 73.9967 75.0948 73.9782 74.0261 73.8045C73.0256 73.6419 72.1004 73.3749 71.2506 73.0034C70.397 72.6546 69.6434 72.1937 68.9897 71.6207C68.3587 71.0514 67.8389 70.3718 67.4305 69.5819C67.0258 68.7692 66.7683 67.8405 66.658 66.7957L71.2123 66.3455C71.2998 67.3866 71.6176 68.2318 72.1656 68.881C72.7136 69.5302 73.5333 69.9435 74.6247 70.1209C75.1705 70.2095 75.6969 70.2017 76.2039 70.0974C76.7338 69.9968 77.2064 69.8169 77.622 69.5577C78.064 69.2794 78.4242 68.9295 78.7028 68.508C79.0078 68.0675 79.2065 67.563 79.2989 66.9945C79.4245 66.2214 79.3556 65.5683 79.0921 65.0354C78.8551 64.4834 78.4954 64.0399 78.013 63.7048C77.5571 63.3506 77.0182 63.0763 76.3963 62.8819C75.7744 62.6875 75.1565 62.5404 74.5425 62.4406L73.5534 62.2798L74.1521 58.5962Z" fill="white"/>
<defs>
<clipPath id="clip0_227_38159">
<rect width="106.714" height="117.479" fill="white" transform="translate(0 12.3057) rotate(-6.62164)"/>
</clipPath>
</defs>
</svg>
