<svg width="30" height="30" viewBox="0 0 30 30" fill="none" xmlns="http://www.w3.org/2000/svg">
<g clip-path="url(#clip0_278_43764)">
<path d="M6 10.4121V19.9028C6 20.2914 6.15855 20.6472 6.41387 20.901C6.66844 21.1556 7.02351 21.3149 7.41207 21.3149H21.9072C22.2958 21.3149 22.6516 21.1563 22.9054 20.901C23.16 20.6464 23.3193 20.2914 23.3193 19.9028V17.692C23.3193 17.459 23.1302 17.27 22.8972 17.27C22.6642 17.27 22.4751 17.459 22.4751 17.692V19.9028C22.4751 20.0613 22.4119 20.2005 22.3084 20.3048C22.2042 20.4082 22.065 20.4707 21.9064 20.4715H7.41207C7.25352 20.4715 7.11432 20.4082 7.01011 20.3048C6.90664 20.2005 6.84412 20.0613 6.84337 19.9028V11.4453L13.4958 17.2603C13.8285 17.5513 14.2446 17.6972 14.6593 17.6972C15.0731 17.6972 15.49 17.5513 15.8227 17.2603L22.4751 11.4453V16.0045C22.4751 16.2375 22.6642 16.4266 22.8972 16.4266C23.1302 16.4266 23.3193 16.2375 23.3193 16.0045V10.4121C23.3193 10.0235 23.1607 9.6677 22.9054 9.41387C22.6523 9.15855 22.2965 9 21.9079 9H7.41207C7.02351 9 6.6677 9.15855 6.41387 9.41387C6.15855 9.6677 6 10.0235 6 10.4121ZM7.01011 10.0101C7.11432 9.90664 7.25352 9.84412 7.41207 9.84337H21.9072C22.0657 9.84337 22.2049 9.90664 22.3092 10.0101C22.394 10.0957 22.4513 10.2051 22.4692 10.3294L15.2682 16.6238C15.0932 16.7764 14.8781 16.8516 14.66 16.8524C14.4419 16.8524 14.2268 16.7764 14.0519 16.6238L6.85082 10.3302C6.86868 10.2059 6.92525 10.0965 7.01085 10.0109L7.01011 10.0101Z" fill="#B81C22"/>
</g>
<defs>
<clipPath id="clip0_278_43764">
<rect width="17.32" height="12.3149" fill="white" transform="translate(6 9)"/>
</clipPath>
</defs>
</svg>
