<svg width="30" height="30" viewBox="0 0 30 30" fill="none" xmlns="http://www.w3.org/2000/svg">
<g clip-path="url(#clip0_278_43740)">
<path d="M16.9548 15.0683C17.8414 14.1816 17.8414 12.7441 16.9548 11.8575C16.0682 10.9709 14.6307 10.9709 13.744 11.8575C12.8574 12.7441 12.8574 14.1816 13.744 15.0683C14.6307 15.9549 16.0682 15.9549 16.9548 15.0683Z" stroke="#B81C22" stroke-width="0.852649" stroke-linecap="round" stroke-linejoin="round"/>
<path d="M11.3691 21.1255C11.3691 18.9281 13.1508 17.1465 15.3482 17.1465C17.5455 17.1465 19.3272 18.9281 19.3272 21.1255" stroke="#B81C22" stroke-width="0.852649" stroke-linecap="round" stroke-linejoin="round"/>
<path d="M15.3485 25.568C20.2763 25.568 24.2712 21.5732 24.2712 16.6453C24.2712 11.7175 20.2763 7.72266 15.3485 7.72266C10.4206 7.72266 6.42578 11.7175 6.42578 16.6453C6.42578 21.5732 10.4206 25.568 15.3485 25.568Z" stroke="#B81C22" stroke-width="0.852649" stroke-linecap="round" stroke-linejoin="round"/>
<path d="M21.6582 22.9551L25.2784 26.5744" stroke="#B81C22" stroke-width="0.852649" stroke-linecap="round" stroke-linejoin="round"/>
<path d="M15.3496 4.98458V2.42578" stroke="#B81C22" stroke-width="0.852649" stroke-linecap="round" stroke-linejoin="round"/>
<path d="M12.7432 5.42788L11.541 3.78027" stroke="#B81C22" stroke-width="0.852649" stroke-linecap="round" stroke-linejoin="round"/>
<path d="M17.9551 5.42788L19.1573 3.78027" stroke="#B81C22" stroke-width="0.852649" stroke-linecap="round" stroke-linejoin="round"/>
<path d="M16.9548 15.0683C17.8414 14.1816 17.8414 12.7441 16.9548 11.8575C16.0682 10.9709 14.6307 10.9709 13.744 11.8575C12.8574 12.7441 12.8574 14.1816 13.744 15.0683C14.6307 15.9549 16.0682 15.9549 16.9548 15.0683Z" stroke="#B81C22" stroke-width="0.822954" stroke-linecap="round" stroke-linejoin="round"/>
<path d="M11.3691 21.1255C11.3691 18.9281 13.1508 17.1465 15.3482 17.1465C17.5455 17.1465 19.3272 18.9281 19.3272 21.1255" stroke="#B81C22" stroke-width="0.822954" stroke-linecap="round" stroke-linejoin="round"/>
<path d="M15.3485 25.568C20.2763 25.568 24.2712 21.5732 24.2712 16.6453C24.2712 11.7175 20.2763 7.72266 15.3485 7.72266C10.4206 7.72266 6.42578 11.7175 6.42578 16.6453C6.42578 21.5732 10.4206 25.568 15.3485 25.568Z" stroke="#B81C22" stroke-width="0.822954" stroke-linecap="round" stroke-linejoin="round"/>
<path d="M21.6582 22.9551L25.2784 26.5744" stroke="#B81C22" stroke-width="0.822954" stroke-linecap="round" stroke-linejoin="round"/>
<path d="M15.3496 4.98458V2.42578" stroke="#B81C22" stroke-width="0.822954" stroke-linecap="round" stroke-linejoin="round"/>
<path d="M12.7432 5.42788L11.541 3.78027" stroke="#B81C22" stroke-width="0.822954" stroke-linecap="round" stroke-linejoin="round"/>
<path d="M17.9551 5.42788L19.1573 3.78027" stroke="#B81C22" stroke-width="0.822954" stroke-linecap="round" stroke-linejoin="round"/>
</g>
<defs>
<clipPath id="clip0_278_43740">
<rect width="19.7034" height="25" fill="white" transform="translate(6 2)"/>
</clipPath>
</defs>
</svg>
