<svg width="170" height="65" viewBox="0 0 170 65" fill="none" xmlns="http://www.w3.org/2000/svg">
<path d="M36.5977 33.2753C37.594 32.0168 38.7732 30.56 40.1385 28.9076C41.5021 27.2543 42.9845 25.6941 44.5856 24.2246C46.1851 22.7566 47.8649 21.5093 49.6232 20.4865C51.3799 19.463 53.1254 18.9512 54.8565 18.9512C56.5346 18.9512 57.887 19.4766 58.9106 20.5258C59.9325 21.5758 60.4443 22.7823 60.4443 24.146C60.4443 25.93 59.8668 27.7541 58.7133 29.6159C57.5581 31.4793 56.2731 33.3283 54.8565 35.1644C53.4399 37.0022 52.1532 38.7854 50.9997 40.5164C49.8462 42.2483 49.2686 43.8221 49.2686 45.2387C49.2686 45.8171 49.3986 46.3016 49.6617 46.6947C49.9248 47.0885 50.3435 47.285 50.9211 47.285C53.0725 47.285 56.5875 44.8449 61.4679 39.9653C63.462 37.972 65.4161 35.8607 67.3317 33.6299C69.2456 31.3999 70.9125 29.3672 72.3291 27.5303L72.9596 27.8447C72.3291 28.6324 71.6072 29.5252 70.7938 30.5207C69.9804 31.5186 69.1028 32.5807 68.1579 33.7085C67.2129 34.8371 66.2022 36.0043 65.1273 37.2107C64.0524 38.4188 62.9631 39.5723 61.8609 40.6736C60.3914 42.1432 59.0534 43.389 57.8469 44.4125C56.6405 45.4353 55.5255 46.2623 54.5019 46.8912C53.48 47.5209 52.5077 47.9797 51.5901 48.2693C50.6724 48.5565 49.7403 48.7017 48.797 48.7017C46.9584 48.7017 45.5306 48.1899 44.507 47.1671C43.4835 46.1436 42.9717 44.8449 42.9717 43.271C42.9717 41.5929 43.5492 39.7824 44.7043 37.8404C45.8578 35.9 47.1429 34.0109 48.5611 32.174C49.9777 30.3378 51.2628 28.6196 52.4163 27.0185C53.5698 25.419 54.149 24.1203 54.149 23.1224C54.149 22.3884 53.9388 21.8237 53.5185 21.4306C53.0981 21.0368 52.6008 20.8403 52.0232 20.8403C50.9211 20.8403 49.6489 21.352 48.2066 22.3748C46.7627 23.3983 45.2546 24.7235 43.6808 26.3495C42.107 27.9763 40.5443 29.7867 38.9978 31.7801C37.4496 33.7751 35.9801 35.7684 34.5907 37.7618C33.1998 39.7568 31.9661 41.6186 30.8912 43.3496C29.8147 45.0815 28.9628 46.4981 28.3339 47.6003L19.9898 47.9147C21.7738 45.0815 23.5193 42.3935 25.2247 39.8474C26.9285 37.303 28.451 34.9679 29.789 32.843C31.127 30.718 32.2019 28.8426 33.0169 27.215C33.8287 25.5898 34.2362 24.3032 34.2362 23.359C34.2362 22.7293 34.0517 22.1526 33.6859 21.6272C33.3169 21.1034 32.7409 20.8403 31.9532 20.8403C30.851 20.8403 29.5788 21.352 28.1365 22.3748C26.6927 23.3983 25.1846 24.7235 23.6108 26.3495C22.0369 27.9763 20.4486 29.7867 18.8491 31.7801C17.248 33.7751 15.74 35.7684 14.3234 37.7618C12.9067 39.7568 11.6474 41.6186 10.5452 43.3497C9.44462 45.0815 8.5783 46.4981 7.9494 47.6003L0 47.9147C2.88617 43.2983 5.74506 38.6939 8.57829 34.1024C11.4115 29.5116 14.1918 24.8286 16.9207 20.0533L26.1295 19.5809L15.6614 33.905L15.8186 34.0631C16.9207 32.8037 18.1673 31.3076 19.5582 29.5766C20.9476 27.8447 22.4556 26.1923 24.0824 24.6184C25.7092 23.0438 27.4531 21.7058 29.3173 20.6044C31.1783 19.5023 33.1597 18.9512 35.2597 18.9512C36.7277 18.9512 37.9742 19.345 38.9978 20.132C40.0213 20.9189 40.5331 22.0996 40.5331 23.6735C40.5331 24.4091 40.4016 25.196 40.1384 26.035C39.8753 26.8749 39.5481 27.7011 39.155 28.5137C38.7619 29.3279 38.3159 30.1413 37.817 30.9539C37.318 31.7681 36.8592 32.4884 36.4405 33.1181L36.5977 33.2753Z" fill="#B81C22"/>
<path d="M105.634 38.3741C105.596 38.3386 105.567 38.2894 105.531 38.2503C105.348 38.426 105.174 38.6111 104.99 38.7854C102.314 41.3034 99.6511 43.2197 97.0023 44.5304C94.352 45.8428 91.9247 46.4981 89.7219 46.4981C87.4646 46.4981 85.7079 45.7898 84.4485 44.3732C83.1891 42.9566 82.5602 41.1205 82.5602 38.864C82.5602 38.0249 82.6902 37.0808 82.9533 36.03C83.8982 35.8214 85.1031 35.5583 86.5726 35.243C88.0422 34.9286 89.616 34.5347 91.2957 34.0631C92.9739 33.5906 94.6664 33.0395 96.3718 32.4098C98.0772 31.7801 99.6109 31.0461 100.976 30.2063C102.34 29.3672 103.455 28.4231 104.321 27.373C105.188 26.3238 105.621 25.1687 105.621 23.9101C105.621 22.3355 104.99 21.1154 103.731 20.2499C102.471 19.3843 100.713 18.9512 98.4574 18.9512C95.9916 18.9512 93.3814 19.5552 90.6268 20.7616C87.8721 21.9689 85.3405 23.5435 83.0319 25.484C80.7217 27.426 78.8077 29.6295 77.2868 32.0954C75.7643 34.562 75.0039 37.0535 75.0039 39.5723C75.0039 42.4055 75.8702 44.7149 77.6013 46.4981C79.3324 48.2813 81.6939 49.1741 84.6844 49.1741C87.6219 49.1741 90.7567 48.5565 94.0905 47.3243C97.4211 46.0922 100.898 43.8494 104.519 40.595C105.15 40.0148 105.759 39.4411 106.349 38.8736C106.091 38.7341 105.847 38.5693 105.634 38.3741ZM85.1175 30.6387C86.1411 28.8819 87.3219 27.203 88.6599 25.6019C89.9979 24.0024 91.4257 22.6507 92.9482 21.5486C94.4691 20.4464 95.8857 19.8961 97.1981 19.8961C97.8286 19.8961 98.3403 20.0533 98.7334 20.3678C99.1264 20.683 99.3238 21.2077 99.3238 21.9424C99.3238 23.2018 98.8778 24.527 97.9858 25.9171C97.0922 27.3073 95.9002 28.6196 94.4049 29.8517C92.9097 31.0854 91.1899 32.1876 89.2487 33.1574C87.3074 34.1288 85.2619 34.8243 83.1105 35.243C83.425 33.9323 84.094 32.3978 85.1175 30.6387Z" fill="#B81C22"/>
<path d="M121.518 47.6789C124.194 47.1021 126.675 46.1179 128.956 44.7269C131.239 43.3376 133.376 41.7108 135.372 39.8474C137.364 37.9856 139.24 35.965 140.998 33.7871C142.756 31.6108 144.475 29.4193 146.154 27.215L146.783 27.6875C144.685 30.4164 142.585 33.0788 140.486 35.6762C138.388 38.2736 136.092 40.5693 133.601 42.5627C131.107 44.5577 128.378 46.1572 125.415 47.3636C122.45 48.5701 119.053 49.1741 115.223 49.1741C113.858 49.1741 112.507 49.0289 111.169 48.741C109.831 48.4522 108.624 47.9797 107.55 47.3243C106.475 46.669 105.608 45.8034 104.952 44.7269C104.296 43.6521 103.969 42.3269 103.969 40.7522C103.969 39.914 104.086 39.0741 104.322 38.2343C104.558 37.3952 104.912 36.634 105.385 35.9513C105.857 35.2703 106.447 34.7056 107.155 34.2596C107.864 33.8144 108.69 33.5906 109.635 33.5906C110.842 33.5906 111.772 33.9323 112.428 34.6133C113.084 35.296 113.412 36.0829 113.412 36.9749C113.412 38.0762 113.097 38.9169 112.468 39.4937C111.838 40.0712 111.103 40.3592 110.264 40.3592C109.582 40.3592 109.005 40.2284 108.533 39.9653C108.272 40.4378 108.049 40.9496 107.864 41.5007C107.681 42.0509 107.588 42.6157 107.588 43.1924C107.588 44.662 108.153 45.8684 109.281 46.8126C110.408 47.7575 111.732 48.2292 113.255 48.2292C114.199 48.2292 115.156 48.072 116.128 47.7575C117.099 47.4423 117.963 46.9834 118.725 46.3802C119.486 45.7778 120.102 45.0558 120.575 44.216C121.047 43.3769 121.283 42.4584 121.283 41.4606C121.283 40.0969 120.955 38.8511 120.299 37.7225C119.643 36.5947 118.923 35.5061 118.135 34.4561C117.347 33.4069 116.625 32.3448 115.971 31.2683C115.314 30.1942 114.987 29.0528 114.987 27.8447C114.987 26.3768 115.327 25.0901 116.009 23.9887C116.691 22.8866 117.585 21.9561 118.685 21.1948C119.787 20.4344 121.019 19.8696 122.385 19.5023C123.748 19.1357 125.139 18.9512 126.556 18.9512C129.075 18.9512 131.186 19.4902 132.891 20.5651C134.597 21.6408 135.45 23.1753 135.45 25.1687C135.45 26.6912 134.951 27.937 133.955 28.9076C132.957 29.879 131.698 30.3635 130.177 30.3635C129.705 30.3635 129.272 30.3242 128.877 30.2456C128.484 30.167 128.155 30.0755 127.894 29.9704C128.471 28.9212 128.877 27.884 129.115 26.8613C129.351 25.8377 129.468 24.8286 129.468 23.8307C129.468 22.7823 129.166 21.8638 128.563 21.0761C127.96 20.2892 127.055 19.8961 125.848 19.8961C124.379 19.8961 123.251 20.3558 122.463 21.2734C121.677 22.1919 121.283 23.3334 121.283 24.697C121.283 26.1666 121.61 27.4653 122.268 28.5923C122.922 29.7218 123.644 30.8103 124.432 31.8587C125.218 32.9095 125.938 34.0109 126.596 35.1644C127.251 36.3195 127.58 37.6832 127.58 39.257C127.58 40.2549 127.408 41.2247 127.068 42.1697C126.726 43.1138 126.267 43.9537 125.691 44.6876C125.112 45.4232 124.47 46.0393 123.763 46.5374C123.054 47.0364 122.306 47.3636 121.518 47.5209L121.518 47.6789Z" fill="#B81C22"/>
<path d="M143.241 21.6277L143.791 20.211H149.852L155.754 10.2939L164.254 9.97949L157.723 20.211H167.718L167.009 21.6277H156.857C154.495 25.5117 152.501 28.7773 150.874 31.4268C149.247 34.0764 147.949 36.2807 146.979 38.0374C146.008 39.7966 145.299 41.1995 144.855 42.2488C144.407 43.2988 144.186 44.2165 144.186 45.0034C144.186 45.686 144.369 46.2363 144.736 46.6558C145.102 47.0762 145.628 47.2855 146.31 47.2855C147.62 47.2855 149.353 46.6165 151.505 45.2785C153.656 43.9405 155.963 42.0907 158.43 39.73C160.108 38.0511 161.945 36.0834 163.94 33.8269C165.934 31.572 167.796 29.2891 169.527 26.9797L170.001 27.3735C168.793 28.9474 167.272 30.8637 165.435 33.1186C163.598 35.3751 161.578 37.6051 159.375 39.8086C158.167 41.0167 156.922 42.1573 155.636 43.2322C154.351 44.3087 153.051 45.2529 151.74 46.0654C150.428 46.8796 149.143 47.5214 147.884 47.9938C146.624 48.4663 145.392 48.7021 144.186 48.7021C142.504 48.7021 141.036 48.3211 139.777 47.5607C138.518 46.801 137.889 45.4751 137.889 43.5868C137.889 42.2223 138.177 40.8193 138.755 39.3754C139.333 37.9331 140.132 36.3457 141.155 34.6138C142.179 32.8828 143.371 30.968 144.736 28.8688C146.1 26.7703 147.569 24.3566 149.143 21.6277L143.241 21.6277Z" fill="#B81C22"/>
<path d="M100.32 0C100.845 2.09941 101.475 3.90904 102.21 5.43006C102.944 6.95221 103.652 8.23843 104.335 9.28642C105.016 10.3367 105.595 11.1636 106.067 11.7661C106.539 12.3697 106.774 12.8026 106.774 13.0649C106.774 13.4852 106.539 13.6948 106.067 13.6948C105.803 13.6948 105.319 13.3535 104.611 12.6709C103.902 11.9894 103.14 11.1888 102.328 10.2703C101.514 9.35284 100.753 8.47437 100.046 7.63369C99.3378 6.7953 98.8774 6.2169 98.6678 5.90308C97.9851 6.42765 97.0551 7.12287 95.8743 7.98874C94.6934 8.85348 93.5126 9.69416 92.3329 10.5062C91.152 11.3205 90.0502 12.0158 89.0274 12.593C88.0035 13.1703 87.2556 13.4577 86.7837 13.4577C86.573 13.4577 86.4688 13.2745 86.4688 12.9068C86.4688 12.6457 86.8227 12.2517 87.5316 11.7271C88.2394 11.2026 89.1843 10.4421 90.3652 9.44447C91.5449 8.44803 92.8838 7.17556 94.3785 5.62705C95.8743 4.0797 97.3815 2.20363 98.9048 0L100.32 0Z" fill="#B81C22"/>
<path d="M154.992 62.0156C155.273 62.0156 155.504 62.08 155.685 62.2087C155.866 62.3375 155.991 62.5101 156.059 62.7266C156.129 62.9373 156.124 63.1743 156.044 63.4377C155.965 63.6951 155.825 63.9322 155.624 64.1487C155.424 64.3652 155.193 64.5378 154.934 64.6666C154.674 64.7953 154.403 64.8597 154.122 64.8597C153.853 64.8597 153.625 64.7953 153.438 64.6666C153.25 64.5378 153.123 64.3652 153.054 64.1487C152.992 63.9322 153 63.6951 153.079 63.4377C153.159 63.1743 153.296 62.9373 153.489 62.7266C153.69 62.5101 153.923 62.3375 154.189 62.2087C154.455 62.08 154.722 62.0156 154.992 62.0156ZM154.324 64.2277C154.551 64.2277 154.767 64.1516 154.972 63.9995C155.18 63.8414 155.317 63.6542 155.383 63.4377C155.428 63.2914 155.431 63.1597 155.393 63.0427C155.358 62.9198 155.286 62.8232 155.179 62.753C155.078 62.6828 154.954 62.6476 154.807 62.6476C154.654 62.6476 154.506 62.6828 154.362 62.753C154.218 62.8232 154.088 62.9198 153.971 63.0427C153.862 63.1597 153.785 63.2914 153.74 63.4377C153.695 63.584 153.691 63.7186 153.727 63.8414C153.77 63.9585 153.843 64.0521 153.944 64.1223C154.044 64.1926 154.171 64.2277 154.324 64.2277Z" fill="#B81C22"/>
<path d="M148.905 58.0567C149.176 58.0919 149.483 58.1182 149.827 58.1357C150.178 58.1474 150.534 58.1533 150.895 58.1533C151.264 58.1474 151.62 58.1357 151.962 58.1182C152.305 58.0948 152.603 58.0714 152.855 58.048L152.509 59.1803C152.22 59.2037 151.905 59.2242 151.563 59.2418C151.223 59.2535 150.875 59.2593 150.52 59.2593C150.165 59.2593 149.818 59.2535 149.479 59.2418C149.148 59.2242 148.842 59.2037 148.562 59.1803L148.905 58.0567ZM148.494 61.805C148.412 61.9513 148.345 62.0829 148.29 62.2C148.238 62.3111 148.194 62.4253 148.158 62.5423C148.13 62.6359 148.127 62.7237 148.151 62.8056C148.177 62.8817 148.23 62.949 148.31 63.0075C148.398 63.0602 148.517 63.1012 148.667 63.1304C148.825 63.1538 149.02 63.1655 149.253 63.1655C149.663 63.1655 150.054 63.148 150.425 63.1129C150.799 63.0719 151.199 63.0134 151.626 62.9373L151.282 64.1223C150.973 64.175 150.62 64.216 150.226 64.2452C149.838 64.2745 149.383 64.2891 148.863 64.2891C148.074 64.2891 147.525 64.1633 147.216 63.9117C146.909 63.6542 146.825 63.3001 146.963 62.8495C147.015 62.6798 147.081 62.5043 147.16 62.3229C147.248 62.1356 147.351 61.9308 147.468 61.7084L148.494 61.805ZM147.672 57.4686C147.629 57.5271 147.577 57.6091 147.514 57.7144C147.451 57.8197 147.389 57.9221 147.328 58.0216C147.273 58.1211 147.232 58.1972 147.203 58.2499C147.147 58.3728 147.068 58.5337 146.964 58.7326C146.868 58.9258 146.761 59.1452 146.643 59.391C146.533 59.6309 146.421 59.8767 146.308 60.1284C146.194 60.38 146.089 60.6228 145.993 60.8569C145.903 61.091 145.831 61.2958 145.778 61.4714C145.753 61.5533 145.724 61.6469 145.692 61.7523C145.666 61.8576 145.648 61.9542 145.64 62.042C145.713 61.9425 145.79 61.843 145.869 61.7435C145.948 61.644 146.028 61.5445 146.107 61.4451C146.188 61.3397 146.261 61.2402 146.327 61.1466L146.764 61.5767C146.605 61.8167 146.438 62.0741 146.262 62.3492C146.092 62.6242 145.933 62.8846 145.785 63.1304C145.644 63.3704 145.531 63.5693 145.446 63.7273C145.414 63.7917 145.379 63.8649 145.342 63.9468C145.311 64.0287 145.288 64.0931 145.274 64.1399C145.26 64.1867 145.243 64.2423 145.223 64.3067C145.208 64.3769 145.194 64.4413 145.182 64.4998L144.096 64.57C144.097 64.2657 144.138 63.8619 144.219 63.3587C144.301 62.8495 144.433 62.2965 144.616 61.6996C144.716 61.3719 144.833 61.0383 144.967 60.6989C145.102 60.3595 145.238 60.0347 145.376 59.7246C145.515 59.4086 145.642 59.1218 145.758 58.8643C145.879 58.6068 145.981 58.3932 146.064 58.2235C146.114 58.1006 146.171 57.9631 146.236 57.811C146.309 57.653 146.37 57.5037 146.419 57.3633L147.672 57.4686Z" fill="#B81C22"/>
<path d="M135.75 60.9449H141.946L141.632 61.9719H135.436L135.75 60.9449ZM134.977 63.473H141.163L140.847 64.5088H134.66L134.977 63.473ZM135.974 58.4081H143.336L141.329 64.974H140.172L141.855 59.4702H136.751L135.066 64.9828H133.964L135.974 58.4081ZM139.532 56.7402H140.67L138.445 64.0172H137.307L139.532 56.7402Z" fill="#B81C22"/>
<path d="M127.053 59.7862H132.046L131.749 60.7605H126.755L127.053 59.7862ZM126.479 61.6647H131.472L131.174 62.639H126.181L126.479 61.6647ZM125.902 63.5519H130.895L130.597 64.5263H125.604L125.902 63.5519ZM126.895 57.8726H133.559L131.393 64.9564H130.227L132.084 58.882H127.697L125.834 64.974H124.723L126.895 57.8726ZM129.853 56.7227L131.141 56.8631C130.943 57.1499 130.741 57.4307 130.535 57.7058C130.328 57.9808 130.142 58.2178 129.978 58.4168L129.022 58.2413C129.115 58.095 129.213 57.934 129.316 57.7585C129.42 57.577 129.518 57.3986 129.608 57.223C129.706 57.0416 129.788 56.8748 129.853 56.7227Z" fill="#B81C22"/>
<path d="M123.213 59.0748C123.054 59.1567 122.886 59.2357 122.709 59.3118C122.539 59.3879 122.356 59.4669 122.16 59.5488C121.998 59.619 121.798 59.7009 121.561 59.7946C121.331 59.8882 121.078 59.9935 120.804 60.1106C120.537 60.2218 120.265 60.3417 119.987 60.4705C119.711 60.5934 119.449 60.7192 119.202 60.8479C118.749 61.0879 118.364 61.3366 118.046 61.5941C117.735 61.8516 117.532 62.1354 117.437 62.4455C117.342 62.7557 117.428 62.9956 117.694 63.1653C117.963 63.3292 118.415 63.4111 119.051 63.4111C119.369 63.4111 119.71 63.3994 120.072 63.376C120.442 63.3467 120.808 63.3087 121.171 63.2619C121.536 63.2092 121.863 63.1507 122.152 63.0863L121.747 64.3504C121.478 64.3913 121.185 64.4294 120.868 64.4645C120.557 64.4996 120.222 64.5259 119.862 64.5435C119.507 64.561 119.132 64.5698 118.734 64.5698C118.275 64.5698 117.86 64.5347 117.49 64.4645C117.124 64.4001 116.818 64.2918 116.57 64.1397C116.329 63.9875 116.166 63.7827 116.079 63.5252C115.999 63.2677 116.016 62.9517 116.13 62.5772C116.245 62.2027 116.434 61.8633 116.699 61.559C116.963 61.2547 117.281 60.9738 117.654 60.7163C118.032 60.4588 118.434 60.2159 118.859 59.9877C119.122 59.8472 119.396 59.7126 119.68 59.5839C119.966 59.4493 120.244 59.3206 120.514 59.1977C120.79 59.0748 121.044 58.9636 121.277 58.8641C121.517 58.7588 121.716 58.6681 121.874 58.592C122.082 58.4925 122.266 58.4018 122.425 58.3199C122.585 58.2379 122.74 58.1502 122.891 58.0565L123.213 59.0748ZM119.171 57.1963C119.206 57.5825 119.251 57.9541 119.307 58.3111C119.369 58.6681 119.436 59.0016 119.506 59.3118C119.583 59.6219 119.654 59.8999 119.719 60.1457L118.502 60.7338C118.419 60.4646 118.34 60.1633 118.265 59.8297C118.189 59.4961 118.119 59.145 118.054 58.7763C117.991 58.4018 117.935 58.0243 117.886 57.644L119.171 57.1963Z" fill="#B81C22"/>
<path d="M106.812 60.4793C106.962 60.45 107.135 60.4149 107.331 60.374C107.529 60.3272 107.704 60.2833 107.857 60.2423C108.025 60.1955 108.248 60.134 108.529 60.058C108.809 59.9819 109.114 59.9058 109.443 59.8297C109.778 59.7537 110.11 59.6893 110.438 59.6366C110.773 59.584 111.081 59.5576 111.362 59.5576C111.845 59.5576 112.241 59.6454 112.548 59.821C112.864 59.9907 113.073 60.2364 113.176 60.5583C113.28 60.8802 113.264 61.2635 113.128 61.7082C113.006 62.1062 112.803 62.469 112.52 62.7967C112.242 63.1244 111.882 63.4112 111.44 63.6569C110.997 63.9027 110.478 64.1017 109.88 64.2538C109.287 64.4119 108.621 64.5113 107.88 64.5523L107.723 63.4726C108.253 63.4609 108.75 63.417 109.214 63.3409C109.684 63.2649 110.103 63.1566 110.47 63.0161C110.845 62.8698 111.155 62.6855 111.401 62.4631C111.652 62.2408 111.823 61.9833 111.912 61.6907C111.98 61.4683 111.984 61.2752 111.924 61.1113C111.872 60.9416 111.762 60.8099 111.595 60.7163C111.428 60.6227 111.21 60.5759 110.941 60.5759C110.726 60.5759 110.48 60.6022 110.2 60.6549C109.921 60.7075 109.628 60.7748 109.322 60.8568C109.021 60.9387 108.722 61.0265 108.424 61.1201C108.126 61.2137 107.848 61.3044 107.588 61.3922C107.329 61.48 107.113 61.5561 106.94 61.6204L106.812 60.4793Z" fill="#B81C22"/>
<path d="M101.18 57.161C101.095 57.319 101.022 57.4595 100.96 57.5824C100.898 57.7053 100.84 57.8252 100.786 57.9423C100.724 58.0652 100.638 58.2437 100.53 58.4777C100.43 58.706 100.313 58.9664 100.181 59.259C100.057 59.5457 99.9248 59.8471 99.7853 60.1631C99.6538 60.4733 99.524 60.7776 99.3961 61.076C99.2681 61.3745 99.1543 61.6466 99.0547 61.8924C98.9612 62.1382 98.8921 62.3342 98.8473 62.4805C98.7364 62.8433 98.7646 63.1213 98.932 63.3144C99.1073 63.5017 99.4213 63.5953 99.8742 63.5953C100.303 63.5953 100.681 63.5397 101.008 63.4285C101.338 63.3115 101.609 63.1564 101.821 62.9633C102.033 62.7702 102.175 62.5537 102.249 62.3137C102.34 62.0153 102.346 61.7256 102.267 61.4447C102.195 61.158 102.048 60.88 101.824 60.6108L103.199 60.3475C103.392 60.7161 103.508 61.0673 103.547 61.4008C103.593 61.7285 103.559 62.0797 103.445 62.4542C103.311 62.8931 103.059 63.2852 102.691 63.6304C102.322 63.9757 101.863 64.2449 101.315 64.438C100.772 64.6311 100.164 64.7277 99.4913 64.7277C99.014 64.7277 98.6101 64.6575 98.2798 64.517C97.9494 64.3766 97.7268 64.1542 97.6117 63.8499C97.4967 63.5456 97.5135 63.1506 97.662 62.6649C97.7174 62.4834 97.8061 62.2435 97.9279 61.9451C98.0515 61.6408 98.1902 61.3072 98.344 60.9444C98.5057 60.5757 98.6682 60.2041 98.8317 59.8296C98.9969 59.4492 99.1498 59.0893 99.2903 58.7499C99.4369 58.4104 99.56 58.1178 99.6596 57.8721C99.7345 57.6672 99.788 57.5122 99.8202 57.4068C99.8603 57.2956 99.8895 57.1903 99.9077 57.0908L101.18 57.161ZM97.5707 58.2495C97.8211 58.3314 98.0994 58.4017 98.4059 58.4602C98.7141 58.5129 99.0351 58.5538 99.3688 58.5831C99.7044 58.6065 100.025 58.6182 100.331 58.6182C100.692 58.6182 101.032 58.6065 101.352 58.5831C101.671 58.5597 101.952 58.5304 102.195 58.4953L101.839 59.5399C101.557 59.5633 101.275 59.5838 100.994 59.6013C100.714 59.6189 100.38 59.6277 99.9949 59.6277C99.6828 59.6277 99.363 59.613 99.0353 59.5838C98.7095 59.5487 98.3894 59.5048 98.0751 59.4521C97.7625 59.3936 97.4732 59.3292 97.207 59.259L97.5707 58.2495ZM96.7124 60.4265C97.0107 60.5318 97.3191 60.6137 97.6378 60.6722C97.9626 60.7308 98.2866 60.7717 98.6099 60.7951C98.9411 60.8127 99.2597 60.8215 99.5657 60.8215C99.8472 60.8215 100.153 60.8127 100.482 60.7951C100.818 60.7776 101.138 60.7512 101.443 60.7161L101.096 61.7607C100.832 61.7841 100.562 61.8046 100.288 61.8222C100.015 61.8339 99.7347 61.8397 99.4471 61.8397C98.8352 61.8397 98.2567 61.8105 97.7116 61.7519C97.1683 61.6876 96.7056 61.5998 96.3234 61.4886L96.7124 60.4265Z" fill="#B81C22"/>
<path d="M90.9162 64.7983C90.8006 64.5759 90.6645 64.3506 90.5079 64.1224C90.3512 63.8942 90.1897 63.6718 90.0234 63.4553C89.8588 63.2329 89.6963 63.0339 89.5358 62.8584L90.732 62.0684C90.9004 62.2381 91.0743 62.44 91.2536 62.674C91.4347 62.9023 91.6027 63.1334 91.7575 63.3675C91.9185 63.6016 92.0478 63.8093 92.1453 63.9907L90.9162 64.7983Z" fill="#B81C22"/>
<path d="M85.7349 57.1532C85.656 57.3112 85.5444 57.516 85.4002 57.7677C85.2559 58.0193 85.0712 58.3031 84.8461 58.6191C84.682 58.8356 84.4999 59.061 84.2998 59.295C84.1077 59.5233 83.9196 59.7281 83.7356 59.9095C83.8259 59.8744 83.9358 59.8451 84.0654 59.8217C84.1967 59.7925 84.3284 59.772 84.4605 59.7603C84.6005 59.7427 84.7225 59.7339 84.8265 59.7339C85.2121 59.7339 85.4981 59.8393 85.6846 60.0499C85.8772 60.2606 85.9099 60.5737 85.7829 60.9892C85.7471 61.1062 85.7033 61.2496 85.6514 61.4193C85.6056 61.589 85.5572 61.7675 85.5061 61.9548C85.4567 62.1362 85.4083 62.3147 85.3607 62.4902C85.3132 62.6658 85.2679 62.8238 85.225 62.9642H84.1235C84.1661 62.8648 84.208 62.7477 84.2492 62.6131C84.2982 62.4727 84.346 62.3264 84.3926 62.1742C84.4452 62.0221 84.493 61.8758 84.5359 61.7353C84.5868 61.589 84.6301 61.4573 84.6659 61.3403C84.7517 61.0594 84.7312 60.8663 84.6043 60.761C84.4853 60.6498 84.331 60.5942 84.1413 60.5942C83.8843 60.5942 83.6054 60.6556 83.3047 60.7785C83.0119 60.8956 82.7517 61.036 82.5242 61.1999C82.3502 61.3286 82.1687 61.472 81.9796 61.63C81.7967 61.788 81.5953 61.9665 81.3753 62.1654L80.6079 61.4632C81.113 61.1121 81.5594 60.7727 81.9472 60.4449C82.3411 60.1172 82.6883 59.7925 82.9886 59.4706C83.289 59.1487 83.5526 58.8269 83.7795 58.505C83.9429 58.2709 84.0905 58.0281 84.2225 57.7764C84.3625 57.5189 84.4725 57.279 84.5528 57.0566L85.7349 57.1532ZM82.0366 57.9608C82.2584 57.9959 82.5196 58.0222 82.8202 58.0398C83.1208 58.0573 83.3874 58.0661 83.62 58.0661C84.0238 58.0661 84.4671 58.0573 84.9498 58.0398C85.4386 58.0222 85.9371 57.993 86.4453 57.952C86.9553 57.9052 87.4444 57.8467 87.9125 57.7764L87.592 58.7947C87.2552 58.8356 86.8917 58.8737 86.5016 58.9088C86.1193 58.9381 85.7288 58.9644 85.33 58.9878C84.9391 59.0054 84.5644 59.02 84.2059 59.0317C83.8492 59.0375 83.5332 59.0405 83.2578 59.0405C83.1354 59.0405 82.9824 59.0405 82.7989 59.0405C82.6232 59.0346 82.4414 59.0288 82.2535 59.0229C82.0673 59.0112 81.8904 58.9995 81.7226 58.9878L82.0366 57.9608ZM88.5443 60.4537C88.4374 60.483 88.3095 60.521 88.1606 60.5678C88.0196 60.6088 87.8746 60.6527 87.7256 60.6995C87.5846 60.7405 87.4558 60.7814 87.3393 60.8224C87.0116 60.9336 86.6216 61.0682 86.1694 61.2262C85.7233 61.3842 85.2509 61.5685 84.752 61.7792C84.4337 61.9197 84.1591 62.0572 83.9282 62.1918C83.6974 62.3264 83.5115 62.4639 83.3707 62.6043C83.2316 62.7389 83.137 62.8882 83.087 63.052C83.0494 63.1749 83.0456 63.2773 83.0756 63.3592C83.1074 63.4353 83.1713 63.4968 83.2671 63.5436C83.3629 63.5904 83.4908 63.6226 83.6506 63.6401C83.8105 63.6577 84.0036 63.6665 84.2301 63.6665C84.6217 63.6665 85.0594 63.646 85.5431 63.605C86.0286 63.5582 86.4849 63.4968 86.9121 63.4207L86.5291 64.5531C86.3262 64.5765 86.0712 64.5999 85.7642 64.6233C85.4554 64.6525 85.137 64.673 84.8091 64.6847C84.4873 64.6964 84.1796 64.7023 83.8858 64.7023C83.4085 64.7023 82.9936 64.6584 82.641 64.5706C82.2885 64.4828 82.0342 64.3336 81.8783 64.1229C81.7304 63.9064 81.7136 63.6109 81.8281 63.2364C81.9212 62.9321 82.0756 62.657 82.2915 62.4112C82.5135 62.1654 82.7743 61.9431 83.0738 61.7441C83.3732 61.5451 83.6879 61.3666 84.0177 61.2086C84.3554 61.0448 84.6825 60.8956 84.999 60.761C85.3235 60.6205 85.6141 60.5005 85.8709 60.4011C86.1278 60.3016 86.3657 60.2138 86.5848 60.1377C86.8118 60.0558 87.0296 59.9739 87.2382 59.8919C87.4389 59.8159 87.6327 59.7427 87.8193 59.6725C88.0078 59.5964 88.2003 59.5174 88.3967 59.4355L88.5443 60.4537Z" fill="#B81C22"/>
<path d="M78.5734 63.7357C78.302 63.923 78.0068 64.0781 77.6877 64.201C77.3686 64.3239 77.0225 64.3853 76.6492 64.3853C76.3065 64.3853 76.063 64.2712 75.9186 64.043C75.7803 63.8147 75.7764 63.487 75.907 63.0598C75.9786 62.8258 76.0708 62.5741 76.1837 62.3049C76.3045 62.0299 76.4284 61.7548 76.5553 61.4798C76.6823 61.2048 76.7986 60.9443 76.9043 60.6986C77.018 60.4469 77.1052 60.2216 77.166 60.0227C77.2322 59.8061 77.2264 59.6452 77.1484 59.5399C77.0723 59.4287 76.9363 59.3731 76.7405 59.3731C76.5263 59.3731 76.2653 59.4462 75.9574 59.5925C75.6513 59.733 75.3266 59.9144 74.9832 60.1368C74.6399 60.3591 74.3043 60.5961 73.9765 60.8478C73.6548 61.0994 73.3672 61.3394 73.1139 61.5676L73.518 60.2158C73.6639 60.0987 73.8498 59.9612 74.0755 59.8032C74.3074 59.6452 74.5625 59.4813 74.8408 59.3116C75.1252 59.1419 75.4153 58.9839 75.7109 58.8376C76.0144 58.6855 76.309 58.5626 76.5946 58.4689C76.8864 58.3753 77.1547 58.3285 77.3994 58.3285C77.7299 58.3285 77.9813 58.387 78.1535 58.5041C78.3337 58.6152 78.4454 58.7703 78.4886 58.9693C78.5336 59.1624 78.5185 59.3819 78.4434 59.6276C78.3736 59.8559 78.2823 60.1046 78.1694 60.3738C78.0583 60.6371 77.9392 60.9063 77.8123 61.1813C77.6854 61.4564 77.5655 61.7285 77.4526 61.9977C77.3458 62.2669 77.2584 62.5127 77.1904 62.7351C77.1546 62.8521 77.1557 62.9487 77.1937 63.0247C77.2334 63.095 77.3083 63.1301 77.4185 63.1301C77.5898 63.1301 77.7956 63.0774 78.0359 62.9721C78.2779 62.8609 78.5343 62.7029 78.805 62.498L78.5734 63.7357ZM73.5108 59.5486C73.4093 59.5603 73.2794 59.575 73.1211 59.5925C72.9627 59.6101 72.7912 59.6306 72.6066 59.654C72.4281 59.6774 72.2465 59.7008 72.0619 59.7242C71.8773 59.7476 71.7058 59.7681 71.5475 59.7856L71.7717 58.6621C71.9045 58.6679 72.029 58.6708 72.1453 58.6708C72.2695 58.665 72.412 58.6591 72.5729 58.6533C72.7234 58.6416 72.9022 58.6269 73.1095 58.6094C73.3248 58.586 73.5409 58.5597 73.7579 58.5304C73.981 58.5011 74.1897 58.4689 74.384 58.4338C74.5784 58.3987 74.7329 58.3636 74.8477 58.3285L75.078 58.7762C75.0014 58.8464 74.9103 58.9342 74.8047 59.0395C74.7052 59.1449 74.6017 59.2531 74.4943 59.3643C74.3886 59.4696 74.2958 59.5633 74.2156 59.6452L73.1695 61.2955C73.0305 61.4301 72.8562 61.5998 72.6467 61.8046C72.4433 62.0094 72.2272 62.2259 71.9983 62.4542C71.7695 62.6824 71.5463 62.9018 71.3289 63.1125C71.1115 63.3232 70.9175 63.5075 70.7468 63.6655L70.3142 62.7087C70.4734 62.5683 70.6541 62.4073 70.8565 62.2259C71.0667 62.0387 71.2858 61.8426 71.5136 61.6378C71.7432 61.4271 71.9689 61.2194 72.1906 61.0146C72.4141 60.8039 72.6209 60.6079 72.811 60.4264C73.009 60.2392 73.1745 60.0782 73.3074 59.9436L73.3956 59.7154L73.5108 59.5486ZM73.9159 57.8633C73.9553 57.7345 73.9947 57.6058 74.034 57.477C74.0752 57.3424 74.1041 57.2078 74.1208 57.0732L75.4475 57.1171C75.3696 57.2517 75.2699 57.4478 75.1484 57.7053C75.0347 57.9569 74.9064 58.2466 74.7633 58.5743C74.6264 58.902 74.4842 59.2473 74.3365 59.6101C74.1968 59.9671 74.0601 60.324 73.9265 60.681C73.799 61.038 73.6878 61.3715 73.593 61.6817C73.5197 61.9216 73.4454 62.1645 73.3703 62.4103C73.3012 62.6561 73.2304 62.9077 73.1578 63.1652C73.0852 63.4227 73.016 63.6889 72.9503 63.964C72.9332 64.0401 72.9102 64.1454 72.8812 64.28C72.8505 64.4204 72.8261 64.5404 72.8079 64.6399H71.5412C71.5857 64.5345 71.6276 64.4175 71.6669 64.2888C71.7124 64.16 71.7459 64.0605 71.7673 63.9903C71.8611 63.7036 71.9487 63.4373 72.0299 63.1915C72.1112 62.9457 72.1939 62.6853 72.2779 62.4103C72.3682 62.1352 72.4748 61.8163 72.598 61.4535C72.6453 61.3189 72.7063 61.1492 72.7812 60.9443C72.8579 60.7337 72.9399 60.5054 73.0272 60.2597C73.1225 60.008 73.2187 59.7535 73.3158 59.496C73.4129 59.2385 73.5015 58.9986 73.5818 58.7762C73.6699 58.5479 73.7412 58.3548 73.7956 58.1968C73.8579 58.033 73.8981 57.9218 73.9159 57.8633Z" fill="#B81C22"/>
<path d="M64.8138 57.7936H70.6241L70.337 58.7328H64.5266L64.8138 57.7936ZM67.3782 56.7314H68.498L68.0364 58.2413H66.9166L67.3782 56.7314ZM66.0524 61.0678H67.0162L65.9374 64.5965H64.9736L66.0524 61.0678ZM64.5555 60.98H65.5377L65.272 61.849C65.1969 62.0948 65.1029 62.3523 64.99 62.6215C64.8832 62.8907 64.7388 63.1628 64.5568 63.4378C64.3809 63.7129 64.1627 63.9762 63.9022 64.2279C63.6399 64.4853 63.3187 64.7253 62.9386 64.9477C62.9111 64.8774 62.8649 64.7984 62.8 64.7106C62.735 64.6229 62.6631 64.538 62.5841 64.4561C62.5112 64.3742 62.4391 64.3098 62.3677 64.263C62.7978 64.0172 63.1384 63.7538 63.3895 63.473C63.6406 63.1921 63.8345 62.9082 63.9711 62.6215C64.1138 62.3347 64.2237 62.0655 64.3006 61.8139L64.5555 60.98ZM66.3719 58.3115L67.4319 58.6275C67.253 58.8323 67.0701 59.0401 66.8833 59.2507C66.6965 59.4614 66.5155 59.6633 66.3402 59.8564C66.1667 60.0437 66.0055 60.2105 65.8568 60.3568L65.0576 60.0583C65.2038 59.9003 65.3572 59.7189 65.5178 59.5141C65.6783 59.3093 65.8336 59.1015 65.9837 58.8908C66.1399 58.6802 66.2693 58.487 66.3719 58.3115ZM67.9091 59.1981L68.8824 58.7767C69.0307 58.9523 69.1718 59.1512 69.3058 59.3736C69.4476 59.5901 69.5711 59.8067 69.6763 60.0232C69.7875 60.2397 69.8635 60.4416 69.9041 60.6289L68.8321 61.1029C68.8063 60.9273 68.7447 60.7284 68.6475 60.506C68.5502 60.2836 68.4355 60.0583 68.3034 59.8301C68.1773 59.6019 68.0459 59.3912 67.9091 59.1981ZM64.2623 59.7774C64.668 59.7716 65.1357 59.7628 65.6656 59.7511C66.1972 59.7335 66.7586 59.7189 67.3496 59.7072C67.9424 59.6896 68.5331 59.6691 69.1216 59.6457L68.823 60.5323C68.2633 60.5616 67.6975 60.5908 67.1256 60.6201C66.5598 60.6494 66.0163 60.6757 65.4951 60.6991C64.9739 60.7225 64.4995 60.743 64.0719 60.7605L64.2623 59.7774ZM62.6676 57.5478L63.5004 56.7753C63.6686 56.8456 63.8415 56.9304 64.0192 57.0299C64.2029 57.1294 64.3736 57.2318 64.5311 57.3371C64.6947 57.4425 64.8185 57.5478 64.9026 57.6531L64.0062 58.5134C63.9283 58.408 63.8154 58.2969 63.6676 58.1798C63.5198 58.0628 63.3558 57.9487 63.1756 57.8375C63.0016 57.7263 62.8322 57.6297 62.6676 57.5478ZM61.4025 59.9442L62.2342 59.1454C62.4103 59.2098 62.5912 59.2888 62.7767 59.3824C62.9623 59.476 63.1369 59.5755 63.3005 59.6809C63.4641 59.7862 63.5919 59.8886 63.6839 59.9881L62.7822 60.8659C62.7024 60.7664 62.5847 60.6611 62.429 60.5499C62.2751 60.4328 62.1071 60.3216 61.9252 60.2163C61.7493 60.111 61.5751 60.0203 61.4025 59.9442ZM60.3671 64.2015C60.5899 63.9733 60.8426 63.707 61.1254 63.4027C61.4099 63.0926 61.7029 62.7649 62.0042 62.4196C62.3056 62.0743 62.5947 61.7291 62.8717 61.3838L63.5057 62.0421C63.2579 62.3523 62.9982 62.6712 62.7267 62.9989C62.4612 63.3267 62.1915 63.6485 61.9174 63.9645C61.6513 64.2747 61.3887 64.5731 61.1297 64.8599L60.3671 64.2015ZM67.5938 60.98H68.6127L67.7754 63.7187C67.7307 63.865 67.7139 63.9499 67.7251 63.9733C67.7338 63.985 67.7424 63.9967 67.7511 64.0084C67.7676 64.0143 67.7851 64.0172 67.8035 64.0172C67.8279 64.0172 67.8524 64.0172 67.8769 64.0172C67.9075 64.0172 67.932 64.0172 67.9503 64.0172C67.9748 64.0172 68.0002 64.0143 68.0264 64.0084C68.0527 64.0026 68.0707 63.9938 68.0804 63.9821C68.1164 63.9645 68.1641 63.8884 68.2236 63.7538C68.2512 63.6836 68.2874 63.5754 68.3321 63.4291C68.3829 63.2828 68.4418 63.1101 68.5088 62.9112C68.5712 62.9872 68.6611 63.0633 68.7786 63.1394C68.904 63.2096 69.0217 63.2652 69.1315 63.3062C69.0664 63.4993 68.9911 63.6953 68.9058 63.8943C68.8266 64.0933 68.7605 64.2396 68.7074 64.3332C68.5889 64.5205 68.4437 64.6551 68.2718 64.737C68.1999 64.7721 68.1123 64.7984 68.009 64.816C67.9101 64.8394 67.8178 64.8511 67.7321 64.8511C67.6648 64.8511 67.5822 64.8511 67.4843 64.8511C67.3925 64.8511 67.316 64.8511 67.2548 64.8511C67.1508 64.8511 67.046 64.8335 66.9404 64.7984C66.8349 64.7633 66.7571 64.7077 66.7069 64.6316C66.6506 64.5556 66.6238 64.4532 66.6264 64.3244C66.6273 64.2015 66.6733 63.9909 66.7646 63.6924L67.5938 60.98Z" fill="#B81C22"/>
<path d="M57.4715 58.18C57.2743 58.6248 57.0499 59.0988 56.7981 59.6021C56.5463 60.1053 56.2591 60.6145 55.9364 61.1294C55.5783 61.7205 55.2146 62.2296 54.8453 62.6568C54.476 63.084 54.1118 63.4146 53.7526 63.6487C53.4014 63.877 53.0574 63.9911 52.7209 63.9911C52.3843 63.9911 52.1053 63.8828 51.8839 63.6663C51.6704 63.4439 51.537 63.1396 51.4838 62.7534C51.4366 62.3671 51.4882 61.9282 51.6385 61.4367C51.7941 60.9275 52.0479 60.4477 52.3999 59.9971C52.7518 59.5465 53.1703 59.1485 53.6552 58.8033C54.1481 58.4522 54.6789 58.1771 55.2477 57.9781C55.8225 57.7792 56.4067 57.6797 57.0003 57.6797C57.5694 57.6797 58.0535 57.7675 58.4527 57.943C58.858 58.1186 59.1754 58.3614 59.4049 58.6716C59.6344 58.9818 59.7713 59.3446 59.8156 59.7601C59.8599 60.1756 59.8087 60.6232 59.662 61.1031C59.4742 61.7176 59.1744 62.2677 58.7628 62.7534C58.3511 63.2391 57.837 63.64 57.2202 63.956C56.6095 64.272 55.9008 64.4885 55.094 64.6055L54.7249 63.5609C54.9077 63.5434 55.0701 63.5229 55.2118 63.4995C55.3536 63.4761 55.4902 63.4498 55.6215 63.4205C55.9367 63.3503 56.2394 63.2508 56.5297 63.122C56.8279 62.9875 57.1013 62.8236 57.3501 62.6305C57.6006 62.4315 57.8181 62.2004 58.0027 61.937C58.1933 61.6737 58.337 61.384 58.4336 61.068C58.5391 60.7227 58.5807 60.4067 58.5582 60.12C58.5357 59.8332 58.4496 59.5845 58.2998 59.3738C58.1518 59.1573 57.9419 58.9935 57.6699 58.8823C57.3997 58.7652 57.0657 58.7067 56.668 58.7067C56.1784 58.7067 55.721 58.7916 55.2959 58.9613C54.8725 59.1251 54.4921 59.3387 54.1545 59.6021C53.817 59.8654 53.5344 60.1492 53.3067 60.4535C53.0852 60.7578 52.9324 61.0475 52.8483 61.3226C52.7588 61.6152 52.7204 61.8609 52.733 62.0599C52.7474 62.253 52.7914 62.3993 52.865 62.4988C52.9465 62.5924 53.0485 62.6393 53.1709 62.6393C53.2994 62.6393 53.4436 62.5778 53.6036 62.4549C53.7715 62.3262 53.9559 62.1331 54.1571 61.8756C54.3582 61.6181 54.5799 61.2933 54.8221 60.9012C55.0917 60.4799 55.3488 60.0293 55.5934 59.5494C55.838 59.0695 56.0515 58.6014 56.2339 58.1449L57.4715 58.18Z" fill="#B81C22"/>
<path d="M50.044 58.2415C49.9912 58.2942 49.9111 58.3761 49.8037 58.4873C49.7024 58.5985 49.619 58.7009 49.5537 58.7945C49.3411 59.0696 49.0881 59.3768 48.7946 59.7162C48.5072 60.0556 48.1915 60.398 47.8472 60.7432C47.5109 61.0827 47.1656 61.4016 46.8112 61.7C46.3558 62.0687 45.8646 62.4345 45.3375 62.7973C44.8184 63.1543 44.2828 63.4849 43.7309 63.7892C43.1868 64.0877 42.643 64.3452 42.0995 64.5617L41.4439 63.6137C41.995 63.4322 42.5451 63.204 43.0943 62.929C43.6435 62.6539 44.1661 62.3555 44.6623 62.0336C45.1585 61.7117 45.5969 61.3987 45.9775 61.0944C46.2474 60.872 46.5096 60.635 46.764 60.3833C47.0245 60.1317 47.2627 59.883 47.4786 59.6372C47.6963 59.3856 47.871 59.1544 48.0027 58.9438C47.9415 58.9438 47.8314 58.9438 47.6723 58.9438C47.5132 58.9438 47.3265 58.9438 47.1123 58.9438C46.9043 58.9438 46.684 58.9438 46.4514 58.9438C46.2189 58.9438 45.9955 58.9438 45.7814 58.9438C45.5733 58.9438 45.3897 58.9438 45.2306 58.9438C45.0715 58.9438 44.9583 58.9438 44.891 58.9438C44.7625 58.9438 44.6261 58.9496 44.4817 58.9613C44.3392 58.9672 44.2019 58.9759 44.0698 58.9876C43.9456 58.9935 43.849 58.9993 43.7799 59.0052L44.161 57.7587C44.251 57.7646 44.3615 57.7734 44.4926 57.7851C44.6236 57.7968 44.7556 57.8055 44.8884 57.8114C45.0273 57.8172 45.1427 57.8202 45.2345 57.8202C45.3141 57.8202 45.4395 57.8202 45.6109 57.8202C45.7822 57.8202 45.978 57.8202 46.1983 57.8202C46.4186 57.8202 46.645 57.8202 46.8776 57.8202C47.1162 57.8202 47.3426 57.8202 47.5568 57.8202C47.7771 57.8202 47.9668 57.8202 48.1259 57.8202C48.285 57.8202 48.4013 57.8202 48.4747 57.8202C48.6767 57.8202 48.8638 57.8085 49.0362 57.7851C49.2147 57.7616 49.3543 57.7353 49.4551 57.7061L50.044 58.2415ZM47.1533 60.9715C47.3365 61.1529 47.526 61.3636 47.7219 61.6035C47.9178 61.8434 48.108 62.0921 48.2924 62.3496C48.4768 62.6071 48.6425 62.8558 48.7894 63.0957C48.9443 63.3298 49.0714 63.5346 49.1707 63.7102L47.8586 64.5792C47.7234 64.2808 47.5581 63.9706 47.3628 63.6488C47.1736 63.3269 46.9651 63.008 46.7374 62.692C46.5176 62.3701 46.2863 62.0658 46.0436 61.779L47.1533 60.9715Z" fill="#B81C22"/>
<path d="M38.4204 57.0215C38.3759 57.1268 38.3243 57.2556 38.2656 57.4077C38.2086 57.554 38.1596 57.6945 38.1184 57.8291C38.0916 57.9168 38.0594 58.0222 38.0218 58.1451C37.986 58.2621 37.9502 58.3791 37.9145 58.4962C37.8787 58.6132 37.8465 58.7186 37.8178 58.8122H36.6154C36.644 58.7186 36.6753 58.6162 36.7093 58.505C36.7433 58.3938 36.7782 58.2797 36.814 58.1626C36.8498 58.0456 36.8837 57.9344 36.916 57.8291C36.9589 57.6886 36.9966 57.5452 37.0291 57.3989C37.0677 57.2526 37.0939 57.1268 37.1078 57.0215H38.4204ZM40.4135 58.9088C40.2633 59.0199 40.1003 59.1428 39.9245 59.2774C39.7548 59.412 39.6049 59.532 39.4748 59.6373C39.2541 59.8187 38.9975 60.0177 38.7049 60.2342C38.4202 60.4449 38.1131 60.6585 37.7838 60.875C37.4606 61.0916 37.1287 61.2964 36.7882 61.4895C36.3898 61.7119 35.9542 61.9255 35.4816 62.1303C35.0108 62.3292 34.5191 62.5165 34.0064 62.6921C33.4956 62.8618 32.9809 63.0139 32.4625 63.1485L32.0724 62.1127C33.0169 61.9255 33.8342 61.6943 34.5241 61.4193C35.214 61.1442 35.7945 60.8867 36.2656 60.6468C36.5447 60.4946 36.8084 60.3425 37.0569 60.1903C37.3053 60.0382 37.5284 59.889 37.7261 59.7427C37.9256 59.5905 38.0861 59.4559 38.2076 59.3389C38.128 59.3389 37.9995 59.3389 37.822 59.3389C37.6446 59.3389 37.4426 59.3389 37.2162 59.3389C36.9898 59.3389 36.7542 59.3389 36.5094 59.3389C36.2647 59.3389 36.0321 59.3389 35.8118 59.3389C35.5915 59.3389 35.3988 59.3389 35.2335 59.3389C35.0683 59.3389 34.952 59.3389 34.8847 59.3389C34.7807 59.3389 34.6513 59.3418 34.4965 59.3477C34.3435 59.3477 34.1927 59.3506 34.0441 59.3564C33.9033 59.3564 33.7822 59.3623 33.6807 59.374L34.0323 58.2241C34.2026 58.2475 34.3961 58.265 34.6128 58.2767C34.8374 58.2826 35.0293 58.2855 35.1884 58.2855C35.2557 58.2855 35.3842 58.2855 35.5739 58.2855C35.7698 58.2855 35.9962 58.2855 36.2532 58.2855C36.5163 58.2855 36.7917 58.2855 37.0793 58.2855C37.3669 58.2855 37.6454 58.2855 37.9146 58.2855C38.19 58.2855 38.4286 58.2855 38.6306 58.2855C38.8386 58.2855 38.9886 58.2855 39.0803 58.2855C39.2211 58.2855 39.3575 58.2797 39.4896 58.268C39.6296 58.2504 39.7561 58.227 39.869 58.1977L40.4135 58.9088ZM37.1849 60.8224C37.1366 60.9804 37.0758 61.1793 37.0024 61.4193C36.9309 61.6533 36.8518 61.9021 36.7651 62.1654C36.6846 62.4287 36.6059 62.6862 36.529 62.9379C36.4538 63.1836 36.3894 63.3943 36.3357 63.5699C36.3 63.6869 36.2636 63.8157 36.2268 63.9561C36.19 64.0966 36.158 64.2311 36.1309 64.3599C36.1038 64.4886 36.079 64.5998 36.0565 64.6935H34.7347C34.772 64.6115 34.8173 64.5033 34.8707 64.3687C34.9223 64.2399 34.9726 64.1053 35.0217 63.9649C35.0725 63.8186 35.1158 63.6869 35.1516 63.5699C35.2017 63.406 35.259 63.2188 35.3234 63.0081C35.3878 62.7974 35.4522 62.5867 35.5166 62.3761C35.5828 62.1595 35.6445 61.9576 35.7018 61.7704C35.759 61.5831 35.8082 61.4222 35.8494 61.2876L37.1849 60.8224ZM39.219 63.2363C39.0185 63.0315 38.8252 62.853 38.6392 62.7009C38.4549 62.5428 38.2671 62.3965 38.0757 62.262C37.8862 62.1215 37.6782 61.9811 37.4519 61.8406L38.4714 60.9979C38.7081 61.1442 38.9179 61.2788 39.1006 61.4017C39.2851 61.5187 39.47 61.6446 39.6553 61.7792C39.8406 61.9138 40.0505 62.0776 40.2852 62.2707L39.219 63.2363Z" fill="#B81C22"/>
<path d="M30.0557 57.4516C30.1038 57.5745 30.1518 57.7179 30.1996 57.8817C30.2553 58.0397 30.3071 58.2007 30.3549 58.3645C30.4045 58.5225 30.4446 58.6718 30.4751 58.8122L29.5772 59.137C29.5427 58.9497 29.508 58.7829 29.4731 58.6366C29.4401 58.4845 29.3992 58.3382 29.3503 58.1977C29.3094 58.0514 29.2562 57.9051 29.1908 57.7588L30.0557 57.4516ZM31.4421 57.0303C31.506 57.1415 31.5658 57.2761 31.6216 57.4341C31.6773 57.5921 31.7299 57.7501 31.7795 57.9081C31.8291 58.0661 31.871 58.2095 31.9051 58.3382L31.0229 58.6718C30.9804 58.4903 30.9357 58.3265 30.8886 58.1802C30.8476 58.0339 30.8019 57.8934 30.7512 57.7588C30.7006 57.6243 30.6395 57.4838 30.5679 57.3375L31.4421 57.0303ZM26.1138 57.2848C26.2436 57.3609 26.3863 57.4545 26.542 57.5657C26.6977 57.6769 26.8547 57.794 27.0129 57.9169C27.173 58.0339 27.3247 58.148 27.4682 58.2592C27.6134 58.3645 27.7317 58.4582 27.8229 58.5401L26.8484 59.5057C26.745 59.4237 26.6215 59.3272 26.478 59.216C26.3407 59.1048 26.192 58.9907 26.032 58.8737C25.878 58.7566 25.7223 58.6454 25.5648 58.5401C25.4153 58.4289 25.2795 58.3323 25.1577 58.2504L26.1138 57.2848ZM22.5103 63.5172C22.8708 63.4587 23.242 63.3855 23.6238 63.2978C24.0055 63.21 24.3896 63.1047 24.776 62.9818C25.1642 62.853 25.5503 62.7009 25.9344 62.5253C26.5404 62.2444 27.1205 61.9284 27.6746 61.5773C28.2347 61.2262 28.7553 60.8546 29.2362 60.4625C29.7189 60.0645 30.144 59.6549 30.5115 59.2336L30.8533 60.4274C30.245 61.036 29.5425 61.6124 28.7458 62.1566C27.957 62.695 27.1228 63.1719 26.243 63.5874C25.8809 63.7513 25.4899 63.9093 25.0701 64.0615C24.6521 64.2078 24.2464 64.3336 23.8532 64.4389C23.4661 64.5442 23.1307 64.6203 22.8471 64.6671L22.5103 63.5172ZM24.0884 59.2862C24.2181 59.3623 24.3639 59.4559 24.5257 59.5671C24.6875 59.6783 24.8485 59.7924 25.0085 59.9095C25.1703 60.0206 25.3199 60.1318 25.4573 60.243C25.6025 60.3484 25.7208 60.442 25.812 60.5239L24.8413 61.5071C24.7335 61.4193 24.6079 61.3198 24.4644 61.2086C24.3271 61.0974 24.1784 60.9833 24.0184 60.8663C23.8644 60.7492 23.7087 60.638 23.5512 60.5327C23.4017 60.4215 23.262 60.3279 23.1323 60.2518L24.0884 59.2862Z" fill="#B81C22"/>
<path d="M20.6041 57.0825C20.6514 57.1878 20.6986 57.3137 20.7457 57.46C20.7928 57.6063 20.8337 57.7526 20.8685 57.8989C20.9095 58.0452 20.9435 58.1739 20.9707 58.2851L20.136 58.5835C20.0997 58.4021 20.0491 58.1973 19.9842 57.9691C19.9273 57.735 19.8636 57.5331 19.7931 57.3634L20.6041 57.0825ZM21.808 56.6875C21.8597 56.7987 21.909 56.9274 21.9561 57.0737C22.0032 57.22 22.0472 57.3663 22.0881 57.5126C22.1369 57.6531 22.1697 57.776 22.1865 57.8813L21.3701 58.1798C21.3294 57.9925 21.2767 57.7848 21.2118 57.5565C21.147 57.3283 21.0754 57.1323 20.997 56.9684L21.808 56.6875ZM16.5325 57.46C16.4669 57.5946 16.4011 57.7496 16.3352 57.9252C16.2693 58.1008 16.2175 58.25 16.18 58.3729C16.1531 58.4607 16.1057 58.6157 16.0377 58.8381C15.9715 59.0546 15.8928 59.3121 15.8016 59.6106C15.7103 59.909 15.6146 60.2221 15.5144 60.5498C15.416 60.8717 15.3203 61.1848 15.2272 61.4891C15.136 61.7875 15.0546 62.0538 14.983 62.2879C14.9115 62.5219 14.8587 62.6946 14.8247 62.8058C14.7674 62.993 14.777 63.1218 14.8535 63.192C14.9299 63.2622 15.0628 63.3178 15.2523 63.3588C15.3876 63.3763 15.5453 63.391 15.7253 63.4027C15.9071 63.4085 16.099 63.4114 16.3009 63.4114C16.5396 63.4114 16.8045 63.4056 17.0957 63.3939C17.3948 63.3763 17.6948 63.3559 17.9957 63.3324C18.3027 63.309 18.594 63.2769 18.8697 63.2359C19.1453 63.1949 19.3852 63.151 19.5892 63.1042L19.1974 64.3858C18.8972 64.4268 18.5539 64.459 18.1673 64.4824C17.779 64.5116 17.3841 64.5321 16.9828 64.5438C16.5858 64.5614 16.2159 64.5701 15.8732 64.5701C15.5734 64.5701 15.2915 64.5614 15.0276 64.5438C14.7699 64.5263 14.5476 64.5028 14.3607 64.4736C13.9862 64.3975 13.721 64.2541 13.5651 64.0435C13.411 63.8269 13.3912 63.5314 13.5057 63.1569C13.5576 62.9872 13.6247 62.7677 13.707 62.4985C13.7911 62.2235 13.8832 61.9221 13.9834 61.5944C14.0854 61.2608 14.1874 60.9273 14.2893 60.5937C14.3931 60.2543 14.4906 59.9354 14.5819 59.6369C14.6749 59.3326 14.7554 59.0693 14.8234 58.8469C14.8914 58.6245 14.9397 58.4665 14.9683 58.3729C14.988 58.3085 15.0118 58.2207 15.0396 58.1095C15.0675 57.9983 15.0932 57.8842 15.1168 57.7672C15.1464 57.6502 15.1655 57.5477 15.174 57.46H16.5325ZM15.1028 60.1548C15.4144 60.0963 15.748 60.0261 16.1035 59.9441C16.4607 59.8564 16.8229 59.7627 17.1899 59.6632C17.5568 59.5638 17.9055 59.4643 18.2357 59.3648C18.5739 59.2595 18.8775 59.157 19.1466 59.0576C19.3297 58.999 19.5124 58.9317 19.6948 58.8557C19.8833 58.7796 20.0824 58.6889 20.292 58.5835L20.4469 59.6984C20.2497 59.7627 20.0407 59.8359 19.8199 59.9178C19.6069 59.9939 19.4159 60.0583 19.2468 60.1109C18.9471 60.2104 18.6059 60.3157 18.2231 60.4269C17.8464 60.5381 17.4544 60.6493 17.0471 60.7605C16.6417 60.8658 16.241 60.9653 15.8452 61.0589C15.4556 61.1526 15.094 61.2345 14.7604 61.3047L15.1028 60.1548Z" fill="#B81C22"/>
</svg>
