<svg width="170" height="50" viewBox="0 0 170 50" fill="none" xmlns="http://www.w3.org/2000/svg">
<path d="M36.5977 33.2753C37.594 32.0168 38.7732 30.56 40.1385 28.9076C41.5021 27.2543 42.9845 25.6941 44.5856 24.2246C46.1851 22.7566 47.8649 21.5093 49.6232 20.4865C51.3799 19.463 53.1254 18.9512 54.8565 18.9512C56.5346 18.9512 57.887 19.4766 58.9106 20.5258C59.9325 21.5758 60.4443 22.7823 60.4443 24.146C60.4443 25.93 59.8668 27.7541 58.7133 29.6159C57.5581 31.4793 56.2731 33.3283 54.8565 35.1644C53.4399 37.0022 52.1532 38.7854 50.9997 40.5164C49.8462 42.2483 49.2686 43.8221 49.2686 45.2387C49.2686 45.8171 49.3986 46.3016 49.6617 46.6947C49.9248 47.0885 50.3435 47.285 50.9211 47.285C53.0725 47.285 56.5875 44.8449 61.4679 39.9653C63.462 37.972 65.4161 35.8607 67.3317 33.6299C69.2456 31.3999 70.9125 29.3672 72.3291 27.5303L72.9596 27.8447C72.3291 28.6324 71.6072 29.5252 70.7938 30.5207C69.9804 31.5186 69.1028 32.5807 68.1579 33.7085C67.2129 34.8371 66.2022 36.0043 65.1273 37.2107C64.0524 38.4188 62.9631 39.5723 61.8609 40.6736C60.3914 42.1432 59.0534 43.389 57.8469 44.4125C56.6405 45.4353 55.5255 46.2623 54.5019 46.8912C53.48 47.5209 52.5077 47.9797 51.5901 48.2693C50.6724 48.5565 49.7403 48.7017 48.797 48.7017C46.9584 48.7017 45.5306 48.1899 44.507 47.1671C43.4835 46.1436 42.9717 44.8449 42.9717 43.271C42.9717 41.5929 43.5492 39.7824 44.7043 37.8404C45.8578 35.9 47.1429 34.0109 48.5611 32.174C49.9777 30.3378 51.2628 28.6196 52.4163 27.0185C53.5698 25.419 54.149 24.1203 54.149 23.1224C54.149 22.3884 53.9388 21.8237 53.5185 21.4306C53.0981 21.0368 52.6008 20.8403 52.0232 20.8403C50.9211 20.8403 49.6489 21.352 48.2066 22.3748C46.7627 23.3983 45.2546 24.7235 43.6808 26.3495C42.107 27.9763 40.5443 29.7867 38.9978 31.7801C37.4496 33.7751 35.9801 35.7684 34.5907 37.7618C33.1998 39.7568 31.9661 41.6186 30.8912 43.3496C29.8147 45.0815 28.9628 46.4981 28.3339 47.6003L19.9898 47.9147C21.7738 45.0815 23.5193 42.3935 25.2247 39.8474C26.9285 37.303 28.451 34.9679 29.789 32.843C31.127 30.718 32.2019 28.8426 33.0169 27.215C33.8287 25.5898 34.2362 24.3032 34.2362 23.359C34.2362 22.7293 34.0517 22.1526 33.6859 21.6272C33.3169 21.1034 32.7409 20.8403 31.9532 20.8403C30.851 20.8403 29.5788 21.352 28.1365 22.3748C26.6927 23.3983 25.1846 24.7235 23.6108 26.3495C22.0369 27.9763 20.4486 29.7867 18.8491 31.7801C17.248 33.7751 15.74 35.7684 14.3234 37.7618C12.9067 39.7568 11.6474 41.6186 10.5452 43.3497C9.44462 45.0815 8.5783 46.4981 7.9494 47.6003L0 47.9147C2.88617 43.2983 5.74506 38.6939 8.57829 34.1024C11.4115 29.5116 14.1918 24.8286 16.9207 20.0533L26.1295 19.5809L15.6614 33.905L15.8186 34.0631C16.9207 32.8037 18.1673 31.3076 19.5582 29.5766C20.9476 27.8447 22.4556 26.1923 24.0824 24.6184C25.7092 23.0438 27.4531 21.7058 29.3173 20.6044C31.1783 19.5023 33.1597 18.9512 35.2597 18.9512C36.7277 18.9512 37.9742 19.345 38.9978 20.132C40.0213 20.9189 40.5331 22.0996 40.5331 23.6735C40.5331 24.4091 40.4016 25.196 40.1384 26.035C39.8753 26.8749 39.5481 27.7011 39.155 28.5137C38.7619 29.3279 38.3159 30.1413 37.817 30.9539C37.318 31.7681 36.8592 32.4884 36.4405 33.1181L36.5977 33.2753Z" fill="#B81C22"/>
<path d="M105.634 38.3741C105.596 38.3386 105.567 38.2894 105.531 38.2503C105.348 38.426 105.174 38.6111 104.99 38.7854C102.314 41.3034 99.6511 43.2197 97.0023 44.5304C94.352 45.8428 91.9247 46.4981 89.7219 46.4981C87.4646 46.4981 85.7079 45.7898 84.4485 44.3732C83.1891 42.9566 82.5602 41.1205 82.5602 38.864C82.5602 38.0249 82.6902 37.0808 82.9533 36.03C83.8982 35.8214 85.1031 35.5583 86.5726 35.243C88.0422 34.9286 89.616 34.5347 91.2957 34.0631C92.9739 33.5906 94.6664 33.0395 96.3718 32.4098C98.0772 31.7801 99.6109 31.0461 100.976 30.2063C102.34 29.3672 103.455 28.4231 104.321 27.373C105.188 26.3238 105.621 25.1687 105.621 23.9101C105.621 22.3355 104.99 21.1154 103.731 20.2499C102.471 19.3843 100.713 18.9512 98.4574 18.9512C95.9916 18.9512 93.3814 19.5552 90.6268 20.7616C87.8721 21.9689 85.3405 23.5435 83.0319 25.484C80.7217 27.426 78.8077 29.6295 77.2868 32.0954C75.7643 34.562 75.0039 37.0535 75.0039 39.5723C75.0039 42.4055 75.8702 44.7149 77.6013 46.4981C79.3324 48.2813 81.6939 49.1741 84.6844 49.1741C87.6219 49.1741 90.7567 48.5565 94.0905 47.3243C97.4211 46.0922 100.898 43.8494 104.519 40.595C105.15 40.0148 105.759 39.4411 106.349 38.8736C106.091 38.7341 105.847 38.5693 105.634 38.3741ZM85.1175 30.6387C86.1411 28.8819 87.3219 27.203 88.6599 25.6019C89.9979 24.0024 91.4257 22.6507 92.9482 21.5486C94.4691 20.4464 95.8857 19.8961 97.1981 19.8961C97.8286 19.8961 98.3403 20.0533 98.7334 20.3678C99.1264 20.683 99.3238 21.2077 99.3238 21.9424C99.3238 23.2018 98.8778 24.527 97.9858 25.9171C97.0922 27.3073 95.9002 28.6196 94.4049 29.8517C92.9097 31.0854 91.1899 32.1876 89.2487 33.1574C87.3074 34.1288 85.2619 34.8243 83.1105 35.243C83.425 33.9323 84.094 32.3978 85.1175 30.6387Z" fill="#B81C22"/>
<path d="M121.518 47.6789C124.194 47.1021 126.675 46.1179 128.956 44.7269C131.239 43.3376 133.376 41.7108 135.372 39.8474C137.364 37.9856 139.24 35.965 140.998 33.7871C142.756 31.6108 144.475 29.4193 146.154 27.215L146.783 27.6875C144.685 30.4164 142.585 33.0788 140.486 35.6762C138.388 38.2736 136.092 40.5693 133.601 42.5627C131.107 44.5577 128.378 46.1572 125.415 47.3636C122.45 48.5701 119.053 49.1741 115.223 49.1741C113.858 49.1741 112.507 49.0289 111.169 48.741C109.831 48.4522 108.624 47.9797 107.55 47.3243C106.475 46.669 105.608 45.8034 104.952 44.7269C104.296 43.6521 103.969 42.3269 103.969 40.7522C103.969 39.914 104.086 39.0741 104.322 38.2343C104.558 37.3952 104.912 36.634 105.385 35.9513C105.857 35.2703 106.447 34.7056 107.155 34.2596C107.864 33.8144 108.69 33.5906 109.635 33.5906C110.842 33.5906 111.772 33.9323 112.428 34.6133C113.084 35.296 113.412 36.0829 113.412 36.9749C113.412 38.0762 113.097 38.9169 112.468 39.4937C111.838 40.0712 111.103 40.3592 110.264 40.3592C109.582 40.3592 109.005 40.2284 108.533 39.9653C108.272 40.4378 108.049 40.9496 107.864 41.5007C107.681 42.0509 107.588 42.6157 107.588 43.1924C107.588 44.662 108.153 45.8684 109.281 46.8126C110.408 47.7575 111.732 48.2292 113.255 48.2292C114.199 48.2292 115.156 48.072 116.128 47.7575C117.099 47.4423 117.963 46.9834 118.725 46.3802C119.486 45.7778 120.102 45.0558 120.575 44.216C121.047 43.3769 121.283 42.4584 121.283 41.4606C121.283 40.0969 120.955 38.8511 120.299 37.7225C119.643 36.5947 118.923 35.5061 118.135 34.4561C117.347 33.4069 116.625 32.3448 115.971 31.2683C115.314 30.1942 114.987 29.0528 114.987 27.8447C114.987 26.3768 115.327 25.0901 116.009 23.9887C116.691 22.8866 117.585 21.9561 118.685 21.1948C119.787 20.4344 121.019 19.8696 122.385 19.5023C123.748 19.1357 125.139 18.9512 126.556 18.9512C129.075 18.9512 131.186 19.4902 132.891 20.5651C134.597 21.6408 135.45 23.1753 135.45 25.1687C135.45 26.6912 134.951 27.937 133.955 28.9076C132.957 29.879 131.698 30.3635 130.177 30.3635C129.705 30.3635 129.272 30.3242 128.877 30.2456C128.484 30.167 128.155 30.0755 127.894 29.9704C128.471 28.9212 128.877 27.884 129.115 26.8613C129.351 25.8377 129.468 24.8286 129.468 23.8307C129.468 22.7823 129.166 21.8638 128.563 21.0761C127.96 20.2892 127.055 19.8961 125.848 19.8961C124.379 19.8961 123.251 20.3558 122.463 21.2734C121.677 22.1919 121.283 23.3334 121.283 24.697C121.283 26.1666 121.61 27.4653 122.268 28.5923C122.922 29.7218 123.644 30.8103 124.432 31.8587C125.218 32.9095 125.938 34.0109 126.596 35.1644C127.251 36.3195 127.58 37.6832 127.58 39.257C127.58 40.2549 127.408 41.2247 127.068 42.1697C126.726 43.1138 126.267 43.9537 125.691 44.6876C125.112 45.4232 124.47 46.0393 123.763 46.5374C123.054 47.0364 122.306 47.3636 121.518 47.5209L121.518 47.6789Z" fill="#B81C22"/>
<path d="M143.241 21.6277L143.791 20.211H149.852L155.754 10.2939L164.254 9.97949L157.723 20.211H167.718L167.009 21.6277H156.857C154.495 25.5117 152.501 28.7773 150.874 31.4268C149.247 34.0764 147.949 36.2807 146.979 38.0374C146.008 39.7966 145.299 41.1995 144.855 42.2488C144.407 43.2988 144.186 44.2165 144.186 45.0034C144.186 45.686 144.369 46.2363 144.736 46.6558C145.102 47.0762 145.628 47.2855 146.31 47.2855C147.62 47.2855 149.353 46.6165 151.505 45.2785C153.656 43.9405 155.963 42.0907 158.43 39.73C160.108 38.0511 161.945 36.0834 163.94 33.8269C165.934 31.572 167.796 29.2891 169.527 26.9797L170.001 27.3735C168.793 28.9474 167.272 30.8637 165.435 33.1186C163.598 35.3751 161.578 37.6051 159.375 39.8086C158.167 41.0167 156.922 42.1573 155.636 43.2322C154.351 44.3087 153.051 45.2529 151.74 46.0654C150.428 46.8796 149.143 47.5214 147.884 47.9938C146.624 48.4663 145.392 48.7021 144.186 48.7021C142.504 48.7021 141.036 48.3211 139.777 47.5607C138.518 46.801 137.889 45.4751 137.889 43.5868C137.889 42.2223 138.177 40.8193 138.755 39.3754C139.333 37.9331 140.132 36.3457 141.155 34.6138C142.179 32.8828 143.371 30.968 144.736 28.8688C146.1 26.7703 147.569 24.3566 149.143 21.6277L143.241 21.6277Z" fill="#B81C22"/>
<path d="M100.32 0C100.845 2.09941 101.475 3.90904 102.21 5.43006C102.944 6.95221 103.652 8.23843 104.335 9.28642C105.016 10.3367 105.595 11.1636 106.067 11.7661C106.539 12.3697 106.774 12.8026 106.774 13.0649C106.774 13.4852 106.539 13.6948 106.067 13.6948C105.803 13.6948 105.319 13.3535 104.611 12.6709C103.902 11.9894 103.14 11.1888 102.328 10.2703C101.514 9.35284 100.753 8.47437 100.046 7.63369C99.3378 6.7953 98.8774 6.2169 98.6678 5.90308C97.9851 6.42765 97.0551 7.12287 95.8743 7.98874C94.6934 8.85348 93.5126 9.69416 92.3329 10.5062C91.152 11.3205 90.0502 12.0158 89.0274 12.593C88.0035 13.1703 87.2556 13.4577 86.7837 13.4577C86.573 13.4577 86.4688 13.2745 86.4688 12.9068C86.4688 12.6457 86.8227 12.2517 87.5316 11.7271C88.2394 11.2026 89.1843 10.4421 90.3652 9.44447C91.5449 8.44803 92.8838 7.17556 94.3785 5.62705C95.8743 4.0797 97.3815 2.20363 98.9048 0L100.32 0Z" fill="#B81C22"/>
</svg>
