<svg width="150" height="150" viewBox="0 0 150 150" fill="none" xmlns="http://www.w3.org/2000/svg">
<path d="M110.732 104.788C119.482 104.788 126.576 97.6951 126.576 88.945C126.576 80.1949 119.482 73.1016 110.732 73.1016C101.982 73.1016 94.8887 80.1949 94.8887 88.945C94.8887 97.6951 101.982 104.788 110.732 104.788Z" fill="#FDD000" stroke="#B81C22" stroke-width="2" stroke-linecap="round" stroke-linejoin="round"/>
<path d="M119.501 104.788H101.914C91.5993 104.788 83.2367 114.814 83.2367 127.18L83.002 139.288H137.943L138.177 127.18C138.177 114.814 129.815 104.788 119.501 104.788Z" fill="#FDD000" stroke="#B81C22" stroke-width="2" stroke-linecap="round" stroke-linejoin="round"/>
<path d="M97.4849 131.613L91.0234 127.183V122.754H97.4849H103.946V127.183L97.4849 131.613Z" fill="#FDD000" stroke="#B81C22" stroke-width="2" stroke-linecap="round" stroke-linejoin="round"/>
<path d="M123.696 131.613L117.234 127.183V122.754H123.696H130.157V127.183L123.696 131.613Z" fill="#FDD000" stroke="#B81C22" stroke-width="2" stroke-linecap="round" stroke-linejoin="round"/>
<path d="M38.6306 104.788C47.3807 104.788 54.474 97.6951 54.474 88.945C54.474 80.1949 47.3807 73.1016 38.6306 73.1016C29.8805 73.1016 22.7871 80.1949 22.7871 88.945C22.7871 97.6951 29.8805 104.788 38.6306 104.788Z" fill="white" stroke="#B81C22" stroke-width="2" stroke-linecap="round" stroke-linejoin="round"/>
<path d="M47.399 104.788H29.812C19.4978 104.788 11.1351 114.814 11.1351 127.18L10.9004 139.288H65.8412L66.0759 127.18C66.0759 114.814 57.7132 104.788 47.399 104.788Z" fill="#B1B3B6" stroke="#B81C22" stroke-width="2" stroke-linecap="round" stroke-linejoin="round"/>
<path d="M38.6238 127.184L31.7734 104.788H45.4374L38.6238 127.184Z" fill="white" stroke="#B81C22" stroke-width="2" stroke-linecap="round" stroke-linejoin="round"/>
<path d="M24.6354 112.49L21.3125 120.464L27.8813 122.828L25.1518 128.364L31.9385 132.424" stroke="#B81C22" stroke-width="2" stroke-linecap="round" stroke-linejoin="round"/>
<path d="M52.5804 112.49L55.9034 120.464L49.3313 122.828L52.064 128.364L45.2773 132.424" stroke="#B81C22" stroke-width="2" stroke-linecap="round" stroke-linejoin="round"/>
<path d="M128.655 83.1267C126.724 74.7037 119.431 68.2456 110.733 68.1182C102.035 68.2489 94.7419 74.7037 92.8105 83.1267H128.655Z" fill="white"/>
<path d="M128.655 83.1267C126.724 74.7037 119.431 68.2456 110.733 68.1182C102.035 68.2489 94.7419 74.7037 92.8105 83.1267H128.655Z" fill="white"/>
<path d="M128.655 83.1267C126.724 74.7037 119.431 68.2456 110.733 68.1182C102.035 68.2489 94.7419 74.7037 92.8105 83.1267H128.655Z" stroke="#B81C22" stroke-width="2" stroke-linecap="round" stroke-linejoin="round"/>
<path d="M115.093 65.7578H106.371V83.1303H115.093V65.7578Z" fill="white" stroke="#B81C22" stroke-width="2" stroke-linecap="round" stroke-linejoin="round"/>
<path d="M89.9102 83.127H131.019" stroke="#B81C22" stroke-width="2" stroke-linecap="round" stroke-linejoin="round"/>
<path d="M76.4332 29.8029C76.4332 19.3646 63.4131 10.9014 47.3516 10.9014C31.2902 10.9014 18.2734 19.3646 18.2734 29.8029C18.2734 38.5914 27.5046 45.9816 40.0083 48.0975L36.8262 63.4447L51.6503 48.4998C65.673 47.1485 76.4332 39.2955 76.4332 29.8029Z" fill="white" stroke="#B81C22" stroke-width="2" stroke-linecap="round" stroke-linejoin="round"/>
<path d="M118.552 42.3605C118.552 31.9222 105.532 23.459 89.4702 23.459C73.4088 23.459 60.3887 31.9222 60.3887 42.3605C60.3887 51.2127 69.7539 58.6432 82.3952 60.6953L88.5951 70.5132L89.9698 61.2519C105.797 61.0776 118.548 52.6881 118.548 42.3571L118.552 42.3605Z" fill="white" stroke="#B81C22" stroke-width="2" stroke-linecap="round" stroke-linejoin="round"/>
<path d="M110.465 115.984L119.501 104.788H101.914L110.465 115.984Z" fill="white" stroke="#B81C22" stroke-width="2" stroke-linecap="round" stroke-linejoin="round"/>
<path d="M110.465 139.291V122.754" stroke="#B81C22" stroke-width="2" stroke-linecap="round" stroke-linejoin="round"/>
</svg>
