<svg width="220" height="220" viewBox="0 0 220 220" fill="none" xmlns="http://www.w3.org/2000/svg">
<g clip-path="url(#clip0_225_36152)">
<path d="M110.497 180.683C72.2558 180.683 41.1484 149.632 41.1484 111.459C41.1484 73.2861 72.2558 42.2275 110.497 42.2275C148.739 42.2275 179.846 73.279 179.846 111.452C179.846 149.625 148.739 180.676 110.497 180.676V180.683Z" stroke="#020202" stroke-width="1.5" stroke-linecap="round" stroke-linejoin="round"/>
<path d="M110.567 65.5374C97.549 65.5374 86.9609 54.9683 86.9609 41.9738C86.9609 28.9792 97.549 18.4102 110.567 18.4102C123.585 18.4102 134.173 28.9792 134.173 41.9738C134.173 54.9683 123.585 65.5374 110.567 65.5374Z" fill="white" stroke="#020202" stroke-width="1.5" stroke-linecap="round" stroke-linejoin="round"/>
<path d="M119.771 57.3733V50.0758C119.771 44.9993 115.646 40.8887 110.567 40.8887C105.488 40.8887 101.363 45.0063 101.363 50.0758V57.3733H119.778H119.771Z" fill="#FDD000" stroke="#020202" stroke-width="1.5" stroke-linecap="round" stroke-linejoin="round"/>
<path d="M110.566 42.2774C114.717 42.2774 118.082 38.9187 118.082 34.7754C118.082 30.6322 114.717 27.2734 110.566 27.2734C106.416 27.2734 103.051 30.6322 103.051 34.7754C103.051 38.9187 106.416 42.2774 110.566 42.2774Z" fill="#FDD000" stroke="#020202" stroke-width="1.5" stroke-linecap="round" stroke-linejoin="round"/>
<path d="M71.5281 87.9587C65.0227 99.2117 50.5567 103.083 39.2835 96.5818C28.0102 90.088 24.1324 75.6481 30.6449 64.3951C37.1503 53.1421 51.6163 49.2712 62.8895 55.772C74.1628 62.2658 78.0406 76.7057 71.5281 87.9587Z" fill="white" stroke="#020202" stroke-width="1.5" stroke-linecap="round" stroke-linejoin="round"/>
<path d="M60.8917 90.8987V83.6012C60.8917 78.5246 56.7667 74.4141 51.688 74.4141C46.6094 74.4141 42.4844 78.5317 42.4844 83.6012V90.8987H60.8988H60.8917Z" fill="#FDD000" stroke="#020202" stroke-width="1.5" stroke-linecap="round" stroke-linejoin="round"/>
<path d="M51.6874 75.8028C55.8381 75.8028 59.2029 72.4441 59.2029 68.3008C59.2029 64.1576 55.8381 60.7988 51.6874 60.7988C47.5367 60.7988 44.1719 64.1576 44.1719 68.3008C44.1719 72.4441 47.5367 75.8028 51.6874 75.8028Z" fill="#FDD000" stroke="#020202" stroke-width="1.5" stroke-linecap="round" stroke-linejoin="round"/>
<path d="M71.4586 132.921C77.964 144.174 74.0932 158.614 62.82 165.108C51.5467 171.602 37.0808 167.738 30.5753 156.485C24.0699 145.232 27.9407 130.792 39.2139 124.298C50.4872 117.804 64.9531 121.668 71.4586 132.921Z" fill="white" stroke="#020202" stroke-width="1.5" stroke-linecap="round" stroke-linejoin="round"/>
<path d="M60.587 158.093V150.796C60.587 145.719 56.462 141.608 51.3834 141.608C46.3047 141.608 42.1797 145.726 42.1797 150.796V158.093H60.5941H60.587Z" fill="#FDD000" stroke="#020202" stroke-width="1.5" stroke-linecap="round" stroke-linejoin="round"/>
<path d="M51.3749 142.997C55.5256 142.997 58.8904 139.638 58.8904 135.495C58.8904 131.352 55.5256 127.993 51.3749 127.993C47.2242 127.993 43.8594 131.352 43.8594 135.495C43.8594 139.638 47.2242 142.997 51.3749 142.997Z" fill="#FDD000" stroke="#020202" stroke-width="1.5" stroke-linecap="round" stroke-linejoin="round"/>
<path d="M110.426 155.456C123.444 155.456 134.032 166.025 134.032 179.02C134.032 192.014 123.444 202.583 110.426 202.583C97.4084 202.583 86.8203 192.014 86.8203 179.02C86.8203 166.025 97.4084 155.456 110.426 155.456Z" fill="white" stroke="#020202" stroke-width="1.5" stroke-linecap="round" stroke-linejoin="round"/>
<path d="M119.982 194.532V187.234C119.982 182.157 115.857 178.047 110.778 178.047C105.699 178.047 101.574 182.165 101.574 187.234V194.532H119.989H119.982Z" fill="#FDD000" stroke="#020202" stroke-width="1.5" stroke-linecap="round" stroke-linejoin="round"/>
<path d="M110.777 179.436C114.928 179.436 118.293 176.077 118.293 171.934C118.293 167.79 114.928 164.432 110.777 164.432C106.627 164.432 103.262 167.79 103.262 171.934C103.262 176.077 106.627 179.436 110.777 179.436Z" fill="#FDD000" stroke="#020202" stroke-width="1.5" stroke-linecap="round" stroke-linejoin="round"/>
<path d="M149.469 133.042C155.975 121.789 170.44 117.918 181.714 124.419C192.987 130.912 196.865 145.352 190.352 156.605C183.847 167.858 169.381 171.729 158.108 165.228C146.834 158.734 142.957 144.295 149.469 133.042Z" fill="white" stroke="#020202" stroke-width="1.5" stroke-linecap="round" stroke-linejoin="round"/>
<path d="M179.567 158.212V150.915C179.567 145.838 175.442 141.728 170.364 141.728C165.285 141.728 161.16 145.845 161.16 150.915V158.212H179.575H179.567Z" fill="#FDD000" stroke="#020202" stroke-width="1.5" stroke-linecap="round" stroke-linejoin="round"/>
<path d="M170.42 143.106C174.57 143.074 177.909 139.69 177.877 135.547C177.845 131.404 174.455 128.071 170.304 128.103C166.154 128.134 162.815 131.519 162.847 135.662C162.879 139.805 166.269 143.138 170.42 143.106Z" fill="#FDD000" stroke="#020202" stroke-width="1.5" stroke-linecap="round" stroke-linejoin="round"/>
<path d="M149.536 88.0786C143.031 76.8256 146.902 62.3857 158.175 55.8919C169.448 49.3982 183.914 53.262 190.42 64.515C196.925 75.768 193.054 90.2079 181.781 96.7017C170.508 103.195 156.042 99.3316 149.536 88.0786Z" fill="white" stroke="#020202" stroke-width="1.5" stroke-linecap="round" stroke-linejoin="round"/>
<path d="M179.392 91.0188V83.7213C179.392 78.6448 175.267 74.5342 170.188 74.5342C165.109 74.5342 160.984 78.6518 160.984 83.7213V91.0188H179.399H179.392Z" fill="#FDD000" stroke="#020202" stroke-width="1.5" stroke-linecap="round" stroke-linejoin="round"/>
<path d="M170.18 75.9229C174.33 75.9229 177.695 72.5642 177.695 68.4209C177.695 64.2777 174.33 60.9189 170.18 60.9189C166.029 60.9189 162.664 64.2777 162.664 68.4209C162.664 72.5642 166.029 75.9229 170.18 75.9229Z" fill="#FDD000" stroke="#020202" stroke-width="1.5" stroke-linecap="round" stroke-linejoin="round"/>
<path d="M114.655 77.6719H88.6406V141.446H114.655V77.6719Z" fill="#FDD000" stroke="#020202" stroke-width="1.5" stroke-linecap="round" stroke-linejoin="round"/>
<path d="M110.016 130.426V82.3115H93.2894V130.426H110.016Z" fill="white" stroke="#020202" stroke-width="1.5" stroke-linecap="round" stroke-linejoin="round"/>
<path d="M93.2891 91.9287H110.015" stroke="#020202" stroke-width="1.5" stroke-miterlimit="10"/>
<path d="M93.2891 101.553H110.015" stroke="#020202" stroke-width="1.5" stroke-miterlimit="10"/>
<path d="M93.2891 111.177H110.015" stroke="#020202" stroke-width="1.5" stroke-miterlimit="10"/>
<path d="M93.2891 120.801H110.015" stroke="#020202" stroke-width="1.5" stroke-miterlimit="10"/>
<path d="M106.151 133.238H97.1523V141.22H106.151V133.238Z" fill="white" stroke="#020202" stroke-width="1.5" stroke-linecap="round" stroke-linejoin="round"/>
<path d="M106.809 133.238H96.4961V135.424H106.809V133.238Z" fill="#020202"/>
<path d="M133.597 103.788H118.234V141.446H133.597V103.788Z" fill="#FDD000" stroke="#020202" stroke-width="1.5" stroke-linecap="round" stroke-linejoin="round"/>
<path d="M122.676 110.889H129.16" stroke="#020202" stroke-width="1.5" stroke-linecap="round" stroke-linejoin="round"/>
<path d="M122.676 116.571H129.16" stroke="#020202" stroke-width="1.5" stroke-linecap="round" stroke-linejoin="round"/>
<path d="M122.676 122.254H129.16" stroke="#020202" stroke-width="1.5" stroke-linecap="round" stroke-linejoin="round"/>
<path d="M122.676 127.937H129.16" stroke="#020202" stroke-width="1.5" stroke-linecap="round" stroke-linejoin="round"/>
<path d="M129.672 134.79H122.383V141.256H129.672V134.79Z" fill="white" stroke="#020202" stroke-width="1.5" stroke-linecap="round" stroke-linejoin="round"/>
<path d="M130.201 134.79H121.852V136.56H130.201V134.79Z" fill="#020202"/>
<path d="M90.2924 133.02C90.2924 135.488 88.2864 137.49 85.8142 137.49C83.342 137.49 81.3359 135.488 81.3359 133.02C81.3359 130.552 83.342 128.55 85.8142 128.55C88.2864 128.55 90.2924 130.552 90.2924 133.02Z" fill="white" stroke="#020202" stroke-width="1.5" stroke-linecap="round" stroke-linejoin="round"/>
<path d="M85.8125 133.02V141.692" stroke="#020202" stroke-width="1.5" stroke-linecap="round" stroke-linejoin="round"/>
<path d="M142.492 133.02C142.492 135.488 140.486 137.49 138.013 137.49C135.541 137.49 133.535 135.488 133.535 133.02C133.535 130.552 135.541 128.55 138.013 128.55C140.486 128.55 142.492 130.552 142.492 133.02Z" fill="white" stroke="#020202" stroke-width="1.5" stroke-linecap="round" stroke-linejoin="round"/>
<path d="M138.012 133.02V141.692" stroke="#020202" stroke-width="1.5" stroke-linecap="round" stroke-linejoin="round"/>
</g>
<defs>
<clipPath id="clip0_225_36152">
<rect width="169" height="187" fill="white" transform="translate(26 17)"/>
</clipPath>
</defs>
</svg>
