<svg width="150" height="150" viewBox="0 0 150 150" fill="none" xmlns="http://www.w3.org/2000/svg">
<path d="M84.3764 109.309C86.2584 109.309 87.8666 107.963 88.1936 106.108C88.6004 103.788 89.4749 100.553 91.3454 97.6101C94.7558 92.2493 103.04 84.938 102.261 72.4637C101.284 56.8032 88.6536 47.1689 75.1679 47.1689C61.6822 47.1689 49.052 56.8032 48.0749 72.4637C47.2955 84.938 55.58 92.2493 58.9904 97.6101C60.861 100.553 61.7355 103.785 62.1423 106.108C62.4692 107.959 64.0775 109.309 65.9595 109.309H84.3802H84.3764Z" fill="#FFE62E" stroke="#B81C22" stroke-width="3" stroke-linecap="round" stroke-linejoin="round"/>
<path d="M75.1639 126.988C70.362 126.988 66.4688 123.095 66.4688 118.293V118.141H83.8553V118.293C83.8553 123.095 79.9621 126.988 75.1601 126.988H75.1639Z" stroke="#B81C22" stroke-width="3" stroke-linecap="round" stroke-linejoin="round"/>
<path d="M75.1641 31.6802V23.1143" stroke="#B81C22" stroke-width="3" stroke-linecap="round" stroke-linejoin="round"/>
<path d="M53.9217 37.3718L49.6406 29.9541" stroke="#B81C22" stroke-width="3" stroke-linecap="round" stroke-linejoin="round"/>
<path d="M38.3708 52.9217L30.9531 48.6406" stroke="#B81C22" stroke-width="3" stroke-linecap="round" stroke-linejoin="round"/>
<path d="M32.6811 74.1641H24.1152" stroke="#B81C22" stroke-width="3" stroke-linecap="round" stroke-linejoin="round"/>
<path d="M96.4062 37.3718L100.691 29.9541" stroke="#B81C22" stroke-width="3" stroke-linecap="round" stroke-linejoin="round"/>
<path d="M111.955 52.9217L119.377 48.6406" stroke="#B81C22" stroke-width="3" stroke-linecap="round" stroke-linejoin="round"/>
<path d="M117.648 74.1641H126.218" stroke="#B81C22" stroke-width="3" stroke-linecap="round" stroke-linejoin="round"/>
<path d="M76.9238 59.75C83.7332 60.1074 89.5389 66.4187 89.5389 73.0874" stroke="#B81C22" stroke-width="3" stroke-linecap="round" stroke-linejoin="round"/>
</svg>
