<svg width="220" height="220" viewBox="0 0 220 220" fill="none" xmlns="http://www.w3.org/2000/svg">
<path d="M117.635 105.47L89.3742 111.805L66.7461 100.826L95.0073 94.4863L117.635 105.47Z" fill="#FDD000"/>
<path d="M152.993 74.7054L124.732 81.0447L102.104 70.0657L131.753 64.2002L152.993 74.7054Z" fill="#FDD000"/>
<path d="M188.35 43.9467L160.089 50.286L137.461 39.307L167.111 33.4414L188.35 43.9467Z" fill="#FDD000"/>
<path d="M82.5397 136.067L54.2838 141.928L31.6504 130.949L59.9116 125.083L82.5397 136.067Z" fill="#FDD000"/>
<path d="M117.638 173.409L89.377 179.748V111.803L117.638 105.469V173.409Z" fill="white" stroke="#020202" stroke-width="1.5" stroke-linecap="round" stroke-linejoin="round"/>
<path d="M89.3761 179.749L82.54 176.599V136.067L66.748 128.395V100.825L89.3761 111.804V179.749Z" fill="white" stroke="#020202" stroke-width="1.5" stroke-linecap="round" stroke-linejoin="round"/>
<path d="M117.637 105.469L89.3761 111.804L66.748 100.825L95.0093 94.4854L117.637 105.469Z" stroke="#020202" stroke-width="1.5" stroke-linecap="round" stroke-linejoin="round"/>
<path d="M152.996 165.439L124.734 171.778V81.0453L152.996 74.7061V165.439Z" fill="white" stroke="#020202" stroke-width="1.5" stroke-linecap="round" stroke-linejoin="round"/>
<path d="M124.734 171.778L117.638 168.789V105.47L102.105 97.9437V70.0664L124.734 81.0454V171.778Z" fill="white" stroke="#020202" stroke-width="1.5" stroke-linecap="round" stroke-linejoin="round"/>
<path d="M152.995 74.7054L124.734 81.0447L102.105 70.0657L131.755 64.2002L152.995 74.7054Z" stroke="#020202" stroke-width="1.5" stroke-linecap="round" stroke-linejoin="round"/>
<path d="M188.351 157.785L160.09 164.124V50.2856L188.351 43.9463V157.785Z" fill="white" stroke="#020202" stroke-width="1.5" stroke-linecap="round" stroke-linejoin="round"/>
<path d="M160.089 164.124L152.993 161.135V74.7051L137.461 67.1839V39.3066L160.089 50.2856V164.124Z" fill="white" stroke="#020202" stroke-width="1.5" stroke-linecap="round" stroke-linejoin="round"/>
<path d="M188.35 43.9467L160.089 50.286L137.461 39.307L167.111 33.4414L188.35 43.9467Z" stroke="#020202" stroke-width="1.5" stroke-linecap="round" stroke-linejoin="round"/>
<path d="M82.5391 181.218L54.2832 187.557V141.927L82.5391 136.066V181.218Z" fill="white" stroke="#020202" stroke-width="1.5" stroke-linecap="round" stroke-linejoin="round"/>
<path d="M54.2838 187.557L31.6504 176.574V130.948L54.2838 141.927V187.557Z" fill="white" stroke="#020202" stroke-width="1.5" stroke-linecap="round" stroke-linejoin="round"/>
<path d="M82.5397 136.067L54.2838 141.928L31.6504 130.949L59.9116 125.083L82.5397 136.067Z" stroke="#020202" stroke-width="1.5" stroke-linecap="round" stroke-linejoin="round"/>
</svg>
