<svg width="150" height="150" viewBox="0 0 150 150" fill="none" xmlns="http://www.w3.org/2000/svg">
<g clip-path="url(#clip0_376_186)">
<path d="M115.122 99.5891C114.922 99.5891 114.718 99.539 114.532 99.4305L34.5812 53.274C34.2138 53.0624 33.9883 52.6727 33.9883 52.2496C33.9883 51.8265 34.2138 51.4367 34.5812 51.2252L74.5551 28.1428C75.1202 27.8171 75.844 28.0091 76.1724 28.577C76.4981 29.1421 76.3061 29.8659 75.7382 30.1943L37.5403 52.2468L115.715 97.3817C116.28 97.7074 116.475 98.4311 116.149 98.999C115.929 99.3776 115.531 99.5919 115.122 99.5919V99.5891Z" fill="#B81C22"/>
<path d="M115.121 99.5889C114.466 99.5889 113.938 99.06 113.938 98.4058V52.2465C113.938 51.5924 114.466 51.0635 115.121 51.0635C115.775 51.0635 116.304 51.5924 116.304 52.2465V98.4058C116.304 99.06 115.775 99.5889 115.121 99.5889Z" fill="#B81C22"/>
<path d="M75.1471 122.668C74.9467 122.668 74.7435 122.618 74.557 122.51L34.5803 99.4301C34.0152 99.1044 33.8204 98.3806 34.1461 97.8127C34.4718 97.2476 35.1983 97.0528 35.7634 97.3785L75.7373 120.458C76.3024 120.784 76.4972 121.508 76.1715 122.075C75.9516 122.454 75.5536 122.668 75.1444 122.668H75.1471Z" fill="#B81C22"/>
<path d="M75.148 122.668C74.9448 122.668 74.7388 122.615 74.5551 122.509C74.1877 122.298 73.9622 121.908 73.9622 121.485V77.3773L35.7643 99.4326C35.3968 99.6441 34.9459 99.6441 34.5812 99.4326C34.2138 99.221 33.9883 98.8313 33.9883 98.4082V52.2461C33.9883 51.5919 34.5172 51.063 35.1714 51.063C35.8255 51.063 36.3544 51.5919 36.3544 52.2461V96.3538L73.9622 74.641V29.1665C73.9622 28.7433 74.1877 28.3536 74.5551 28.1421C74.9226 27.9305 75.3735 27.9305 75.7382 28.1421L115.712 51.2217C116.08 51.4333 116.305 51.823 116.305 52.2461C116.305 52.6692 116.08 53.0589 115.712 53.2705L76.3283 76.0078V119.433L114.526 97.3782C115.091 97.0525 115.815 97.2446 116.144 97.8125C116.469 98.3776 116.277 99.1013 115.709 99.4298L75.7354 122.509C75.5517 122.615 75.3485 122.668 75.1425 122.668H75.148ZM76.3311 31.2181V73.2769L112.756 52.2489L76.3311 31.2181Z" fill="#B81C22"/>
<path d="M75.1477 37.1509C79.557 37.1509 83.1314 33.5765 83.1314 29.1672C83.1314 24.758 79.557 21.1836 75.1477 21.1836C70.7385 21.1836 67.1641 24.758 67.1641 29.1672C67.1641 33.5765 70.7385 37.1509 75.1477 37.1509Z" fill="#FFF200"/>
<path d="M75.1472 38.3362C70.092 38.3362 65.9805 34.2247 65.9805 29.1695C65.9805 24.1143 70.092 20 75.1472 20C80.2024 20 84.3139 24.1115 84.3139 29.1667C84.3139 34.2219 80.2024 38.3334 75.1472 38.3334V38.3362ZM75.1472 22.3661C71.3975 22.3661 68.3466 25.4171 68.3466 29.1667C68.3466 32.9164 71.3975 35.9673 75.1472 35.9673C78.8968 35.9673 81.9478 32.9164 81.9478 29.1667C81.9478 25.4171 78.8968 22.3661 75.1472 22.3661Z" fill="#B81C22"/>
<path d="M118.415 105.676C122.433 103.858 124.216 99.1284 122.399 95.1111C120.582 91.0937 115.852 89.3102 111.835 91.1275C107.817 92.9448 106.034 97.6747 107.851 101.692C109.668 105.709 114.398 107.493 118.415 105.676Z" fill="#FFF200"/>
<path d="M115.108 107.572C113.555 107.572 111.979 107.177 110.54 106.344C108.419 105.12 106.902 103.143 106.27 100.777C105.635 98.4109 105.961 95.9418 107.186 93.8206C109.713 89.4418 115.331 87.9386 119.71 90.4662C121.831 91.6911 123.348 93.6675 123.983 96.0336C124.617 98.3998 124.292 100.869 123.067 102.99C121.372 105.927 118.282 107.572 115.111 107.572H115.108ZM115.133 91.6076C112.781 91.6076 110.49 92.8268 109.232 95.0065C108.324 96.5792 108.082 98.4109 108.553 100.167C109.023 101.921 110.148 103.388 111.72 104.296C114.969 106.172 119.136 105.053 121.01 101.807C121.917 100.234 122.159 98.4026 121.689 96.6461C121.218 94.8923 120.094 93.4253 118.521 92.5178C117.452 91.8999 116.286 91.6076 115.133 91.6076Z" fill="#B81C22"/>
<path d="M43.1033 99.3186C43.6101 94.9385 40.4702 90.977 36.0902 90.4702C31.7102 89.9634 27.7486 93.1033 27.2418 97.4833C26.7351 101.863 29.8749 105.825 34.255 106.332C38.635 106.838 42.5965 103.699 43.1033 99.3186Z" fill="#FFF200"/>
<path d="M35.1861 107.578C34.39 107.578 33.5883 107.472 32.7977 107.261C30.4315 106.626 28.4551 105.109 27.2303 102.99C24.7027 98.6117 26.2087 92.9942 30.5846 90.4666C34.9634 87.939 40.5809 89.445 43.1085 93.821C44.3333 95.9421 44.659 98.4113 44.0243 100.777C43.3897 103.144 41.8725 105.12 39.7514 106.345C38.34 107.16 36.77 107.578 35.1833 107.578H35.1861ZM31.7705 92.5154C30.1977 93.4229 29.0731 94.8899 28.6026 96.6436C28.1322 98.3974 28.3744 100.232 29.2819 101.805C30.1894 103.377 31.6564 104.502 33.4101 104.972C35.1638 105.443 36.9983 105.201 38.5711 104.293C40.1439 103.386 41.2685 101.919 41.7389 100.165C42.2094 98.4113 41.9672 96.5768 41.0597 95.004C39.1835 91.7555 35.0163 90.6392 31.7705 92.5154Z" fill="#B81C22"/>
<path d="M116.38 60.128C120.735 59.4344 123.702 55.3423 123.009 50.9879C122.315 46.6335 118.223 43.6659 113.869 44.3594C109.514 45.053 106.547 49.1451 107.24 53.4995C107.934 57.8538 112.026 60.8215 116.38 60.128Z" fill="#FFF200"/>
<path d="M115.139 61.4188C114.343 61.4188 113.541 61.313 112.751 61.1015C110.385 60.4668 108.408 58.9497 107.183 56.8313C104.656 52.4525 106.162 46.835 110.538 44.3074C114.917 41.7798 120.534 43.2858 123.062 47.6618C124.286 49.783 124.612 52.2521 123.977 54.6183C123.343 56.9844 121.826 58.9608 119.704 60.1856C118.293 61.0013 116.723 61.4188 115.136 61.4188H115.139ZM111.724 46.359C108.475 48.2352 107.359 52.4024 109.235 55.6482C110.142 57.221 111.609 58.3456 113.363 58.8161C115.117 59.2865 116.951 59.0443 118.524 58.1368C120.097 57.2294 121.222 55.7624 121.692 54.0086C122.162 52.2549 121.92 50.4204 121.013 48.8476C119.137 45.5991 114.969 44.4828 111.724 46.359Z" fill="#B81C22"/>
<path d="M78.2012 128.86C82.2748 127.172 84.2092 122.502 82.5219 118.429C80.8346 114.355 76.1644 112.421 72.0908 114.108C68.0172 115.795 66.0827 120.465 67.7701 124.539C69.4574 128.613 74.1276 130.547 78.2012 128.86Z" fill="#FFF200"/>
<path d="M75.1472 130.652C70.092 130.652 65.9805 126.54 65.9805 121.485C65.9805 116.43 70.092 112.318 75.1472 112.318C80.2024 112.318 84.3139 116.43 84.3139 121.485C84.3139 126.54 80.2024 130.652 75.1472 130.652ZM75.1472 114.685C71.3975 114.685 68.3466 117.735 68.3466 121.485C68.3466 125.235 71.3975 128.286 75.1472 128.286C78.8968 128.286 81.9478 125.235 81.9478 121.485C81.9478 117.735 78.8968 114.685 75.1472 114.685Z" fill="#B81C22"/>
<path d="M43.1549 52.4413C43.2611 48.0333 39.7738 44.3739 35.3659 44.2677C30.9579 44.1615 27.2985 47.6488 27.1923 52.0568C27.0861 56.4647 30.5734 60.1242 34.9813 60.2304C39.3893 60.3365 43.0487 56.8493 43.1549 52.4413Z" fill="#FFF200"/>
<path d="M35.157 61.4129C33.6037 61.4129 32.0281 61.0176 30.589 60.1853C28.4678 58.9605 26.9507 56.984 26.3188 54.6179C25.6841 52.2517 26.0098 49.7826 27.2346 47.6614C29.7622 43.2827 35.3797 41.7795 39.7585 44.3071C41.8796 45.5319 43.3968 47.5083 44.0314 49.8745C44.6661 52.2406 44.3404 54.7097 43.1156 56.8309C41.4203 59.7677 38.3304 61.4129 35.1598 61.4129H35.157ZM35.1849 45.4484C32.8326 45.4484 30.5416 46.6676 29.2834 48.8473C28.3759 50.4201 28.1338 52.2517 28.6042 54.0083C29.0746 55.762 30.1993 57.229 31.772 58.1365C35.0206 60.0099 39.1878 58.8936 41.0612 55.6478C41.9687 54.0751 42.2109 52.2434 41.7405 50.4869C41.27 48.7331 40.1454 47.2661 38.5726 46.3587C37.5037 45.7407 36.3373 45.4484 35.1849 45.4484Z" fill="#B81C22"/>
<path d="M82.8904 68.9656L82.6816 87.6136L94.3286 83.3295L94.3815 64.8652L82.8904 68.9656Z" fill="white"/>
<path d="M82.6804 88.7352C82.2238 88.7352 81.7951 88.4541 81.6281 88.0003C81.4138 87.4185 81.7116 86.7755 82.2934 86.5611L93.2083 82.5471L93.2556 66.4573L83.2677 70.0204C82.6859 70.2292 82.0429 69.9258 81.8341 69.3412C81.6253 68.7594 81.9288 68.1164 82.5133 67.9076L94.0044 63.8072C94.3496 63.6847 94.731 63.7376 95.0288 63.9464C95.3267 64.1579 95.5049 64.5003 95.5021 64.865L95.4492 83.3293C95.4492 83.7969 95.1541 84.2173 94.7143 84.3787L83.0673 88.6628C82.9392 88.7102 82.8084 88.7324 82.6804 88.7324V88.7352Z" fill="#B81C22"/>
<path d="M82.8913 68.9657L82.702 87.6332L54.7676 85.5983L54.9569 66.9336L82.8913 68.9657Z" fill="white"/>
<path d="M82.7009 88.7546C82.673 88.7546 82.648 88.7546 82.6202 88.7518L54.683 86.7169C54.0928 86.6751 53.6363 86.1796 53.6446 85.5867L53.8339 66.9192C53.8367 66.6102 53.9676 66.3152 54.1958 66.1064C54.4241 65.8976 54.7275 65.789 55.0365 65.8141L82.9737 67.849C83.5638 67.8907 84.0204 68.3862 84.012 68.9792L83.8227 87.6466C83.8199 87.9556 83.6891 88.2507 83.4608 88.4595C83.2521 88.6516 82.982 88.7546 82.7009 88.7546ZM55.8967 84.5567L81.593 86.4274L81.76 70.0063L56.0637 68.1357L55.8967 84.5567Z" fill="#B81C22"/>
<path d="M94.3806 64.8651L82.8895 68.9655L54.9551 66.9334L66.4434 62.833L94.3806 64.8651Z" fill="white"/>
<path d="M82.8905 70.0875C82.8626 70.0875 82.8376 70.0875 82.8097 70.0847L54.8725 68.0498C54.3436 68.0108 53.915 67.6072 53.8426 67.0839C53.7702 66.5577 54.0764 66.0539 54.5775 65.8785L66.0686 61.7781C66.2161 61.7252 66.372 61.7058 66.5279 61.7169L94.4651 63.7518C94.994 63.7907 95.4227 64.1944 95.495 64.7177C95.5674 65.2438 95.2612 65.7477 94.7601 65.9258L83.269 70.0262C83.1466 70.0708 83.0213 70.0902 82.8932 70.0902L82.8905 70.0875ZM60.3397 66.2014L82.7346 67.8327L88.9923 65.6001L66.5975 63.9689L60.3397 66.2014Z" fill="#B81C22"/>
<path d="M66.625 68.3311V75.037L71.1485 75.346L71.1652 68.6039L66.625 68.3311Z" fill="#FFF200"/>
<path d="M71.1473 76.4677C71.1222 76.4677 71.0972 76.4677 71.0693 76.4677L66.5458 76.156C65.9585 76.1142 65.502 75.6271 65.502 75.0369V67.8689C65.502 67.2509 66.003 66.7471 66.6238 66.7471C67.2445 66.7471 67.7456 67.2481 67.7456 67.8689V73.9903L70.0255 74.1461V68.2865C70.0255 67.6685 70.5265 67.1646 71.1473 67.1646C71.7681 67.1646 72.2691 67.6657 72.2691 68.2865V75.3459C72.2691 75.6577 72.1411 75.9528 71.9128 76.1643C71.704 76.3592 71.4312 76.465 71.1473 76.465V76.4677Z" fill="#B81C22"/>
</g>
<defs>
<clipPath id="clip0_376_186">
<rect width="98.2924" height="110.652" fill="white" transform="translate(26 20)"/>
</clipPath>
</defs>
</svg>
