<svg width="150" height="150" viewBox="0 0 150 150" fill="none" xmlns="http://www.w3.org/2000/svg">
<g clip-path="url(#clip0_225_35435)">
<path d="M122.178 103.036C121.944 103.036 121.706 102.978 121.488 102.851L28.029 48.8956C27.5995 48.6483 27.3359 48.1927 27.3359 47.6981C27.3359 47.2035 27.5995 46.7479 28.029 46.5006L74.757 19.5182C75.4176 19.1374 76.2637 19.362 76.6476 20.0258C77.0284 20.6864 76.8038 21.5324 76.14 21.9164L31.4881 47.6949L122.871 100.456C123.532 100.837 123.76 101.683 123.379 102.346C123.122 102.789 122.656 103.04 122.178 103.04V103.036Z" fill="white"/>
<path d="M122.178 103.036C121.413 103.036 120.795 102.418 120.795 101.653V47.6945C120.795 46.9298 121.413 46.3115 122.178 46.3115C122.943 46.3115 123.561 46.9298 123.561 47.6945V101.653C123.561 102.418 122.943 103.036 122.178 103.036Z" fill="white"/>
<path d="M75.4491 130.016C75.2148 130.016 74.9773 129.957 74.7592 129.83L28.028 102.851C27.3674 102.47 27.1397 101.624 27.5204 100.961C27.9011 100.3 28.7504 100.072 29.411 100.453L76.139 127.432C76.7995 127.813 77.0273 128.659 76.6466 129.323C76.3895 129.765 75.9242 130.016 75.4458 130.016H75.4491Z" fill="white"/>
<path d="M75.4501 130.016C75.2126 130.016 74.9718 129.954 74.757 129.83C74.3275 129.583 74.0639 129.128 74.0639 128.633V77.0727L29.412 102.854C28.9825 103.102 28.4553 103.102 28.029 102.854C27.5995 102.607 27.3359 102.152 27.3359 101.657V47.6952C27.3359 46.9305 27.9542 46.3122 28.7189 46.3122C29.4836 46.3122 30.1019 46.9305 30.1019 47.6952V99.2554L74.0639 73.8739V20.716C74.0639 20.2214 74.3275 19.7658 74.757 19.5185C75.1866 19.2712 75.7137 19.2712 76.14 19.5185L122.868 46.4977C123.298 46.745 123.561 47.2006 123.561 47.6952C123.561 48.1898 123.298 48.6454 122.868 48.8927L76.8299 75.4717V126.235L121.482 100.453C122.142 100.072 122.988 100.297 123.372 100.961C123.753 101.621 123.529 102.467 122.865 102.851L76.1368 129.83C75.922 129.954 75.6844 130.016 75.4436 130.016H75.4501ZM76.8331 23.1142V72.2795L119.412 47.6985L76.8331 23.1142Z" fill="white"/>
<path d="M75.4498 30.048C80.604 30.048 84.7824 25.8696 84.7824 20.7154C84.7824 15.5612 80.604 11.3828 75.4498 11.3828C70.2955 11.3828 66.1172 15.5612 66.1172 20.7154C66.1172 25.8696 70.2955 30.048 75.4498 30.048Z" fill="#FDD000"/>
<path d="M75.4499 31.4344C69.5406 31.4344 64.7344 26.6281 64.7344 20.7188C64.7344 14.8095 69.5406 10 75.4499 10C81.3593 10 86.1655 14.8062 86.1655 20.7155C86.1655 26.6249 81.3593 31.4311 75.4499 31.4311V31.4344ZM75.4499 12.7659C71.0667 12.7659 67.5003 16.3324 67.5003 20.7155C67.5003 25.0987 71.0667 28.6652 75.4499 28.6652C79.8331 28.6652 83.3995 25.0987 83.3995 20.7155C83.3995 16.3324 79.8331 12.7659 75.4499 12.7659Z" fill="#B81C22"/>
<path d="M126.028 110.152C130.724 108.028 132.809 102.499 130.685 97.8024C128.56 93.1063 123.031 91.0214 118.335 93.1458C113.639 95.2701 111.554 100.799 113.678 105.495C115.803 110.191 121.332 112.276 126.028 110.152Z" fill="#FDD000"/>
<path d="M122.163 112.369C120.347 112.369 118.505 111.907 116.823 110.934C114.343 109.502 112.57 107.192 111.831 104.426C111.089 101.66 111.47 98.7735 112.902 96.2939C115.857 91.1753 122.423 89.4181 127.542 92.3728C130.021 93.8046 131.795 96.1149 132.537 98.8809C133.279 101.647 132.898 104.533 131.466 107.013C129.484 110.446 125.872 112.369 122.166 112.369H122.163ZM122.192 93.7069C119.442 93.7069 116.764 95.1322 115.294 97.6801C114.233 99.5187 113.95 101.66 114.5 103.713C115.05 105.763 116.364 107.478 118.203 108.539C122 110.732 126.871 109.424 129.061 105.63C130.122 103.791 130.405 101.65 129.855 99.5967C129.305 97.5467 127.991 95.8318 126.152 94.771C124.903 94.0486 123.539 93.7069 122.192 93.7069Z" fill="#B81C22"/>
<path d="M37.993 102.72C38.5854 97.6002 34.915 92.9693 29.795 92.3769C24.6749 91.7845 20.044 95.4549 19.4516 100.575C18.8592 105.695 22.5296 110.326 27.6496 110.918C32.7697 111.511 37.4006 107.84 37.993 102.72Z" fill="#FDD000"/>
<path d="M28.7375 112.376C27.8069 112.376 26.8697 112.252 25.9456 112.005C23.1796 111.263 20.8693 109.489 19.4375 107.013C16.4828 101.894 18.2433 95.3277 23.3586 92.373C28.4772 89.4184 35.0439 91.1788 37.9985 96.2942C39.4303 98.7737 39.811 101.66 39.0691 104.426C38.3272 107.192 36.5537 109.502 34.0742 110.934C32.4244 111.888 30.5891 112.376 28.7343 112.376H28.7375ZM24.7448 94.768C22.9063 95.8288 21.5917 97.5437 21.0417 99.5938C20.4918 101.644 20.7749 103.788 21.8357 105.627C22.8965 107.465 24.6114 108.78 26.6615 109.33C28.7115 109.88 30.8559 109.597 32.6945 108.536C34.533 107.475 35.8476 105.76 36.3975 103.71C36.9475 101.66 36.6644 99.5157 35.6036 97.6771C33.4103 93.8797 28.539 92.5748 24.7448 94.768Z" fill="#B81C22"/>
<path d="M123.647 56.9072C128.737 56.0965 132.206 51.3129 131.395 46.2228C130.584 41.1327 125.801 37.6637 120.711 38.4744C115.62 39.2851 112.151 44.0687 112.962 49.1588C113.773 54.2489 118.556 57.718 123.647 56.9072Z" fill="#FDD000"/>
<path d="M122.197 58.4166C121.266 58.4166 120.329 58.293 119.405 58.0457C116.639 57.3038 114.328 55.5303 112.896 53.054C109.942 47.9354 111.702 41.3687 116.818 38.4141C121.936 35.4594 128.503 37.2198 131.458 42.3352C132.889 44.8148 133.27 47.7011 132.528 50.467C131.786 53.233 130.013 55.5433 127.533 56.9751C125.883 57.9285 124.048 58.4166 122.193 58.4166H122.197ZM118.204 40.8123C114.406 43.0055 113.101 47.8768 115.295 51.671C116.356 53.5095 118.07 54.8242 120.12 55.3741C122.17 55.924 124.315 55.6409 126.153 54.5801C127.992 53.5193 129.307 51.8044 129.857 49.7544C130.406 47.7043 130.123 45.5599 129.063 43.7214C126.869 39.9239 121.998 38.6191 118.204 40.8123Z" fill="#B81C22"/>
<path d="M79.0189 137.253C83.7808 135.281 86.0421 129.821 84.0697 125.059C82.0972 120.298 76.638 118.036 71.8761 120.009C67.1142 121.981 64.8529 127.44 66.8253 132.202C68.7978 136.964 74.257 139.225 79.0189 137.253Z" fill="#FDD000"/>
<path d="M75.448 139.348C69.5386 139.348 64.7324 134.542 64.7324 128.633C64.7324 122.723 69.5386 117.917 75.448 117.917C81.3573 117.917 86.1635 122.723 86.1635 128.633C86.1635 134.542 81.3573 139.348 75.448 139.348ZM75.448 120.683C71.0648 120.683 67.4984 124.249 67.4984 128.633C67.4984 133.016 71.0648 136.582 75.448 136.582C79.8312 136.582 83.3976 133.016 83.3976 128.633C83.3976 124.249 79.8312 120.683 75.448 120.683Z" fill="#B81C22"/>
<path d="M38.0505 47.9234C38.1747 42.7706 34.0982 38.4928 28.9454 38.3687C23.7927 38.2446 19.5149 42.3211 19.3908 47.4738C19.2666 52.6266 23.3431 56.9043 28.4959 57.0285C33.6486 57.1526 37.9264 53.0761 38.0505 47.9234Z" fill="#FDD000"/>
<path d="M28.7019 58.4108C26.8862 58.4108 25.0444 57.9488 23.3621 56.9758C20.8825 55.544 19.109 53.2337 18.3704 50.4677C17.6284 47.7018 18.0092 44.8155 19.4409 42.3359C22.3956 37.2173 28.9623 35.4601 34.0809 38.4148C36.5604 39.8465 38.3339 42.1569 39.0758 44.9228C39.8177 47.6888 39.437 50.5751 38.0052 53.0547C36.0235 56.4877 32.4115 58.4108 28.7052 58.4108H28.7019ZM28.7345 39.7489C25.9848 39.7489 23.3067 41.1742 21.8359 43.7221C20.7751 45.5606 20.492 47.7018 21.0419 49.7551C21.5919 51.8051 22.9065 53.52 24.745 54.5808C28.5425 56.7708 33.4138 55.4659 35.6037 51.6717C36.6646 49.8332 36.9477 47.692 36.3977 45.6387C35.8478 43.5887 34.5332 41.8738 32.6946 40.813C31.4451 40.0906 30.0816 39.7489 28.7345 39.7489Z" fill="#B81C22"/>
<path d="M84.5019 67.2385L84.2578 89.0373L97.8727 84.0293L97.9345 62.4453L84.5019 67.2385Z" fill="white"/>
<path d="M84.2586 90.3487C83.7249 90.3487 83.2238 90.0201 83.0285 89.4897C82.778 88.8096 83.1262 88.0579 83.8063 87.8073L96.5653 83.115L96.6207 64.3067L84.9452 68.4718C84.2651 68.7159 83.5134 68.3612 83.2693 67.6778C83.0253 66.9977 83.38 66.2461 84.0633 66.002L97.496 61.2088C97.8995 61.0656 98.3453 61.1275 98.6935 61.3715C99.0417 61.6188 99.2499 62.0191 99.2467 62.4453L99.1848 84.0294C99.1848 84.5761 98.8399 85.0674 98.3258 85.2562L84.7109 90.2641C84.5612 90.3194 84.4083 90.3455 84.2586 90.3455V90.3487Z" fill="#B81C22"/>
<path d="M84.5045 67.2387L84.2832 89.0603L51.6289 86.6816L51.8502 64.8633L84.5045 67.2387Z" fill="white"/>
<path d="M84.2822 90.3715C84.2497 90.3715 84.2204 90.3715 84.1878 90.3682L51.5303 87.9895C50.8404 87.9407 50.3068 87.3615 50.3165 86.6684L50.5378 64.8468C50.5411 64.4856 50.694 64.1407 50.9608 63.8966C51.2277 63.6526 51.5824 63.5256 51.9436 63.5549L84.6011 65.9336C85.2909 65.9824 85.8246 66.5617 85.8148 67.2548L85.5936 89.0764C85.5903 89.4376 85.4374 89.7825 85.1705 90.0265C84.9265 90.2511 84.6109 90.3715 84.2822 90.3715ZM52.9491 85.4644L82.9871 87.6511L83.1823 68.4555L53.1443 66.2688L52.9491 85.4644Z" fill="#B81C22"/>
<path d="M97.9366 62.4458L84.5039 67.239L51.8496 64.8635L65.279 60.0703L97.9366 62.4458Z" fill="white"/>
<path d="M84.5034 68.5501C84.4708 68.5501 84.4415 68.5501 84.409 68.5469L51.7515 66.1682C51.1332 66.1226 50.6321 65.6508 50.5475 65.039C50.4629 64.424 50.8208 63.835 51.4065 63.63L64.8392 58.8368C65.0117 58.775 65.1939 58.7522 65.3761 58.7652L98.0337 61.144C98.6519 61.1895 99.1531 61.6613 99.2377 62.2731C99.3223 62.8881 98.9643 63.4771 98.3786 63.6854L84.9459 68.4786C84.8027 68.5306 84.6563 68.5534 84.5066 68.5534L84.5034 68.5501ZM58.1424 64.0075L84.3211 65.9144L91.6362 63.3046L65.4575 61.3978L58.1424 64.0075Z" fill="#B81C22"/>
<path d="M65.4902 66.4971V74.3361L70.778 74.6973L70.7976 66.816L65.4902 66.4971Z" fill="#FDD000"/>
<path d="M70.7789 76.0086C70.7496 76.0086 70.7203 76.0086 70.6878 76.0086L65.4 75.6442C64.7133 75.5953 64.1797 75.0259 64.1797 74.336V65.9569C64.1797 65.2345 64.7654 64.6455 65.4911 64.6455C66.2167 64.6455 66.8024 65.2312 66.8024 65.9569V73.1125L69.4675 73.2947V66.445C69.4675 65.7226 70.0532 65.1336 70.7789 65.1336C71.5045 65.1336 72.0903 65.7193 72.0903 66.445V74.6972C72.0903 75.0617 71.9406 75.4066 71.6737 75.6539C71.4297 75.8817 71.1108 76.0054 70.7789 76.0054V76.0086Z" fill="#B81C22"/>
</g>
<defs>
<clipPath id="clip0_225_35435">
<rect width="114.9" height="129.348" fill="white" transform="translate(18 10)"/>
</clipPath>
</defs>
</svg>
