<svg width="150" height="150" viewBox="0 0 150 150" fill="none" xmlns="http://www.w3.org/2000/svg">
<g clip-path="url(#clip0_225_35538)">
<path d="M49.5468 59.3339C34.4247 83.0876 60.1689 111.86 61.3627 117.591C62.5565 123.321 61.3316 145.048 61.3316 145.048H93.4236C93.4236 145.048 92.0014 127.221 93.434 123.72C94.8665 120.219 110.557 122.926 115.947 120.536C118.999 119.184 119.183 116.976 119.741 113.732C120.894 107.033 118.955 101.744 120.538 100.161C120.538 100.161 127.223 98.2513 127.859 96.3412C128.495 94.4312 123.242 87.9043 121.016 84.0842C118.789 80.2641 123.543 70.1896 119.106 61.3244C111.146 45.4289 95.8371 41.3104 83.2635 41.627C70.6898 41.9462 56.7381 48.0423 49.5494 59.3339H49.5468Z" fill="white" stroke="#B81C22" stroke-width="2" stroke-linecap="round" stroke-linejoin="round"/>
<path d="M83.0499 91.1091C96.8954 91.1091 108.119 82.8422 108.119 72.6444C108.119 62.4466 96.8954 54.1797 83.0499 54.1797C69.2045 54.1797 57.9805 62.4466 57.9805 72.6444C57.9805 82.8422 69.2045 91.1091 83.0499 91.1091Z" fill="#FDD000" stroke="#B81C22" stroke-width="2" stroke-linecap="round" stroke-linejoin="round"/>
<path d="M94.6478 56.2715L90.6642 62.4636C90.6642 62.4636 87.4643 60.7482 83.9219 62.4636" stroke="#B81C22" stroke-width="2" stroke-linecap="round" stroke-linejoin="round"/>
<path d="M86.3529 69.5508C86.3529 69.5508 93.5208 71.2091 92.6073 76.4073C91.5147 82.6227 74.7784 80.2948 72.2637 76.2957" stroke="#B81C22" stroke-width="2" stroke-linecap="round" stroke-linejoin="round"/>
<path d="M104.265 80.9282L100.665 79.0363C100.665 79.0363 100.837 73.8927 100.266 71.666" stroke="#B81C22" stroke-width="2" stroke-linecap="round" stroke-linejoin="round"/>
<path d="M96.8926 70.8666C96.8926 70.8666 102.093 70.0673 105.35 66.4678" stroke="#B81C22" stroke-width="2" stroke-linecap="round" stroke-linejoin="round"/>
<path d="M65.2207 59.666C65.2207 59.666 67.9223 66.4654 73.7511 68.6661" stroke="#B81C22" stroke-width="2" stroke-linecap="round" stroke-linejoin="round"/>
<path d="M76.0376 61.4385L77.8698 64.5112C79.1493 66.6574 79.2583 69.3071 78.1579 71.5519C77.3793 73.1376 76.0584 74.3936 74.4338 75.0891L67.3516 78.1255" stroke="#B81C22" stroke-width="2" stroke-linecap="round" stroke-linejoin="round"/>
<path d="M73.1309 89.1552L77.2676 83.9648" stroke="#B81C22" stroke-width="2" stroke-linecap="round" stroke-linejoin="round"/>
<path d="M73.3477 21.8412L78.2448 20.7175L77.8685 16.5159L72.8494 16.2798C72.5302 15.4052 72.0942 14.5643 71.5466 13.7858L74.2145 9.52969L70.9783 6.82551L67.2646 10.207C66.4004 9.80478 65.4972 9.5271 64.5785 9.36879L63.4548 4.47168L59.2532 4.84798L59.0171 9.86706C58.1425 10.1863 57.3017 10.6197 56.5231 11.1698L52.267 8.502L49.5628 11.7382L52.9443 15.4519C52.5421 16.3161 52.2644 17.2192 52.1061 18.1379L47.209 19.2616L47.5853 23.4632L52.6044 23.6994C52.9236 24.574 53.3596 25.4148 53.9072 26.1934L51.2393 30.4495L54.4755 33.1536L58.1892 29.7721C59.0534 30.1744 59.9565 30.4521 60.8752 30.6104L61.9989 35.5075L66.2005 35.1312L66.4367 30.1121C67.3113 29.7929 68.1521 29.3595 68.9307 28.8093L73.1868 31.4772L75.8909 28.241L72.5094 24.5273C72.9117 23.6631 73.1894 22.7599 73.3477 21.8412ZM66.5483 23.1804C64.7862 25.2902 61.646 25.5705 59.5361 23.8084C57.4262 22.0463 57.1459 18.9061 58.9081 16.7962C60.6702 14.6863 63.8104 14.406 65.9203 16.1682C68.0301 17.9303 68.3104 21.0705 66.5483 23.1804Z" fill="#8BC6D0" stroke="#B81C22" stroke-width="2" stroke-linecap="round" stroke-linejoin="round"/>
<path d="M45.4082 43.2327L49.7059 42.2465L49.3763 38.5614L44.9723 38.3538C44.692 37.5856 44.3105 36.8486 43.8304 36.166L46.1712 32.4316L43.3321 30.0596L40.0725 33.0259C39.3148 32.6729 38.5206 32.429 37.7161 32.2888L36.73 27.9912L33.0448 28.3208L32.8372 32.7248C32.069 33.0051 31.332 33.3866 30.6494 33.8667L26.915 31.5258L24.543 34.365L27.5093 37.6245C27.1563 38.3823 26.9124 39.1764 26.7722 39.981L22.4746 40.9671L22.8042 44.6523L27.2082 44.8599C27.4885 45.6281 27.87 46.3651 28.3501 47.0476L26.0092 50.7821L28.8484 53.1541L32.1079 50.1878C32.8657 50.5408 33.6598 50.7847 34.4644 50.9248L35.4505 55.2225L39.1357 54.8929L39.3407 50.4889C40.1089 50.2086 40.8459 49.8271 41.5284 49.347L45.2629 51.6878L47.6349 48.8487L44.6686 45.5891C45.0216 44.8314 45.2655 44.0372 45.4056 43.2327H45.4082ZM39.4393 44.4083C37.8926 46.2587 35.1391 46.5052 33.2861 44.9585C31.4358 43.4118 31.1892 40.6583 32.736 38.8053C34.2827 36.955 37.0362 36.7084 38.8891 38.2552C40.7395 39.8019 40.9861 42.5554 39.4393 44.4083Z" fill="#FDD000" stroke="#B81C22" stroke-width="2" stroke-linecap="round" stroke-linejoin="round"/>
</g>
<defs>
<clipPath id="clip0_225_35538">
<rect width="108.38" height="143.516" fill="white" transform="translate(21 3)"/>
</clipPath>
</defs>
</svg>
