<svg width="150" height="150" viewBox="0 0 150 150" fill="none" xmlns="http://www.w3.org/2000/svg">
<g clip-path="url(#clip0_376_445)">
<path d="M51.3306 61.0172C38.4409 81.2641 60.3845 105.789 61.402 110.673C62.4196 115.558 61.3755 134.077 61.3755 134.077H88.7298C88.7298 134.077 87.5176 118.882 88.7386 115.898C89.9597 112.914 103.334 115.221 107.928 113.184C110.53 112.032 110.687 110.149 111.162 107.384C112.144 101.675 110.492 97.1666 111.841 95.8173C111.841 95.8173 117.54 94.1892 118.082 92.5611C118.623 90.933 114.146 85.3697 112.248 82.1136C110.35 78.8574 114.403 70.2702 110.62 62.7138C103.836 49.165 90.787 45.6545 80.0696 45.9243C69.3522 46.1964 57.4602 51.3925 51.3328 61.0172H51.3306Z" fill="white" stroke="#B81C22" stroke-width="2" stroke-linecap="round" stroke-linejoin="round"/>
<path d="M79.888 88.1016C91.6895 88.1016 101.256 81.0551 101.256 72.3628C101.256 63.6705 91.6895 56.624 79.888 56.624C68.0865 56.624 58.5195 63.6705 58.5195 72.3628C58.5195 81.0551 68.0865 88.1016 79.888 88.1016Z" fill="#FFD984" stroke="#B81C22" stroke-width="2" stroke-linecap="round" stroke-linejoin="round"/>
<path d="M89.7752 58.4072L86.3797 63.6852C86.3797 63.6852 83.6523 62.223 80.6328 63.6852" stroke="#B81C22" stroke-width="2" stroke-linecap="round" stroke-linejoin="round"/>
<path d="M82.7046 69.7256C82.7046 69.7256 88.8143 71.1391 88.0356 75.5698C87.1043 80.8677 72.8388 78.8835 70.6953 75.4747" stroke="#B81C22" stroke-width="2" stroke-linecap="round" stroke-linejoin="round"/>
<path d="M97.9713 79.4231L94.9032 77.8106C94.9032 77.8106 95.0492 73.4263 94.5625 71.5283" stroke="#B81C22" stroke-width="2" stroke-linecap="round" stroke-linejoin="round"/>
<path d="M91.6875 70.8471C91.6875 70.8471 96.1205 70.1658 98.8966 67.0977" stroke="#B81C22" stroke-width="2" stroke-linecap="round" stroke-linejoin="round"/>
<path d="M64.6914 61.2998C64.6914 61.2998 66.9942 67.0954 71.9624 68.9712" stroke="#B81C22" stroke-width="2" stroke-linecap="round" stroke-linejoin="round"/>
<path d="M73.9116 62.8115L75.4733 65.4306C76.5638 67.26 76.6567 69.5185 75.7188 71.4319C75.0552 72.7835 73.9293 73.8541 72.5445 74.4469L66.5078 77.035" stroke="#B81C22" stroke-width="2" stroke-linecap="round" stroke-linejoin="round"/>
<path d="M71.4336 86.4358L74.9596 82.0117" stroke="#B81C22" stroke-width="2" stroke-linecap="round" stroke-linejoin="round"/>
<path d="M71.6197 29.0592L75.7938 28.1014L75.4731 24.5201L71.195 24.3188C70.9229 23.5733 70.5512 22.8566 70.0845 22.193L72.3585 18.5652L69.6001 16.2602L66.4346 19.1425C65.698 18.7997 64.9282 18.563 64.1451 18.4281L63.1873 14.2539L59.606 14.5747L59.4047 18.8528C58.6592 19.1249 57.9425 19.4943 57.2789 19.9632L53.6511 17.6892L51.3462 20.4477L54.2285 23.6131C53.8856 24.3497 53.6489 25.1195 53.514 25.9026L49.3398 26.8604L49.6606 30.4417L53.9387 30.643C54.2108 31.3885 54.5824 32.1052 55.0492 32.7688L52.7752 36.3966L55.5336 38.7015L58.6991 35.8192C59.4357 36.1621 60.2055 36.3988 60.9885 36.5337L61.9463 40.7079L65.5277 40.3871L65.729 36.109C66.4744 35.8369 67.1911 35.4675 67.8548 34.9986L71.4825 37.2726L73.7875 34.5141L70.9052 31.3487C71.248 30.6121 71.4847 29.8423 71.6197 29.0592ZM65.8241 30.2006C64.3221 31.999 61.6455 32.2379 59.8471 30.7359C58.0487 29.2339 57.8098 26.5574 59.3118 24.759C60.8138 22.9606 63.4904 22.7217 65.2888 24.2236C67.0872 25.7256 67.3261 28.4022 65.8241 30.2006Z" fill="#8BC6D0" stroke="#B81C22" stroke-width="2" stroke-linecap="round" stroke-linejoin="round"/>
<path d="M47.8058 47.2932L51.4689 46.4526L51.188 43.3115L47.4341 43.1345C47.1952 42.4797 46.8701 41.8515 46.4608 41.2697L48.4561 38.0866L46.0361 36.0648L43.2578 38.5931C42.6118 38.2923 41.935 38.0844 41.2492 37.9649L40.4086 34.3018L37.2675 34.5827L37.0906 38.3365C36.4358 38.5754 35.8076 38.9006 35.2258 39.3099L32.0426 37.3146L30.0208 39.7346L32.5492 42.5129C32.2484 43.1588 32.0404 43.8357 31.921 44.5215L28.2578 45.362L28.5387 48.5032L32.2926 48.6801C32.5315 49.3349 32.8567 49.9631 33.2659 50.5449L31.2706 53.728L33.6906 55.7499L36.469 53.2215C37.1149 53.5223 37.7918 53.7302 38.4775 53.8497L39.3181 57.5129L42.4592 57.2319L42.634 53.4781C43.2887 53.2392 43.917 52.914 44.4987 52.5048L47.6819 54.5L49.7037 52.0801L47.1753 49.3017C47.4762 48.6558 47.6841 47.9789 47.8035 47.2932H47.8058ZM42.718 48.2952C41.3996 49.8724 39.0526 50.0826 37.4732 48.7642C35.896 47.4458 35.6859 45.0988 37.0043 43.5194C38.3227 41.9422 40.6697 41.7321 42.2491 43.0504C43.8263 44.3688 44.0364 46.7158 42.718 48.2952Z" fill="#FFD984" stroke="#B81C22" stroke-width="2" stroke-linecap="round" stroke-linejoin="round"/>
</g>
<defs>
<clipPath id="clip0_376_445">
<rect width="92.3799" height="122.329" fill="white" transform="translate(27 13)"/>
</clipPath>
</defs>
</svg>
