<svg width="150" height="150" viewBox="0 0 150 150" fill="none" xmlns="http://www.w3.org/2000/svg">
<g clip-path="url(#clip0_413_200)">
<path d="M86.0913 70.9949C86.0913 70.9949 100.429 69.9406 95.9993 52.2949C95.9993 52.2949 83.2238 55.4577 86.0913 70.9949Z" fill="#87AD5A"/>
<path d="M100.07 79.935C100.07 79.935 113.86 84.0342 115.847 65.9409C115.847 65.9409 102.792 64.3683 100.07 79.935Z" fill="#87AD5A"/>
<path d="M82.9062 85.8196C82.9062 85.8196 92.1906 96.91 103.696 82.8983C103.696 82.8983 93.6477 74.3287 82.9062 85.8196Z" fill="#87AD5A"/>
<path d="M89.9844 101.445C89.9844 101.445 94.9151 112.629 107.492 104.024C107.492 104.024 101.355 94.6949 89.9844 101.445Z" fill="#87AD5A"/>
<path d="M83.5695 101.692C83.5695 101.692 78.5864 112.376 91.7524 115.604C91.7524 115.604 94.7539 105.279 83.5695 101.692Z" fill="#87AD5A"/>
<path d="M100.023 97.0333C100.023 97.0333 113.382 102.393 117.001 84.5588C117.001 84.5588 104.138 81.7847 100.023 97.0333Z" fill="#87AD5A"/>
<path d="M77.963 69.2042C77.963 69.2042 90.995 63.0788 80.6557 48.1719C80.6557 48.1719 69.8268 55.7049 77.963 69.2042Z" fill="#87AD5A"/>
<path d="M70.9333 66.7488C70.9333 66.7488 56.5958 65.6945 61.0311 48.0488C61.0311 48.0488 73.8008 51.2116 70.9333 66.7488Z" fill="#87AD5A"/>
<path d="M67.8454 77.1264C67.8454 77.1264 54.0558 81.2256 52.0742 63.1323C52.0742 63.1323 65.1295 61.5598 67.8454 77.1264Z" fill="#87AD5A"/>
<path d="M34 86.3553C34 86.3553 40.1663 74.5699 54.428 81.1841C54.428 81.1841 49.9111 95.0251 34 86.3553Z" fill="#87AD5A"/>
<path d="M58.6217 91.8091C58.6217 91.8091 54.1165 105.603 38.2578 96.9626C38.2578 96.9626 44.4008 85.2126 58.6217 91.8091Z" fill="#87AD5A"/>
<path d="M59.1692 60.7521C59.1692 60.7521 44.8317 61.7887 46.7084 43.6836C46.7084 43.6836 59.7987 44.9558 59.1692 60.7521Z" fill="#87AD5A"/>
<path d="M73.4703 53.4669C73.4703 53.4669 59.7331 49.2027 67.9626 33C67.9626 33 79.7123 38.9722 73.4761 53.4669H73.4703Z" fill="#87AD5A"/>
<path d="M86.1588 56.6003C86.1588 56.6003 76.245 46.0812 91.2644 36.0273C91.2644 36.0273 98.6196 47.0412 86.1588 56.6003Z" fill="#87AD5A"/>
<path d="M97.7896 69.6049C97.7896 69.6049 93.6807 55.6875 111.579 53.6143C111.579 53.6143 113.188 66.8014 97.7896 69.6049Z" fill="#87AD5A"/>
<path d="M99.1148 57.6135C99.1148 57.6135 93.9043 49.6387 104.78 44.8916C104.78 44.8916 108.277 52.884 99.1148 57.6135Z" fill="#87AD5A"/>
<path d="M80.1251 47.4537C80.1251 47.4537 72.4085 41.935 80.842 33.5186C80.842 33.5186 86.9733 39.6851 80.1251 47.4537Z" fill="#87AD5A"/>
<path d="M52.1577 63.9745C52.1577 63.9745 41.2006 68.6392 38.8984 53.8912C38.8984 53.8912 49.366 51.3822 52.1577 63.9745Z" fill="#87AD5A"/>
<path d="M69.1135 96.2267C69.1135 96.2267 59.7708 100.202 57.8125 87.6335C57.8125 87.6335 66.7355 85.4955 69.1135 96.2267Z" fill="#87AD5A"/>
<path d="M64.5534 111.852C64.5534 111.852 55.1233 118.754 49.6914 105.202C49.6914 105.202 59.1273 100.461 64.5534 111.852Z" fill="#87AD5A"/>
<path d="M64.5525 46.5049C64.5525 46.5049 56.3231 49.9681 54.6445 38.9071C54.6445 38.9071 62.4952 37.0578 64.5525 46.5049Z" fill="#87AD5A"/>
<path d="M51.38 76.0654C51.38 76.0654 38.0159 81.4251 34.4023 63.585C34.4023 63.585 47.2653 60.8109 51.3742 76.0654H51.38Z" fill="#87AD5A"/>
<path d="M69.2685 150C73.4182 149.988 77.5679 149.976 81.7176 149.958V102.587L98.3339 95.1189L96.7078 91.2906L81.7176 96.7739V83.039L94.8719 75.1762L93.2692 71.3891L81.7176 76.8901V69.793H69.2685V84.2641L58.393 80.6537L57.0583 84.0344L69.2743 90.1126V103.005L56.2423 97.7752L54.4414 101.916L69.2801 109.814V150.006L69.2685 150Z" fill="white"/>
</g>
<defs>
<clipPath id="clip0_413_200">
<rect width="83" height="117" fill="white" transform="translate(34 33)"/>
</clipPath>
</defs>
</svg>
