<svg width="150" height="150" viewBox="0 0 150 150" fill="none" xmlns="http://www.w3.org/2000/svg">
<g clip-path="url(#clip0_413_167)">
<path d="M113 72.0198C113 67.6164 110.295 63.8362 106.442 62.2461C108.685 59.8405 110.067 56.6195 110.067 53.0781C110.067 45.6168 103.989 39.5766 96.494 39.5766C91.6283 39.5766 87.3715 42.1337 84.9767 45.9604C83.8174 41.9414 80.1052 39 75.6903 39C72.5987 39 69.8585 40.4445 68.0902 42.687C65.6837 40.561 62.5335 39.2505 59.0614 39.2505C51.5666 39.2505 45.4889 45.2964 45.4889 52.752C45.4889 55.4546 46.2969 57.965 47.667 60.0735C43.1234 60.7084 39.6278 64.576 39.6278 69.2648C39.6278 72.1014 40.9101 74.6351 42.9243 76.3417C39.9264 78.6949 38 82.3353 38 86.4241C38 93.5244 43.785 99.2791 50.9226 99.2791C51.0045 99.2791 51.0865 99.2675 51.1685 99.2675C50.4541 100.665 50.0443 102.232 50.0443 103.91C50.0443 109.583 54.6641 114.179 60.3612 114.179C65.5139 114.179 69.7765 110.416 70.5435 105.5C72.0308 105.762 73.559 105.908 75.1223 105.913C75.1223 106.001 75.1106 106.088 75.1106 106.175C75.1106 111.843 79.7304 116.438 85.4276 116.438C91.1248 116.438 95.7446 111.843 95.7446 106.175C95.7446 105.168 95.5923 104.195 95.3171 103.275C96.1017 103.403 96.898 103.49 97.7119 103.49C105.617 103.49 112.016 97.1182 112.016 89.2549C112.016 85.8941 110.839 82.8012 108.872 80.3665C111.378 78.4269 112.994 75.4098 112.994 72.014L113 72.0198Z" fill="#87AD5A"/>
<path d="M56.2757 60.1493C56.4337 55.6002 60.8662 53.8936 64.8243 54.1208C66.3116 54.2023 66.4287 54.6916 67.2074 53.5966C67.8515 52.6937 68.6537 51.9249 69.532 51.2492C72.6001 48.8902 75.9844 50.2765 78.5666 52.5947C78.0455 52.1287 79.1112 49.8921 78.5666 49.397C75.8322 46.9332 72.7699 45.8906 69.532 48.0515C68.6185 48.6631 67.8632 49.531 67.2074 50.3988C66.294 51.5987 65.5445 50.9638 63.9812 50.8764C60.1518 50.6609 56.4045 53.0199 56.2639 57.068C56.2288 58.0291 56.2991 59.3979 56.2757 60.1493Z" fill="#537235"/>
<path d="M92.4014 61.9897C94.8841 61.2675 98.2391 61.3723 99.1057 64.273C99.2872 64.8787 99.012 65.0942 99.6034 65.2107C100.142 65.3214 100.657 65.5253 101.137 65.7816C101.799 66.1252 102.309 66.6611 102.672 67.3076C103.199 68.2454 102.625 69.2181 102.964 66.5795C102.876 67.2785 102.595 67.9425 102.326 68.5832C101.946 69.4977 102.701 70.8781 102.326 71.7809C103.69 68.4958 103.96 63.143 99.7498 62.048C98.9652 61.8441 99.2404 61.5237 98.9886 60.6908C98.6607 59.5841 97.677 58.9318 96.6231 58.6173C95.3056 58.2212 93.7013 58.4134 92.3956 58.792C92.0853 58.8794 92.6591 61.9082 92.3956 61.9839L92.4014 61.9897Z" fill="#537235"/>
<path d="M59.7703 67.2143C57.8264 66.8415 55.578 67.1152 54.2137 68.6529C52.5215 70.5576 53.2359 75.2348 53.7511 77.4598V74.2621C48.3877 75.3804 48.2589 81.5021 50.7415 85.3929C50.2614 84.6474 51.2334 82.9699 50.7415 82.1952C49.9745 80.9953 49.3714 79.8595 49.3245 78.4092C49.3245 79.4576 49.3245 80.5002 49.3245 81.5487C49.5646 79.2421 51.6198 77.9083 53.7628 77.4598C53.8624 77.4365 53.8331 74.5649 53.7628 74.2621C53.6164 73.6388 53.7628 71.7982 53.4935 73.4641C53.593 72.8641 53.8858 72.3341 54.2312 71.8448C54.7407 71.1168 55.6248 70.7323 56.4504 70.4877C57.4926 70.179 58.7281 70.2023 59.7879 70.412C59.6122 70.377 60.0104 67.2608 59.7879 67.2143H59.7703Z" fill="#537235"/>
<path d="M87.9292 105.704C89.5218 105.477 91.0559 104.638 91.9283 103.281C93.0935 101.476 92.6602 97.806 92.0806 95.8723V99.0642C93.4566 99.1981 94.9848 98.9302 95.9802 97.9167C97.1688 96.7052 96.7121 93.6531 96.554 92.1387C96.6652 93.1871 96.4427 94.2763 96.554 95.3364C96.5716 95.4995 96.5891 95.6626 96.6067 95.8257C96.6067 95.2898 96.595 94.7598 96.5891 94.2297C96.5891 94.3753 96.5891 94.5268 96.5891 94.6724C96.5891 94.1423 96.6008 93.6065 96.6067 93.0764C96.3432 95.348 94.1241 96.0645 92.0806 95.8664C92.1567 95.8723 91.9869 98.7438 92.0806 99.0583C92.3733 100.049 92.1567 101.039 92.4143 98.7147C92.3616 99.1981 92.1567 99.6524 91.9342 100.078C91.5887 100.736 90.9739 101.225 90.365 101.615C89.6565 102.07 88.7724 102.378 87.9351 102.495C87.7594 102.518 88.0639 105.669 87.9351 105.687L87.9292 105.704Z" fill="#537235"/>
<path d="M54.1687 95.9594C55.0412 99.3726 58.0156 100.695 61.236 99.3726C61.236 99.1105 61.2243 98.8484 61.2243 98.5805C61.2419 101.248 62.1202 104.091 65.4284 103.409C65.6626 103.363 65.241 100.252 65.4284 100.211C63.9997 100.503 62.8287 100.281 61.9797 99.0406C61.681 98.6038 61.5347 98.0621 61.4058 97.5554C61.3122 97.1884 61.2419 95.5109 61.2478 96.9612C61.2478 96.9379 61.2068 96.1807 61.236 96.1691C58.0156 97.4913 55.0412 96.1691 54.1687 92.7559C54.4205 93.7519 53.9111 94.9459 54.1687 95.9536V95.9594Z" fill="#537235"/>
<path d="M70.0557 149.837C73.522 150.006 76.9884 150.035 80.4547 149.965L80.4547 93.3557L94.3316 87.2166L92.9732 84.0713L80.4488 88.5795V77.2856L91.4391 70.8202L90.1041 67.7041L80.4547 72.224V66.3877H70.0557V78.2816L60.9684 75.3169L59.85 78.0952L70.0499 83.0927V93.6936L59.165 89.395L57.6602 92.8024L70.0499 99.2969L70.0499 149.837H70.0557Z" fill="white"/>
</g>
<defs>
<clipPath id="clip0_413_167">
<rect width="75" height="111" fill="white" transform="translate(38 39)"/>
</clipPath>
</defs>
</svg>
