<svg width="150" height="150" viewBox="0 0 150 150" fill="none" xmlns="http://www.w3.org/2000/svg">
<g clip-path="url(#clip0_413_184)">
<path d="M116 80.3487C116 103.186 97.6451 121.697 75 121.697C52.3549 121.697 34 103.186 34 80.3487C34 57.511 52.3549 39 75 39C97.6451 39 116 57.5165 116 80.3487Z" fill="#87AD5A"/>
<path d="M106.363 80.2109C106.363 98.8594 91.3713 113.978 72.8747 113.978C54.3781 113.978 39.3867 98.8539 39.3867 80.2109C39.3867 61.568 54.3835 46.4326 72.8747 46.4326C91.3658 46.4326 106.363 61.5515 106.363 80.2054V80.2109Z" fill="#A2BE7A"/>
<path d="M98.4183 77.0611C98.4183 90.0303 87.9952 100.537 75.1408 100.537C62.2864 100.537 51.8633 90.0248 51.8633 77.0611C51.8633 64.0973 62.2864 53.5801 75.1408 53.5801C87.9952 53.5801 98.4183 64.0918 98.4183 77.0611Z" fill="#B4CF8A"/>
<path d="M68.9605 149.747C72.9836 149.868 77.0122 149.951 81.0408 150V97.1225L97.1606 91.9876L95.5851 89.3597L81.0408 93.1257V83.686L93.8025 78.2817L92.2489 75.6757L81.0408 79.4582V74.5762H68.9605V84.5216L58.412 82.0421L57.1146 84.3622L68.9659 88.5405V97.4029L56.3241 93.8074L54.5742 96.6497L68.9659 102.082V149.742L68.9605 149.747Z" fill="white"/>
</g>
<defs>
<clipPath id="clip0_413_184">
<rect width="82" height="111" fill="white" transform="translate(34 39)"/>
</clipPath>
</defs>
</svg>
