<svg width="350" height="350" viewBox="0 0 350 350" fill="none" xmlns="http://www.w3.org/2000/svg">
<g clip-path="url(#clip0_227_43187)">
<path d="M191.208 209.159L182.234 204.279C181.014 203.295 182.031 199.372 182.084 199.162L191.057 204.042C191.005 204.246 189.994 208.175 191.208 209.159Z" fill="white"/>
<path d="M182.066 198.46L191.04 203.34C191.158 203.406 191.066 204.009 191.066 204.042L182.093 199.162C182.093 199.129 182.184 198.526 182.066 198.46Z" fill="#CACACA"/>
<path d="M188.316 206.666L179.343 201.786C178.857 201.523 178.319 201.143 177.742 200.828L186.716 205.708C187.293 206.023 187.831 206.397 188.316 206.666Z" fill="#CACACA"/>
<path d="M169 206.574L177.973 211.454C178.642 211.815 179.18 212.989 179.653 215.443L170.679 210.562C170.207 208.109 169.669 206.935 169 206.574Z" fill="#CACACA"/>
<path d="M151.379 210.785L160.352 215.665C160.352 215.665 160.385 215.731 160.352 215.823L151.379 210.943C151.412 210.851 151.399 210.792 151.379 210.785Z" fill="#CACACA"/>
<path d="M202.525 126.916L193.552 122.035C191.118 120.71 194.313 116.276 197.868 115.771C198.74 115.647 199.633 115.765 200.466 116.217L209.439 121.097C208.606 120.645 207.714 120.527 206.841 120.651C203.293 121.15 200.098 125.591 202.525 126.916Z" fill="#CACACA"/>
<path d="M161.887 187.703L152.914 182.822C153.137 182.947 153.399 182.973 153.695 182.934C155.767 182.645 159.355 178.749 161.264 177.771L170.238 182.652C168.329 183.623 164.741 187.519 162.668 187.814C162.373 187.853 162.11 187.827 161.887 187.703Z" fill="#CACACA"/>
<path d="M170.231 182.652L161.258 177.771C188.545 159.779 176.948 143.524 186.079 126.988C187.863 123.754 191.333 123.072 194.58 124.836L198.194 127.034C182.137 145.499 200.543 162.665 170.231 182.652Z" fill="#CACACA"/>
<path d="M154.856 173.049L163.83 177.929C163.646 177.831 163.443 177.739 163.2 177.661L154.227 172.78C154.463 172.859 154.673 172.951 154.856 173.049Z" fill="#CACACA"/>
<path d="M141.264 234.662L132.291 229.782C130.644 228.89 130.106 226.135 129.942 223.334C129.732 219.883 130.087 216.361 129.641 216.118L138.614 220.998C139.06 221.241 138.706 224.77 138.916 228.214C139.086 231.015 139.624 233.77 141.264 234.662Z" fill="#CACACA"/>
<path d="M143.122 205.978L134.148 201.097C134.621 201.353 135.073 201.438 135.513 201.379C138.412 200.973 140.721 194.131 143.371 187.237C146.021 180.343 149.012 173.41 153.282 172.806C153.591 172.76 153.906 172.754 154.234 172.78L163.207 177.66C162.886 177.634 162.571 177.647 162.256 177.686C157.986 178.283 154.995 185.223 152.344 192.117C149.694 199.011 147.386 205.853 144.486 206.26C144.047 206.319 143.594 206.233 143.122 205.978Z" fill="#CACACA"/>
<path d="M134.235 226.935L125.261 222.055C124.815 221.812 125.025 220.074 125.077 218.362C125.13 216.827 125.058 215.305 124.297 214.892L133.27 219.772C134.031 220.185 134.097 221.707 134.051 223.242C133.998 224.96 133.795 226.699 134.235 226.935Z" fill="#CACACA"/>
<path d="M121.611 221.655L130.584 226.535C129.463 225.925 127.862 225.479 125.665 225.223L116.691 220.343C118.895 220.599 120.496 221.051 121.611 221.655Z" fill="#CACACA"/>
<path d="M115.782 229.742L106.809 224.862C106.809 224.862 106.894 224.882 106.979 224.869C107.72 224.764 110.613 223.478 116.687 220.336L125.661 225.216C119.58 228.358 116.694 229.644 115.953 229.749C115.867 229.762 115.815 229.755 115.782 229.742Z" fill="#CACACA"/>
<path d="M111.328 248.463L102.354 243.583C100.052 242.33 100.026 238.486 97.625 237.181L106.598 242.061C109.006 243.366 109.025 247.21 111.328 248.463Z" fill="#CACACA"/>
<path d="M89.6685 273.016L80.6952 268.135C80.2557 267.899 79.908 267.348 79.6719 266.437L88.6453 271.317C88.8748 272.229 89.2291 272.773 89.6685 273.016Z" fill="#CACACA"/>
<path d="M88.6453 271.316L79.6719 266.436C80.1376 262.94 80.3541 261.746 80.3409 261.746L89.3143 266.626C89.3143 266.626 89.111 267.82 88.6453 271.316Z" fill="#CACACA"/>
<path d="M104.418 241.484L95.4448 236.603C92.926 235.232 104.274 226.056 102.437 225.059L111.411 229.939C113.247 230.936 101.899 240.113 104.418 241.484Z" fill="#CACACA"/>
<path d="M104.884 235.895L95.9104 231.015C95.6612 230.877 95.4185 230.49 95.1758 229.762L104.149 234.642C104.392 235.377 104.635 235.764 104.884 235.895Z" fill="#CACACA"/>
<path d="M94.543 229.218L103.516 234.098C103.785 234.242 104.002 234.419 104.153 234.636L95.1792 229.756C95.0284 229.539 94.8119 229.362 94.543 229.218Z" fill="#CACACA"/>
<path d="M84.9193 271.848L75.9459 266.968C68.7633 263.059 80.2358 246.083 76.4838 244.036L85.4572 248.916C89.2092 250.956 77.7366 267.939 84.9193 271.848Z" fill="#CACACA"/>
<path d="M86.7046 231.009L95.6779 235.889C94.1693 235.069 92.6409 234.78 90.9617 235.017L81.9883 230.136C83.6675 229.9 85.1959 230.189 86.7046 231.009Z" fill="#CACACA"/>
<path d="M91.5618 232.622L82.5884 227.741C81.3159 227.053 80.9223 225.747 82.2539 223.274L91.2273 228.155C89.8957 230.628 90.2892 231.926 91.5618 232.622Z" fill="#CACACA"/>
<path d="M91.2273 228.155L82.2539 223.274C97.4391 214.498 110.02 202.284 127.35 199.85C128.99 199.621 130.67 199.477 132.401 199.431L141.375 204.311C139.643 204.357 137.964 204.501 136.324 204.731C118.994 207.164 106.413 219.378 91.2273 228.155Z" fill="#CACACA"/>
<path d="M79.6054 255.088L70.632 250.208C68.041 248.797 65.6796 244.048 67.2276 239.542L76.201 244.422C74.653 248.929 77.0144 253.678 79.6054 255.088Z" fill="#CACACA"/>
<path d="M76.2 244.422L67.2266 239.542C73.7467 233.829 78.2268 230.667 81.9854 230.136L90.9588 235.016C87.1937 235.547 82.7135 238.709 76.2 244.422Z" fill="#CACACA"/>
<path d="M248.997 88.7652L240.023 83.885C240.246 84.0031 240.509 84.049 240.837 84.0031C241.257 83.944 241.775 83.7341 242.405 83.334L251.378 88.2142C250.748 88.6078 250.237 88.8243 249.81 88.8833C249.489 88.9292 249.22 88.8833 248.997 88.7652Z" fill="#CACACA"/>
<path d="M240.127 71.6909L249.1 76.5711C249.1 76.5711 249.048 76.5514 249.008 76.558C248.759 76.5908 248.28 77.1615 247.454 78.4799L238.48 73.5997C239.307 72.2812 239.786 71.7105 240.035 71.6777C240.068 71.6777 240.101 71.6777 240.127 71.6909Z" fill="#CACACA"/>
<path d="M232.079 80.2444L223.105 75.3641C225.808 76.8334 228.609 77.7059 231.489 77.2992C233.771 76.9777 236.106 75.8561 238.481 73.5996L247.454 78.4799C245.08 80.7363 242.745 81.858 240.462 82.1794C237.576 82.5861 234.775 81.7137 232.079 80.2444Z" fill="#CACACA"/>
<path d="M193.098 104.384L202.071 109.264C202.32 109.402 202.511 109.625 202.609 109.946L193.636 105.066C193.544 104.745 193.353 104.522 193.098 104.384Z" fill="#CACACA"/>
<path d="M199.321 112.792L190.348 107.912C191.988 108.804 194.979 108.949 196.441 109.742L205.415 114.622C203.945 113.822 200.961 113.684 199.321 112.792Z" fill="#CACACA"/>
<path d="M195.524 120.704L186.551 115.824C185.298 115.141 184.445 113.508 184.281 110.432L193.255 115.312C193.419 118.388 194.278 120.022 195.524 120.704Z" fill="#CACACA"/>
<path d="M208.615 65.0266L217.589 69.9068C215.857 68.9622 214.204 68.4506 212.63 68.6671L203.656 63.7868C205.224 63.5638 206.877 64.082 208.615 65.0266Z" fill="#CACACA"/>
<path d="M193.253 115.311L184.28 110.431C181.978 108.338 179.636 105.275 183.165 101.654L192.138 106.535C188.609 110.155 190.951 113.219 193.253 115.311Z" fill="#CACACA"/>
<path d="M208.93 70.8779L199.957 65.9977C201.125 64.6464 202.358 63.9642 203.65 63.7871L212.623 68.6674C211.331 68.851 210.098 69.5267 208.93 70.8779Z" fill="#CACACA"/>
<path d="M199.618 96.3019L190.645 91.4217C191.655 91.7431 192.58 91.8218 193.426 91.7037C201.232 90.6083 202.163 72.327 199.966 65.9971L208.939 70.8773C211.136 77.2072 210.212 95.4886 202.399 96.584C201.553 96.7021 200.628 96.6234 199.618 96.3019Z" fill="#CACACA"/>
<path d="M192.137 106.535L183.164 101.655C189.789 97.9686 184.85 92.0585 189.186 91.4485C189.586 91.3895 190.065 91.3829 190.635 91.4223L199.609 96.3025C199.038 96.2632 198.559 96.2763 198.159 96.3288C193.823 96.9388 198.763 102.849 192.137 106.535Z" fill="#CACACA"/>
<path d="M191.059 204.77C190.941 204.77 190.823 204.744 190.711 204.685L181.738 199.804C181.469 199.66 181.318 199.358 181.364 199.057C181.377 198.958 181.39 198.834 181.39 198.755C181.305 198.558 181.311 198.322 181.423 198.119C181.613 197.764 182.059 197.633 182.413 197.824L191.387 202.704C191.944 203.006 191.839 203.747 191.787 204.147C191.754 204.383 191.603 204.593 191.393 204.698C191.288 204.75 191.177 204.777 191.065 204.777L191.059 204.77Z" fill="#020202"/>
<path d="M179.649 216.17C179.531 216.17 179.407 216.144 179.302 216.078L170.328 211.198C170.138 211.093 170 210.909 169.961 210.693C169.449 208.003 168.925 207.361 168.656 207.21C168.302 207.013 168.17 206.573 168.361 206.219C168.551 205.865 168.997 205.734 169.351 205.924L178.324 210.804C179.256 211.309 179.866 212.654 180.371 215.298C180.424 215.573 180.312 215.855 180.082 216.026C179.958 216.118 179.8 216.163 179.649 216.163V216.17ZM171.326 210.083L178.574 214.025C178.187 212.615 177.826 212.208 177.623 212.097L170.925 208.456C171.07 208.928 171.201 209.466 171.326 210.083Z" fill="#020202"/>
<path d="M202.519 127.643C202.4 127.643 202.282 127.617 202.171 127.551L193.197 122.671C192.24 122.153 191.807 121.202 192.017 120.06C192.384 118.02 194.923 115.442 197.763 115.042C198.858 114.891 199.882 115.069 200.813 115.574L209.786 120.454C210.141 120.644 210.272 121.09 210.082 121.444C209.891 121.799 209.445 121.93 209.091 121.74C208.448 121.385 207.72 121.267 206.946 121.372C204.939 121.654 202.997 123.452 202.519 124.882C202.486 124.986 202.427 125.078 202.355 125.157C202.394 125.249 202.414 125.347 202.414 125.452C202.407 125.833 202.551 126.082 202.886 126.259C203.24 126.449 203.371 126.895 203.181 127.25C203.05 127.492 202.801 127.63 202.538 127.63L202.519 127.643ZM198.504 116.459C198.327 116.459 198.143 116.472 197.96 116.498C195.788 116.8 193.722 118.847 193.453 120.329C193.335 120.992 193.63 121.248 193.899 121.392L200.97 125.236C201.003 125.124 201.062 125.019 201.148 124.941C201.082 124.783 201.069 124.599 201.128 124.422C201.699 122.723 203.673 120.703 206.021 120.073L200.111 116.859C199.619 116.59 199.081 116.453 198.504 116.453V116.459Z" fill="#020202"/>
<path d="M162.663 188.541C162.302 188.541 161.994 188.279 161.941 187.911C161.882 187.511 162.164 187.144 162.565 187.085C163.614 186.934 165.451 185.419 166.92 184.199C168.009 183.293 169.045 182.441 169.859 182.014C187.32 170.489 188.586 159.587 189.806 149.053C190.633 141.923 191.485 134.556 197.284 127.197L191.472 124.442C190.738 124.094 189.839 124.297 189.347 124.934C183.981 131.847 183.181 138.341 182.335 145.222C181.121 155.081 179.875 165.274 164.395 176.491C164.067 176.727 163.608 176.655 163.371 176.327C163.135 175.999 163.207 175.547 163.535 175.304C178.498 164.455 179.659 155.022 180.885 145.038C181.718 138.262 182.578 131.257 188.193 124.028C189.098 122.861 190.744 122.474 192.095 123.117L198.747 126.272C198.95 126.37 199.101 126.554 199.147 126.777C199.193 127 199.14 127.229 198.996 127.4C192.942 134.668 192.128 141.739 191.256 149.217C189.996 160.092 188.691 171.342 170.633 183.254C170.613 183.267 170.587 183.28 170.561 183.293C169.878 183.641 168.894 184.454 167.852 185.32C166.067 186.796 164.224 188.318 162.768 188.528C162.735 188.528 162.696 188.534 162.663 188.534V188.541Z" fill="#020202"/>
<path d="M163.823 178.657C163.705 178.657 163.586 178.63 163.475 178.565C163.331 178.486 163.16 178.414 162.97 178.348C162.931 178.335 162.891 178.316 162.852 178.296L153.878 173.416C153.544 173.232 153.406 172.832 153.557 172.484C153.708 172.137 154.101 171.966 154.462 172.084C154.738 172.176 154.987 172.281 155.203 172.406L164.17 177.286C164.524 177.476 164.656 177.922 164.459 178.276C164.328 178.519 164.078 178.657 163.816 178.657H163.823Z" fill="#020202"/>
<path d="M141.266 235.389C141.147 235.389 141.029 235.363 140.918 235.297L134.601 231.86C134.247 231.67 134.116 231.224 134.306 230.87C134.496 230.516 134.942 230.384 135.296 230.575L138.891 232.529C138.524 231.421 138.288 230.004 138.183 228.253C138.097 226.777 138.104 225.275 138.117 224.061C138.117 223.326 138.13 222.677 138.117 222.165C138.104 221.765 138.419 221.424 138.819 221.411C139.212 221.391 139.56 221.713 139.573 222.113C139.593 222.638 139.586 223.307 139.58 224.068C139.567 225.314 139.56 226.731 139.645 228.154C139.842 231.427 140.505 233.395 141.613 234.005C141.967 234.195 142.099 234.642 141.908 234.996C141.777 235.238 141.528 235.376 141.266 235.376V235.389Z" fill="#020202"/>
<path d="M144.478 206.987C144.118 206.987 143.809 206.725 143.757 206.357C143.698 205.957 143.98 205.59 144.38 205.531C146.577 205.222 148.775 199.43 150.9 193.829C151.149 193.173 151.399 192.517 151.654 191.854C154.173 185.301 156.961 178.847 160.962 177.272L154.016 173.494C153.799 173.488 153.583 173.494 153.373 173.527C149.509 174.071 146.531 181.025 144.045 187.499C143.79 188.155 143.54 188.817 143.291 189.467C141.527 194.117 139.854 198.506 137.958 200.651C137.689 200.952 137.23 200.978 136.928 200.71C136.627 200.441 136.6 199.981 136.869 199.68C138.588 197.745 140.208 193.474 141.927 188.948C142.176 188.292 142.425 187.636 142.681 186.974C145.436 179.798 148.519 172.733 153.17 172.084C153.53 172.031 153.904 172.025 154.278 172.051C154.383 172.058 154.482 172.09 154.573 172.136L163.547 177.017C163.848 177.181 163.999 177.535 163.901 177.869C163.803 178.197 163.494 178.414 163.147 178.388C162.878 178.368 162.615 178.374 162.359 178.414C158.496 178.958 155.518 185.911 153.032 192.386C152.776 193.042 152.527 193.704 152.278 194.353C149.791 200.9 147.64 206.554 144.59 206.987C144.557 206.987 144.518 206.994 144.485 206.994L144.478 206.987Z" fill="#020202"/>
<path d="M111.319 249.19C111.201 249.19 111.083 249.164 110.971 249.098L101.998 244.218C100.647 243.483 100.004 242.093 99.3742 240.748C99.1052 240.164 98.8494 239.613 98.5411 239.121L95.0908 237.245C94.6973 237.029 94.4414 236.675 94.3627 236.248C94.12 234.838 95.8255 232.798 98.6723 229.59C99.8661 228.246 101.631 226.258 101.873 225.53C101.683 225.307 101.637 224.979 101.788 224.704C101.978 224.349 102.424 224.218 102.779 224.408L111.752 229.289C112.06 229.453 112.257 229.735 112.316 230.076C112.506 231.145 111.221 232.647 108.741 235.435C107.259 237.108 105.455 239.135 104.924 240.315L106.931 241.404C108.361 242.178 109.023 243.615 109.666 245.005C110.217 246.186 110.735 247.301 111.66 247.806C112.014 247.996 112.146 248.442 111.955 248.797C111.824 249.039 111.575 249.177 111.312 249.177L111.319 249.19ZM103.146 226.278C102.687 227.268 101.532 228.593 99.7743 230.568C98.3247 232.201 95.6287 235.232 95.8124 235.999L99.407 237.928C99.5119 237.987 99.6038 238.065 99.6694 238.164C100.083 238.78 100.397 239.469 100.706 240.132C101.257 241.312 101.775 242.434 102.7 242.932L108.59 246.14C108.512 245.97 108.426 245.799 108.348 245.628C107.777 244.402 107.239 243.247 106.235 242.696L103.71 241.325C103.441 241.181 103.297 240.886 103.336 240.584C103.52 239.207 105.166 237.265 107.652 234.471C108.82 233.159 110.538 231.224 110.834 230.456L103.139 226.271L103.146 226.278Z" fill="#020202"/>
<path d="M84.9181 272.582C84.8001 272.582 84.682 272.556 84.5705 272.49L75.5971 267.61C71.6089 265.439 72.5797 260.073 74.2327 254.596C74.3508 254.209 74.7575 253.992 75.1445 254.104C75.5315 254.222 75.748 254.629 75.6365 255.016C74.1671 259.902 73.2291 264.658 76.3055 266.331L82.1369 269.499C81.0808 266.154 82.6354 261.254 83.9539 257.088C84.9181 254.045 85.9152 250.896 85.3511 249.807C85.1674 249.447 85.3051 249.007 85.6594 248.824C86.0201 248.633 86.4596 248.778 86.6433 249.132C87.4895 250.759 86.5449 253.75 85.3445 257.528C83.6915 262.736 81.6384 269.224 85.2724 271.204C85.6266 271.395 85.7578 271.841 85.5675 272.195C85.4363 272.438 85.1871 272.575 84.9247 272.575L84.9181 272.582Z" fill="#020202"/>
<path d="M91.5646 233.349C91.4465 233.349 91.3284 233.323 91.2169 233.257L82.2501 228.377C80.9906 227.695 79.8624 226.193 81.6204 222.919C81.8106 222.565 82.2566 222.434 82.6108 222.624C82.9651 222.815 83.0962 223.261 82.906 223.615C81.4629 226.284 82.5059 226.849 82.9454 227.091L89.682 230.758C89.682 229.984 89.9378 229.013 90.5872 227.8C90.7774 227.446 91.2235 227.314 91.5777 227.505C91.9319 227.695 92.0631 228.141 91.8728 228.495C90.4298 231.165 91.4727 231.729 91.9122 231.972C92.2664 232.162 92.3976 232.608 92.2074 232.962C92.0762 233.205 91.8269 233.342 91.5646 233.342V233.349Z" fill="#020202"/>
<path d="M91.2289 228.882C90.9796 228.882 90.7303 228.751 90.5926 228.515C90.3893 228.167 90.5073 227.721 90.8615 227.518C95.1777 225.025 99.343 222.211 103.37 219.489C113.813 212.431 123.679 205.766 136.22 204.002C137.06 203.884 137.906 203.792 138.759 203.72L132.226 200.165C130.632 200.211 129.031 200.348 127.457 200.571C115.204 202.29 105.968 208.508 96.1944 215.087C92.3112 217.705 88.2902 220.407 83.9675 222.906C83.6199 223.11 83.1738 222.992 82.9705 222.637C82.7671 222.29 82.8852 221.844 83.2394 221.64C87.5162 219.168 91.5175 216.478 95.381 213.874C105.299 207.196 114.673 200.893 127.26 199.122C128.953 198.886 130.678 198.741 132.39 198.695C132.521 198.695 132.646 198.722 132.757 198.787L141.73 203.667C142.019 203.825 142.17 204.159 142.091 204.481C142.012 204.802 141.73 205.032 141.402 205.038C139.743 205.078 138.07 205.222 136.437 205.452C124.23 207.17 114.502 213.743 104.204 220.702C100.156 223.438 95.9714 226.265 91.6093 228.784C91.4912 228.849 91.3666 228.882 91.242 228.882H91.2289Z" fill="#020202"/>
<path d="M79.5981 255.816C79.4801 255.816 79.362 255.789 79.2505 255.724L70.2771 250.843C67.2007 249.171 64.9114 244.022 66.5316 239.299C66.571 239.181 66.6431 239.069 66.7415 238.984C72.8156 233.658 77.7221 229.991 81.8808 229.407C83.7044 229.151 85.3967 229.459 87.0497 230.358L96.0166 235.238C96.3708 235.429 96.502 235.875 96.3117 236.229C96.1215 236.583 95.6755 236.714 95.3212 236.524C93.9569 235.783 92.5597 235.527 91.0641 235.737C87.2924 236.268 82.6417 239.751 76.83 244.835C75.4985 249.013 77.7221 253.231 79.9524 254.438C80.3066 254.628 80.4378 255.074 80.2475 255.429C80.1163 255.671 79.8671 255.809 79.6047 255.809L79.5981 255.816ZM67.8566 239.961C66.5251 244.14 68.7487 248.357 70.979 249.564L76.1872 252.398C74.9803 250.089 74.5211 247.052 75.505 244.186C75.5444 244.067 75.6165 243.956 75.7149 243.871C81.7956 238.544 86.6955 234.878 90.8542 234.294C90.9526 234.281 91.0445 234.268 91.1429 234.254L86.3479 231.65C84.9835 230.909 83.5863 230.653 82.0842 230.863C78.3125 231.395 73.6618 234.878 67.8501 239.961H67.8566Z" fill="#020202"/>
<path d="M250.081 89.4938C249.143 89.4938 248.198 89.1199 247.772 88.9494C247.398 88.7985 247.214 88.3721 247.365 87.9983C247.516 87.6244 247.936 87.4407 248.316 87.5916C248.592 87.7031 248.94 87.8277 249.294 87.913L248.146 87.2898C247.792 87.0996 247.661 86.6536 247.851 86.2993C248.041 85.9451 248.487 85.8139 248.841 86.0042L251.727 87.5719C251.918 87.6768 252.049 87.8539 252.095 88.0639C252.141 88.2738 252.088 88.4968 251.95 88.6608C251.458 89.2839 250.77 89.4873 250.081 89.4873V89.4938Z" fill="#020202"/>
<path d="M238.869 83.0384C234.494 83.0384 230.336 80.513 226.485 78.1779C225.285 77.4498 224.137 76.7545 223.002 76.1379C222.917 76.0919 222.832 76.046 222.753 76.0001C222.405 75.8033 222.274 75.3638 222.471 75.0096C222.661 74.6554 223.1 74.5308 223.455 74.7145C223.533 74.7538 223.612 74.7997 223.691 74.8456C228.505 77.3382 235.852 75.0162 237.157 73.6715C237.794 73.0155 238.253 72.4777 238.587 72.0841C239.217 71.3429 239.598 70.8968 240.214 70.9624C240.306 70.9755 240.398 71.0018 240.483 71.0477L249.456 75.928C249.653 76.0329 249.791 76.2297 249.83 76.4462C249.87 76.6692 249.798 76.8922 249.647 77.0628C249.607 77.1087 248.656 78.1451 247.449 79.2733C244.524 82.0152 241.657 83.0384 238.876 83.0384H238.869ZM228 77.3842C233.904 80.946 240.004 84.2388 246.439 78.2041C247.01 77.6662 247.535 77.148 247.915 76.7545L240.135 72.5236C240.011 72.6548 239.847 72.8516 239.696 73.0287C239.348 73.4419 238.869 73.9995 238.2 74.6882C236.888 76.0395 232.402 77.6137 227.994 77.3842H228Z" fill="#020202"/>
<path d="M195.525 121.432C195.407 121.432 195.289 121.405 195.177 121.34C194.954 121.222 194.744 121.077 194.548 120.913C193.656 120.349 192.54 119.831 191.366 119.293C187.785 117.647 183.344 115.6 183.534 110.726C182.255 109.526 180.701 107.748 180.635 105.558C180.589 104.042 181.265 102.56 182.649 101.143C182.682 101.11 182.721 101.077 182.76 101.051C186.184 98.716 186.368 96.3087 186.512 94.3671C186.604 93.147 186.689 91.9991 187.634 91.271C188.624 90.5035 190.297 90.4117 193.387 90.9496C200.097 88.9161 199.946 80.7495 199.802 73.5472C199.717 69.008 199.644 65.4266 201.324 63.8326C201.921 63.2685 202.688 62.9995 203.619 63.0455C206.309 62.606 210.54 65.0723 214.272 67.2567C215.204 67.8011 216.056 68.2996 216.784 68.6866C217.165 68.8506 217.545 69.0408 217.939 69.2573C218.28 69.4475 218.418 69.8673 218.247 70.2216C218.077 70.5692 217.657 70.7266 217.303 70.5692C216.955 70.4183 216.561 70.2281 216.135 69.9985C213.518 68.8703 211.504 69.2179 209.759 71.0612C210.632 74.2163 210.94 78.9129 210.527 83.2028C210.002 88.6603 208.421 92.9568 206.073 95.2985C203.961 97.3975 201.311 98.001 198.182 97.0958C196.955 97.5156 196.903 98.1388 196.784 99.5556C196.607 101.642 196.345 104.79 191.484 108.667C190.409 110.477 192.147 113.317 193.754 114.774C193.898 114.905 193.984 115.082 193.99 115.272C194.108 117.489 194.6 118.998 195.446 119.752C195.63 119.87 195.801 119.988 195.965 120.113C196.273 120.343 196.345 120.769 196.142 121.09C196.004 121.307 195.768 121.425 195.525 121.425V121.432ZM183.646 102.219C182.57 103.334 182.065 104.416 182.098 105.518C182.137 106.876 182.99 108.267 184.774 109.887C184.945 110.038 185.03 110.261 185.01 110.49C184.669 114.603 188.382 116.315 191.976 117.968C192.331 118.132 192.685 118.296 193.032 118.46C192.783 117.666 192.619 116.728 192.547 115.646C190.304 113.488 188.795 110.07 190.317 107.762C190.363 107.696 190.415 107.637 190.474 107.591C194.928 104.069 195.158 101.386 195.322 99.431C195.459 97.837 195.584 96.3349 197.965 95.633C198.103 95.5937 198.254 95.5937 198.392 95.633C201.055 96.4661 203.292 96.0004 205.036 94.2621C207.148 92.1631 208.578 88.1814 209.07 83.065C209.484 78.7686 209.156 74.072 208.244 71.094C208.172 70.8513 208.224 70.5954 208.388 70.4052C209.621 68.9752 210.999 68.1553 212.554 67.952C209.49 66.1743 205.738 64.1343 203.81 64.5082C203.751 64.5214 203.685 64.5279 203.619 64.5214C203.062 64.482 202.662 64.6001 202.34 64.9018C201.127 66.0497 201.199 69.6837 201.271 73.5275C201.415 80.9332 201.593 90.1493 193.636 92.4123C193.531 92.4451 193.419 92.4517 193.308 92.4254C190.71 91.9597 189.149 91.9663 188.539 92.432C188.133 92.7469 188.067 93.3831 187.982 94.4786C187.831 96.4792 187.601 99.49 183.659 102.212L183.646 102.219Z" fill="#020202"/>
<path d="M159.559 217.777C160.247 219.305 159.992 218.682 161.874 218.42C162.806 218.289 166.682 219.253 173.445 214.091C175.111 212.818 176.298 211.48 177.295 211.336C178.286 211.198 179.034 212.201 179.65 215.442C179.801 215.455 179.946 215.442 180.083 215.429C183.258 214.983 183.232 207.052 186.17 205.445C187.443 205.983 188.584 207.092 189.391 206.98C189.988 206.895 189.995 208.174 191.208 209.158C191.503 209.401 191.582 209.788 192.015 209.722C192.389 209.67 193.025 209.276 194.298 208.154C198.286 202.284 206.079 198.236 201.743 192.851C200.66 183.386 208.158 175.35 205.331 165.616C205.705 164.094 206.511 163.589 207.443 163.458C207.974 163.386 208.538 163.432 209.083 163.484C209.627 163.537 210.152 163.589 210.605 163.523C211.202 163.438 211.661 163.15 211.838 162.376C210.546 155.055 219.289 150.693 216.593 143.156C215.282 138.309 209.916 127.335 210.086 121.536C209.07 120.716 207.935 120.493 206.826 120.651C202.458 121.267 198.627 127.84 205.154 127.243C204.321 129.158 203.757 129.893 203.33 129.952C202.759 130.031 202.431 128.909 202.005 127.794C201.579 126.679 201.054 125.583 200.09 125.715C199.755 125.76 199.375 125.957 198.922 126.351C182.865 144.816 200.536 162.658 170.224 182.644C168.316 183.615 164.728 187.512 162.655 187.807C162.228 187.866 161.868 187.774 161.599 187.472C161.179 184.455 167.856 179.227 163.186 177.653C162.865 177.626 162.55 177.639 162.235 177.679C157.965 178.276 154.974 185.216 152.324 192.11C149.673 199.004 147.365 205.845 144.465 206.252C143.501 206.39 142.478 205.819 141.349 204.304C139.618 204.35 137.939 204.494 136.299 204.724C118.968 207.157 106.387 219.371 91.2021 228.148C86.7023 236.504 101.927 231.519 104.124 234.635C104.452 235.632 104.793 235.986 105.128 235.94C106.191 235.789 107.253 231.618 108.04 230.614C109.155 230.194 109.969 229.965 110.533 229.886C115.61 229.171 100.49 240.886 104.813 241.621C110.021 241.765 108.053 249.61 113.793 248.803C114.377 248.718 115.046 248.548 115.813 248.266C116.076 241.804 118.47 238.82 121.92 238.334C123.868 238.059 126.151 238.584 128.578 239.738C132.37 232.956 136.935 226.527 125.639 225.216C119.559 228.358 116.673 229.643 115.931 229.748C114.292 229.978 123.068 224.468 131.117 220.375C131.727 219.942 132.219 219.725 132.606 219.666C133.977 219.476 134.095 221.345 134.029 223.235C133.97 225.13 133.727 227.046 134.37 226.954C134.797 226.895 135.623 225.937 137.158 223.49C137.873 221.746 138.286 221.011 138.522 220.978C139.073 220.899 138.673 224.599 138.89 228.207C139.106 231.821 139.939 235.343 142.957 234.917C145.357 234.582 149.136 231.749 155.078 224.481C158.017 223.09 158.168 222.854 158.384 221.037C158.594 219.259 158.352 219.043 157.702 218.256C157.138 217.567 159.342 217.357 159.526 217.77L159.559 217.777ZM160.352 215.822C160.32 215.711 160.333 215.665 160.352 215.658C160.372 215.658 160.398 215.717 160.352 215.822Z" fill="white"/>
<path d="M90.9587 235.015C87.1935 235.547 82.7134 238.708 76.1998 244.422C74.291 249.978 78.3317 255.914 81.4081 255.481C83.0086 255.258 84.3467 253.316 84.4648 248.718C91.044 248.574 76.4753 268.751 85.6062 272.162C85.7833 272.208 85.9538 272.214 86.1178 272.195C87.1476 272.05 87.9348 270.66 88.4727 269.308C89.0105 267.951 89.2926 266.632 89.3057 266.632C89.3254 266.632 89.1024 267.826 88.6366 271.322C88.9909 272.719 89.6271 273.257 90.4339 273.146C95.0977 272.49 105.665 250.129 103.376 244.258C98.8104 237.429 95.3798 234.399 90.9521 235.022L90.9587 235.015Z" fill="white"/>
<path d="M251.372 88.2206C250.743 88.6142 250.231 88.8306 249.805 88.8896C247.811 89.1717 247.922 86.0428 248.381 82.868C248.834 79.6932 249.634 76.466 249.011 76.5578C248.762 76.5906 248.276 77.1613 247.456 78.4797C245.082 80.7362 242.747 81.8579 240.464 82.1793C235.118 82.9336 230.054 79.2865 225.377 75.587C220.7 71.8874 216.417 68.1354 212.625 68.6667C211.333 68.8504 210.1 69.526 208.932 70.8773C211.13 77.2072 210.205 95.4885 202.393 96.5839C201.546 96.702 200.622 96.6233 199.611 96.3019C199.041 96.2625 198.562 96.2756 198.162 96.3281C193.826 96.9381 198.765 102.848 192.134 106.535C188.605 110.156 190.946 113.219 193.249 115.311C193.505 120.087 195.42 121.385 197.906 121.038C200.359 120.69 203.37 118.735 205.869 116.938C208.211 113.166 199.533 114.478 198.313 111.828C197.703 110.654 199.447 109.322 200.91 109.113C201.691 109.001 202.386 109.218 202.596 109.939C204.99 108.037 207.24 107.118 209.352 106.823C212.875 106.331 215.997 107.565 218.713 108.857C221.422 110.156 223.724 111.5 225.607 111.238C226.184 111.159 226.728 110.923 227.227 110.484C226.676 93.9077 253.891 100.552 251.372 88.2075V88.2206Z" fill="white"/>
<path d="M113.031 249.59C110.19 249.59 109.18 247.413 108.354 245.628C107.554 243.897 106.858 242.401 104.818 242.349C104.785 242.349 104.753 242.349 104.713 242.336C103.861 242.191 103.533 241.726 103.401 241.358C102.896 239.922 104.687 237.81 107.652 234.471C108.76 233.224 110.361 231.427 110.774 230.588C110.735 230.588 110.696 230.594 110.656 230.601C110.171 230.666 109.456 230.876 108.531 231.211C108.301 231.598 108.006 232.339 107.737 233.008C106.858 235.186 106.255 236.517 105.251 236.662C104.189 236.812 103.683 235.553 103.493 234.982C102.785 234.182 100.161 234.162 97.8324 234.143C94.7494 234.123 91.568 234.097 90.2561 232.483C89.7117 231.814 89.5412 230.955 89.7511 229.938C90.0069 228.672 90.8465 227.531 92.0534 226.816C95.9367 224.507 99.7149 221.955 103.362 219.489C113.805 212.431 123.67 205.766 136.212 204.002C137.904 203.766 139.629 203.621 141.341 203.576C141.578 203.582 141.807 203.68 141.945 203.871C142.837 205.071 143.657 205.635 144.372 205.53C146.569 205.222 148.767 199.43 150.892 193.828C151.141 193.172 151.391 192.516 151.646 191.854C154.401 184.678 157.484 177.613 162.135 176.964C162.496 176.911 162.87 176.898 163.244 176.931C163.303 176.931 163.362 176.951 163.421 176.97C164.47 177.324 165.146 177.895 165.435 178.669C165.986 180.165 164.903 181.969 163.854 183.713C163.152 184.881 162.371 186.186 162.312 187.098C162.371 187.111 162.45 187.111 162.555 187.098C163.604 186.947 165.441 185.432 166.91 184.212C167.999 183.307 169.036 182.454 169.849 182.028C187.31 170.503 188.576 159.601 189.796 149.066C190.669 141.51 191.581 133.697 198.363 125.891C198.383 125.865 198.409 125.839 198.435 125.819C198.98 125.347 199.485 125.085 199.983 125.012C200.351 124.96 200.666 125.012 200.948 125.137C201.223 122.894 203.972 120.329 206.72 119.942C208.124 119.745 209.449 120.106 210.538 120.985C210.715 121.129 210.813 121.346 210.807 121.575C210.695 125.354 213.109 131.624 215.044 136.662C216.015 139.194 216.854 141.378 217.294 142.985C218.822 147.249 216.913 150.562 215.064 153.776C213.483 156.511 211.994 159.096 212.558 162.27C212.578 162.369 212.571 162.467 212.551 162.559C212.394 163.241 211.948 164.087 210.708 164.264C210.19 164.337 209.626 164.284 209.075 164.232C208.465 164.173 207.979 164.14 207.546 164.199C206.976 164.278 206.412 164.514 206.09 165.622C207.599 171.073 206.025 176.006 204.503 180.781C203.237 184.756 202.036 188.508 202.45 192.575C205.69 196.806 202.246 200.414 198.914 203.897C197.504 205.373 196.041 206.901 194.906 208.574C194.874 208.626 194.834 208.672 194.788 208.712C193.26 210.063 192.617 210.384 192.119 210.456C191.377 210.568 189.226 208.607 189.206 208.587C188.931 208.292 188.944 207.833 189.239 207.557C189.528 207.288 189.974 207.295 190.256 207.577C190.466 207.767 191.594 208.653 192.073 208.954C192.296 208.843 192.774 208.541 193.752 207.682C194.946 205.943 196.428 204.395 197.858 202.893C201.571 199.01 203.716 196.472 201.177 193.323C201.092 193.218 201.033 193.087 201.02 192.949C200.515 188.495 201.833 184.35 203.112 180.342C204.654 175.501 206.116 170.935 204.634 165.839C204.601 165.714 204.595 165.583 204.627 165.458C205.014 163.864 205.933 162.953 207.35 162.756C207.94 162.671 208.544 162.716 209.16 162.775C209.705 162.828 210.164 162.867 210.511 162.821C210.82 162.775 210.997 162.697 211.102 162.362C210.524 158.741 212.197 155.849 213.811 153.048C215.569 149.991 217.235 147.105 215.916 143.425C215.483 141.838 214.657 139.679 213.699 137.187C211.777 132.189 209.403 126.003 209.363 121.923C208.648 121.444 207.835 121.267 206.943 121.392C204.398 121.752 202.26 124.304 202.417 125.642C202.535 126.659 204.332 126.606 205.1 126.534C205.356 126.515 205.605 126.626 205.756 126.836C205.907 127.046 205.939 127.321 205.834 127.558C204.883 129.735 204.234 130.588 203.447 130.7C202.364 130.857 201.925 129.663 201.499 128.509L201.341 128.082C201.066 127.361 200.639 126.41 200.213 126.462C200.101 126.475 199.859 126.554 199.459 126.888C192.998 134.34 192.158 141.575 191.272 149.237C190.013 160.112 188.708 171.362 170.649 183.274C170.63 183.287 170.603 183.3 170.577 183.313C169.895 183.661 168.911 184.474 167.868 185.34C166.084 186.816 164.241 188.338 162.784 188.548C161.906 188.672 161.374 188.305 161.086 187.984C160.987 187.872 160.922 187.741 160.902 187.597C160.705 186.173 161.682 184.546 162.627 182.972C163.454 181.588 164.398 180.027 164.09 179.187C163.972 178.866 163.631 178.604 163.067 178.4C162.83 178.387 162.594 178.4 162.365 178.426C158.501 178.971 155.523 185.924 153.037 192.398C152.781 193.054 152.532 193.717 152.283 194.366C149.797 200.912 147.645 206.567 144.595 207C143.375 207.17 142.207 206.54 141.027 205.071C139.492 205.124 137.944 205.255 136.428 205.471C124.221 207.19 114.493 213.762 104.195 220.722C100.528 223.202 96.7304 225.766 92.8143 228.095C91.9616 228.607 91.3713 229.387 91.1941 230.253C91.0761 230.837 91.1417 231.276 91.4041 231.591C92.2765 232.667 95.2414 232.693 97.852 232.713C100.994 232.739 103.703 232.759 104.753 234.241C104.792 234.3 104.825 234.366 104.851 234.431C104.969 234.786 105.067 234.995 105.14 235.12C105.527 234.648 106.078 233.277 106.392 232.49C106.793 231.506 107.134 230.653 107.494 230.187C107.58 230.082 107.685 229.997 107.816 229.951C108.957 229.525 109.823 229.269 110.466 229.184C111.351 229.059 111.942 229.256 112.217 229.768C112.795 230.843 111.502 232.378 108.754 235.468C107.317 237.081 104.654 240.079 104.785 240.879C104.805 240.879 104.838 240.892 104.923 240.912C107.822 241.024 108.852 243.247 109.685 245.038C110.696 247.216 111.378 248.429 113.719 248.101C114.146 248.042 114.618 247.924 115.136 247.76C115.589 240.125 119.013 238.033 121.847 237.632C123.729 237.37 125.894 237.764 128.301 238.813C128.544 238.38 128.793 237.954 129.036 237.534C130.997 234.136 132.853 230.929 131.876 228.987C131.227 227.695 129.226 226.835 125.927 226.422C125.513 226.639 125.002 226.921 124.431 227.229C120.987 229.112 118.016 230.673 116.52 230.765C116.12 230.791 115.773 230.483 115.746 230.082C115.72 229.682 116.028 229.335 116.429 229.308C117.721 229.23 121.479 227.177 123.729 225.95C124.405 225.583 124.995 225.255 125.448 225.025C125.579 224.959 125.723 224.933 125.868 224.946C129.928 225.419 132.257 226.494 133.175 228.331C134.506 230.975 132.552 234.353 130.295 238.262C129.948 238.872 129.587 239.489 129.239 240.112C129.049 240.446 128.636 240.578 128.288 240.414C125.894 239.279 123.795 238.833 122.043 239.075C117.806 239.672 116.724 244.428 116.566 248.311C116.553 248.606 116.363 248.862 116.087 248.967C115.3 249.256 114.572 249.453 113.923 249.544C113.608 249.59 113.313 249.61 113.031 249.61V249.59ZM202.791 127.807L202.856 127.977C202.988 128.332 203.171 128.83 203.322 129.099C203.453 128.942 203.676 128.627 203.991 128.004C203.519 127.977 203.125 127.912 202.791 127.807ZM142.496 235.691C141.702 235.691 141 235.448 140.403 234.956C139.098 233.887 138.39 231.755 138.18 228.252C138.088 226.776 138.101 225.274 138.114 224.067C138.114 223.759 138.114 223.438 138.114 223.129C138.035 223.32 137.944 223.529 137.845 223.772C137.832 223.812 137.812 223.851 137.786 223.884C135.871 226.94 135.123 227.59 134.48 227.682C134.179 227.721 133.896 227.636 133.68 227.439C133.155 226.96 133.175 226.061 133.26 224.251C133.28 223.916 133.293 223.562 133.306 223.215C133.372 221.247 133.142 220.611 132.939 220.433C132.913 220.414 132.873 220.374 132.709 220.394C132.512 220.42 132.152 220.545 131.542 220.971C131.515 220.991 131.483 221.011 131.45 221.024C128.249 222.651 120.43 226.98 117.747 228.58C117.399 228.784 116.953 228.672 116.743 228.324C116.54 227.977 116.652 227.531 116.999 227.321C119.682 225.727 127.488 221.404 130.741 219.745C131.41 219.279 131.988 219.017 132.506 218.944C133.195 218.846 133.654 219.108 133.916 219.345C134.749 220.092 134.821 221.667 134.769 223.261C134.756 223.615 134.743 223.976 134.723 224.323C134.697 224.795 134.67 225.366 134.677 225.812C135.025 225.406 135.602 224.631 136.52 223.162C137.498 220.794 137.872 220.342 138.436 220.263C138.678 220.224 138.928 220.302 139.111 220.466C139.577 220.873 139.59 221.608 139.57 224.087C139.557 225.333 139.551 226.75 139.636 228.174C139.813 231.158 140.384 233.06 141.328 233.834C141.742 234.176 142.247 234.3 142.876 234.208C144.595 233.966 148.012 232.004 154.533 224.035C154.605 223.949 154.69 223.884 154.788 223.838C158.272 222.191 158.153 220.866 157.766 219.758C157.635 219.377 157.832 218.958 158.213 218.826C158.593 218.695 159.013 218.892 159.144 219.272C159.977 221.647 158.836 223.497 155.562 225.084C150.059 231.788 145.979 235.245 143.08 235.651C142.876 235.678 142.686 235.691 142.496 235.691ZM161.217 219.194C160.082 219.194 159.032 218.826 158.199 218.118C157.891 217.856 157.852 217.396 158.114 217.088C158.376 216.78 158.836 216.74 159.144 217.003C159.846 217.593 160.751 217.836 161.768 217.692C162.056 217.652 162.417 217.646 162.876 217.639C164.011 217.626 165.723 217.6 167.094 216.937C169.311 215.868 171.43 214.799 172.971 213.52C173.332 213.225 173.673 212.929 174.001 212.647C175.234 211.585 176.205 210.745 177.189 210.607C178.973 210.358 179.747 212.398 180.233 214.635C181.308 214.235 181.951 212.313 182.574 210.45C183.296 208.298 184.037 206.075 185.677 205.176C185.874 205.071 186.11 205.058 186.313 205.143C186.858 205.379 187.376 205.694 187.829 205.983C188.058 206.127 188.281 206.265 188.498 206.383C188.852 206.58 188.977 207.019 188.786 207.373C188.59 207.728 188.15 207.852 187.796 207.662C187.56 207.531 187.317 207.38 187.061 207.223C186.746 207.026 186.418 206.822 186.097 206.652C185.139 207.419 184.549 209.197 183.972 210.909C183.158 213.336 182.319 215.842 180.193 216.137C180.003 216.163 179.806 216.17 179.61 216.157C179.275 216.137 179 215.894 178.941 215.566C178.494 213.225 177.95 211.965 177.406 212.05C176.848 212.129 175.936 212.916 174.972 213.749C174.637 214.038 174.29 214.34 173.922 214.641C172.25 216.019 170.046 217.134 167.75 218.249C166.084 219.056 164.182 219.076 162.916 219.095C162.522 219.095 162.188 219.102 161.991 219.135C161.735 219.167 161.486 219.187 161.236 219.187L161.217 219.194Z" fill="#020202"/>
<path d="M90.2377 273.887C89.5293 273.887 88.5323 273.527 88.0009 271.729C87.4631 272.431 86.8727 272.825 86.2233 272.917C85.9609 272.956 85.692 272.936 85.4296 272.871C85.4034 272.871 85.3771 272.858 85.3575 272.844C79.631 270.706 82.0252 263.156 83.9472 257.089C84.9049 254.071 85.9872 250.654 85.2853 249.709C85.2656 249.683 85.2328 249.637 85.1607 249.591C84.8327 254.917 82.7599 256.026 81.5136 256.203C80.123 256.4 78.5946 255.619 77.3155 254.071C75.6232 252.018 74.1276 248.194 75.5051 244.179C75.5445 244.061 75.6166 243.95 75.715 243.865C81.7957 238.538 86.6956 234.871 90.8543 234.288C95.9839 233.566 99.6834 237.41 103.986 243.838C104.013 243.884 104.039 243.93 104.059 243.976C105.817 248.476 101.048 260.126 97.2695 266.58C95.4329 269.722 92.7697 273.54 90.5395 273.855C90.4476 273.868 90.3427 273.874 90.2312 273.874L90.2377 273.887ZM89.3916 271.27C89.7392 272.503 90.1918 272.438 90.3427 272.418C91.3069 272.28 93.301 270.49 96.0101 265.859C100.241 258.623 104.019 248.161 102.727 244.593C98.0435 237.607 94.8819 235.213 91.0577 235.744C87.286 236.275 82.6353 239.758 76.8236 244.842C75.82 248.004 76.8957 251.277 78.4372 253.146C79.3687 254.281 80.4444 254.878 81.3037 254.76C82.7337 254.557 83.6389 252.294 83.7307 248.705C83.7438 248.318 84.0521 248.004 84.4457 247.99C85.3378 247.964 86.0134 248.259 86.4529 248.837C87.6074 250.378 86.6038 253.533 85.3378 257.528C83.5143 263.274 81.4546 269.781 85.8232 271.46C85.8888 271.473 85.9544 271.473 86.02 271.467C86.5579 271.388 87.2269 270.483 87.7976 269.033C88.1846 268.049 88.4404 267.072 88.5454 266.659C88.6175 266.383 88.7225 265.963 89.221 265.904C89.444 265.872 89.6736 265.95 89.831 266.114C90.1 266.383 90.0672 266.6 89.9754 267.177C89.8835 267.774 89.6867 269.033 89.3916 271.277V271.27Z" fill="#020202"/>
<path d="M197.184 121.825C196.167 121.825 195.295 121.529 194.593 120.952C193.399 119.968 192.73 118.237 192.546 115.652C191.254 114.445 189.673 112.661 189.608 110.444C189.562 108.929 190.237 107.446 191.621 106.029C191.674 105.977 191.726 105.938 191.792 105.898C195.085 104.068 195.209 101.72 195.321 99.647C195.413 97.9219 195.518 95.9606 198.069 95.6064C198.529 95.5408 199.053 95.5277 199.67 95.5736C199.729 95.5736 199.788 95.5867 199.84 95.6064C200.713 95.8819 201.539 95.9671 202.3 95.8622C203.842 95.6457 205.18 94.6224 206.282 92.812C209.739 87.1577 209.857 75.7508 208.25 71.1132C208.164 70.864 208.217 70.595 208.387 70.3982C209.614 68.9814 211.011 68.1549 212.533 67.9384C216.305 67.4071 220.359 70.6409 224.648 74.065L225.836 75.0096C230.441 78.6566 235.36 82.1528 240.365 81.451C242.635 81.1296 244.766 80.0079 246.892 78.0072C247.994 76.2559 248.44 75.8951 248.912 75.8295C249.194 75.7901 249.47 75.882 249.66 76.0853C250.158 76.5969 250.021 77.5218 249.529 80.3621C249.384 81.182 249.233 82.0741 249.102 82.9662C248.591 86.528 248.899 87.7022 249.253 88.0564C249.299 88.1023 249.397 88.2007 249.699 88.1613C249.929 88.1285 250.335 88.0039 250.978 87.5972C251.182 87.466 251.437 87.4464 251.654 87.5447C251.877 87.6366 252.034 87.8334 252.08 88.0695C253.399 94.5175 247.305 96.341 241.415 98.1121C234.658 100.139 227.679 102.231 227.948 110.464C227.954 110.68 227.863 110.89 227.699 111.034C227.115 111.546 226.439 111.861 225.698 111.966C223.888 112.222 221.9 111.244 219.604 110.116C219.211 109.919 218.804 109.722 218.384 109.526C215.669 108.233 212.71 107.099 209.444 107.558C207.259 107.866 205.167 108.837 203.042 110.523C202.851 110.674 202.595 110.719 202.366 110.647C202.136 110.575 201.953 110.391 201.887 110.155C201.808 109.88 201.507 109.775 201.001 109.847C200.195 109.959 199.27 110.523 198.981 111.074C198.87 111.29 198.902 111.408 198.948 111.493C199.335 112.327 201.179 112.727 202.668 113.055C204.544 113.461 206.315 113.848 206.846 115.095C207.122 115.744 206.997 116.498 206.479 117.331C206.426 117.41 206.361 117.482 206.282 117.541C203.658 119.424 200.614 121.398 197.991 121.772C197.702 121.812 197.427 121.831 197.164 121.831L197.184 121.825ZM192.592 107.125C191.53 108.233 191.031 109.309 191.064 110.405C191.103 111.762 191.956 113.153 193.74 114.773C193.884 114.904 193.97 115.082 193.976 115.272C194.101 117.554 194.613 119.083 195.511 119.817C196.082 120.29 196.83 120.447 197.8 120.309C200.083 119.988 203.002 118.086 205.318 116.433C205.449 116.197 205.6 115.862 205.508 115.659C205.278 115.108 203.665 114.76 202.366 114.478C200.378 114.045 198.319 113.599 197.65 112.136C197.381 111.618 197.387 110.995 197.696 110.405C198.266 109.296 199.696 108.555 200.811 108.397C201.625 108.279 202.32 108.47 202.779 108.889C204.898 107.335 207.023 106.423 209.253 106.108C212.9 105.596 216.108 106.817 219.027 108.207C219.447 108.41 219.86 108.614 220.26 108.811C222.34 109.834 224.137 110.719 225.501 110.529C225.862 110.477 226.183 110.352 226.485 110.149C226.393 101.103 234.147 98.7746 241.001 96.7215C247.167 94.8717 251.07 93.4745 250.788 89.3617C250.473 89.4929 250.178 89.5782 249.903 89.6175C249.056 89.7356 248.518 89.4011 248.217 89.0993C247.312 88.1941 247.148 86.2984 247.653 82.7694C247.784 81.8642 247.941 80.959 248.086 80.126C248.184 79.5684 248.289 78.9452 248.374 78.4008C248.282 78.5386 248.184 78.696 248.072 78.8731C248.04 78.9256 248 78.9715 247.954 79.0174C245.613 81.2411 243.127 82.553 240.562 82.9137C234.98 83.7009 229.771 80.0144 224.917 76.1706L223.724 75.2195C219.689 71.9987 215.878 68.9551 212.723 69.3946C211.648 69.5455 210.677 70.0899 209.752 71.0607C211.346 76.2821 211.136 87.6563 207.515 93.5795C206.17 95.7769 204.478 97.0298 202.491 97.3118C201.539 97.4496 200.529 97.3512 199.473 97.0298C199.001 97.0035 198.594 97.0101 198.26 97.056C196.967 97.2397 196.869 97.8825 196.771 99.7323C196.653 101.917 196.489 104.908 192.586 107.125H192.592Z" fill="#020202"/>
</g>
<g clip-path="url(#clip1_227_43187)">
<path d="M108.117 198.876C107.566 198.876 107.057 198.527 106.88 197.975C106.659 197.289 107.033 196.554 107.713 196.333L172.417 175.3L109.949 116.913C109.422 116.423 109.398 115.596 109.888 115.075C110.378 114.548 111.205 114.523 111.726 115.014L175.811 174.908C176.148 175.221 176.295 175.692 176.191 176.14C176.093 176.587 175.762 176.955 175.321 177.095L108.516 198.809C108.381 198.851 108.246 198.87 108.111 198.87L108.117 198.876Z" fill="#020202"/>
<path d="M144.927 262.227C144.786 262.227 144.639 262.202 144.492 262.153C143.812 261.914 143.457 261.173 143.696 260.493L173.692 175.423C173.925 174.768 174.629 174.412 175.297 174.608L258.289 199.563C258.976 199.771 259.368 200.494 259.159 201.186C258.951 201.872 258.228 202.264 257.536 202.056L175.732 177.464L146.146 261.363C145.956 261.896 145.454 262.233 144.921 262.233L144.927 262.227Z" fill="#020202"/>
<path d="M174.922 177.163C174.683 177.163 174.438 177.095 174.223 176.961C173.617 176.575 173.439 175.766 173.825 175.159L209.17 119.78C209.556 119.173 210.365 118.996 210.971 119.382C211.578 119.768 211.756 120.576 211.37 121.183L176.025 176.562C175.773 176.954 175.357 177.163 174.928 177.163H174.922Z" fill="#020202"/>
<path d="M107.671 220.682C120.069 220.682 130.119 210.631 130.119 198.233C130.119 185.836 120.069 175.785 107.671 175.785C95.2731 175.785 85.2227 185.836 85.2227 198.233C85.2227 210.631 95.2731 220.682 107.671 220.682Z" fill="#FDD000"/>
<path d="M107.67 221.368C94.9138 221.368 84.5352 210.989 84.5352 198.233C84.5352 185.477 94.9138 175.099 107.67 175.099C120.425 175.099 130.804 185.477 130.804 198.233C130.804 210.989 120.425 221.368 107.67 221.368ZM107.67 176.465C95.6674 176.465 85.9014 186.231 85.9014 198.233C85.9014 210.235 95.6674 220.001 107.67 220.001C119.672 220.001 129.438 210.235 129.438 198.233C129.438 186.231 119.672 176.465 107.67 176.465Z" fill="#020202"/>
<path d="M107.981 196.359C106.26 196.359 104.709 195.764 103.607 194.68C102.498 193.583 101.885 192.027 101.879 190.287C101.873 188.553 102.498 186.966 103.643 185.814C104.765 184.693 106.296 184.068 107.969 184.068H107.975C109.617 184.068 111.155 184.706 112.313 185.87C113.483 187.046 114.12 188.608 114.114 190.281C114.096 193.718 111.486 196.334 108.042 196.359C108.024 196.359 108 196.359 107.981 196.359ZM107.975 185.435H107.969C106.664 185.435 105.469 185.912 104.611 186.776C103.729 187.665 103.239 188.908 103.245 190.281C103.245 191.672 103.711 192.86 104.569 193.712C105.432 194.563 106.609 195.011 108.03 194.998C110.75 194.974 112.735 192.989 112.748 190.275C112.754 188.97 112.258 187.751 111.345 186.832C110.444 185.931 109.249 185.435 107.975 185.435Z" fill="#020202"/>
<path d="M96.2504 211.504C95.8705 211.504 95.5703 211.198 95.5703 210.818C95.5703 208.233 95.5826 205.69 95.5826 204.226C95.5948 199.857 98.554 196.911 102.941 196.892C104.668 196.886 108.118 196.88 108.118 196.88C108.118 196.88 111.334 196.88 112.946 196.886C117.339 196.904 120.304 199.839 120.31 204.195C120.31 206.401 120.316 208.606 120.316 210.812C120.316 211.192 120.01 211.492 119.636 211.492C119.256 211.492 118.956 211.186 118.956 210.812C118.956 208.606 118.956 206.407 118.95 204.201C118.938 200.599 116.585 198.265 112.946 198.252C111.34 198.252 108.124 198.246 108.124 198.246C108.124 198.246 104.675 198.246 102.953 198.258C99.3199 198.271 96.9672 200.617 96.9549 204.232C96.9549 205.69 96.9427 208.239 96.9427 210.818C96.9427 211.192 96.6364 211.498 96.2626 211.498L96.2504 211.504Z" fill="#020202"/>
<path d="M114.047 210.824C114.047 208.563 114.047 206.86 114.047 206.033C114.047 205.727 114.384 205.481 114.794 205.481H114.843C115.254 205.481 115.591 205.733 115.591 206.039C115.591 206.921 115.591 208.759 115.591 210.83H114.053L114.047 210.824Z" fill="#020202"/>
<path d="M100.32 210.824C100.32 208.784 100.32 206.928 100.32 206.033C100.32 205.727 100.651 205.476 101.068 205.476C101.478 205.476 101.815 205.721 101.815 206.027C101.815 206.854 101.815 208.557 101.815 210.818H100.326L100.32 210.824Z" fill="#020202"/>
<path d="M107.981 196.359C106.26 196.359 104.709 195.764 103.607 194.68C102.498 193.583 101.885 192.027 101.879 190.287C101.873 188.553 102.498 186.966 103.643 185.814C104.765 184.693 106.296 184.068 107.969 184.068H107.975C109.617 184.068 111.155 184.706 112.313 185.87C113.483 187.046 114.12 188.608 114.114 190.281C114.096 193.718 111.486 196.334 108.042 196.359C108.024 196.359 108 196.359 107.981 196.359ZM107.975 185.435H107.969C106.664 185.435 105.469 185.912 104.611 186.776C103.729 187.665 103.239 188.908 103.245 190.281C103.245 191.672 103.711 192.86 104.569 193.712C105.432 194.563 106.609 195.011 108.03 194.998C110.75 194.974 112.735 192.989 112.748 190.275C112.754 188.97 112.258 187.751 111.345 186.832C110.444 185.931 109.249 185.435 107.975 185.435Z" fill="#020202"/>
<path d="M231.665 126.293C234.513 114.227 227.04 102.137 214.974 99.2888C202.907 96.4409 190.817 103.914 187.969 115.98C185.121 128.046 192.594 140.137 204.66 142.985C216.727 145.833 228.817 138.36 231.665 126.293Z" fill="#FDD000"/>
<path d="M209.818 144.275C197.062 144.275 186.684 133.896 186.684 121.14C186.684 108.385 197.062 98.0059 209.818 98.0059C222.574 98.0059 232.952 108.385 232.952 121.14C232.952 133.896 222.574 144.275 209.818 144.275ZM209.818 99.3721C197.816 99.3721 188.05 109.138 188.05 121.14C188.05 133.143 197.816 142.909 209.818 142.909C221.82 142.909 231.586 133.143 231.586 121.14C231.586 109.138 221.82 99.3721 209.818 99.3721Z" fill="#020202"/>
<path d="M210.137 119.266C208.416 119.266 206.866 118.671 205.763 117.587C204.654 116.49 204.041 114.934 204.035 113.194C204.029 111.46 204.654 109.874 205.8 108.722C206.921 107.601 208.453 106.976 210.125 106.976C211.767 107 213.311 107.613 214.469 108.777C215.639 109.953 216.276 111.515 216.27 113.188C216.252 116.625 213.642 119.241 210.199 119.272H210.137V119.266ZM205.401 113.182C205.401 114.573 205.867 115.761 206.725 116.613C207.589 117.465 208.765 117.918 210.186 117.9C212.907 117.875 214.892 115.89 214.904 113.176C214.91 111.871 214.414 110.652 213.501 109.733C212.6 108.832 211.406 108.336 210.131 108.336H210.125C208.82 108.336 207.625 108.814 206.768 109.677C205.885 110.566 205.395 111.81 205.401 113.182Z" fill="#020202"/>
<path d="M198.407 134.412C198.027 134.412 197.727 134.105 197.727 133.725C197.727 131.14 197.739 128.597 197.739 127.133C197.751 122.765 200.71 119.818 205.097 119.799C206.825 119.793 210.274 119.787 210.274 119.787C210.274 119.787 213.491 119.787 215.102 119.793C219.495 119.812 222.454 122.746 222.466 127.102C222.466 129.308 222.472 131.514 222.472 133.719C222.472 134.099 222.166 134.399 221.792 134.399C221.412 134.399 221.112 134.093 221.112 133.719C221.112 131.514 221.112 129.314 221.106 127.109C221.094 123.506 218.741 121.172 215.102 121.159C213.497 121.159 210.28 121.153 210.28 121.153C210.28 121.153 206.831 121.153 205.109 121.166C201.476 121.178 199.123 123.524 199.111 127.139C199.111 128.597 199.099 131.14 199.099 133.725C199.099 134.099 198.793 134.405 198.419 134.405L198.407 134.412Z" fill="#020202"/>
<path d="M216.199 133.731C216.199 131.47 216.199 129.767 216.199 128.94C216.199 128.634 216.536 128.389 216.947 128.389H216.996C217.406 128.389 217.743 128.64 217.743 128.946C217.743 129.828 217.743 131.666 217.743 133.737H216.205L216.199 133.731Z" fill="#020202"/>
<path d="M202.469 133.73C202.469 131.69 202.469 129.834 202.469 128.939C202.469 128.633 202.8 128.382 203.216 128.382C203.627 128.382 203.964 128.627 203.964 128.933C203.964 129.76 203.964 131.464 203.964 133.724H202.475L202.469 133.73Z" fill="#020202"/>
<path d="M210.137 119.266C208.416 119.266 206.866 118.671 205.763 117.587C204.654 116.49 204.041 114.934 204.035 113.194C204.029 111.46 204.654 109.874 205.8 108.722C206.921 107.601 208.453 106.976 210.125 106.976C211.767 107 213.311 107.613 214.469 108.777C215.639 109.953 216.276 111.515 216.27 113.188C216.252 116.625 213.642 119.241 210.199 119.272H210.137V119.266ZM205.401 113.182C205.401 114.573 205.867 115.761 206.725 116.613C207.589 117.465 208.765 117.918 210.186 117.9C212.907 117.875 214.892 115.89 214.904 113.176C214.91 111.871 214.414 110.652 213.501 109.733C212.6 108.832 211.406 108.336 210.131 108.336H210.125C208.82 108.336 207.625 108.814 206.768 109.677C205.885 110.566 205.395 111.81 205.401 113.182Z" fill="#020202"/>
<path d="M144.927 285.404C159.806 285.404 171.867 273.343 171.867 258.465C171.867 243.586 159.806 231.525 144.927 231.525C130.049 231.525 117.988 243.586 117.988 258.465C117.988 273.343 130.049 285.404 144.927 285.404Z" fill="#FDD000"/>
<path d="M144.926 286.09C129.695 286.09 117.301 273.695 117.301 258.464C117.301 243.233 129.695 230.839 144.926 230.839C160.157 230.839 172.551 243.233 172.551 258.464C172.551 273.695 160.157 286.09 144.926 286.09ZM144.926 232.205C130.449 232.205 118.667 243.987 118.667 258.464C118.667 272.942 130.449 284.723 144.926 284.723C159.404 284.723 171.185 272.942 171.185 258.464C171.185 243.987 159.404 232.205 144.926 232.205Z" fill="#020202"/>
<path d="M145.3 256.074C143.266 256.074 141.44 255.376 140.147 254.095C138.842 252.809 138.119 250.971 138.113 248.918C138.107 246.872 138.842 245.003 140.19 243.649C141.508 242.326 143.315 241.597 145.282 241.591H145.294C147.224 241.591 149.037 242.344 150.403 243.711C151.782 245.095 152.536 246.939 152.523 248.906C152.505 252.956 149.429 256.031 145.373 256.068C145.349 256.068 145.324 256.068 145.3 256.068V256.074ZM145.294 242.963H145.288C143.689 242.963 142.218 243.551 141.164 244.617C140.074 245.708 139.48 247.24 139.486 248.918C139.492 250.628 140.055 252.08 141.115 253.127C142.181 254.175 143.658 254.726 145.367 254.714C148.706 254.69 151.145 252.245 151.163 248.912C151.169 247.313 150.557 245.812 149.442 244.685C148.339 243.576 146.868 242.969 145.3 242.969L145.294 242.963Z" fill="#020202"/>
<path d="M131.219 274.253C130.839 274.253 130.539 273.946 130.539 273.566C130.539 270.466 130.551 267.409 130.557 265.657C130.576 260.498 134.068 257.018 139.251 256.994C141.322 256.988 145.464 256.981 145.464 256.981C145.464 256.981 149.324 256.981 151.253 256.994C156.449 257.012 159.947 260.48 159.96 265.632C159.966 268.279 159.972 270.926 159.972 273.573C159.972 273.952 159.665 274.253 159.292 274.253C158.912 274.253 158.612 273.946 158.612 273.573C158.612 270.926 158.612 268.285 158.599 265.638C158.587 261.233 155.708 258.378 151.253 258.366C149.324 258.36 145.47 258.354 145.47 258.354C145.47 258.354 141.334 258.354 139.263 258.366C134.822 258.384 131.942 261.252 131.93 265.669C131.93 267.421 131.918 270.472 131.911 273.573C131.911 273.946 131.605 274.253 131.231 274.253H131.219Z" fill="#020202"/>
<path d="M154.422 273.566C154.422 271.085 154.422 268.879 154.428 267.819C154.428 267.452 154.03 267.151 153.534 267.151H153.473C152.976 267.151 152.578 267.445 152.578 267.819C152.578 268.812 152.578 270.852 152.578 273.566H154.422Z" fill="#020202"/>
<path d="M137.887 273.566C137.887 270.852 137.887 268.812 137.887 267.819C137.887 267.452 137.488 267.151 136.992 267.151C136.496 267.151 136.098 267.452 136.098 267.819C136.098 268.885 136.098 271.115 136.104 273.566H137.887Z" fill="#020202"/>
<path d="M145.3 256.074C143.266 256.074 141.44 255.376 140.147 254.095C138.842 252.809 138.119 250.971 138.113 248.918C138.107 246.872 138.842 245.003 140.19 243.649C141.508 242.326 143.315 241.597 145.282 241.591H145.294C147.224 241.591 149.037 242.344 150.403 243.711C151.782 245.095 152.536 246.939 152.523 248.906C152.505 252.956 149.429 256.031 145.373 256.068C145.349 256.068 145.324 256.068 145.3 256.068V256.074ZM145.294 242.963H145.288C143.689 242.963 142.218 243.551 141.164 244.617C140.074 245.708 139.48 247.24 139.486 248.918C139.492 250.628 140.055 252.08 141.115 253.127C142.181 254.175 143.658 254.726 145.367 254.714C148.706 254.69 151.145 252.245 151.163 248.912C151.169 247.313 150.557 245.812 149.442 244.685C148.339 243.576 146.868 242.969 145.3 242.969L145.294 242.963Z" fill="#020202"/>
<path d="M283.591 207.791C287.008 193.311 278.04 178.802 263.56 175.384C249.08 171.967 234.571 180.935 231.153 195.415C227.735 209.895 236.703 224.404 251.184 227.822C265.664 231.24 280.173 222.272 283.591 207.791Z" fill="#FDD000"/>
<path d="M257.375 229.228C242.144 229.228 229.75 216.834 229.75 201.603C229.75 186.372 242.144 173.978 257.375 173.978C272.606 173.978 285.001 186.372 285.001 201.603C285.001 216.834 272.606 229.228 257.375 229.228ZM257.375 175.35C242.898 175.35 231.116 187.132 231.116 201.609C231.116 216.086 242.898 227.868 257.375 227.868C271.853 227.868 283.634 216.086 283.634 201.609C283.634 187.132 271.853 175.35 257.375 175.35Z" fill="#020202"/>
<path d="M257.757 199.22C255.723 199.22 253.897 198.521 252.604 197.241C251.299 195.954 250.576 194.116 250.57 192.064C250.564 190.018 251.299 188.149 252.647 186.795C253.965 185.472 255.772 184.742 257.739 184.736H257.751C259.681 184.736 261.494 185.49 262.861 186.856C264.239 188.241 264.993 190.085 264.98 192.052C264.962 196.101 261.886 199.177 257.831 199.214H257.757V199.22ZM257.745 186.109H257.739C256.14 186.109 254.669 186.697 253.615 187.763C252.525 188.853 251.93 190.385 251.937 192.064C251.943 193.773 252.506 195.225 253.566 196.273C254.626 197.321 256.097 197.854 257.818 197.86C261.157 197.835 263.596 195.391 263.614 192.058C263.62 190.459 263.008 188.958 261.893 187.83C260.79 186.721 259.319 186.115 257.751 186.115L257.745 186.109Z" fill="#020202"/>
<path d="M243.676 217.397C243.296 217.397 242.996 217.091 242.996 216.711C242.996 213.611 243.008 210.554 243.014 208.801C243.033 203.643 246.525 200.163 251.708 200.138C253.779 200.132 257.921 200.126 257.921 200.126C257.921 200.126 261.781 200.126 263.71 200.138C268.906 200.157 272.404 203.63 272.417 208.777C272.423 211.424 272.429 214.07 272.429 216.717C272.429 217.097 272.122 217.397 271.749 217.397C271.369 217.397 271.069 217.091 271.069 216.717C271.069 214.07 271.069 211.43 271.056 208.783C271.044 204.378 268.165 201.523 263.71 201.511C261.781 201.504 257.927 201.498 257.927 201.498C257.927 201.498 253.791 201.498 251.721 201.511C247.279 201.529 244.399 204.396 244.387 208.814C244.387 210.566 244.375 213.617 244.368 216.717C244.368 217.091 244.062 217.397 243.688 217.397H243.676Z" fill="#020202"/>
<path d="M265.035 216.712C265.035 213.997 265.035 211.951 265.035 210.965C265.035 210.597 265.433 210.297 265.93 210.297H265.991C266.487 210.297 266.885 210.597 266.885 210.965C266.885 212.025 266.885 214.23 266.879 216.712H265.035Z" fill="#020202"/>
<path d="M248.561 216.712C248.561 214.261 248.561 212.037 248.555 210.965C248.555 210.597 248.953 210.297 249.449 210.297C249.945 210.297 250.344 210.591 250.344 210.965C250.344 211.957 250.344 213.997 250.344 216.712H248.561Z" fill="#020202"/>
<path d="M257.757 199.22C255.723 199.22 253.897 198.521 252.604 197.241C251.299 195.954 250.576 194.116 250.57 192.064C250.564 190.018 251.299 188.149 252.647 186.795C253.965 185.472 255.772 184.742 257.739 184.736H257.751C259.681 184.736 261.494 185.49 262.861 186.856C264.239 188.241 264.993 190.085 264.98 192.052C264.962 196.101 261.886 199.177 257.831 199.214H257.757V199.22ZM257.745 186.109H257.739C256.14 186.109 254.669 186.697 253.615 187.763C252.525 188.853 251.93 190.385 251.937 192.064C251.943 193.773 252.506 195.225 253.566 196.273C254.626 197.321 256.097 197.854 257.818 197.86C261.157 197.835 263.596 195.391 263.614 192.058C263.62 190.459 263.008 188.958 261.893 187.83C260.79 186.721 259.319 186.115 257.751 186.115L257.745 186.109Z" fill="#020202"/>
<path d="M136.987 123.35C139.371 108.664 129.398 94.8266 114.712 92.4427C100.026 90.0589 86.1885 100.032 83.8046 114.717C81.4208 129.403 91.3935 143.241 106.079 145.625C120.765 148.009 134.603 138.036 136.987 123.35Z" fill="#FDD000"/>
<path d="M110.395 146.658C95.1639 146.658 82.7695 134.264 82.7695 119.033C82.7695 103.802 95.1639 91.4072 110.395 91.4072C125.626 91.4072 138.02 103.802 138.02 119.033C138.02 134.264 125.626 146.658 110.395 146.658ZM110.395 92.7735C95.9174 92.7735 84.1358 104.555 84.1358 119.033C84.1358 133.51 95.9174 145.292 110.395 145.292C124.872 145.292 136.654 133.51 136.654 119.033C136.654 104.555 124.872 92.7735 110.395 92.7735Z" fill="#020202"/>
<path d="M110.773 116.644C108.739 116.644 106.913 115.945 105.62 114.665C104.315 113.378 103.592 111.54 103.586 109.488C103.58 107.441 104.315 105.573 105.663 104.219C106.98 102.895 108.788 102.166 110.754 102.16H110.766C112.696 102.16 114.51 102.914 115.876 104.28C117.255 105.665 118.008 107.509 117.996 109.475C117.978 113.525 114.902 116.601 110.846 116.638C110.822 116.638 110.797 116.638 110.773 116.638V116.644ZM104.952 109.482C104.958 111.191 105.522 112.643 106.582 113.691C107.642 114.738 109.137 115.277 110.834 115.277C114.173 115.253 116.611 112.808 116.63 109.475C116.636 107.876 116.023 106.375 114.908 105.248C113.805 104.139 112.335 103.533 110.766 103.533H110.76C109.161 103.533 107.691 104.121 106.637 105.187C105.547 106.277 104.952 107.809 104.958 109.488L104.952 109.482Z" fill="#020202"/>
<path d="M96.6879 134.822C96.308 134.822 96.0078 134.516 96.0078 134.136C96.0078 131.036 96.0201 127.978 96.0262 126.226C96.0446 121.068 99.5368 117.588 104.72 117.563C106.791 117.557 110.932 117.551 110.932 117.551C110.932 117.551 114.792 117.551 116.722 117.563C121.918 117.581 125.416 121.049 125.428 126.202C125.434 128.848 125.441 131.495 125.441 134.142C125.441 134.522 125.134 134.822 124.76 134.822C124.381 134.822 124.08 134.516 124.08 134.142C124.08 131.495 124.08 128.855 124.068 126.208C124.056 121.803 121.176 118.948 116.722 118.935C114.792 118.929 110.939 118.923 110.939 118.923C110.939 118.923 106.803 118.923 104.732 118.935C100.29 118.954 97.4108 121.821 97.3986 126.238C97.3986 127.991 97.3863 131.042 97.3802 134.142C97.3802 134.516 97.0739 134.822 96.7001 134.822H96.6879Z" fill="#020202"/>
<path d="M118.047 134.135C118.047 131.421 118.047 129.375 118.047 128.389C118.047 128.021 118.445 127.721 118.941 127.721H119.003C119.499 127.721 119.897 128.021 119.897 128.389C119.897 129.448 119.897 131.654 119.891 134.135H118.047Z" fill="#020202"/>
<path d="M101.573 134.135C101.573 131.685 101.573 129.461 101.566 128.389C101.566 128.021 101.965 127.721 102.461 127.721C102.957 127.721 103.355 128.015 103.355 128.389C103.355 129.381 103.355 131.421 103.355 134.135H101.573Z" fill="#020202"/>
<path d="M110.773 116.644C108.739 116.644 106.913 115.945 105.62 114.665C104.315 113.378 103.592 111.54 103.586 109.488C103.58 107.441 104.315 105.573 105.663 104.219C106.98 102.895 108.788 102.166 110.754 102.16H110.766C112.696 102.16 114.51 102.914 115.876 104.28C117.255 105.665 118.008 107.509 117.996 109.475C117.978 113.525 114.902 116.601 110.846 116.638C110.822 116.638 110.797 116.638 110.773 116.638V116.644ZM104.952 109.482C104.958 111.191 105.522 112.643 106.582 113.691C107.642 114.738 109.137 115.277 110.834 115.277C114.173 115.253 116.611 112.808 116.63 109.475C116.636 107.876 116.023 106.375 114.908 105.248C113.805 104.139 112.335 103.533 110.766 103.533H110.76C109.161 103.533 107.691 104.121 106.637 105.187C105.547 106.277 104.952 107.809 104.958 109.488L104.952 109.482Z" fill="#020202"/>
<path d="M174.554 200.866C186.952 200.866 197.002 190.816 197.002 178.418C197.002 166.02 186.952 155.97 174.554 155.97C162.156 155.97 152.105 166.02 152.105 178.418C152.105 190.816 162.156 200.866 174.554 200.866Z" fill="#FDD000"/>
<path d="M174.552 201.547C161.797 201.547 151.418 191.169 151.418 178.413C151.418 165.657 161.797 155.278 174.552 155.278C187.308 155.278 197.687 165.657 197.687 178.413C197.687 191.169 187.308 201.547 174.552 201.547ZM174.552 156.651C162.55 156.651 152.784 166.417 152.784 178.419C152.784 190.421 162.55 200.187 174.552 200.187C186.555 200.187 196.321 190.421 196.321 178.419C196.321 166.417 186.555 156.651 174.552 156.651Z" fill="#020202"/>
<path d="M174.864 176.538C173.142 176.538 171.592 175.944 170.49 174.86C169.381 173.763 168.768 172.207 168.762 170.467C168.756 168.733 169.381 167.146 170.526 165.994C171.647 164.873 173.179 164.248 174.852 164.248H174.858C176.5 164.248 178.038 164.885 179.196 166.049C180.366 167.226 181.003 168.788 180.997 170.461C180.978 173.898 178.368 176.514 174.925 176.538C174.907 176.538 174.882 176.538 174.864 176.538ZM174.858 165.614H174.852C173.547 165.614 172.352 166.092 171.494 166.956C170.612 167.844 170.128 169.088 170.128 170.461C170.128 171.851 170.594 173.04 171.451 173.891C172.315 174.743 173.541 175.19 174.913 175.178C177.633 175.154 179.618 173.169 179.631 170.454C179.637 169.149 179.14 167.93 178.228 167.011C177.327 166.111 176.132 165.614 174.858 165.614Z" fill="#020202"/>
<path d="M163.133 191.69C162.753 191.69 162.453 191.384 162.453 191.004C162.453 188.418 162.465 185.876 162.465 184.411C162.478 180.043 165.437 177.096 169.824 177.078C171.551 177.072 175.001 177.065 175.001 177.065C175.001 177.065 178.217 177.065 179.828 177.072C184.221 177.09 187.187 180.025 187.193 184.381C187.193 186.586 187.199 188.792 187.199 190.998C187.199 191.377 186.893 191.678 186.519 191.678C186.139 191.678 185.839 191.371 185.839 190.998C185.839 188.792 185.839 186.592 185.833 184.387C185.827 180.784 183.468 178.45 179.828 178.438C178.223 178.438 175.007 178.432 175.007 178.432C175.007 178.432 171.557 178.432 169.836 178.444C166.203 178.456 163.85 180.803 163.838 184.417C163.838 185.876 163.826 188.424 163.826 191.004C163.826 191.377 163.519 191.684 163.145 191.684L163.133 191.69Z" fill="#020202"/>
<path d="M180.93 191.004C180.93 188.743 180.93 187.04 180.93 186.213C180.93 185.906 181.267 185.661 181.677 185.661H181.726C182.137 185.661 182.474 185.912 182.474 186.219C182.474 187.101 182.474 188.939 182.474 191.01H180.936L180.93 191.004Z" fill="#020202"/>
<path d="M167.203 191.003C167.203 188.963 167.203 187.106 167.203 186.212C167.203 185.905 167.534 185.654 167.951 185.654C168.361 185.654 168.698 185.899 168.698 186.206C168.698 187.033 168.698 188.736 168.698 190.997H167.209L167.203 191.003Z" fill="#020202"/>
<path d="M174.864 176.538C173.142 176.538 171.592 175.944 170.49 174.86C169.381 173.763 168.768 172.207 168.762 170.467C168.756 168.733 169.381 167.146 170.526 165.994C171.647 164.873 173.179 164.248 174.852 164.248H174.858C176.5 164.248 178.038 164.885 179.196 166.049C180.366 167.226 181.003 168.788 180.997 170.461C180.978 173.898 178.368 176.514 174.925 176.538C174.907 176.538 174.882 176.538 174.864 176.538ZM174.858 165.614H174.852C173.547 165.614 172.352 166.092 171.494 166.956C170.612 167.844 170.128 169.088 170.128 170.461C170.128 171.851 170.594 173.04 171.451 173.891C172.315 174.743 173.541 175.19 174.913 175.178C177.633 175.154 179.618 173.169 179.631 170.454C179.637 169.149 179.14 167.93 178.228 167.011C177.327 166.111 176.132 165.614 174.858 165.614Z" fill="#020202"/>
</g>
<defs>
<clipPath id="clip0_227_43187">
<rect width="213" height="219.599" fill="white" transform="translate(66 63)"/>
</clipPath>
<clipPath id="clip1_227_43187">
<rect width="212.75" height="196.183" fill="white" transform="translate(72.25 89.9062)"/>
</clipPath>
</defs>
</svg>
