<svg width="350" height="350" viewBox="0 0 350 350" fill="none" xmlns="http://www.w3.org/2000/svg">
<g clip-path="url(#clip0_227_42178)">
<path d="M185.208 201.159L176.234 196.279C175.014 195.295 176.031 191.372 176.084 191.162L185.057 196.042C185.005 196.246 183.994 200.175 185.208 201.159Z" fill="white"/>
<path d="M176.066 190.46L185.04 195.34C185.158 195.406 185.066 196.009 185.066 196.042L176.093 191.162C176.093 191.129 176.184 190.526 176.066 190.46Z" fill="#CACACA"/>
<path d="M182.316 198.666L173.343 193.786C172.857 193.523 172.319 193.143 171.742 192.828L180.716 197.708C181.293 198.023 181.831 198.397 182.316 198.666Z" fill="#CACACA"/>
<path d="M163 198.574L171.973 203.454C172.642 203.815 173.18 204.989 173.653 207.443L164.679 202.562C164.207 200.109 163.669 198.935 163 198.574Z" fill="#CACACA"/>
<path d="M145.379 202.785L154.352 207.665C154.352 207.665 154.385 207.731 154.352 207.823L145.379 202.943C145.412 202.851 145.399 202.792 145.379 202.785Z" fill="#CACACA"/>
<path d="M196.525 118.916L187.552 114.035C185.118 112.71 188.313 108.276 191.868 107.771C192.74 107.647 193.633 107.765 194.466 108.217L203.439 113.097C202.606 112.645 201.714 112.527 200.841 112.651C197.293 113.15 194.098 117.591 196.525 118.916Z" fill="#CACACA"/>
<path d="M155.887 179.703L146.914 174.822C147.137 174.947 147.399 174.973 147.695 174.934C149.767 174.645 153.355 170.749 155.264 169.771L164.238 174.652C162.329 175.623 158.741 179.519 156.668 179.814C156.373 179.853 156.11 179.827 155.887 179.703Z" fill="#CACACA"/>
<path d="M164.231 174.652L155.258 169.771C182.545 151.779 170.948 135.524 180.079 118.988C181.863 115.754 185.333 115.072 188.58 116.836L192.194 119.034C176.137 137.499 194.543 154.665 164.231 174.652Z" fill="#CACACA"/>
<path d="M148.856 165.049L157.83 169.929C157.646 169.831 157.443 169.739 157.2 169.661L148.227 164.78C148.463 164.859 148.673 164.951 148.856 165.049Z" fill="#CACACA"/>
<path d="M135.264 226.662L126.291 221.782C124.644 220.89 124.106 218.135 123.942 215.334C123.732 211.883 124.087 208.361 123.641 208.118L132.614 212.998C133.06 213.241 132.706 216.77 132.916 220.214C133.086 223.015 133.624 225.77 135.264 226.662Z" fill="#CACACA"/>
<path d="M137.122 197.978L128.148 193.097C128.621 193.353 129.073 193.438 129.513 193.379C132.412 192.973 134.721 186.131 137.371 179.237C140.021 172.343 143.012 165.41 147.282 164.806C147.591 164.76 147.906 164.754 148.234 164.78L157.207 169.66C156.886 169.634 156.571 169.647 156.256 169.686C151.986 170.283 148.995 177.223 146.344 184.117C143.694 191.011 141.386 197.853 138.486 198.26C138.047 198.319 137.594 198.233 137.122 197.978Z" fill="#CACACA"/>
<path d="M128.235 218.935L119.261 214.055C118.815 213.812 119.025 212.074 119.077 210.362C119.13 208.827 119.058 207.305 118.297 206.892L127.27 211.772C128.031 212.185 128.097 213.707 128.051 215.242C127.998 216.96 127.795 218.699 128.235 218.935Z" fill="#CACACA"/>
<path d="M115.611 213.655L124.584 218.535C123.463 217.925 121.862 217.479 119.665 217.223L110.691 212.343C112.895 212.599 114.496 213.051 115.611 213.655Z" fill="#CACACA"/>
<path d="M109.782 221.742L100.809 216.862C100.809 216.862 100.894 216.882 100.979 216.869C101.72 216.764 104.613 215.478 110.687 212.336L119.661 217.216C113.58 220.358 110.694 221.644 109.953 221.749C109.867 221.762 109.815 221.755 109.782 221.742Z" fill="#CACACA"/>
<path d="M105.328 240.463L96.3544 235.583C94.052 234.33 94.0258 230.486 91.625 229.181L100.598 234.061C103.006 235.366 103.025 239.21 105.328 240.463Z" fill="#CACACA"/>
<path d="M83.6685 265.016L74.6952 260.135C74.2557 259.899 73.908 259.348 73.6719 258.437L82.6453 263.317C82.8748 264.229 83.2291 264.773 83.6685 265.016Z" fill="#CACACA"/>
<path d="M82.6453 263.316L73.6719 258.436C74.1376 254.94 74.3541 253.746 74.3409 253.746L83.3143 258.626C83.3143 258.626 83.111 259.82 82.6453 263.316Z" fill="#CACACA"/>
<path d="M98.4182 233.484L89.4448 228.603C86.926 227.232 98.2739 218.056 96.4373 217.059L105.411 221.939C107.247 222.936 95.8994 232.113 98.4182 233.484Z" fill="#CACACA"/>
<path d="M98.8838 227.895L89.9104 223.015C89.6612 222.877 89.4185 222.49 89.1758 221.762L98.1492 226.642C98.3919 227.377 98.6346 227.764 98.8838 227.895Z" fill="#CACACA"/>
<path d="M88.543 221.218L97.5164 226.098C97.7853 226.242 98.0018 226.419 98.1526 226.636L89.1792 221.756C89.0284 221.539 88.8119 221.362 88.543 221.218Z" fill="#CACACA"/>
<path d="M78.9193 263.848L69.9459 258.968C62.7633 255.059 74.2358 238.083 70.4838 236.036L79.4572 240.916C83.2092 242.956 71.7366 259.939 78.9193 263.848Z" fill="#CACACA"/>
<path d="M80.7046 223.009L89.6779 227.889C88.1693 227.069 86.6409 226.78 84.9617 227.017L75.9883 222.136C77.6675 221.9 79.1959 222.189 80.7046 223.009Z" fill="#CACACA"/>
<path d="M85.5618 224.622L76.5884 219.741C75.3159 219.053 74.9223 217.747 76.2539 215.274L85.2273 220.155C83.8957 222.628 84.2892 223.926 85.5618 224.622Z" fill="#CACACA"/>
<path d="M85.2273 220.155L76.2539 215.274C91.4391 206.498 104.02 194.284 121.35 191.85C122.99 191.621 124.67 191.477 126.401 191.431L135.375 196.311C133.643 196.357 131.964 196.501 130.324 196.731C112.994 199.164 100.413 211.378 85.2273 220.155Z" fill="#CACACA"/>
<path d="M73.6054 247.088L64.632 242.208C62.041 240.797 59.6796 236.048 61.2276 231.542L70.201 236.422C68.653 240.929 71.0144 245.678 73.6054 247.088Z" fill="#CACACA"/>
<path d="M70.2 236.422L61.2266 231.542C67.7467 225.829 72.2268 222.667 75.9854 222.136L84.9588 227.016C81.1937 227.547 76.7135 230.709 70.2 236.422Z" fill="#CACACA"/>
<path d="M242.997 80.7652L234.023 75.885C234.246 76.0031 234.509 76.049 234.837 76.0031C235.257 75.944 235.775 75.7341 236.405 75.334L245.378 80.2142C244.748 80.6078 244.237 80.8243 243.81 80.8833C243.489 80.9292 243.22 80.8833 242.997 80.7652Z" fill="#CACACA"/>
<path d="M234.127 63.6909L243.1 68.5711C243.1 68.5711 243.048 68.5514 243.008 68.558C242.759 68.5908 242.28 69.1615 241.454 70.4799L232.48 65.5997C233.307 64.2812 233.786 63.7105 234.035 63.6777C234.068 63.6777 234.101 63.6777 234.127 63.6909Z" fill="#CACACA"/>
<path d="M226.079 72.2444L217.105 67.3641C219.808 68.8334 222.609 69.7059 225.489 69.2992C227.771 68.9777 230.106 67.8561 232.481 65.5996L241.454 70.4799C239.08 72.7363 236.745 73.858 234.462 74.1794C231.576 74.5861 228.775 73.7137 226.079 72.2444Z" fill="#CACACA"/>
<path d="M187.098 96.3838L196.071 101.264C196.32 101.402 196.511 101.625 196.609 101.946L187.636 97.066C187.544 96.7446 187.353 96.5215 187.098 96.3838Z" fill="#CACACA"/>
<path d="M193.321 104.792L184.348 99.9121C185.988 100.804 188.979 100.949 190.441 101.742L199.415 106.622C197.945 105.822 194.961 105.684 193.321 104.792Z" fill="#CACACA"/>
<path d="M189.524 112.704L180.551 107.824C179.298 107.141 178.445 105.508 178.281 102.432L187.255 107.312C187.419 110.388 188.278 112.022 189.524 112.704Z" fill="#CACACA"/>
<path d="M202.615 57.0266L211.589 61.9068C209.857 60.9622 208.204 60.4506 206.63 60.6671L197.656 55.7868C199.224 55.5638 200.877 56.082 202.615 57.0266Z" fill="#CACACA"/>
<path d="M187.253 107.311L178.28 102.431C175.978 100.338 173.636 97.2751 177.165 93.6543L186.138 98.5346C182.609 102.155 184.951 105.219 187.253 107.311Z" fill="#CACACA"/>
<path d="M202.93 62.8779L193.957 57.9977C195.125 56.6464 196.358 55.9642 197.65 55.7871L206.623 60.6674C205.331 60.851 204.098 61.5267 202.93 62.8779Z" fill="#CACACA"/>
<path d="M193.618 88.3019L184.645 83.4217C185.655 83.7431 186.58 83.8218 187.426 83.7037C195.232 82.6083 196.163 64.327 193.966 57.9971L202.939 62.8773C205.136 69.2072 204.212 87.4886 196.399 88.584C195.553 88.7021 194.628 88.6234 193.618 88.3019Z" fill="#CACACA"/>
<path d="M186.137 98.5353L177.164 93.6551C183.789 89.9686 178.85 84.0585 183.186 83.4485C183.586 83.3895 184.065 83.3829 184.635 83.4223L193.609 88.3025C193.038 88.2632 192.559 88.2763 192.159 88.3288C187.823 88.9388 192.763 94.8489 186.137 98.5353Z" fill="#CACACA"/>
<path d="M185.059 196.77C184.941 196.77 184.823 196.744 184.711 196.685L175.738 191.804C175.469 191.66 175.318 191.358 175.364 191.057C175.377 190.958 175.39 190.834 175.39 190.755C175.305 190.558 175.311 190.322 175.423 190.119C175.613 189.764 176.059 189.633 176.413 189.824L185.387 194.704C185.944 195.006 185.839 195.747 185.787 196.147C185.754 196.383 185.603 196.593 185.393 196.698C185.288 196.75 185.177 196.777 185.065 196.777L185.059 196.77Z" fill="#020202"/>
<path d="M173.649 208.17C173.531 208.17 173.407 208.144 173.302 208.078L164.328 203.198C164.138 203.093 164 202.909 163.961 202.693C163.449 200.003 162.925 199.361 162.656 199.21C162.302 199.013 162.17 198.573 162.361 198.219C162.551 197.865 162.997 197.734 163.351 197.924L172.324 202.804C173.256 203.309 173.866 204.654 174.371 207.298C174.424 207.573 174.312 207.855 174.082 208.026C173.958 208.118 173.8 208.163 173.649 208.163V208.17ZM165.326 202.083L172.574 206.025C172.187 204.615 171.826 204.208 171.623 204.097L164.925 200.456C165.07 200.928 165.201 201.466 165.326 202.083Z" fill="#020202"/>
<path d="M196.519 119.643C196.4 119.643 196.282 119.617 196.171 119.551L187.197 114.671C186.24 114.153 185.807 113.202 186.017 112.06C186.384 110.02 188.923 107.442 191.763 107.042C192.858 106.891 193.882 107.069 194.813 107.574L203.786 112.454C204.141 112.644 204.272 113.09 204.082 113.444C203.891 113.799 203.445 113.93 203.091 113.74C202.448 113.385 201.72 113.267 200.946 113.372C198.939 113.654 196.997 115.452 196.519 116.882C196.486 116.986 196.427 117.078 196.355 117.157C196.394 117.249 196.414 117.347 196.414 117.452C196.407 117.833 196.551 118.082 196.886 118.259C197.24 118.449 197.371 118.895 197.181 119.25C197.05 119.492 196.801 119.63 196.538 119.63L196.519 119.643ZM192.504 108.459C192.327 108.459 192.143 108.472 191.96 108.498C189.788 108.8 187.722 110.847 187.453 112.329C187.335 112.992 187.63 113.248 187.899 113.392L194.97 117.236C195.003 117.124 195.062 117.019 195.148 116.941C195.082 116.783 195.069 116.599 195.128 116.422C195.699 114.723 197.673 112.703 200.021 112.073L194.111 108.859C193.619 108.59 193.081 108.453 192.504 108.453V108.459Z" fill="#020202"/>
<path d="M156.663 180.541C156.302 180.541 155.994 180.279 155.941 179.911C155.882 179.511 156.164 179.144 156.565 179.085C157.614 178.934 159.451 177.419 160.92 176.199C162.009 175.293 163.045 174.441 163.859 174.014C181.32 162.489 182.586 151.587 183.806 141.053C184.633 133.923 185.485 126.556 191.284 119.197L185.472 116.442C184.738 116.094 183.839 116.297 183.347 116.934C177.981 123.847 177.181 130.341 176.335 137.222C175.121 147.081 173.875 157.274 158.395 168.491C158.067 168.727 157.608 168.655 157.371 168.327C157.135 167.999 157.207 167.547 157.535 167.304C172.498 156.455 173.659 147.022 174.885 137.038C175.718 130.262 176.578 123.257 182.193 116.028C183.098 114.861 184.744 114.474 186.095 115.117L192.747 118.272C192.95 118.37 193.101 118.554 193.147 118.777C193.193 119 193.14 119.229 192.996 119.4C186.942 126.668 186.128 133.739 185.256 141.217C183.996 152.092 182.691 163.342 164.633 175.254C164.613 175.267 164.587 175.28 164.561 175.293C163.878 175.641 162.894 176.454 161.852 177.32C160.067 178.796 158.224 180.318 156.768 180.528C156.735 180.528 156.696 180.534 156.663 180.534V180.541Z" fill="#020202"/>
<path d="M157.823 170.657C157.705 170.657 157.586 170.63 157.475 170.565C157.331 170.486 157.16 170.414 156.97 170.348C156.931 170.335 156.891 170.316 156.852 170.296L147.878 165.416C147.544 165.232 147.406 164.832 147.557 164.484C147.708 164.137 148.101 163.966 148.462 164.084C148.738 164.176 148.987 164.281 149.203 164.406L158.17 169.286C158.524 169.476 158.656 169.922 158.459 170.276C158.328 170.519 158.078 170.657 157.816 170.657H157.823Z" fill="#020202"/>
<path d="M135.266 227.389C135.147 227.389 135.029 227.363 134.918 227.297L128.601 223.86C128.247 223.67 128.116 223.224 128.306 222.87C128.496 222.516 128.942 222.384 129.296 222.575L132.891 224.529C132.524 223.421 132.288 222.004 132.183 220.253C132.097 218.777 132.104 217.275 132.117 216.061C132.117 215.326 132.13 214.677 132.117 214.165C132.104 213.765 132.419 213.424 132.819 213.411C133.212 213.391 133.56 213.713 133.573 214.113C133.593 214.638 133.586 215.307 133.58 216.068C133.567 217.314 133.56 218.731 133.645 220.154C133.842 223.427 134.505 225.395 135.613 226.005C135.967 226.195 136.099 226.642 135.908 226.996C135.777 227.238 135.528 227.376 135.266 227.376V227.389Z" fill="#020202"/>
<path d="M138.478 198.987C138.118 198.987 137.809 198.725 137.757 198.357C137.698 197.957 137.98 197.59 138.38 197.531C140.577 197.222 142.775 191.43 144.9 185.829C145.149 185.173 145.399 184.517 145.654 183.854C148.173 177.301 150.961 170.847 154.962 169.272L148.016 165.494C147.799 165.488 147.583 165.494 147.373 165.527C143.509 166.071 140.531 173.025 138.045 179.499C137.79 180.155 137.54 180.817 137.291 181.467C135.527 186.117 133.854 190.506 131.958 192.651C131.689 192.952 131.23 192.978 130.928 192.71C130.627 192.441 130.6 191.981 130.869 191.68C132.588 189.745 134.208 185.474 135.927 180.948C136.176 180.292 136.425 179.636 136.681 178.974C139.436 171.798 142.519 164.733 147.17 164.084C147.53 164.031 147.904 164.025 148.278 164.051C148.383 164.058 148.482 164.09 148.573 164.136L157.547 169.017C157.848 169.181 157.999 169.535 157.901 169.869C157.803 170.197 157.494 170.414 157.147 170.388C156.878 170.368 156.615 170.374 156.359 170.414C152.496 170.958 149.518 177.911 147.032 184.386C146.776 185.042 146.527 185.704 146.278 186.353C143.791 192.9 141.64 198.554 138.59 198.987C138.557 198.987 138.518 198.994 138.485 198.994L138.478 198.987Z" fill="#020202"/>
<path d="M105.319 241.19C105.201 241.19 105.083 241.164 104.971 241.098L95.998 236.218C94.6467 235.483 94.0039 234.093 93.3742 232.748C93.1052 232.164 92.8494 231.613 92.5411 231.121L89.0908 229.245C88.6973 229.029 88.4414 228.675 88.3627 228.248C88.12 226.838 89.8255 224.798 92.6723 221.59C93.8661 220.246 95.6306 218.258 95.8733 217.53C95.6831 217.307 95.6372 216.979 95.7881 216.704C95.9783 216.349 96.4243 216.218 96.7785 216.408L105.752 221.289C106.06 221.453 106.257 221.735 106.316 222.076C106.506 223.145 105.221 224.647 102.741 227.435C101.259 229.108 99.4548 231.135 98.9235 232.315L100.931 233.404C102.361 234.178 103.023 235.615 103.666 237.005C104.217 238.186 104.735 239.301 105.66 239.806C106.014 239.996 106.146 240.442 105.955 240.797C105.824 241.039 105.575 241.177 105.312 241.177L105.319 241.19ZM97.1459 218.278C96.6867 219.268 95.5322 220.593 93.7743 222.568C92.3247 224.201 89.6287 227.232 89.8124 227.999L93.407 229.928C93.5119 229.987 93.6038 230.065 93.6694 230.164C94.0826 230.78 94.3975 231.469 94.7057 232.132C95.2567 233.312 95.7749 234.434 96.6998 234.932L102.59 238.14C102.512 237.97 102.426 237.799 102.348 237.628C101.777 236.402 101.239 235.247 100.235 234.696L97.71 233.325C97.4411 233.181 97.2967 232.886 97.3361 232.584C97.5198 231.207 99.1662 229.265 101.652 226.471C102.82 225.159 104.538 223.224 104.834 222.456L97.1393 218.271L97.1459 218.278Z" fill="#020202"/>
<path d="M78.9181 264.582C78.8001 264.582 78.682 264.556 78.5705 264.49L69.5971 259.61C65.6089 257.439 66.5797 252.073 68.2327 246.596C68.3508 246.209 68.7575 245.992 69.1445 246.104C69.5315 246.222 69.748 246.629 69.6365 247.016C68.1671 251.902 67.2291 256.658 70.3055 258.331L76.1369 261.499C75.0808 258.154 76.6354 253.254 77.9539 249.088C78.9181 246.045 79.9152 242.896 79.3511 241.807C79.1674 241.447 79.3051 241.007 79.6594 240.824C80.0201 240.633 80.4596 240.778 80.6433 241.132C81.4895 242.759 80.5449 245.75 79.3445 249.528C77.6915 254.736 75.6384 261.224 79.2724 263.204C79.6266 263.395 79.7578 263.841 79.5675 264.195C79.4363 264.438 79.1871 264.575 78.9247 264.575L78.9181 264.582Z" fill="#020202"/>
<path d="M85.5646 225.349C85.4465 225.349 85.3284 225.323 85.2169 225.257L76.2501 220.377C74.9906 219.695 73.8624 218.193 75.6204 214.919C75.8106 214.565 76.2566 214.434 76.6108 214.624C76.9651 214.815 77.0962 215.261 76.906 215.615C75.4629 218.284 76.5059 218.849 76.9454 219.091L83.682 222.758C83.682 221.984 83.9378 221.013 84.5872 219.8C84.7774 219.446 85.2235 219.314 85.5777 219.505C85.9319 219.695 86.0631 220.141 85.8728 220.495C84.4298 223.165 85.4727 223.729 85.9122 223.972C86.2664 224.162 86.3976 224.608 86.2074 224.962C86.0762 225.205 85.8269 225.342 85.5646 225.342V225.349Z" fill="#020202"/>
<path d="M85.2289 220.882C84.9796 220.882 84.7303 220.751 84.5926 220.515C84.3893 220.167 84.5073 219.721 84.8615 219.518C89.1777 217.025 93.343 214.211 97.3705 211.489C107.813 204.431 117.679 197.766 130.22 196.002C131.06 195.884 131.906 195.792 132.759 195.72L126.226 192.165C124.632 192.211 123.031 192.348 121.457 192.571C109.204 194.29 99.9681 200.508 90.1944 207.087C86.3112 209.705 82.2902 212.407 77.9675 214.906C77.6199 215.11 77.1738 214.992 76.9705 214.637C76.7671 214.29 76.8852 213.844 77.2394 213.64C81.5162 211.168 85.5175 208.478 89.381 205.874C99.299 199.196 108.673 192.893 121.26 191.122C122.953 190.886 124.678 190.741 126.39 190.695C126.521 190.695 126.646 190.722 126.757 190.787L135.73 195.667C136.019 195.825 136.17 196.159 136.091 196.481C136.012 196.802 135.73 197.032 135.402 197.038C133.743 197.078 132.07 197.222 130.437 197.452C118.23 199.17 108.502 205.743 98.2036 212.702C94.1563 215.438 89.9714 218.265 85.6093 220.784C85.4912 220.849 85.3666 220.882 85.242 220.882H85.2289Z" fill="#020202"/>
<path d="M73.5981 247.816C73.4801 247.816 73.362 247.789 73.2505 247.724L64.2771 242.843C61.2007 241.171 58.9114 236.022 60.5316 231.299C60.571 231.181 60.6431 231.069 60.7415 230.984C66.8156 225.658 71.7221 221.991 75.8808 221.407C77.7044 221.151 79.3967 221.459 81.0497 222.358L90.0166 227.238C90.3708 227.429 90.502 227.875 90.3117 228.229C90.1215 228.583 89.6755 228.714 89.3212 228.524C87.9569 227.783 86.5597 227.527 85.0641 227.737C81.2924 228.268 76.6417 231.751 70.83 236.835C69.4985 241.013 71.7221 245.231 73.9524 246.438C74.3066 246.628 74.4378 247.074 74.2475 247.429C74.1163 247.671 73.8671 247.809 73.6047 247.809L73.5981 247.816ZM61.8566 231.961C60.5251 236.14 62.7487 240.357 64.979 241.564L70.1872 244.398C68.9803 242.089 68.5211 239.052 69.505 236.186C69.5444 236.067 69.6165 235.956 69.7149 235.871C75.7956 230.544 80.6955 226.878 84.8542 226.294C84.9526 226.281 85.0445 226.268 85.1429 226.254L80.3479 223.65C78.9835 222.909 77.5863 222.653 76.0842 222.863C72.3125 223.395 67.6618 226.878 61.8501 231.961H61.8566Z" fill="#020202"/>
<path d="M244.081 81.4938C243.143 81.4938 242.198 81.1199 241.772 80.9494C241.398 80.7985 241.214 80.3721 241.365 79.9983C241.516 79.6244 241.936 79.4407 242.316 79.5916C242.592 79.7031 242.94 79.8277 243.294 79.913L242.146 79.2898C241.792 79.0996 241.661 78.6536 241.851 78.2993C242.041 77.9451 242.487 77.8139 242.841 78.0042L245.727 79.5719C245.918 79.6768 246.049 79.8539 246.095 80.0639C246.141 80.2738 246.088 80.4968 245.95 80.6608C245.458 81.2839 244.77 81.4873 244.081 81.4873V81.4938Z" fill="#020202"/>
<path d="M232.869 75.0384C228.494 75.0384 224.336 72.513 220.485 70.1779C219.285 69.4498 218.137 68.7545 217.002 68.1379C216.917 68.0919 216.832 68.046 216.753 68.0001C216.405 67.8033 216.274 67.3638 216.471 67.0096C216.661 66.6554 217.1 66.5308 217.455 66.7145C217.533 66.7538 217.612 66.7997 217.691 66.8456C222.505 69.3382 229.852 67.0162 231.157 65.6715C231.794 65.0155 232.253 64.4777 232.587 64.0841C233.217 63.3429 233.598 62.8968 234.214 62.9624C234.306 62.9755 234.398 63.0018 234.483 63.0477L243.456 67.928C243.653 68.0329 243.791 68.2297 243.83 68.4462C243.87 68.6692 243.798 68.8922 243.647 69.0628C243.607 69.1087 242.656 70.1451 241.449 71.2733C238.524 74.0152 235.657 75.0384 232.876 75.0384H232.869ZM222 69.3842C227.904 72.946 234.004 76.2388 240.439 70.2041C241.01 69.6662 241.535 69.148 241.915 68.7545L234.135 64.5236C234.011 64.6548 233.847 64.8516 233.696 65.0287C233.348 65.4419 232.869 65.9995 232.2 66.6882C230.888 68.0395 226.402 69.6137 221.994 69.3842H222Z" fill="#020202"/>
<path d="M189.525 113.432C189.407 113.432 189.289 113.405 189.177 113.34C188.954 113.222 188.744 113.077 188.548 112.913C187.656 112.349 186.54 111.831 185.366 111.293C181.785 109.647 177.344 107.6 177.534 102.726C176.255 101.526 174.701 99.7484 174.635 97.5575C174.589 96.0423 175.265 94.5599 176.649 93.143C176.682 93.1102 176.721 93.0774 176.76 93.0512C180.184 90.716 180.368 88.3087 180.512 86.3671C180.604 85.147 180.689 83.9991 181.634 83.271C182.624 82.5035 184.297 82.4117 187.387 82.9496C194.097 80.9161 193.946 72.7495 193.802 65.5472C193.717 61.008 193.644 57.4266 195.324 55.8326C195.921 55.2685 196.688 54.9995 197.619 55.0455C200.309 54.606 204.54 57.0723 208.272 59.2567C209.204 59.8011 210.056 60.2996 210.784 60.6866C211.165 60.8506 211.545 61.0408 211.939 61.2573C212.28 61.4475 212.418 61.8673 212.247 62.2216C212.077 62.5692 211.657 62.7266 211.303 62.5692C210.955 62.4183 210.561 62.2281 210.135 61.9985C207.518 60.8703 205.504 61.2179 203.759 63.0612C204.632 66.2163 204.94 70.9129 204.527 75.2028C204.002 80.6603 202.421 84.9568 200.073 87.2985C197.961 89.3975 195.311 90.001 192.182 89.0958C190.955 89.5156 190.903 90.1388 190.784 91.5556C190.607 93.6415 190.345 96.7901 185.484 100.667C184.409 102.477 186.147 105.317 187.754 106.774C187.898 106.905 187.984 107.082 187.99 107.272C188.108 109.489 188.6 110.998 189.446 111.752C189.63 111.87 189.801 111.988 189.965 112.113C190.273 112.343 190.345 112.769 190.142 113.09C190.004 113.307 189.768 113.425 189.525 113.425V113.432ZM177.646 94.2188C176.57 95.3339 176.065 96.4162 176.098 97.5182C176.137 98.876 176.99 100.267 178.774 101.887C178.945 102.038 179.03 102.261 179.01 102.49C178.669 106.603 182.382 108.315 185.976 109.968C186.331 110.132 186.685 110.296 187.032 110.46C186.783 109.666 186.619 108.728 186.547 107.646C184.304 105.488 182.795 102.07 184.317 99.7615C184.363 99.6959 184.415 99.6369 184.474 99.591C188.928 96.0685 189.158 93.3857 189.322 91.431C189.459 89.837 189.584 88.3349 191.965 87.633C192.103 87.5937 192.254 87.5937 192.392 87.633C195.055 88.4661 197.292 88.0004 199.036 86.2621C201.148 84.1631 202.578 80.1814 203.07 75.065C203.484 70.7686 203.156 66.072 202.244 63.094C202.172 62.8513 202.224 62.5954 202.388 62.4052C203.621 60.9752 204.999 60.1553 206.554 59.952C203.49 58.1743 199.738 56.1343 197.81 56.5082C197.751 56.5214 197.685 56.5279 197.619 56.5214C197.062 56.482 196.662 56.6001 196.34 56.9018C195.127 58.0497 195.199 61.6837 195.271 65.5275C195.415 72.9332 195.593 82.1493 187.636 84.4123C187.531 84.4451 187.419 84.4517 187.308 84.4254C184.71 83.9597 183.149 83.9663 182.539 84.432C182.133 84.7469 182.067 85.3831 181.982 86.4786C181.831 88.4792 181.601 91.49 177.659 94.2122L177.646 94.2188Z" fill="#020202"/>
<path d="M153.559 209.777C154.247 211.305 153.992 210.682 155.874 210.42C156.806 210.289 160.682 211.253 167.445 206.091C169.111 204.818 170.298 203.48 171.295 203.336C172.286 203.198 173.034 204.201 173.65 207.442C173.801 207.455 173.946 207.442 174.083 207.429C177.258 206.983 177.232 199.052 180.17 197.445C181.443 197.983 182.584 199.092 183.391 198.98C183.988 198.895 183.995 200.174 185.208 201.158C185.503 201.401 185.582 201.788 186.015 201.722C186.389 201.67 187.025 201.276 188.298 200.154C192.286 194.284 200.079 190.236 195.743 184.851C194.66 175.386 202.158 167.35 199.331 157.616C199.705 156.094 200.511 155.589 201.443 155.458C201.974 155.386 202.538 155.432 203.083 155.484C203.627 155.537 204.152 155.589 204.605 155.523C205.202 155.438 205.661 155.15 205.838 154.376C204.546 147.055 213.289 142.693 210.593 135.156C209.282 130.309 203.916 119.335 204.086 113.536C203.07 112.716 201.935 112.493 200.826 112.651C196.458 113.267 192.627 119.84 199.154 119.243C198.321 121.158 197.757 121.893 197.33 121.952C196.759 122.031 196.431 120.909 196.005 119.794C195.579 118.679 195.054 117.583 194.09 117.715C193.755 117.76 193.375 117.957 192.922 118.351C176.865 136.816 194.536 154.658 164.224 174.644C162.316 175.615 158.728 179.512 156.655 179.807C156.228 179.866 155.868 179.774 155.599 179.472C155.179 176.455 161.856 171.227 157.186 169.653C156.865 169.626 156.55 169.639 156.235 169.679C151.965 170.276 148.974 177.216 146.324 184.11C143.673 191.004 141.365 197.845 138.465 198.252C137.501 198.39 136.478 197.819 135.349 196.304C133.618 196.35 131.939 196.494 130.299 196.724C112.968 199.157 100.387 211.371 85.2021 220.148C80.7023 228.504 95.9269 223.519 98.1243 226.635C98.4523 227.632 98.7934 227.986 99.1279 227.94C100.191 227.789 101.253 223.618 102.04 222.614C103.155 222.194 103.969 221.965 104.533 221.886C109.61 221.171 94.4904 232.886 98.8131 233.621C104.021 233.765 102.053 241.61 107.793 240.803C108.377 240.718 109.046 240.548 109.813 240.266C110.076 233.804 112.47 230.82 115.92 230.334C117.868 230.059 120.151 230.584 122.578 231.738C126.37 224.956 130.935 218.527 119.639 217.216C113.559 220.358 110.673 221.643 109.931 221.748C108.292 221.978 117.068 216.468 125.117 212.375C125.727 211.942 126.219 211.725 126.606 211.666C127.977 211.476 128.095 213.345 128.029 215.235C127.97 217.13 127.727 219.046 128.37 218.954C128.797 218.895 129.623 217.937 131.158 215.49C131.873 213.746 132.286 213.011 132.522 212.978C133.073 212.899 132.673 216.599 132.89 220.207C133.106 223.821 133.939 227.343 136.957 226.917C139.357 226.582 143.136 223.749 149.078 216.481C152.017 215.09 152.168 214.854 152.384 213.037C152.594 211.259 152.352 211.043 151.702 210.256C151.138 209.567 153.342 209.357 153.526 209.77L153.559 209.777ZM154.352 207.822C154.32 207.711 154.333 207.665 154.352 207.658C154.372 207.658 154.398 207.717 154.352 207.822Z" fill="white"/>
<path d="M84.9587 227.015C81.1935 227.547 76.7134 230.708 70.1998 236.422C68.291 241.978 72.3317 247.914 75.4081 247.481C77.0086 247.258 78.3467 245.316 78.4648 240.718C85.044 240.574 70.4753 260.751 79.6062 264.162C79.7833 264.208 79.9538 264.214 80.1178 264.195C81.1476 264.05 81.9348 262.66 82.4727 261.308C83.0105 259.951 83.2926 258.632 83.3057 258.632C83.3254 258.632 83.1024 259.826 82.6366 263.322C82.9909 264.719 83.6271 265.257 84.4339 265.146C89.0977 264.49 99.6651 242.129 97.3758 236.258C92.8104 229.429 89.3798 226.399 84.9521 227.022L84.9587 227.015Z" fill="white"/>
<path d="M245.372 80.2206C244.743 80.6142 244.231 80.8306 243.805 80.8896C241.811 81.1717 241.922 78.0428 242.381 74.868C242.834 71.6932 243.634 68.466 243.011 68.5578C242.762 68.5906 242.276 69.1613 241.456 70.4797C239.082 72.7362 236.747 73.8579 234.464 74.1793C229.118 74.9336 224.054 71.2865 219.377 67.587C214.7 63.8874 210.417 60.1354 206.625 60.6667C205.333 60.8504 204.1 61.526 202.932 62.8773C205.13 69.2072 204.205 87.4885 196.393 88.5839C195.546 88.702 194.622 88.6233 193.611 88.3019C193.041 88.2625 192.562 88.2756 192.162 88.3281C187.826 88.9381 192.765 94.8483 186.134 98.5347C182.605 102.156 184.946 105.219 187.249 107.311C187.505 112.087 189.42 113.385 191.906 113.038C194.359 112.69 197.37 110.735 199.869 108.938C202.211 105.166 193.533 106.478 192.313 103.828C191.703 102.654 193.447 101.322 194.91 101.113C195.691 101.001 196.386 101.218 196.596 101.939C198.99 100.037 201.24 99.1185 203.352 98.8233C206.875 98.3313 209.997 99.5645 212.713 100.857C215.422 102.156 217.724 103.5 219.607 103.238C220.184 103.159 220.728 102.923 221.227 102.484C220.676 85.9077 247.891 92.5524 245.372 80.2075V80.2206Z" fill="white"/>
<path d="M107.031 241.59C104.19 241.59 103.18 239.413 102.354 237.628C101.554 235.897 100.858 234.401 98.8182 234.349C98.7854 234.349 98.7526 234.349 98.7133 234.336C97.8605 234.191 97.5326 233.726 97.4014 233.358C96.8963 231.922 98.687 229.81 101.652 226.471C102.76 225.224 104.361 223.427 104.774 222.588C104.735 222.588 104.696 222.594 104.656 222.601C104.171 222.666 103.456 222.876 102.531 223.211C102.301 223.598 102.006 224.339 101.737 225.008C100.858 227.186 100.255 228.517 99.2511 228.662C98.1885 228.812 97.6834 227.553 97.4932 226.982C96.7848 226.182 94.161 226.162 91.8324 226.143C88.7494 226.123 85.568 226.097 84.2561 224.483C83.7117 223.814 83.5412 222.955 83.7511 221.938C84.0069 220.672 84.8465 219.531 86.0534 218.816C89.9367 216.507 93.7149 213.955 97.362 211.489C107.805 204.431 117.67 197.766 130.212 196.002C131.904 195.766 133.629 195.621 135.341 195.576C135.578 195.582 135.807 195.68 135.945 195.871C136.837 197.071 137.657 197.635 138.372 197.53C140.569 197.222 142.767 191.43 144.892 185.828C145.141 185.172 145.391 184.516 145.646 183.854C148.401 176.678 151.484 169.613 156.135 168.964C156.496 168.911 156.87 168.898 157.244 168.931C157.303 168.931 157.362 168.951 157.421 168.97C158.47 169.324 159.146 169.895 159.435 170.669C159.986 172.165 158.903 173.969 157.854 175.713C157.152 176.881 156.371 178.186 156.312 179.098C156.371 179.111 156.45 179.111 156.555 179.098C157.604 178.947 159.441 177.432 160.91 176.212C161.999 175.307 163.036 174.454 163.849 174.028C181.31 162.503 182.576 151.601 183.796 141.066C184.669 133.51 185.581 125.697 192.363 117.891C192.383 117.865 192.409 117.839 192.435 117.819C192.98 117.347 193.485 117.085 193.983 117.012C194.351 116.96 194.666 117.012 194.948 117.137C195.223 114.894 197.972 112.329 200.72 111.942C202.124 111.745 203.449 112.106 204.538 112.985C204.715 113.129 204.813 113.346 204.807 113.575C204.695 117.354 207.109 123.624 209.044 128.662C210.015 131.194 210.854 133.378 211.294 134.985C212.822 139.249 210.913 142.562 209.064 145.776C207.483 148.511 205.994 151.096 206.558 154.27C206.578 154.369 206.571 154.467 206.551 154.559C206.394 155.241 205.948 156.087 204.708 156.264C204.19 156.337 203.626 156.284 203.075 156.232C202.465 156.173 201.979 156.14 201.546 156.199C200.976 156.278 200.412 156.514 200.09 157.622C201.599 163.073 200.025 168.006 198.503 172.781C197.237 176.756 196.036 180.508 196.45 184.575C199.69 188.806 196.246 192.414 192.914 195.897C191.504 197.373 190.041 198.901 188.906 200.574C188.874 200.626 188.834 200.672 188.788 200.712C187.26 202.063 186.617 202.384 186.119 202.456C185.377 202.568 183.226 200.607 183.206 200.587C182.931 200.292 182.944 199.833 183.239 199.557C183.528 199.288 183.974 199.295 184.256 199.577C184.466 199.767 185.594 200.653 186.073 200.954C186.296 200.843 186.774 200.541 187.752 199.682C188.946 197.943 190.428 196.395 191.858 194.893C195.571 191.01 197.716 188.472 195.177 185.323C195.092 185.218 195.033 185.087 195.02 184.949C194.515 180.495 195.833 176.35 197.112 172.342C198.654 167.501 200.116 162.935 198.634 157.839C198.601 157.714 198.595 157.583 198.627 157.458C199.014 155.864 199.933 154.953 201.35 154.756C201.94 154.671 202.544 154.716 203.16 154.775C203.705 154.828 204.164 154.867 204.511 154.821C204.82 154.775 204.997 154.697 205.102 154.362C204.524 150.741 206.197 147.849 207.811 145.048C209.569 141.991 211.235 139.105 209.916 135.425C209.483 133.838 208.657 131.679 207.699 129.187C205.777 124.189 203.403 118.003 203.363 113.923C202.648 113.444 201.835 113.267 200.943 113.392C198.398 113.752 196.26 116.304 196.417 117.642C196.535 118.659 198.332 118.606 199.1 118.534C199.356 118.515 199.605 118.626 199.756 118.836C199.907 119.046 199.939 119.321 199.834 119.558C198.883 121.735 198.234 122.588 197.447 122.7C196.364 122.857 195.925 121.663 195.499 120.509L195.341 120.082C195.066 119.361 194.639 118.41 194.213 118.462C194.101 118.475 193.859 118.554 193.459 118.888C186.998 126.34 186.158 133.575 185.272 141.237C184.013 152.112 182.708 163.362 164.649 175.274C164.63 175.287 164.603 175.3 164.577 175.313C163.895 175.661 162.911 176.474 161.868 177.34C160.084 178.816 158.241 180.338 156.784 180.548C155.906 180.672 155.374 180.305 155.086 179.984C154.987 179.872 154.922 179.741 154.902 179.597C154.705 178.173 155.682 176.546 156.627 174.972C157.454 173.588 158.398 172.027 158.09 171.187C157.972 170.866 157.631 170.604 157.067 170.4C156.83 170.387 156.594 170.4 156.365 170.426C152.501 170.971 149.523 177.924 147.037 184.398C146.781 185.054 146.532 185.717 146.283 186.366C143.797 192.912 141.645 198.567 138.595 199C137.375 199.17 136.207 198.54 135.027 197.071C133.492 197.124 131.944 197.255 130.428 197.471C118.221 199.19 108.493 205.762 98.1951 212.722C94.5283 215.202 90.7304 217.766 86.8143 220.095C85.9616 220.607 85.3713 221.387 85.1941 222.253C85.0761 222.837 85.1417 223.276 85.4041 223.591C86.2765 224.667 89.2414 224.693 91.852 224.713C94.994 224.739 97.7031 224.759 98.7526 226.241C98.792 226.3 98.8248 226.366 98.851 226.431C98.9691 226.786 99.0675 226.995 99.1396 227.12C99.5266 226.648 100.078 225.277 100.392 224.49C100.793 223.506 101.134 222.653 101.494 222.187C101.58 222.082 101.685 221.997 101.816 221.951C102.957 221.525 103.823 221.269 104.466 221.184C105.351 221.059 105.942 221.256 106.217 221.768C106.795 222.843 105.502 224.378 102.754 227.468C101.317 229.081 98.6542 232.079 98.7854 232.879C98.8051 232.879 98.8379 232.892 98.9232 232.912C101.822 233.024 102.852 235.247 103.685 237.038C104.696 239.216 105.378 240.429 107.719 240.101C108.146 240.042 108.618 239.924 109.136 239.76C109.589 232.125 113.013 230.033 115.847 229.632C117.729 229.37 119.894 229.764 122.301 230.813C122.544 230.38 122.793 229.954 123.036 229.534C124.997 226.136 126.853 222.929 125.876 220.987C125.227 219.695 123.226 218.835 119.927 218.422C119.513 218.639 119.002 218.921 118.431 219.229C114.987 221.112 112.016 222.673 110.52 222.765C110.12 222.791 109.773 222.483 109.746 222.082C109.72 221.682 110.028 221.335 110.429 221.308C111.721 221.23 115.479 219.177 117.729 217.95C118.405 217.583 118.995 217.255 119.448 217.025C119.579 216.959 119.723 216.933 119.868 216.946C123.928 217.419 126.257 218.494 127.175 220.331C128.506 222.975 126.552 226.353 124.295 230.262C123.948 230.872 123.587 231.489 123.239 232.112C123.049 232.446 122.636 232.578 122.288 232.414C119.894 231.279 117.795 230.833 116.043 231.075C111.806 231.672 110.724 236.428 110.566 240.311C110.553 240.606 110.363 240.862 110.087 240.967C109.3 241.256 108.572 241.453 107.923 241.544C107.608 241.59 107.313 241.61 107.031 241.61V241.59ZM196.791 119.807L196.856 119.977C196.988 120.332 197.171 120.83 197.322 121.099C197.453 120.942 197.676 120.627 197.991 120.004C197.519 119.977 197.125 119.912 196.791 119.807ZM136.496 227.691C135.702 227.691 135 227.448 134.403 226.956C133.098 225.887 132.39 223.755 132.18 220.252C132.088 218.776 132.101 217.274 132.114 216.067C132.114 215.759 132.114 215.438 132.114 215.129C132.035 215.32 131.944 215.529 131.845 215.772C131.832 215.812 131.812 215.851 131.786 215.884C129.871 218.94 129.123 219.59 128.48 219.682C128.179 219.721 127.896 219.636 127.68 219.439C127.155 218.96 127.175 218.061 127.26 216.251C127.28 215.916 127.293 215.562 127.306 215.215C127.372 213.247 127.142 212.611 126.939 212.433C126.913 212.414 126.873 212.374 126.709 212.394C126.512 212.42 126.152 212.545 125.542 212.971C125.515 212.991 125.483 213.011 125.45 213.024C122.249 214.651 114.43 218.98 111.747 220.58C111.399 220.784 110.953 220.672 110.743 220.324C110.54 219.977 110.652 219.531 110.999 219.321C113.682 217.727 121.488 213.404 124.741 211.745C125.41 211.279 125.988 211.017 126.506 210.944C127.195 210.846 127.654 211.108 127.916 211.345C128.749 212.092 128.821 213.667 128.769 215.261C128.756 215.615 128.743 215.976 128.723 216.323C128.697 216.795 128.67 217.366 128.677 217.812C129.025 217.406 129.602 216.631 130.52 215.162C131.498 212.794 131.872 212.342 132.436 212.263C132.678 212.224 132.928 212.302 133.111 212.466C133.577 212.873 133.59 213.608 133.57 216.087C133.557 217.333 133.551 218.75 133.636 220.174C133.813 223.158 134.384 225.06 135.328 225.834C135.742 226.176 136.247 226.3 136.876 226.208C138.595 225.966 142.012 224.004 148.533 216.035C148.605 215.949 148.69 215.884 148.788 215.838C152.272 214.191 152.153 212.866 151.766 211.758C151.635 211.377 151.832 210.958 152.213 210.826C152.593 210.695 153.013 210.892 153.144 211.272C153.977 213.647 152.836 215.497 149.562 217.084C144.059 223.788 139.979 227.245 137.08 227.651C136.876 227.678 136.686 227.691 136.496 227.691ZM155.217 211.194C154.082 211.194 153.032 210.826 152.199 210.118C151.891 209.856 151.852 209.396 152.114 209.088C152.376 208.78 152.836 208.74 153.144 209.003C153.846 209.593 154.751 209.836 155.768 209.692C156.056 209.652 156.417 209.646 156.876 209.639C158.011 209.626 159.723 209.6 161.094 208.937C163.311 207.868 165.43 206.799 166.971 205.52C167.332 205.225 167.673 204.929 168.001 204.647C169.234 203.585 170.205 202.745 171.189 202.607C172.973 202.358 173.747 204.398 174.233 206.635C175.308 206.235 175.951 204.313 176.574 202.45C177.296 200.298 178.037 198.075 179.677 197.176C179.874 197.071 180.11 197.058 180.313 197.143C180.858 197.379 181.376 197.694 181.829 197.983C182.058 198.127 182.281 198.265 182.498 198.383C182.852 198.58 182.977 199.019 182.786 199.373C182.59 199.728 182.15 199.852 181.796 199.662C181.56 199.531 181.317 199.38 181.061 199.223C180.746 199.026 180.418 198.822 180.097 198.652C179.139 199.419 178.549 201.197 177.972 202.909C177.158 205.336 176.319 207.842 174.193 208.137C174.003 208.163 173.806 208.17 173.61 208.157C173.275 208.137 173 207.894 172.941 207.566C172.494 205.225 171.95 203.965 171.406 204.05C170.848 204.129 169.936 204.916 168.972 205.749C168.637 206.038 168.29 206.34 167.922 206.641C166.25 208.019 164.046 209.134 161.75 210.249C160.084 211.056 158.182 211.076 156.916 211.095C156.522 211.095 156.188 211.102 155.991 211.135C155.735 211.167 155.486 211.187 155.236 211.187L155.217 211.194Z" fill="#020202"/>
<path d="M84.2377 265.887C83.5293 265.887 82.5323 265.527 82.0009 263.729C81.4631 264.431 80.8727 264.825 80.2233 264.917C79.9609 264.956 79.692 264.936 79.4296 264.871C79.4034 264.871 79.3771 264.858 79.3575 264.844C73.631 262.706 76.0252 255.156 77.9472 249.089C78.9049 246.071 79.9872 242.654 79.2853 241.709C79.2656 241.683 79.2328 241.637 79.1607 241.591C78.8327 246.917 76.7599 248.026 75.5136 248.203C74.123 248.4 72.5946 247.619 71.3155 246.071C69.6232 244.018 68.1276 240.194 69.5051 236.179C69.5445 236.061 69.6166 235.95 69.715 235.865C75.7957 230.538 80.6956 226.871 84.8543 226.288C89.9839 225.566 93.6834 229.41 97.9864 235.838C98.0127 235.884 98.0389 235.93 98.0586 235.976C99.8165 240.476 95.0478 252.126 91.2695 258.58C89.4329 261.722 86.7697 265.54 84.5395 265.855C84.4476 265.868 84.3427 265.874 84.2312 265.874L84.2377 265.887ZM83.3916 263.27C83.7392 264.503 84.1918 264.438 84.3427 264.418C85.3069 264.28 87.301 262.49 90.0101 257.859C94.241 250.623 98.0192 240.161 96.727 236.593C92.0435 229.607 88.8819 227.213 85.0577 227.744C81.286 228.275 76.6353 231.758 70.8236 236.842C69.82 240.004 70.8957 243.277 72.4372 245.146C73.3687 246.281 74.4444 246.878 75.3037 246.76C76.7337 246.557 77.6389 244.294 77.7307 240.705C77.7438 240.318 78.0521 240.004 78.4457 239.99C79.3378 239.964 80.0134 240.259 80.4529 240.837C81.6074 242.378 80.6038 245.533 79.3378 249.528C77.5143 255.274 75.4546 261.781 79.8232 263.46C79.8888 263.473 79.9544 263.473 80.02 263.467C80.5579 263.388 81.2269 262.483 81.7976 261.033C82.1846 260.049 82.4404 259.072 82.5454 258.659C82.6175 258.383 82.7225 257.963 83.221 257.904C83.444 257.872 83.6736 257.95 83.831 258.114C84.1 258.383 84.0672 258.6 83.9754 259.177C83.8835 259.774 83.6867 261.033 83.3916 263.277V263.27Z" fill="#020202"/>
<path d="M191.184 113.825C190.167 113.825 189.295 113.529 188.593 112.952C187.399 111.968 186.73 110.237 186.546 107.652C185.254 106.445 183.673 104.661 183.608 102.444C183.562 100.929 184.237 99.4463 185.621 98.0294C185.674 97.9769 185.726 97.9376 185.792 97.8982C189.085 96.0681 189.209 93.7198 189.321 91.647C189.413 89.9219 189.518 87.9606 192.069 87.6064C192.529 87.5408 193.053 87.5277 193.67 87.5736C193.729 87.5736 193.788 87.5867 193.84 87.6064C194.713 87.8819 195.539 87.9671 196.3 87.8622C197.842 87.6457 199.18 86.6224 200.282 84.812C203.739 79.1577 203.857 67.7508 202.25 63.1132C202.164 62.864 202.217 62.595 202.387 62.3982C203.614 60.9814 205.011 60.1549 206.533 59.9384C210.305 59.4071 214.359 62.6409 218.648 66.065L219.836 67.0096C224.441 70.6566 229.36 74.1528 234.365 73.451C236.635 73.1296 238.766 72.0079 240.892 70.0072C241.994 68.2559 242.44 67.8951 242.912 67.8295C243.194 67.7901 243.47 67.882 243.66 68.0853C244.158 68.5969 244.021 69.5218 243.529 72.3621C243.384 73.182 243.233 74.0741 243.102 74.9662C242.591 78.528 242.899 79.7022 243.253 80.0564C243.299 80.1023 243.397 80.2007 243.699 80.1613C243.929 80.1285 244.335 80.0039 244.978 79.5972C245.182 79.466 245.437 79.4464 245.654 79.5447C245.877 79.6366 246.034 79.8334 246.08 80.0695C247.399 86.5175 241.305 88.341 235.415 90.1121C228.658 92.139 221.679 94.2315 221.948 102.464C221.954 102.68 221.863 102.89 221.699 103.034C221.115 103.546 220.439 103.861 219.698 103.966C217.888 104.222 215.9 103.244 213.604 102.116C213.211 101.919 212.804 101.722 212.384 101.526C209.669 100.233 206.71 99.0986 203.444 99.5578C201.259 99.8661 199.167 100.837 197.042 102.523C196.851 102.674 196.595 102.719 196.366 102.647C196.136 102.575 195.953 102.391 195.887 102.155C195.808 101.88 195.507 101.775 195.001 101.847C194.195 101.959 193.27 102.523 192.981 103.074C192.87 103.29 192.902 103.408 192.948 103.493C193.335 104.327 195.179 104.727 196.668 105.055C198.544 105.461 200.315 105.848 200.846 107.095C201.122 107.744 200.997 108.498 200.479 109.331C200.426 109.41 200.361 109.482 200.282 109.541C197.658 111.424 194.614 113.398 191.991 113.772C191.702 113.812 191.427 113.831 191.164 113.831L191.184 113.825ZM186.592 99.1248C185.53 100.233 185.031 101.309 185.064 102.405C185.103 103.762 185.956 105.153 187.74 106.773C187.884 106.904 187.97 107.082 187.976 107.272C188.101 109.554 188.613 111.083 189.511 111.817C190.082 112.29 190.83 112.447 191.8 112.309C194.083 111.988 197.002 110.086 199.318 108.433C199.449 108.197 199.6 107.862 199.508 107.659C199.278 107.108 197.665 106.76 196.366 106.478C194.378 106.045 192.319 105.599 191.65 104.136C191.381 103.618 191.387 102.995 191.696 102.405C192.266 101.296 193.696 100.555 194.811 100.397C195.625 100.279 196.32 100.47 196.779 100.889C198.898 99.3347 201.023 98.423 203.253 98.1081C206.9 97.5965 210.108 98.8165 213.027 100.207C213.447 100.41 213.86 100.614 214.26 100.811C216.34 101.834 218.137 102.719 219.501 102.529C219.862 102.477 220.183 102.352 220.485 102.149C220.393 93.1032 228.147 90.7746 235.001 88.7215C241.167 86.8717 245.07 85.4745 244.788 81.3617C244.473 81.4929 244.178 81.5782 243.903 81.6175C243.056 81.7356 242.518 81.4011 242.217 81.0993C241.312 80.1941 241.148 78.2984 241.653 74.7694C241.784 73.8642 241.941 72.959 242.086 72.126C242.184 71.5684 242.289 70.9452 242.374 70.4008C242.282 70.5386 242.184 70.696 242.072 70.8731C242.04 70.9256 242 70.9715 241.954 71.0174C239.613 73.2411 237.127 74.553 234.562 74.9137C228.98 75.7009 223.771 72.0144 218.917 68.1706L217.724 67.2195C213.689 63.9987 209.878 60.9551 206.723 61.3946C205.648 61.5455 204.677 62.0899 203.752 63.0607C205.346 68.2821 205.136 79.6563 201.515 85.5795C200.17 87.7769 198.478 89.0298 196.491 89.3118C195.539 89.4496 194.529 89.3512 193.473 89.0298C193.001 89.0035 192.594 89.0101 192.26 89.056C190.967 89.2397 190.869 89.8825 190.771 91.7323C190.653 93.9166 190.489 96.9077 186.586 99.1248H186.592Z" fill="#020202"/>
<path d="M207.154 214.579L173.93 195.694L174.953 240.935L207.154 258.915V214.579Z" fill="#EDEDED"/>
<path d="M272.257 179.598L238.239 159.506L173.93 195.695L207.154 214.579L272.257 179.598Z" fill="#EDEDED"/>
<path d="M202.843 222.897L175.195 207.601L157.832 218.686L184.837 233.799L202.843 222.897Z" fill="#FDD000"/>
<path d="M175.194 207.6L159.688 217.439L200.711 221.722L175.194 207.6Z" fill="#FDD000"/>
<path d="M160.089 218.069L175.221 208.465L200.351 222.378C200.462 222.444 200.587 222.47 200.712 222.47C200.974 222.47 201.23 222.332 201.361 222.083C201.558 221.722 201.427 221.27 201.072 221.073L175.556 206.95C175.32 206.819 175.025 206.826 174.795 206.97L159.288 216.809C158.941 217.032 158.836 217.491 159.059 217.832C159.282 218.18 159.741 218.278 160.082 218.062L160.089 218.069Z" fill="#020202"/>
<path d="M184.84 233.799L157.835 218.686L150.363 241.316L177.336 257.387L184.84 233.799Z" fill="#FDD000"/>
<path d="M176.955 258.029C177.073 258.101 177.204 258.134 177.335 258.134C177.427 258.134 177.513 258.121 177.598 258.088C177.808 258.01 177.972 257.832 178.044 257.616L185.548 234.028C185.653 233.694 185.509 233.326 185.2 233.156L158.195 218.049C157.998 217.938 157.768 217.925 157.565 218.003C157.355 218.082 157.198 218.252 157.126 218.462L149.648 241.086C149.536 241.414 149.674 241.781 149.976 241.958L176.955 258.029ZM158.26 219.781L183.947 234.153L176.916 256.271L151.255 240.981L158.26 219.781Z" fill="#020202"/>
<path d="M160.247 224.852L154.73 239.387L175.36 251.214L180.45 235.996L160.247 224.852Z" fill="white"/>
<path d="M151.209 250.558L149.785 251.528L150.028 254.369L151.209 253.47V250.558Z" fill="white"/>
<path d="M149.725 255.051C149.823 255.097 149.921 255.117 150.026 255.117C150.184 255.117 150.341 255.064 150.479 254.966L151.66 254.067C151.843 253.93 151.955 253.707 151.955 253.477V250.558C151.955 250.283 151.804 250.027 151.561 249.902C151.319 249.771 151.023 249.791 150.794 249.948L149.37 250.925C149.147 251.076 149.029 251.332 149.049 251.601L149.292 254.441C149.318 254.71 149.482 254.946 149.731 255.058L149.725 255.051Z" fill="#020202"/>
<path d="M177.332 257.387L150.359 241.316L150.648 252.067L177.653 267.174L177.332 257.387Z" fill="white"/>
<path d="M150.289 252.717L177.295 267.823C177.406 267.889 177.531 267.915 177.655 267.915C177.787 267.915 177.924 267.876 178.042 267.803C178.272 267.666 178.41 267.41 178.397 267.141L178.075 257.354C178.069 257.098 177.931 256.869 177.714 256.738L150.735 240.667C150.499 240.529 150.21 240.529 149.981 240.667C149.745 240.805 149.607 241.06 149.614 241.329L149.909 252.08C149.915 252.343 150.06 252.579 150.289 252.71V252.717ZM176.606 257.82L176.868 265.881L151.385 251.621L151.142 242.641L176.612 257.813L176.606 257.82Z" fill="#020202"/>
<path d="M177.656 270.092L150.828 254.854L151.451 259.236L177.656 273.857V270.092Z" fill="#FDD000"/>
<path d="M151.09 259.886L177.296 274.507C177.407 274.572 177.532 274.599 177.656 274.599C177.781 274.599 177.919 274.566 178.03 274.494C178.26 274.362 178.398 274.113 178.398 273.851V270.086C178.398 269.817 178.253 269.574 178.024 269.436L151.195 254.198C150.946 254.061 150.644 254.074 150.408 254.231C150.172 254.389 150.054 254.671 150.093 254.953L150.723 259.328C150.756 259.558 150.894 259.761 151.097 259.872L151.09 259.886ZM176.915 270.525V272.591L152.14 258.764L151.779 256.252L176.915 270.525Z" fill="#020202"/>
<path d="M177.656 267.174L149.785 251.529L150.028 254.37L177.656 270.093V267.174Z" fill="#A7A7A7"/>
<path d="M149.66 255.019L177.289 270.742C177.4 270.808 177.532 270.841 177.656 270.841C177.781 270.841 177.912 270.808 178.03 270.742C178.26 270.611 178.397 270.362 178.397 270.099V267.18C178.397 266.911 178.253 266.662 178.017 266.531L150.146 250.887C149.903 250.749 149.608 250.762 149.378 250.913C149.149 251.064 149.017 251.326 149.037 251.602L149.28 254.442C149.299 254.685 149.437 254.901 149.654 255.026L149.66 255.019ZM176.915 267.613V268.814L150.736 253.917L150.644 252.868L176.915 267.613Z" fill="#020202"/>
<path d="M192.585 251.739C191.437 251.155 190.02 251.07 188.465 251.608C184.379 253.018 180.883 258.194 180.66 263.166C180.522 266.249 181.67 268.531 183.539 269.483L189.954 272.756C189.922 272.736 189.889 272.71 189.856 272.69C191.017 273.326 192.467 273.438 194.067 272.887C198.154 271.477 201.65 266.301 201.873 261.329C202.011 258.233 200.85 255.944 198.967 254.999C198.974 254.999 198.987 255.006 198.993 255.012L192.578 251.739H192.585ZM188.17 271.129H188.177C188.21 271.188 188.249 271.234 188.288 271.286C188.249 271.234 188.21 271.188 188.17 271.129ZM188.623 271.706C188.682 271.772 188.741 271.837 188.8 271.896C188.741 271.837 188.675 271.772 188.623 271.706ZM190.276 272.198C190.276 272.198 190.335 272.224 190.368 272.238C190.335 272.224 190.309 272.211 190.276 272.198ZM190.774 272.402C190.827 272.421 190.879 272.434 190.938 272.454C190.886 272.434 190.827 272.421 190.774 272.402ZM191.325 272.552C191.378 272.566 191.424 272.572 191.476 272.585C191.424 272.579 191.371 272.566 191.325 272.552ZM192.04 272.644C192.04 272.644 192.086 272.644 192.106 272.644C192.086 272.644 192.06 272.644 192.04 272.644ZM192.631 272.625C192.69 272.625 192.755 272.611 192.821 272.605C192.755 272.611 192.696 272.618 192.631 272.625ZM193.267 272.533C193.326 272.52 193.392 272.507 193.451 272.493C193.385 272.507 193.326 272.52 193.267 272.533ZM194.992 258.22C194.887 260.549 194.015 262.917 192.696 264.878C191.411 266.787 189.692 268.289 187.842 268.977C187.75 268.643 187.672 268.295 187.619 267.928C187.606 267.836 187.606 267.738 187.593 267.646C187.573 267.475 187.554 267.305 187.547 267.128C187.547 267.121 187.547 267.108 187.547 267.101C187.541 266.833 187.541 266.564 187.547 266.282C187.573 265.698 187.645 265.114 187.764 264.537C188.111 262.798 188.852 261.093 189.843 259.624C191.129 257.721 192.841 256.213 194.697 255.531C194.92 256.331 195.025 257.236 194.986 258.233L194.992 258.22ZM196.665 254.54H196.652C196.77 254.527 196.888 254.527 196.999 254.527C196.888 254.527 196.776 254.527 196.665 254.54ZM197.078 254.527C197.281 254.533 197.485 254.56 197.681 254.586C197.485 254.553 197.288 254.533 197.078 254.527ZM197.845 254.619C197.99 254.645 198.128 254.684 198.265 254.724C198.128 254.684 197.99 254.652 197.845 254.619Z" fill="#020202"/>
<path d="M199.643 256.232C198.456 255.143 196.77 254.796 194.854 255.451C192.939 256.114 191.174 257.655 189.849 259.61C188.524 261.571 187.659 263.946 187.554 266.275C187.449 268.603 188.124 270.44 189.312 271.529C190.499 272.624 192.185 272.965 194.093 272.309C196.009 271.647 197.78 270.112 199.105 268.151C200.423 266.189 201.296 263.821 201.401 261.493C201.506 259.164 200.823 257.327 199.643 256.232Z" fill="#020202"/>
<path d="M193.313 270.046C194.657 269.581 196.042 268.407 197.117 266.813C198.239 265.147 198.928 263.172 199.006 261.388C199.072 259.879 198.711 258.64 198.022 258.003C197.668 257.682 197.248 257.524 196.73 257.524C196.396 257.524 196.028 257.59 195.635 257.728C194.297 258.187 192.913 259.368 191.83 260.962C190.709 262.621 190.02 264.602 189.941 266.393C189.876 267.902 190.236 269.135 190.932 269.778C191.279 270.099 191.699 270.256 192.211 270.256C192.545 270.256 192.913 270.191 193.306 270.053L193.313 270.046Z" fill="white"/>
<path d="M256.304 219.23C255.156 218.647 253.745 218.561 252.184 219.099C248.098 220.509 244.601 225.685 244.378 230.657C244.241 233.74 245.389 236.023 247.258 236.974L253.673 240.247C253.64 240.227 253.608 240.201 253.575 240.181C254.736 240.818 256.185 240.929 257.786 240.378C261.873 238.968 265.369 233.792 265.592 228.82C265.729 225.724 264.568 223.435 262.686 222.49C262.692 222.49 262.706 222.497 262.712 222.504L256.297 219.23H256.304ZM251.889 238.614H251.896C251.928 238.673 251.968 238.719 252.007 238.771C251.968 238.719 251.928 238.673 251.889 238.614ZM252.342 239.197C252.401 239.263 252.46 239.329 252.519 239.388C252.46 239.329 252.394 239.263 252.342 239.197ZM252.886 239.716C252.952 239.768 253.011 239.821 253.076 239.867C253.011 239.821 252.945 239.768 252.886 239.716ZM253.988 239.683C253.988 239.683 254.047 239.709 254.08 239.722C254.047 239.709 254.021 239.696 253.988 239.683ZM254.487 239.893C254.539 239.912 254.591 239.926 254.651 239.945C254.598 239.926 254.539 239.912 254.487 239.893ZM255.044 240.044C255.097 240.057 255.149 240.063 255.195 240.076C255.142 240.07 255.09 240.057 255.044 240.044ZM255.759 240.129C255.759 240.129 255.805 240.129 255.825 240.129C255.805 240.129 255.779 240.129 255.759 240.129ZM256.349 240.109C256.408 240.109 256.474 240.096 256.54 240.09C256.474 240.096 256.415 240.103 256.349 240.109ZM256.986 240.017C257.045 240.004 257.11 239.991 257.169 239.978C257.104 239.991 257.045 240.004 256.986 240.017ZM258.704 225.711C258.599 228.04 257.727 230.408 256.408 232.369C255.123 234.278 253.404 235.78 251.554 236.469C251.463 236.134 251.384 235.787 251.331 235.419C251.318 235.327 251.318 235.229 251.305 235.137C251.285 234.967 251.266 234.796 251.259 234.619C251.259 234.612 251.259 234.599 251.259 234.593C251.253 234.324 251.253 234.055 251.259 233.773C251.285 233.189 251.358 232.605 251.476 232.028C251.823 230.29 252.565 228.584 253.555 227.115C254.841 225.213 256.553 223.704 258.409 223.022C258.632 223.822 258.737 224.727 258.698 225.724L258.704 225.711ZM260.377 222.025H260.364C260.482 222.012 260.6 222.012 260.711 222.012C260.6 222.012 260.488 222.012 260.377 222.025ZM260.797 222.012C261 222.018 261.203 222.044 261.4 222.071C261.203 222.038 261.007 222.018 260.797 222.012ZM261.558 222.11C261.702 222.136 261.84 222.176 261.977 222.215C261.84 222.176 261.702 222.143 261.558 222.11Z" fill="#020202"/>
<path d="M263.362 223.723C262.174 222.634 260.488 222.287 258.573 222.943C256.658 223.605 254.893 225.147 253.568 227.101C252.243 229.063 251.377 231.437 251.272 233.766C251.167 236.094 251.843 237.931 253.03 239.02C254.218 240.115 255.903 240.457 257.812 239.801C259.721 239.138 261.499 237.603 262.824 235.642C264.142 233.681 265.015 231.313 265.119 228.984C265.224 226.655 264.542 224.819 263.362 223.723Z" fill="#020202"/>
<path d="M202.846 222.897L184.84 233.799L177.336 257.387L177.657 267.174L202.374 252.796L202.846 222.897Z" fill="#FDD000"/>
<path d="M177.295 267.823C177.406 267.882 177.531 267.915 177.655 267.915C177.78 267.915 177.911 267.882 178.029 267.817L202.745 253.438C202.968 253.307 203.113 253.071 203.113 252.809L203.585 222.91C203.585 222.641 203.447 222.386 203.211 222.254C202.975 222.117 202.686 222.123 202.457 222.261L184.458 233.156C184.307 233.248 184.189 233.392 184.136 233.57L176.632 257.157C176.606 257.236 176.593 257.321 176.599 257.407L176.921 267.193C176.927 267.456 177.072 267.692 177.301 267.823H177.295ZM185.461 234.291L202.076 224.235L201.63 252.369L178.357 265.908L178.082 257.492L185.461 234.291Z" fill="#020202"/>
<path d="M272.259 179.598L207.156 214.579V258.915L272.259 223.992V179.598Z" fill="#EDEDED"/>
<path d="M251.125 229.43L207.156 253.057V258.915L250.003 235.93C249.964 235.458 249.95 234.972 249.97 234.461C250.049 232.762 250.462 231.05 251.118 229.43H251.125Z" fill="#A7A7A7"/>
<path d="M258.947 221.164C256.598 221.977 254.421 223.873 252.794 226.274C252.131 227.251 251.567 228.32 251.121 229.429L264.791 222.082C263.335 220.777 261.282 220.357 258.953 221.164H258.947Z" fill="#020202"/>
<path d="M258.83 220.817C256.488 221.624 254.238 223.487 252.494 226.071C251.824 227.062 251.247 228.144 250.782 229.292L250.395 230.236L265.422 222.162L265.035 221.814C263.409 220.351 261.205 219.997 258.83 220.817ZM251.89 228.603C252.244 227.862 252.651 227.154 253.097 226.484C254.757 224.038 256.875 222.273 259.066 221.519C259.821 221.257 260.555 221.132 261.25 221.132C262.313 221.132 263.29 221.434 264.124 222.031L251.89 228.603Z" fill="#020202"/>
<path d="M264.835 222.123C264.835 222.123 264.803 222.103 264.79 222.09L251.12 229.436C250.464 231.057 250.05 232.769 249.972 234.468C249.945 234.979 249.972 235.465 250.004 235.937L266.561 227.114C266.351 225.081 265.977 223.185 264.835 222.129V222.123Z" fill="#020202"/>
<path d="M198.535 230.912L188.394 236.612L183.586 250.873L198.319 242.588L198.535 230.912Z" fill="white"/>
<path d="M175.728 248.544C175.597 248.931 175.807 249.358 176.201 249.482C176.588 249.614 177.014 249.404 177.139 249.01L180.989 237.485C181.343 236.436 180.884 235.288 179.907 234.77L161.534 224.97C160.943 224.655 160.248 224.615 159.625 224.865C159.002 225.114 158.529 225.619 158.313 226.255L154.417 237.964C154.075 238.987 154.508 240.115 155.446 240.647L175.23 251.896C175.348 251.962 175.473 251.995 175.597 251.995C175.853 251.995 176.109 251.857 176.247 251.621C176.45 251.267 176.325 250.807 175.965 250.604L156.181 239.355C155.86 239.171 155.709 238.784 155.827 238.43L159.723 226.721C159.795 226.498 159.959 226.327 160.176 226.242C160.392 226.157 160.622 226.17 160.832 226.275L179.205 236.075C179.539 236.252 179.697 236.646 179.579 237.006L175.728 248.531V248.544Z" fill="#020202"/>
<path d="M186.4 248.439C186.039 248.643 185.915 249.095 186.118 249.449C186.321 249.81 186.774 249.935 187.128 249.731L198.299 243.447C198.765 243.185 199.067 242.687 199.073 242.149L199.25 232.283C199.263 231.732 198.981 231.234 198.509 230.945C198.037 230.663 197.46 230.656 196.981 230.925L188.289 235.812C187.961 235.996 187.712 236.298 187.594 236.652L183.035 250.151C182.904 250.538 183.114 250.965 183.501 251.096C183.58 251.122 183.658 251.135 183.737 251.135C184.045 251.135 184.334 250.938 184.439 250.63L189.011 237.111L197.755 232.257L197.558 242.155L186.387 248.439H186.4Z" fill="#020202"/>
<path d="M177.332 257.387L150.359 241.316L150.648 252.067L177.653 267.174L177.332 257.387Z" fill="#FDD000"/>
<path d="M150.289 252.717L177.295 267.823C177.406 267.889 177.531 267.915 177.655 267.915C177.787 267.915 177.924 267.876 178.042 267.803C178.272 267.666 178.41 267.41 178.397 267.141L178.075 257.354C178.069 257.098 177.931 256.869 177.714 256.738L150.735 240.667C150.499 240.529 150.21 240.529 149.981 240.667C149.745 240.805 149.607 241.06 149.614 241.329L149.909 252.08C149.915 252.343 150.06 252.579 150.289 252.71V252.717ZM176.606 257.82L176.868 265.881L151.385 251.621L151.142 242.641L176.612 257.813L176.606 257.82Z" fill="#020202"/>
<path d="M176.41 263.395C176.869 263.664 177.447 263.33 177.44 262.798L177.427 260.995C177.427 260.758 177.302 260.535 177.099 260.411L172.743 257.78C172.284 257.505 171.707 257.833 171.707 258.364V260.221C171.707 260.463 171.838 260.686 172.042 260.811L176.41 263.389V263.395Z" fill="white"/>
<path d="M176.035 264.038C176.258 264.169 176.508 264.234 176.763 264.234C177.019 264.234 177.255 264.169 177.478 264.044C177.924 263.788 178.2 263.309 178.193 262.798L178.18 260.994C178.18 260.502 177.911 260.036 177.492 259.78L173.136 257.15C172.697 256.881 172.146 256.875 171.693 257.13C171.247 257.386 170.965 257.859 170.965 258.377V260.233C170.965 260.738 171.234 261.21 171.667 261.466L176.035 264.044V264.038ZM172.447 258.475L176.691 261.033L176.704 262.699L172.454 260.227V258.469L172.447 258.475Z" fill="#020202"/>
<path d="M155.108 251.476C155.567 251.739 156.138 251.404 156.132 250.879L156.118 249.062C156.118 248.82 155.987 248.597 155.777 248.479L151.592 246.019C151.133 245.75 150.562 246.078 150.562 246.609V248.479C150.562 248.721 150.694 248.951 150.91 249.076L155.108 251.476Z" fill="white"/>
<path d="M154.736 252.119C154.959 252.244 155.202 252.309 155.444 252.309C155.687 252.309 155.936 252.244 156.166 252.113C156.612 251.85 156.881 251.385 156.874 250.866L156.861 249.049C156.861 248.551 156.586 248.079 156.153 247.829L151.968 245.369C151.522 245.107 150.984 245.107 150.538 245.363C150.085 245.619 149.816 246.084 149.816 246.603V248.472C149.816 248.984 150.092 249.456 150.538 249.712L154.736 252.113V252.119ZM151.305 246.708L155.372 249.095L155.385 250.775L151.305 248.472V246.701V246.708Z" fill="#020202"/>
<path d="M272.258 223.992V218.075L264.793 222.09C264.793 222.09 264.826 222.109 264.839 222.122C265.98 223.178 266.354 225.074 266.564 227.108L272.258 223.992Z" fill="#A7A7A7"/>
<path d="M209.508 252.539C209.626 252.539 209.744 252.513 209.862 252.447L249.461 231.168C249.822 230.972 249.96 230.526 249.763 230.158C249.566 229.797 249.12 229.66 248.753 229.856L209.153 251.135C208.793 251.332 208.655 251.778 208.852 252.146C208.989 252.395 209.245 252.539 209.508 252.539Z" fill="#020202"/>
<path d="M249.109 231.26C249.227 231.26 249.345 231.234 249.463 231.169L251.477 230.086C251.838 229.89 251.976 229.444 251.779 229.076C251.582 228.715 251.136 228.578 250.769 228.774L248.755 229.857C248.394 230.054 248.256 230.5 248.453 230.867C248.591 231.116 248.847 231.26 249.109 231.26Z" fill="#020202"/>
<path d="M265.375 222.628C265.375 222.628 265.388 222.608 265.395 222.602L271.01 219.584C271.37 219.388 271.508 218.942 271.311 218.574C271.114 218.213 270.668 218.076 270.301 218.273L264.43 221.428C264.214 221.546 264.089 221.769 264.056 222.011C264.024 222.254 264.135 222.503 264.319 222.667C264.463 222.799 264.647 222.864 264.824 222.864C265.021 222.864 265.224 222.785 265.368 222.628H265.375Z" fill="#020202"/>
<path d="M267.627 225.56C267.259 225.75 267.122 226.196 267.312 226.564C267.443 226.82 267.705 226.964 267.974 226.964C268.092 226.964 268.204 226.938 268.315 226.879L272.599 224.655C272.848 224.524 272.999 224.275 272.999 223.992V218.076C272.999 217.813 272.861 217.571 272.638 217.44C272.415 217.308 272.133 217.302 271.904 217.42L270.303 218.279C269.942 218.476 269.804 218.922 270.001 219.289C270.198 219.65 270.644 219.788 271.011 219.591L271.51 219.322V223.546L267.627 225.567V225.56Z" fill="#020202"/>
<path d="M195.028 254.534C192.634 255.361 190.41 257.296 188.751 259.749C188.469 260.169 188.206 260.608 187.957 261.054L199.154 254.403C197.947 253.996 196.543 254.009 195.028 254.534Z" fill="#020202"/>
<path d="M199.28 254.042C197.961 253.596 196.453 253.648 194.911 254.173C192.523 255 190.228 256.902 188.443 259.532C188.188 259.913 187.925 260.339 187.637 260.87L186.961 262.084L200.054 254.304L199.28 254.042ZM189.06 259.965C190.752 257.466 192.91 255.669 195.147 254.895C196.197 254.534 197.22 254.416 198.165 254.554L189.053 259.965H189.06Z" fill="#020202"/>
<path d="M187.956 261.054C188.205 260.608 188.468 260.168 188.75 259.748C190.409 257.295 192.626 255.36 195.027 254.534C196.542 254.009 197.953 253.996 199.153 254.402C199.848 254.639 200.485 255.012 201.029 255.511C201.14 255.616 201.245 255.734 201.35 255.852L202.426 255.209L202.38 252.776C202.315 252.723 202.242 252.671 202.177 252.618C200.34 251.234 197.88 250.854 195.119 251.805C192.102 252.848 189.307 255.281 187.215 258.371C186.27 259.768 185.483 261.303 184.88 262.904L177.664 267.193V270.112L183.896 266.367L186.408 264.858C186.769 263.546 187.307 262.267 187.969 261.073L187.956 261.054Z" fill="#A7A7A7"/>
<path d="M200.716 256.233C200.854 256.462 201.103 256.593 201.353 256.593C201.484 256.593 201.615 256.561 201.733 256.488L202.809 255.846C203.032 255.708 203.17 255.465 203.17 255.203L203.137 251.293C203.137 250.887 202.802 250.559 202.396 250.559H202.389C201.976 250.559 201.648 250.9 201.654 251.306L201.687 254.789L200.979 255.216C200.625 255.426 200.513 255.885 200.723 256.239L200.716 256.233Z" fill="#020202"/>
<path d="M177.659 266.432C177.246 266.432 176.918 266.767 176.918 267.174V270.093C176.918 270.362 177.062 270.611 177.298 270.742C177.41 270.808 177.541 270.84 177.666 270.84C177.797 270.84 177.928 270.808 178.046 270.736L186.79 265.481C186.954 265.383 187.072 265.226 187.125 265.042C187.459 263.822 187.964 262.602 188.62 261.421C188.896 260.922 189.138 260.522 189.381 260.168C191.027 257.735 193.126 255.99 195.285 255.242C196.59 254.789 197.849 254.75 198.932 255.111C199.529 255.314 200.073 255.629 200.539 256.062C200.611 256.127 200.67 256.2 200.735 256.272L200.814 256.357C201.09 256.659 201.562 256.679 201.864 256.403C202.165 256.128 202.185 255.655 201.91 255.353L201.837 255.275C201.739 255.17 201.647 255.065 201.542 254.966C200.919 254.396 200.198 253.969 199.404 253.7C198.007 253.228 196.413 253.281 194.799 253.838C192.339 254.691 189.971 256.639 188.148 259.335C187.885 259.729 187.623 260.162 187.321 260.699C186.659 261.893 186.141 263.12 185.773 264.36L178.414 268.787V267.187C178.414 266.774 178.079 266.446 177.672 266.446L177.659 266.432Z" fill="#020202"/>
<path d="M177.658 267.922C177.789 267.922 177.921 267.889 178.039 267.817L179.751 266.8C180.105 266.59 180.223 266.131 180.013 265.783C179.803 265.429 179.344 265.318 178.996 265.521L177.284 266.538C176.93 266.748 176.812 267.207 177.022 267.554C177.16 267.791 177.409 267.922 177.665 267.922H177.658Z" fill="#020202"/>
<path d="M179.369 266.905C179.5 266.905 179.632 266.872 179.75 266.8L185.253 263.527C185.397 263.441 185.509 263.31 185.568 263.153C186.165 261.585 186.919 260.116 187.824 258.777C189.924 255.681 192.593 253.451 195.355 252.5C196.752 252.015 198.084 251.89 199.304 252.133C199.704 252.211 200.097 251.949 200.176 251.542C200.255 251.142 199.992 250.749 199.586 250.67C198.103 250.381 196.516 250.526 194.863 251.096C191.8 252.152 188.861 254.586 186.585 257.951C185.666 259.315 184.886 260.804 184.263 262.392L178.976 265.534C178.622 265.744 178.503 266.203 178.713 266.55C178.851 266.787 179.1 266.918 179.356 266.911L179.369 266.905Z" fill="#020202"/>
<path d="M177.659 270.093V273.858L185.504 269.489C185.498 269.129 185.393 268.204 185.379 267.823C185.347 266.715 185.55 266.164 185.688 265.39L177.652 270.093H177.659Z" fill="#FDD000"/>
<path d="M186.421 265.52C186.474 265.232 186.349 264.943 186.113 264.779C185.877 264.615 185.562 264.602 185.313 264.746L177.277 269.449C177.048 269.581 176.91 269.83 176.91 270.092V273.857C176.91 274.12 177.048 274.363 177.277 274.5C177.396 274.566 177.527 274.605 177.651 274.605C177.776 274.605 177.901 274.572 178.012 274.513L185.857 270.145C186.1 270.014 186.244 269.751 186.238 269.476C186.238 269.286 186.205 268.944 186.172 268.597C186.146 268.288 186.12 267.987 186.113 267.81C186.093 267.055 186.185 266.603 186.297 266.084C186.336 265.907 186.376 265.724 186.408 265.527L186.421 265.52ZM178.399 272.591V270.519L184.67 266.845C184.644 267.134 184.624 267.455 184.637 267.842C184.637 268.039 184.67 268.38 184.703 268.721C184.716 268.839 184.723 268.958 184.736 269.062L178.406 272.585L178.399 272.591Z" fill="#020202"/>
<path d="M257.032 237.531C258.376 237.065 259.76 235.891 260.836 234.297C261.958 232.631 262.646 230.657 262.725 228.872C262.791 227.364 262.43 226.124 261.741 225.488C261.387 225.166 260.967 225.009 260.449 225.009C260.115 225.009 259.747 225.074 259.354 225.212C258.015 225.671 256.631 226.852 255.549 228.446C254.427 230.106 253.739 232.086 253.66 233.877C253.594 235.386 253.955 236.619 254.65 237.262C254.998 237.583 255.418 237.741 255.93 237.741C256.264 237.741 256.631 237.675 257.025 237.537L257.032 237.531Z" fill="white"/>
<path d="M157.566 258.646V263.658L165.438 268.072L165.405 263.153L157.566 258.646Z" fill="white"/>
<path d="M165.076 268.722C165.188 268.787 165.312 268.813 165.437 268.813C165.561 268.813 165.699 268.781 165.817 268.708C166.047 268.571 166.185 268.328 166.185 268.066L166.152 263.146C166.152 262.884 166.008 262.641 165.778 262.51L157.939 257.997C157.71 257.866 157.428 257.866 157.198 257.997C156.969 258.128 156.824 258.377 156.824 258.64V263.658C156.824 263.927 156.969 264.176 157.205 264.307L165.076 268.722ZM158.313 259.932L164.669 263.586L164.696 266.8L158.32 263.225V259.932H158.313Z" fill="#020202"/>
<path d="M272.257 219.053C272.67 219.053 272.998 218.718 272.998 218.311V179.597C272.998 179.335 272.861 179.092 272.637 178.961C272.414 178.83 272.132 178.823 271.903 178.941L206.8 213.923C206.557 214.054 206.406 214.304 206.406 214.579V258.915C206.406 259.177 206.544 259.42 206.767 259.551C206.885 259.623 207.016 259.656 207.147 259.656C207.266 259.656 207.39 259.623 207.502 259.571L250.394 236.56C250.755 236.363 250.893 235.917 250.696 235.55C250.499 235.189 250.053 235.051 249.686 235.248L207.889 257.668V215.019L271.503 180.837V218.305C271.503 218.718 271.837 219.046 272.244 219.046L272.257 219.053Z" fill="#020202"/>
<path d="M204.66 256.671C204.299 256.468 203.847 256.599 203.65 256.96C203.447 257.32 203.578 257.773 203.939 257.97L206.792 259.564C206.904 259.629 207.028 259.656 207.153 259.656C207.277 259.656 207.415 259.623 207.527 259.551C207.756 259.419 207.894 259.17 207.894 258.908V214.572C207.894 214.303 207.75 214.061 207.52 213.923L174.296 195.038C174.06 194.907 173.778 194.907 173.548 195.045C173.319 195.182 173.181 195.432 173.188 195.701L173.378 202.536C173.391 202.949 173.732 203.264 174.139 203.257C174.552 203.244 174.874 202.903 174.86 202.496L174.703 196.98L206.405 214.999V257.635L204.654 256.658L204.66 256.671Z" fill="#020202"/>
<path d="M175.714 195.124C175.792 195.124 175.871 195.111 175.95 195.084C176.324 194.96 209.941 176.186 238.239 160.358L270.446 178.633C270.807 178.836 271.259 178.712 271.463 178.351C271.666 177.997 271.541 177.538 271.181 177.334L238.606 158.856C238.383 158.725 238.101 158.725 237.878 158.856C216.75 170.67 176.599 193.103 175.412 193.694C175.064 193.845 174.887 194.245 175.005 194.612C175.11 194.927 175.399 195.124 175.714 195.124Z" fill="#020202"/>
</g>
<defs>
<clipPath id="clip0_227_42178">
<rect width="213" height="219.599" fill="white" transform="translate(60 55)"/>
</clipPath>
</defs>
</svg>
