<svg width="375" height="79" viewBox="0 0 375 79" fill="none" xmlns="http://www.w3.org/2000/svg">
<g clip-path="url(#clip0_369_2)">
<rect width="375" height="79" fill="#F6F6F6"/>
<path d="M335.831 4.90299V16.8527H355.879V74.0334H370.692V16.8527H390.74V4.90299H335.831ZM391.001 17.1131H370.953V74.2938H355.618V17.1131H335.57V4.64258H391.001V17.1131Z" stroke="#404040" stroke-width="0.531416"/>
<path d="M311.817 4.90299V74.0334H326.631V4.90299H311.817ZM326.891 74.2938H311.557V4.64258H326.891V74.2938Z" stroke="#404040" stroke-width="0.531416"/>
<path d="M270.611 61.8985C273.418 61.8985 275.792 61.4042 277.733 60.4156L277.92 60.3184C279.961 59.1992 281.508 57.5531 282.561 55.3804C283.581 53.2757 284.108 50.7384 284.14 47.7686L284.141 47.4799V5.21159H298.955V47.381C298.955 53.7015 297.638 58.9358 295.005 63.0836C292.437 67.2314 288.98 70.3589 284.635 72.4657C280.355 74.5066 275.615 75.5271 270.414 75.5271L269.927 75.5241C264.917 75.4623 260.339 74.4429 256.193 72.4657C251.979 70.3589 248.621 67.2314 246.119 63.0836C243.76 59.0654 242.543 54.0277 242.469 47.9705L242.465 47.381V5.21159H257.279V47.4799L257.281 47.7686C257.31 50.7384 257.804 53.2757 258.76 55.3804C259.814 57.5531 261.328 59.1992 263.303 60.3184C265.344 61.3718 267.78 61.8985 270.611 61.8985ZM270.611 61.8985V61.6381M270.611 61.8985V61.6381M270.611 61.6381C273.478 61.6381 275.869 61.1168 277.797 60.0885C279.787 58.9963 281.296 57.392 282.327 55.267C283.359 53.1383 283.881 50.5457 283.881 47.4799V4.95117H299.215V47.381C299.215 53.7369 297.891 59.0232 295.225 63.2232C292.631 67.4113 289.138 70.5717 284.749 72.6999L284.747 72.7007C280.429 74.7599 275.65 75.7875 270.414 75.7875C265.341 75.7875 260.698 74.8231 256.487 72.8906L256.081 72.7007L256.078 72.6997L256.076 72.6986C251.817 70.5691 248.423 67.4069 245.896 63.2181L245.895 63.2156C243.429 59.0171 242.205 53.7337 242.205 47.381V4.95117H257.539V47.4799L257.541 47.766C257.571 50.7085 258.059 53.2074 258.997 55.2708C260.028 57.3958 261.505 58.9987 263.428 60.0895C265.423 61.1183 267.815 61.6381 270.611 61.6381Z" stroke="#404040" stroke-width="0.531416"/>
<path d="M206.937 4.64258H179.814V74.2938H195.149V47.728H203.319L215.56 74.2938H232.933L218.962 45.7932C219.776 45.4786 220.549 45.1261 221.281 44.7343C225.005 42.7391 227.745 40.1049 229.484 36.8284C231.227 33.6659 232.126 30.2828 232.181 26.6826L232.183 26.3334C232.183 22.3408 231.251 18.7076 229.383 15.4397C227.577 12.1633 224.771 9.56233 220.98 7.63355C217.245 5.6342 212.56 4.64258 206.937 4.64258ZM206.937 4.64258V4.90299M206.937 4.90299H180.075V74.0334H194.889V47.4676H203.485L215.727 74.0334H232.515L218.602 45.6516C219.44 45.34 220.235 44.9885 220.984 44.5967L221.158 44.5049C224.845 42.5297 227.544 39.9291 229.256 36.7031C230.978 33.5778 231.866 30.2361 231.92 26.6783L231.923 26.3334C231.923 22.3832 231.001 18.7949 229.158 15.5689C227.38 12.3428 224.615 9.77505 220.862 7.86574C217.29 5.95231 212.822 4.96559 207.459 4.90579L206.937 4.90299ZM206.048 36.5413H195.149V17.508H206.048C209.699 17.508 212.316 18.3888 213.959 20.0949L213.962 20.0985L213.966 20.1018L214.124 20.2584C215.736 21.8968 216.552 24.1096 216.552 26.926C216.552 29.9006 215.681 32.2321 213.962 33.9511L213.96 33.9529L213.959 33.9547C212.316 35.6608 209.699 36.5413 206.048 36.5413ZM206.048 36.5413V36.8017M206.048 36.8017H194.889V17.2476H206.048C209.735 17.2476 212.434 18.1365 214.146 19.9141C215.924 21.6259 216.813 23.9633 216.813 26.926L216.81 27.208C216.756 30.1041 215.868 32.4132 214.146 34.1353C212.434 35.9129 209.735 36.8017 206.048 36.8017Z" stroke="#404040" stroke-width="0.531416"/>
<path d="M137.791 61.8857C141.745 61.8857 144.958 61.0826 147.43 59.4761L147.667 59.3182C150.235 57.5405 151.946 55.0056 152.802 51.7137H168.998C167.682 59.0218 164.291 64.7826 158.826 68.9963L158.572 69.1893C153.209 73.2085 146.315 75.2181 137.89 75.2181L137.566 75.2171C130.791 75.1715 124.94 73.6904 120.015 70.774C115.011 67.7454 111.159 63.5647 108.46 58.2317C105.803 52.9174 104.453 46.8374 104.412 39.9919L104.411 39.6654C104.411 32.5548 105.761 26.333 108.46 21.0001C111.159 15.6013 115.011 11.3877 120.015 8.35917C125.018 5.26476 130.977 3.71745 137.89 3.71745L138.29 3.71897C146.666 3.78481 153.512 5.92397 158.826 10.1366L159.081 10.3385C164.396 14.6048 167.702 20.5618 168.998 28.2093H152.802L152.725 27.8846C151.906 24.552 150.253 21.9609 147.766 20.1112C145.198 18.1361 141.873 17.1485 137.791 17.1485C133.907 17.1485 130.582 18.0702 127.817 19.9136C125.117 21.7571 123.043 24.3579 121.595 27.7157C120.212 31.0076 119.521 34.9909 119.521 39.6654L119.523 40.0893C119.565 44.4543 120.255 48.2632 121.595 51.5161C123.043 54.808 125.117 57.3758 127.817 59.2192L128.077 59.3833C130.79 61.0515 134.028 61.8857 137.791 61.8857ZM137.791 61.8857V61.6253M137.791 61.8857V61.6253M137.791 61.6253C141.838 61.6253 145.074 60.7765 147.52 59.103C150.031 57.3642 151.709 54.8849 152.55 51.6481L152.601 51.4533H169.31L169.255 51.76C167.927 59.1263 164.505 64.9463 158.985 69.2026L158.985 69.2028C153.53 73.3937 146.491 75.4785 137.89 75.4785C131.048 75.4785 125.121 74.0349 120.119 71.1371L119.882 70.998L119.88 70.9967C114.833 67.9423 110.948 63.7246 108.228 58.3492L108.227 58.3482C105.507 52.9081 104.15 46.6783 104.15 39.6654C104.15 32.5217 105.507 26.2582 108.228 20.8826C110.948 15.4418 114.833 11.1908 119.88 8.13614C124.931 5.01297 130.938 3.45703 137.89 3.45703C146.492 3.45704 153.532 5.60817 158.987 9.93159C164.423 14.1889 167.822 20.1525 169.191 27.8004L169.255 28.1658L169.307 28.4697H152.594L152.548 28.2668C151.794 24.9378 150.224 22.3539 147.843 20.4975L147.61 20.3203L147.608 20.319L147.607 20.3177C145.095 18.3858 141.831 17.4089 137.791 17.4089C133.949 17.4089 130.677 18.3199 127.961 20.1303C125.309 21.9422 123.265 24.5003 121.835 27.8162L121.835 27.8164C120.469 31.0682 119.781 35.0153 119.781 39.6654L119.783 40.087C119.825 44.4256 120.511 48.1998 121.835 51.4151C123.265 54.6629 125.306 57.188 127.957 59.0003C130.673 60.7463 133.947 61.6253 137.791 61.6253Z" stroke="#404040" stroke-width="0.531416"/>
<path d="M48.528 4.90299V74.0334H94.8455V62.0838H63.3417V44.6035H91.8828V33.1478H63.3417V16.8527H94.8455V4.90299H48.528ZM95.1059 17.1131H63.6021V32.8873H92.1432V44.864H63.6021V61.8233H95.1059V74.2938H48.2676V4.64258H95.1059V17.1131Z" stroke="#404040" stroke-width="0.531416"/>
<path d="M12.1225 4.64258H-15V74.2938H0.33457V47.728H8.50412L20.7452 74.2938H38.1186L24.1474 45.7932C24.9618 45.4786 25.7352 45.1262 26.4668 44.7343C30.1924 42.7384 32.9323 40.103 34.6717 36.8249C36.413 33.6634 37.3116 30.2815 37.3661 26.6826L37.3687 26.3334C37.3687 22.3408 36.4366 18.7076 34.5692 15.4397C32.7636 12.1646 29.9592 9.56465 26.1705 7.6361C22.4351 5.63499 17.7478 4.64258 12.1225 4.64258ZM12.1225 4.64258V4.90299M12.1225 4.90299H-14.7396V74.0334H0.0741537V47.4676H8.67095L20.9121 74.0334H37.7008L23.7881 45.6516C24.6261 45.34 25.4202 44.9885 26.17 44.5967L26.3437 44.5049C30.0306 42.5297 32.73 39.9291 34.4418 36.7031C36.1639 33.5778 37.0519 30.2361 37.1057 26.6783L37.1082 26.3334C37.1082 22.3832 36.1866 18.795 34.3431 15.5689C32.5655 12.3428 29.8002 9.77506 26.0474 7.86574C22.4756 5.9523 18.008 4.96558 12.6443 4.90579L12.1225 4.90299ZM11.2337 36.5413H0.33457V17.508H11.2337C14.8847 17.508 17.5014 18.3888 19.1443 20.0949L19.1476 20.0985L19.1512 20.1018L19.3096 20.2584C20.9214 21.8968 21.7381 24.1096 21.7381 26.926C21.7381 29.9006 20.8669 32.2321 19.1479 33.9511L19.1443 33.9547C17.5014 35.6608 14.8846 36.5413 11.2337 36.5413ZM11.2337 36.5413V36.8017M11.2337 36.8017H0.0741537V17.2476H11.2337C14.9206 17.2476 17.6202 18.1364 19.332 19.9141C21.1096 21.6259 21.9985 23.9633 21.9985 26.926L21.9957 27.208C21.9419 30.1041 21.0541 32.4132 19.332 34.1353C17.6202 35.9129 14.9206 36.8017 11.2337 36.8017Z" stroke="#404040" stroke-width="0.531416"/>
</g>
<defs>
<clipPath id="clip0_369_2">
<rect width="375" height="79" fill="white"/>
</clipPath>
</defs>
</svg>
