<svg width="1513" height="181" viewBox="0 0 1513 181" fill="none" xmlns="http://www.w3.org/2000/svg">
<g clip-path="url(#clip0_227_39687)">
<path d="M1448.68 148.296V97.0585L1399.53 2.49805H1431.39L1465.76 74.5639H1460.14L1494.3 2.49805H1525.95L1476.8 97.0585V148.296H1448.68Z" fill="#020202"/>
<path d="M1293 148.296V2.49805H1347.37C1359.17 2.49805 1368.89 4.51145 1376.53 8.53826C1384.16 12.5651 1389.86 17.9804 1393.6 24.7843C1397.35 31.4494 1399.23 38.8781 1399.23 47.0706C1399.23 54.8465 1397.42 62.1364 1393.81 68.9403C1390.2 75.6053 1384.51 81.0207 1376.73 85.1864C1369.1 89.2132 1359.24 91.2266 1347.16 91.2266H1321.12V148.296H1293ZM1368.61 148.296L1338.62 84.1449H1369.03L1400.69 148.296H1368.61ZM1321.12 70.8148H1345.7C1354.17 70.8148 1360.42 68.732 1364.44 64.5664C1368.47 60.4007 1370.49 54.9159 1370.49 48.112C1370.49 41.3081 1368.47 35.9622 1364.44 32.0742C1360.56 28.0474 1354.31 26.034 1345.7 26.034H1321.12V70.8148Z" fill="#020202"/>
<path d="M1205.28 150.797C1191.12 150.797 1178.62 147.603 1167.79 141.216C1156.96 134.828 1148.49 126.011 1142.38 114.764C1136.27 103.378 1133.21 90.2559 1133.21 75.3984C1133.21 60.5409 1136.27 47.4885 1142.38 36.2412C1148.49 24.8551 1156.96 15.9684 1167.79 9.58101C1178.62 3.19367 1191.12 0 1205.28 0C1219.58 0 1232.15 3.19367 1242.98 9.58101C1253.81 15.9684 1262.21 24.8551 1268.18 36.2412C1274.29 47.4885 1277.35 60.5409 1277.35 75.3984C1277.35 90.2559 1274.29 103.378 1268.18 114.764C1262.21 126.011 1253.81 134.828 1242.98 141.216C1232.15 147.603 1219.58 150.797 1205.28 150.797ZM1205.28 125.595C1214.17 125.595 1221.8 123.581 1228.19 119.554C1234.72 115.389 1239.79 109.557 1243.4 102.059C1247.01 94.5604 1248.81 85.6737 1248.81 75.3984C1248.81 64.9843 1247.01 56.0975 1243.4 48.7382C1239.79 41.24 1234.72 35.4775 1228.19 31.4507C1221.8 27.4239 1214.17 25.4105 1205.28 25.4105C1196.53 25.4105 1188.9 27.4239 1182.37 31.4507C1175.84 35.4775 1170.78 41.24 1167.16 48.7382C1163.55 56.0975 1161.75 64.9843 1161.75 75.3984C1161.75 85.6737 1163.55 94.5604 1167.16 102.059C1170.78 109.557 1175.84 115.389 1182.37 119.554C1188.9 123.581 1196.53 125.595 1205.28 125.595Z" fill="#020202"/>
<path d="M1060.89 148.296V25.2009H1018.19V2.49805H1131.29V25.2009H1088.8V148.296H1060.89Z" fill="#020202"/>
<path d="M961.191 150.797C950.638 150.797 941.196 148.992 932.865 145.381C924.672 141.771 918.146 136.495 913.286 129.552C908.565 122.609 906.135 114.208 905.996 104.35H935.781C935.919 108.654 937.03 112.542 939.113 116.014C941.196 119.485 944.042 122.262 947.653 124.345C951.402 126.289 955.845 127.261 960.983 127.261C965.426 127.261 969.245 126.567 972.438 125.178C975.771 123.651 978.34 121.568 980.145 118.93C981.95 116.291 982.852 113.167 982.852 109.557C982.852 105.391 981.811 101.92 979.728 99.1427C977.784 96.3655 975.007 94.005 971.397 92.061C967.926 90.1171 963.829 88.3814 959.108 86.854C954.526 85.1877 949.666 83.452 944.528 81.6469C933.003 77.8978 924.186 72.899 918.076 66.6505C912.106 60.402 909.12 52.1401 909.12 41.8649C909.12 33.117 911.203 25.6188 915.369 19.3703C919.673 13.1218 925.575 8.33131 933.073 4.99879C940.571 1.66626 949.111 0 958.692 0C968.55 0 977.159 1.73569 984.519 5.20707C992.017 8.53959 997.918 13.3995 1002.22 19.7869C1006.67 26.1742 1008.96 33.6724 1009.1 42.2814H979.103C978.965 39.0878 977.993 36.1024 976.187 33.3253C974.521 30.4093 972.161 28.1182 969.106 26.4519C966.051 24.6468 962.441 23.7442 958.275 23.7442C954.665 23.6054 951.332 24.1608 948.278 25.4105C945.362 26.6602 943.001 28.5348 941.196 31.0341C939.53 33.3947 938.696 36.3801 938.696 39.9903C938.696 43.4617 939.53 46.3777 941.196 48.7382C943.001 51.0987 945.431 53.1816 948.486 54.9867C951.541 56.6529 955.151 58.2498 959.317 59.7772C963.482 61.1657 967.995 62.6237 972.855 64.1511C980.075 66.6505 986.74 69.6359 992.85 73.1073C998.96 76.4398 1003.82 80.8138 1007.43 86.2291C1011.04 91.6445 1012.85 98.7955 1012.85 107.682C1012.85 115.319 1010.83 122.401 1006.81 128.927C1002.78 135.453 996.946 140.73 989.309 144.757C981.811 148.783 972.438 150.797 961.191 150.797Z" fill="#020202"/>
<path d="M788.303 148.296V25.2009H745.605V2.49805H858.703V25.2009H816.213V148.296H788.303Z" fill="#020202"/>
<path d="M675.742 150.797C661.162 150.797 648.596 147.673 638.043 141.424C627.629 135.037 619.575 126.219 613.882 114.972C608.328 103.586 605.551 90.4642 605.551 75.6067C605.551 60.7492 608.328 47.6273 613.882 36.2412C619.575 24.8551 627.629 15.9684 638.043 9.58101C648.596 3.19367 661.162 0 675.742 0C693.377 0 707.818 4.37394 719.065 13.1218C730.312 21.8697 737.324 34.2278 740.102 50.1962H709.484C707.679 42.4203 703.86 36.3801 698.028 32.0756C692.335 27.6322 684.837 25.4105 675.534 25.4105C666.925 25.4105 659.496 27.4933 653.248 31.659C647.138 35.6858 642.417 41.4483 639.084 48.9465C635.752 56.3058 634.086 65.1925 634.086 75.6067C634.086 85.882 635.752 94.7687 639.084 102.267C642.417 109.765 647.138 115.528 653.248 119.554C659.496 123.581 666.925 125.595 675.534 125.595C684.837 125.595 692.335 123.581 698.028 119.554C703.721 115.389 707.471 109.626 709.276 102.267H740.102C737.324 117.402 730.312 129.274 719.065 137.883C707.818 146.492 693.377 150.797 675.742 150.797Z" fill="#020202"/>
<path d="M497.238 148.296V2.49805H593.048V25.2009H525.356V63.3167H586.8V85.1864H525.356V125.593H593.048V148.296H497.238Z" fill="#020202"/>
<path d="M431.839 150.795C422.397 150.795 414.065 148.99 406.845 145.38C399.763 141.77 394.278 136.493 390.391 129.551C386.503 122.469 384.559 113.929 384.559 103.932H412.677C412.677 108.375 413.302 112.263 414.551 115.596C415.94 118.789 417.953 121.289 420.592 123.094C423.369 124.76 426.909 125.593 431.214 125.593C435.38 125.593 438.712 124.83 441.212 123.302C443.85 121.636 445.724 119.345 446.835 116.429C448.085 113.374 448.71 109.764 448.71 105.598V2.49805H476.828V105.598C476.828 120.178 472.732 131.356 464.539 139.132C456.486 146.908 445.586 150.795 431.839 150.795Z" fill="#020202"/>
<path d="M305.164 150.797C291 150.797 278.503 147.603 267.673 141.216C256.842 134.828 248.372 126.011 242.262 114.764C236.152 103.378 233.098 90.2559 233.098 75.3984C233.098 60.5409 236.152 47.4885 242.262 36.2412C248.372 24.8551 256.842 15.9684 267.673 9.58101C278.503 3.19367 291 0 305.164 0C319.466 0 332.032 3.19367 342.863 9.58101C353.693 15.9684 362.094 24.8551 368.065 36.2412C374.175 47.4885 377.229 60.5409 377.229 75.3984C377.229 90.2559 374.175 103.378 368.065 114.764C362.094 126.011 353.693 134.828 342.863 141.216C332.032 147.603 319.466 150.797 305.164 150.797ZM305.164 125.595C314.05 125.595 321.687 123.581 328.075 119.554C334.601 115.389 339.669 109.557 343.279 102.059C346.89 94.5604 348.695 85.6737 348.695 75.3984C348.695 64.9843 346.89 56.0975 343.279 48.7382C339.669 41.24 334.601 35.4775 328.075 31.4507C321.687 27.4239 314.05 25.4105 305.164 25.4105C296.416 25.4105 288.779 27.4239 282.252 31.4507C275.726 35.4775 270.658 41.24 267.048 48.7382C263.438 56.0975 261.632 64.9843 261.632 75.3984C261.632 85.6737 263.438 94.5604 267.048 102.059C270.658 109.557 275.726 115.389 282.252 119.554C288.779 123.581 296.416 125.595 305.164 125.595Z" fill="#020202"/>
<path d="M114.824 148.296V2.49805H169.186C180.989 2.49805 190.709 4.51145 198.346 8.53826C205.983 12.5651 211.676 17.9804 215.425 24.7843C219.174 31.4494 221.049 38.8781 221.049 47.0706C221.049 54.8465 219.243 62.1364 215.633 68.9403C212.023 75.6053 206.33 81.0207 198.554 85.1864C190.917 89.2132 181.058 91.2266 168.978 91.2266H142.942V148.296H114.824ZM190.431 148.296L160.438 84.1449H190.847L222.506 148.296H190.431ZM142.942 70.8148H167.52C175.99 70.8148 182.238 68.732 186.265 64.5664C190.292 60.4007 192.305 54.9159 192.305 48.112C192.305 41.3081 190.292 35.9622 186.265 32.0742C182.377 28.0474 176.129 26.034 167.52 26.034H142.942V70.8148Z" fill="#020202"/>
<path d="M-4.78516 148.296V2.49805H49.785C61.5877 2.49805 71.377 4.51145 79.1528 8.53826C86.9287 12.5651 92.6912 17.9804 96.4403 24.7843C100.189 31.5882 102.064 39.3641 102.064 48.112C102.064 56.1656 100.259 63.5944 96.6486 70.3983C93.0384 77.2022 87.3453 82.7564 79.5694 87.0609C71.7935 91.2266 61.8654 93.3094 49.785 93.3094H23.333V148.296H-4.78516ZM23.333 70.6066H48.1187C57.1443 70.6066 63.6011 68.5932 67.489 64.5664C71.5158 60.4007 73.5292 54.9159 73.5292 48.112C73.5292 40.8915 71.5158 35.3373 67.489 31.4494C63.6011 27.4226 57.1443 25.4092 48.1187 25.4092H23.333V70.6066Z" fill="#020202"/>
<path d="M1327.99 167.562C1327.99 167.786 1328.07 167.978 1328.23 168.136C1328.39 168.286 1328.58 168.36 1328.79 168.36C1329.02 168.36 1329.21 168.286 1329.37 168.136C1329.52 167.978 1329.6 167.786 1329.6 167.562C1329.6 167.338 1329.52 167.147 1329.37 166.988C1329.21 166.83 1329.02 166.75 1328.79 166.75C1328.58 166.75 1328.39 166.83 1328.23 166.988C1328.07 167.147 1327.99 167.338 1327.99 167.562ZM1327.13 167.562C1327.13 167.254 1327.2 166.974 1327.35 166.722C1327.51 166.461 1327.71 166.256 1327.97 166.106C1328.22 165.957 1328.49 165.882 1328.79 165.882C1329.1 165.882 1329.38 165.957 1329.63 166.106C1329.89 166.256 1330.1 166.461 1330.25 166.722C1330.4 166.974 1330.47 167.254 1330.47 167.562C1330.47 167.861 1330.4 168.136 1330.25 168.388C1330.1 168.64 1329.89 168.846 1329.63 169.004C1329.38 169.154 1329.1 169.228 1328.79 169.228C1328.49 169.228 1328.22 169.154 1327.97 169.004C1327.71 168.846 1327.51 168.64 1327.35 168.388C1327.2 168.136 1327.13 167.861 1327.13 167.562ZM1328.82 168.668C1328.75 168.799 1328.7 168.958 1328.65 169.144C1328.61 169.322 1328.56 169.485 1328.51 169.634C1328.44 169.98 1328.34 170.367 1328.22 170.796C1328.1 171.216 1327.95 171.655 1327.78 172.112C1327.62 172.57 1327.42 173.022 1327.18 173.47C1326.96 173.918 1326.7 174.338 1326.41 174.73C1325.99 175.29 1325.5 175.813 1324.94 176.298C1324.38 176.784 1323.76 177.222 1323.07 177.614C1322.38 178.006 1321.61 178.338 1320.78 178.608L1319.26 176.928C1320.19 176.704 1320.99 176.429 1321.67 176.102C1322.34 175.776 1322.92 175.402 1323.42 174.982C1323.92 174.562 1324.36 174.114 1324.75 173.638C1325.05 173.246 1325.32 172.822 1325.53 172.364C1325.75 171.907 1325.94 171.45 1326.08 170.992C1326.23 170.526 1326.33 170.092 1326.38 169.69C1326.24 169.69 1326.01 169.69 1325.68 169.69C1325.37 169.69 1324.99 169.69 1324.55 169.69C1324.12 169.69 1323.67 169.69 1323.19 169.69C1322.73 169.69 1322.27 169.69 1321.83 169.69C1321.4 169.69 1321 169.69 1320.64 169.69C1320.3 169.69 1320.04 169.69 1319.87 169.69C1319.55 169.69 1319.23 169.695 1318.92 169.704C1318.62 169.714 1318.39 169.728 1318.21 169.746V167.772C1318.35 167.791 1318.52 167.81 1318.71 167.828C1318.92 167.847 1319.12 167.861 1319.33 167.87C1319.54 167.88 1319.72 167.884 1319.87 167.884C1320.02 167.884 1320.23 167.884 1320.5 167.884C1320.78 167.884 1321.11 167.884 1321.47 167.884C1321.83 167.884 1322.21 167.884 1322.6 167.884C1323.01 167.884 1323.4 167.884 1323.79 167.884C1324.2 167.884 1324.57 167.884 1324.91 167.884C1325.26 167.884 1325.56 167.884 1325.81 167.884C1326.06 167.884 1326.24 167.884 1326.36 167.884C1326.5 167.884 1326.66 167.88 1326.86 167.87C1327.07 167.861 1327.26 167.828 1327.45 167.772L1328.82 168.668ZM1333.2 167.898C1333.49 167.908 1333.76 167.917 1334.01 167.926C1334.28 167.926 1334.5 167.926 1334.69 167.926C1334.84 167.926 1335.06 167.926 1335.37 167.926C1335.69 167.926 1336.06 167.926 1336.48 167.926C1336.9 167.926 1337.35 167.926 1337.82 167.926C1338.3 167.926 1338.77 167.926 1339.25 167.926C1339.74 167.926 1340.19 167.926 1340.61 167.926C1341.03 167.926 1341.39 167.926 1341.7 167.926C1342.02 167.926 1342.25 167.926 1342.39 167.926C1342.56 167.926 1342.77 167.926 1343.02 167.926C1343.27 167.917 1343.52 167.908 1343.77 167.898C1343.76 168.113 1343.75 168.342 1343.74 168.584C1343.74 168.818 1343.74 169.042 1343.74 169.256C1343.74 169.387 1343.74 169.592 1343.74 169.872C1343.74 170.143 1343.74 170.47 1343.74 170.852C1343.74 171.226 1343.74 171.627 1343.74 172.056C1343.74 172.476 1343.74 172.901 1343.74 173.33C1343.74 173.76 1343.74 174.166 1343.74 174.548C1343.74 174.922 1343.74 175.248 1343.74 175.528C1343.74 175.799 1343.74 175.995 1343.74 176.116C1343.74 176.256 1343.74 176.434 1343.74 176.648C1343.75 176.854 1343.76 177.064 1343.76 177.278C1343.76 177.484 1343.76 177.666 1343.76 177.824C1343.77 177.974 1343.77 178.053 1343.77 178.062H1341.84C1341.84 178.044 1341.84 177.932 1341.84 177.726C1341.85 177.512 1341.85 177.26 1341.85 176.97C1341.86 176.681 1341.87 176.41 1341.87 176.158C1341.87 176.037 1341.87 175.832 1341.87 175.542C1341.87 175.253 1341.87 174.912 1341.87 174.52C1341.87 174.128 1341.87 173.713 1341.87 173.274C1341.87 172.836 1341.87 172.406 1341.87 171.986C1341.87 171.566 1341.87 171.184 1341.87 170.838C1341.87 170.493 1341.87 170.218 1341.87 170.012C1341.87 169.807 1341.87 169.704 1341.87 169.704H1335.11C1335.11 169.704 1335.11 169.807 1335.11 170.012C1335.11 170.218 1335.11 170.493 1335.11 170.838C1335.11 171.174 1335.11 171.557 1335.11 171.986C1335.11 172.406 1335.11 172.836 1335.11 173.274C1335.11 173.704 1335.11 174.119 1335.11 174.52C1335.11 174.912 1335.11 175.253 1335.11 175.542C1335.11 175.832 1335.11 176.037 1335.11 176.158C1335.11 176.326 1335.11 176.518 1335.11 176.732C1335.11 176.938 1335.11 177.138 1335.11 177.334C1335.12 177.53 1335.12 177.694 1335.12 177.824C1335.12 177.964 1335.12 178.044 1335.12 178.062H1333.19C1333.19 178.044 1333.19 177.964 1333.19 177.824C1333.2 177.684 1333.2 177.512 1333.2 177.306C1333.21 177.101 1333.22 176.891 1333.22 176.676C1333.23 176.462 1333.23 176.27 1333.23 176.102C1333.23 175.981 1333.23 175.785 1333.23 175.514C1333.23 175.234 1333.23 174.903 1333.23 174.52C1333.23 174.138 1333.23 173.736 1333.23 173.316C1333.23 172.887 1333.23 172.458 1333.23 172.028C1333.23 171.599 1333.23 171.198 1333.23 170.824C1333.23 170.442 1333.23 170.115 1333.23 169.844C1333.23 169.574 1333.23 169.378 1333.23 169.256C1333.23 169.06 1333.23 168.836 1333.23 168.584C1333.23 168.323 1333.22 168.094 1333.2 167.898ZM1342.57 175.514V177.306H1334.15V175.514H1342.57ZM1356.36 167.072C1356.49 167.268 1356.63 167.497 1356.78 167.758C1356.94 168.01 1357.09 168.267 1357.24 168.528C1357.39 168.78 1357.52 169.018 1357.63 169.242L1356.41 169.76C1356.27 169.462 1356.14 169.196 1356.02 168.962C1355.9 168.72 1355.77 168.486 1355.63 168.262C1355.5 168.029 1355.35 167.796 1355.18 167.562L1356.36 167.072ZM1358.28 166.4C1358.43 166.578 1358.58 166.792 1358.74 167.044C1358.9 167.296 1359.05 167.548 1359.2 167.8C1359.35 168.052 1359.48 168.281 1359.59 168.486L1358.4 169.018C1358.25 168.729 1358.11 168.468 1357.97 168.234C1357.84 168.001 1357.7 167.777 1357.56 167.562C1357.42 167.348 1357.26 167.124 1357.09 166.89L1358.28 166.4ZM1350.27 166.806C1350.5 166.928 1350.76 167.077 1351.05 167.254C1351.34 167.432 1351.64 167.618 1351.93 167.814C1352.23 168.001 1352.52 168.183 1352.79 168.36C1353.06 168.528 1353.28 168.678 1353.46 168.808L1352.42 170.348C1352.23 170.218 1351.99 170.064 1351.72 169.886C1351.46 169.709 1351.18 169.527 1350.88 169.34C1350.59 169.154 1350.31 168.976 1350.02 168.808C1349.74 168.631 1349.48 168.477 1349.26 168.346L1350.27 166.806ZM1347.68 176.746C1348.2 176.653 1348.73 176.536 1349.27 176.396C1349.82 176.256 1350.35 176.088 1350.88 175.892C1351.42 175.687 1351.93 175.444 1352.44 175.164C1353.23 174.716 1353.97 174.212 1354.65 173.652C1355.34 173.092 1355.96 172.5 1356.51 171.874C1357.06 171.24 1357.52 170.586 1357.88 169.914L1358.96 171.818C1358.32 172.789 1357.52 173.708 1356.55 174.576C1355.6 175.435 1354.55 176.196 1353.4 176.858C1352.93 177.12 1352.41 177.372 1351.84 177.614C1351.27 177.848 1350.71 178.048 1350.16 178.216C1349.61 178.384 1349.14 178.506 1348.73 178.58L1347.68 176.746ZM1348.11 169.998C1348.35 170.12 1348.61 170.269 1348.91 170.446C1349.21 170.624 1349.51 170.806 1349.81 170.992C1350.1 171.17 1350.38 171.347 1350.65 171.524C1350.92 171.692 1351.14 171.842 1351.32 171.972L1350.3 173.54C1350.09 173.4 1349.85 173.242 1349.58 173.064C1349.32 172.887 1349.04 172.705 1348.74 172.518C1348.45 172.332 1348.16 172.154 1347.87 171.986C1347.59 171.809 1347.34 171.66 1347.1 171.538L1348.11 169.998ZM1363.6 170.236C1363.75 170.264 1363.94 170.283 1364.16 170.292C1364.37 170.302 1364.55 170.306 1364.7 170.306H1371.11C1371.28 170.306 1371.46 170.302 1371.66 170.292C1371.86 170.283 1372.04 170.264 1372.21 170.236V172C1372.03 171.982 1371.84 171.968 1371.65 171.958C1371.45 171.949 1371.27 171.944 1371.11 171.944H1364.7C1364.55 171.944 1364.37 171.949 1364.16 171.958C1363.94 171.968 1363.75 171.982 1363.6 172V170.236ZM1366.89 177.404V171.202H1368.72V177.404H1366.89ZM1362.88 176.368C1363.06 176.387 1363.25 176.406 1363.46 176.424C1363.66 176.443 1363.85 176.452 1364.03 176.452H1371.77C1371.97 176.452 1372.15 176.443 1372.33 176.424C1372.52 176.396 1372.69 176.378 1372.84 176.368V178.202C1372.69 178.174 1372.5 178.156 1372.28 178.146C1372.06 178.137 1371.89 178.132 1371.77 178.132H1364.03C1363.86 178.132 1363.68 178.137 1363.47 178.146C1363.26 178.156 1363.07 178.174 1362.88 178.202V176.368ZM1388.12 169.116C1388.05 169.247 1387.97 169.406 1387.89 169.592C1387.8 169.77 1387.73 169.947 1387.66 170.124C1387.54 170.535 1387.37 171.006 1387.14 171.538C1386.93 172.061 1386.66 172.607 1386.33 173.176C1386.01 173.736 1385.65 174.278 1385.23 174.8C1384.55 175.603 1383.77 176.331 1382.87 176.984C1381.99 177.638 1380.89 178.226 1379.57 178.748L1377.92 177.264C1378.87 176.984 1379.69 176.662 1380.38 176.298C1381.07 175.934 1381.67 175.547 1382.19 175.136C1382.7 174.716 1383.16 174.273 1383.56 173.806C1383.89 173.442 1384.19 173.032 1384.46 172.574C1384.73 172.108 1384.96 171.646 1385.16 171.188C1385.35 170.731 1385.48 170.33 1385.55 169.984H1380.83L1381.47 168.402C1381.6 168.402 1381.81 168.402 1382.08 168.402C1382.36 168.402 1382.67 168.402 1383.01 168.402C1383.37 168.402 1383.71 168.402 1384.05 168.402C1384.4 168.402 1384.69 168.402 1384.95 168.402C1385.21 168.402 1385.38 168.402 1385.48 168.402C1385.69 168.402 1385.91 168.388 1386.12 168.36C1386.35 168.332 1386.54 168.29 1386.7 168.234L1388.12 169.116ZM1383.56 166.904C1383.39 167.147 1383.23 167.408 1383.07 167.688C1382.91 167.968 1382.79 168.183 1382.71 168.332C1382.39 168.892 1382 169.476 1381.53 170.082C1381.07 170.68 1380.55 171.263 1379.96 171.832C1379.37 172.392 1378.75 172.906 1378.09 173.372L1376.5 172.21C1377.12 171.828 1377.66 171.436 1378.13 171.034C1378.6 170.633 1379.01 170.236 1379.36 169.844C1379.71 169.443 1380 169.06 1380.24 168.696C1380.49 168.323 1380.71 167.992 1380.89 167.702C1381 167.525 1381.11 167.296 1381.24 167.016C1381.36 166.727 1381.45 166.466 1381.52 166.232L1383.56 166.904ZM1394.63 176.48C1394.63 176.303 1394.63 176.014 1394.63 175.612C1394.63 175.202 1394.63 174.73 1394.63 174.198C1394.63 173.657 1394.63 173.092 1394.63 172.504C1394.63 171.916 1394.63 171.352 1394.63 170.81C1394.63 170.26 1394.63 169.774 1394.63 169.354C1394.63 168.934 1394.63 168.626 1394.63 168.43C1394.63 168.188 1394.62 167.908 1394.59 167.59C1394.57 167.273 1394.54 166.993 1394.49 166.75H1396.68C1396.65 166.993 1396.62 167.264 1396.59 167.562C1396.57 167.852 1396.55 168.141 1396.55 168.43C1396.55 168.692 1396.55 169.046 1396.55 169.494C1396.55 169.942 1396.55 170.442 1396.55 170.992C1396.55 171.534 1396.55 172.089 1396.55 172.658C1396.55 173.218 1396.55 173.76 1396.55 174.282C1396.55 174.805 1396.55 175.262 1396.55 175.654C1396.55 176.037 1396.55 176.312 1396.55 176.48C1396.55 176.611 1396.56 176.798 1396.57 177.04C1396.58 177.274 1396.59 177.516 1396.62 177.768C1396.65 178.02 1396.67 178.244 1396.68 178.44H1394.49C1394.53 178.16 1394.56 177.834 1394.59 177.46C1394.62 177.087 1394.63 176.76 1394.63 176.48ZM1396.13 170.376C1396.6 170.498 1397.12 170.656 1397.7 170.852C1398.28 171.039 1398.86 171.24 1399.45 171.454C1400.04 171.669 1400.59 171.884 1401.1 172.098C1401.62 172.304 1402.06 172.495 1402.4 172.672L1401.61 174.604C1401.21 174.399 1400.78 174.194 1400.3 173.988C1399.83 173.774 1399.34 173.568 1398.85 173.372C1398.36 173.176 1397.88 172.994 1397.41 172.826C1396.94 172.658 1396.51 172.509 1396.13 172.378V170.376ZM1416.61 168.332C1416.56 168.416 1416.47 168.547 1416.36 168.724C1416.26 168.902 1416.18 169.065 1416.12 169.214C1415.93 169.653 1415.69 170.143 1415.4 170.684C1415.12 171.226 1414.79 171.772 1414.43 172.322C1414.08 172.864 1413.7 173.372 1413.3 173.848C1412.77 174.436 1412.19 175.02 1411.56 175.598C1410.93 176.168 1410.27 176.695 1409.57 177.18C1408.88 177.656 1408.17 178.067 1407.44 178.412L1406 176.9C1406.76 176.611 1407.49 176.247 1408.2 175.808C1408.91 175.37 1409.57 174.894 1410.17 174.38C1410.78 173.867 1411.3 173.368 1411.74 172.882C1412.05 172.528 1412.34 172.15 1412.61 171.748C1412.89 171.347 1413.14 170.95 1413.35 170.558C1413.57 170.157 1413.73 169.788 1413.83 169.452C1413.73 169.452 1413.57 169.452 1413.32 169.452C1413.08 169.452 1412.8 169.452 1412.47 169.452C1412.15 169.452 1411.82 169.452 1411.46 169.452C1411.11 169.452 1410.77 169.452 1410.44 169.452C1410.12 169.452 1409.84 169.452 1409.6 169.452C1409.36 169.452 1409.18 169.452 1409.08 169.452C1408.89 169.452 1408.68 169.462 1408.47 169.48C1408.25 169.49 1408.05 169.504 1407.85 169.522C1407.66 169.532 1407.52 169.541 1407.42 169.55V167.562C1407.56 167.572 1407.73 167.586 1407.93 167.604C1408.14 167.623 1408.34 167.637 1408.55 167.646C1408.76 167.656 1408.94 167.66 1409.08 167.66C1409.2 167.66 1409.39 167.66 1409.66 167.66C1409.92 167.66 1410.22 167.66 1410.55 167.66C1410.89 167.66 1411.23 167.66 1411.59 167.66C1411.95 167.66 1412.3 167.66 1412.62 167.66C1412.96 167.66 1413.25 167.66 1413.49 167.66C1413.73 167.66 1413.91 167.66 1414.02 167.66C1414.33 167.66 1414.61 167.642 1414.86 167.604C1415.13 167.567 1415.33 167.525 1415.47 167.478L1416.61 168.332ZM1413.48 172.686C1413.84 172.976 1414.23 173.312 1414.64 173.694C1415.05 174.077 1415.46 174.474 1415.86 174.884C1416.26 175.295 1416.63 175.692 1416.96 176.074C1417.31 176.448 1417.6 176.774 1417.83 177.054L1416.24 178.44C1415.89 177.964 1415.49 177.47 1415.05 176.956C1414.61 176.443 1414.14 175.934 1413.65 175.43C1413.16 174.917 1412.67 174.432 1412.16 173.974L1413.48 172.686ZM1424.03 176.48C1424.03 176.303 1424.03 176.014 1424.03 175.612C1424.03 175.202 1424.03 174.73 1424.03 174.198C1424.03 173.657 1424.03 173.092 1424.03 172.504C1424.03 171.916 1424.03 171.352 1424.03 170.81C1424.03 170.26 1424.03 169.774 1424.03 169.354C1424.03 168.934 1424.03 168.626 1424.03 168.43C1424.03 168.188 1424.02 167.908 1423.99 167.59C1423.97 167.273 1423.94 166.993 1423.89 166.75H1426.08C1426.05 166.993 1426.02 167.264 1425.99 167.562C1425.97 167.852 1425.95 168.141 1425.95 168.43C1425.95 168.692 1425.95 169.046 1425.95 169.494C1425.95 169.942 1425.95 170.442 1425.95 170.992C1425.95 171.534 1425.95 172.089 1425.95 172.658C1425.95 173.218 1425.95 173.76 1425.95 174.282C1425.95 174.805 1425.95 175.262 1425.95 175.654C1425.95 176.037 1425.95 176.312 1425.95 176.48C1425.95 176.611 1425.96 176.798 1425.97 177.04C1425.98 177.274 1425.99 177.516 1426.02 177.768C1426.05 178.02 1426.07 178.244 1426.08 178.44H1423.89C1423.93 178.16 1423.96 177.834 1423.99 177.46C1424.02 177.087 1424.03 176.76 1424.03 176.48ZM1425.53 170.376C1426 170.498 1426.52 170.656 1427.1 170.852C1427.68 171.039 1428.26 171.24 1428.85 171.454C1429.44 171.669 1429.99 171.884 1430.5 172.098C1431.02 172.304 1431.46 172.495 1431.8 172.672L1431.01 174.604C1430.61 174.399 1430.18 174.194 1429.7 173.988C1429.23 173.774 1428.74 173.568 1428.25 173.372C1427.76 173.176 1427.28 172.994 1426.81 172.826C1426.34 172.658 1425.91 172.509 1425.53 172.378V170.376ZM1435.63 171.342C1435.79 171.352 1436.01 171.366 1436.27 171.384C1436.53 171.394 1436.8 171.403 1437.08 171.412C1437.37 171.422 1437.64 171.426 1437.88 171.426C1438.11 171.426 1438.4 171.426 1438.75 171.426C1439.09 171.426 1439.47 171.426 1439.87 171.426C1440.28 171.426 1440.7 171.426 1441.13 171.426C1441.57 171.426 1442 171.426 1442.43 171.426C1442.86 171.426 1443.27 171.426 1443.65 171.426C1444.03 171.426 1444.37 171.426 1444.67 171.426C1444.98 171.426 1445.22 171.426 1445.4 171.426C1445.72 171.426 1446.03 171.417 1446.32 171.398C1446.61 171.37 1446.85 171.352 1447.04 171.342V173.54C1446.88 173.531 1446.64 173.517 1446.32 173.498C1446 173.48 1445.7 173.47 1445.4 173.47C1445.22 173.47 1444.98 173.47 1444.67 173.47C1444.36 173.47 1444.02 173.47 1443.63 173.47C1443.25 173.47 1442.85 173.47 1442.42 173.47C1442 173.47 1441.57 173.47 1441.13 173.47C1440.69 173.47 1440.26 173.47 1439.85 173.47C1439.45 173.47 1439.08 173.47 1438.73 173.47C1438.4 173.47 1438.11 173.47 1437.88 173.47C1437.48 173.47 1437.07 173.48 1436.65 173.498C1436.23 173.508 1435.89 173.522 1435.63 173.54V171.342ZM1460.28 166.96C1460.27 167.156 1460.26 167.371 1460.24 167.604C1460.23 167.828 1460.22 168.08 1460.22 168.36C1460.22 168.603 1460.22 168.897 1460.22 169.242C1460.22 169.588 1460.22 169.933 1460.22 170.278C1460.22 170.614 1460.22 170.899 1460.22 171.132C1460.22 171.879 1460.19 172.532 1460.11 173.092C1460.05 173.652 1459.94 174.142 1459.8 174.562C1459.66 174.982 1459.49 175.356 1459.29 175.682C1459.09 176 1458.86 176.303 1458.6 176.592C1458.29 176.928 1457.94 177.232 1457.54 177.502C1457.13 177.764 1456.73 177.983 1456.32 178.16C1455.92 178.347 1455.54 178.496 1455.2 178.608L1453.73 177.068C1454.43 176.91 1455.06 176.69 1455.62 176.41C1456.19 176.121 1456.68 175.752 1457.1 175.304C1457.34 175.034 1457.54 174.763 1457.69 174.492C1457.84 174.222 1457.95 173.923 1458.03 173.596C1458.11 173.26 1458.17 172.882 1458.19 172.462C1458.23 172.042 1458.25 171.562 1458.25 171.02C1458.25 170.778 1458.25 170.488 1458.25 170.152C1458.25 169.816 1458.25 169.485 1458.25 169.158C1458.25 168.832 1458.25 168.566 1458.25 168.36C1458.25 168.08 1458.24 167.828 1458.22 167.604C1458.21 167.371 1458.19 167.156 1458.17 166.96H1460.28ZM1453.78 167.072C1453.77 167.24 1453.77 167.408 1453.76 167.576C1453.75 167.735 1453.74 167.926 1453.74 168.15C1453.74 168.253 1453.74 168.421 1453.74 168.654C1453.74 168.888 1453.74 169.163 1453.74 169.48C1453.74 169.788 1453.74 170.115 1453.74 170.46C1453.74 170.796 1453.74 171.123 1453.74 171.44C1453.74 171.758 1453.74 172.047 1453.74 172.308C1453.74 172.56 1453.74 172.752 1453.74 172.882C1453.74 173.06 1453.75 173.265 1453.76 173.498C1453.77 173.732 1453.77 173.932 1453.78 174.1H1451.75C1451.76 173.97 1451.78 173.783 1451.8 173.54C1451.81 173.298 1451.82 173.074 1451.82 172.868C1451.82 172.738 1451.82 172.546 1451.82 172.294C1451.82 172.042 1451.82 171.758 1451.82 171.44C1451.82 171.114 1451.82 170.782 1451.82 170.446C1451.82 170.101 1451.82 169.774 1451.82 169.466C1451.82 169.158 1451.82 168.888 1451.82 168.654C1451.82 168.421 1451.82 168.253 1451.82 168.15C1451.82 168.02 1451.82 167.852 1451.81 167.646C1451.8 167.432 1451.79 167.24 1451.77 167.072H1453.78ZM1465.03 171.342C1465.19 171.352 1465.41 171.366 1465.67 171.384C1465.93 171.394 1466.2 171.403 1466.48 171.412C1466.77 171.422 1467.04 171.426 1467.28 171.426C1467.51 171.426 1467.8 171.426 1468.15 171.426C1468.49 171.426 1468.87 171.426 1469.27 171.426C1469.68 171.426 1470.1 171.426 1470.53 171.426C1470.97 171.426 1471.4 171.426 1471.83 171.426C1472.26 171.426 1472.67 171.426 1473.05 171.426C1473.43 171.426 1473.77 171.426 1474.07 171.426C1474.38 171.426 1474.62 171.426 1474.8 171.426C1475.12 171.426 1475.43 171.417 1475.72 171.398C1476.01 171.37 1476.25 171.352 1476.44 171.342V173.54C1476.28 173.531 1476.04 173.517 1475.72 173.498C1475.4 173.48 1475.1 173.47 1474.8 173.47C1474.62 173.47 1474.38 173.47 1474.07 173.47C1473.76 173.47 1473.42 173.47 1473.03 173.47C1472.65 173.47 1472.25 173.47 1471.82 173.47C1471.4 173.47 1470.97 173.47 1470.53 173.47C1470.09 173.47 1469.66 173.47 1469.25 173.47C1468.85 173.47 1468.48 173.47 1468.13 173.47C1467.8 173.47 1467.51 173.47 1467.28 173.47C1466.88 173.47 1466.47 173.48 1466.05 173.498C1465.63 173.508 1465.29 173.522 1465.03 173.54V171.342Z" fill="#020202"/>
</g>
<defs>
<clipPath id="clip0_227_39687">
<rect width="1513" height="181" fill="white"/>
</clipPath>
</defs>
</svg>
