<svg width="1514" height="317" viewBox="0 0 1514 317" fill="none" xmlns="http://www.w3.org/2000/svg">
<g clip-path="url(#clip0_370_293)">
<path d="M1342.48 27.5391V73.4258H1419.46V293H1476.34V73.4258H1553.33V27.5391H1342.48ZM1554.33 74.4258H1477.34V294H1418.46V74.4258H1341.48V26.5391H1554.33V74.4258Z" fill="#020202"/>
<path d="M1250.26 27.5391V293H1307.14V27.5391H1250.26ZM1308.14 294H1249.26V26.5391H1308.14V294Z" fill="#020202"/>
<path d="M1041.92 189.85V27.5391H985.039V189.47L985.053 191.733C985.336 214.993 990.008 234.338 999.07 249.768C1008.68 265.695 1021.57 277.705 1037.75 285.795C1053.67 293.387 1071.25 297.302 1090.49 297.539L1092.36 297.551C1112.33 297.551 1130.54 293.632 1146.97 285.795C1163.66 277.705 1176.93 265.695 1186.79 249.768C1196.9 233.84 1201.96 213.74 1201.96 189.47V27.5391H1145.07V189.85L1145.07 190.958C1144.95 202.362 1142.92 212.105 1139.01 220.188C1134.96 228.531 1129.02 234.851 1121.18 239.149L1120.47 239.522C1113.01 243.319 1103.9 245.217 1093.12 245.217V244.217C1104.13 244.217 1113.31 242.215 1120.71 238.267C1128.35 234.073 1134.15 227.912 1138.11 219.752C1142.07 211.578 1144.07 201.622 1144.07 189.85V26.5391H1202.96V189.47C1202.96 213.876 1197.87 234.176 1187.63 250.304C1177.68 266.386 1164.26 278.522 1147.41 286.694L1147.4 286.697C1130.82 294.605 1112.47 298.551 1092.36 298.551C1072.88 298.551 1055.05 294.847 1038.88 287.427L1037.32 286.697L1037.31 286.693L1037.3 286.689C1020.95 278.512 1007.92 266.369 998.214 250.284L998.208 250.274C988.739 234.152 984.039 213.864 984.039 189.47V26.5391H1042.92V189.85L1042.93 190.948C1043.04 202.247 1044.92 211.843 1048.52 219.767C1052.48 227.926 1058.15 234.082 1065.53 238.271C1073.2 242.221 1082.38 244.217 1093.12 244.217V245.217C1082.25 245.217 1072.89 243.194 1065.06 239.149C1057.47 234.851 1051.66 228.531 1047.61 220.188C1043.94 212.105 1042.04 202.362 1041.93 190.958L1041.92 189.85Z" fill="#020202"/>
<path d="M743.369 26.5391H847.52V27.5391H744.369V293H801.254V190.987H834.266L881.271 293H945.74L892.314 184.014C895.533 182.817 898.582 181.468 901.462 179.963L902.129 179.61C916.287 172.026 926.652 162.039 933.226 149.651C939.838 137.65 943.248 124.818 943.455 111.156L943.465 109.832C943.465 94.663 939.926 80.8842 932.847 68.4961C926.021 56.108 915.402 46.2478 900.991 38.916C887.276 31.5684 870.12 27.7794 849.523 27.5498L847.52 27.5391V26.5391C869.111 26.5391 887.103 30.3469 901.444 38.0244C916.002 45.4309 926.777 55.4185 933.714 68C940.885 80.5488 944.465 94.5003 944.465 109.832L944.455 111.173C944.246 124.998 940.792 137.989 934.101 150.133C927.421 162.715 916.902 172.83 902.601 180.491C899.792 181.996 896.822 183.35 893.695 184.558L947.344 294H880.631L833.625 191.987H802.254V294H743.369V26.5391ZM884.442 112.107C884.442 101.292 881.307 92.7954 875.118 86.5039L874.51 85.9023L874.496 85.8896L874.483 85.876C868.175 79.3245 858.126 75.9424 844.106 75.9424H802.254V149.03H844.106V150.03H801.254V74.9424H844.106C858.264 74.9424 868.63 78.3557 875.203 85.1816C882.029 91.755 885.442 100.731 885.442 112.107L885.433 113.19C885.226 124.311 881.816 133.178 875.203 139.791C868.63 146.617 858.264 150.03 844.106 150.03V149.03C858.126 149.03 868.175 145.649 874.483 139.098L874.489 139.091L874.496 139.084C881.097 132.483 884.442 123.53 884.442 112.107Z" fill="#020202"/>
<path d="M511.847 161.028C511.847 143.078 514.501 127.783 519.811 115.142C525.373 102.248 533.337 92.2606 543.702 85.1816C554.32 78.1028 567.088 74.5635 582.004 74.5635C597.679 74.5635 610.447 78.3558 620.307 85.9404C629.858 93.0431 636.207 102.993 639.353 115.79L639.647 117.037H701.841C696.863 87.6704 684.169 64.7957 663.758 48.4131L662.78 47.6377C642.373 31.4613 616.086 23.2469 583.92 22.9941L582.384 22.9883C555.838 22.9883 532.957 28.93 513.743 40.8125C494.529 52.4422 479.739 68.6223 469.373 89.3535C459.007 109.832 453.824 133.724 453.824 161.028L453.828 162.282C453.988 188.569 459.169 211.916 469.373 232.323C479.739 252.802 494.529 268.856 513.743 280.485C532.657 291.684 555.123 297.372 581.142 297.547L582.384 297.551C614.737 297.551 641.21 289.834 661.804 274.4L662.78 273.659C683.764 257.479 696.784 235.357 701.841 207.294H639.647C636.361 219.935 629.788 229.669 619.928 236.495L619.018 237.102C609.527 243.27 597.189 246.354 582.004 246.354V245.354C597.546 245.354 609.97 242.095 619.362 235.669C629.005 228.992 635.448 219.472 638.68 207.042L638.874 206.294H703.037L702.825 207.472C697.728 235.758 684.587 258.107 663.391 274.451L663.39 274.452C642.443 290.545 615.413 298.551 582.384 298.551C556.11 298.551 533.351 293.007 514.146 281.88L513.233 281.346L513.225 281.341C493.847 269.612 478.929 253.416 468.48 232.774L468.479 232.771C458.033 211.88 452.824 187.958 452.824 161.028C452.824 133.597 458.032 109.545 468.48 88.9023C478.928 68.0098 493.845 51.6861 513.225 39.9561C532.621 27.9631 555.689 21.9883 582.384 21.9883C615.417 21.9883 642.45 30.2487 663.396 46.8506C684.272 63.1988 697.322 86.0989 702.582 115.467L702.827 116.87L703.024 118.037H638.849L638.672 117.258C635.777 104.474 629.748 94.5521 620.604 87.4238L619.71 86.7432L619.703 86.7383L619.697 86.7334C610.053 79.3149 597.516 75.5635 582.004 75.5635C567.251 75.5635 554.685 79.0619 544.257 86.0137C534.073 92.9714 526.226 102.794 520.731 115.527L520.732 115.528C515.488 128.015 512.847 143.172 512.847 161.028L512.854 162.647C513.014 179.308 515.65 193.801 520.732 206.147C526.223 218.619 534.062 228.315 544.243 235.274C554.673 241.979 567.244 245.354 582.004 245.354V246.354C567.554 246.354 555.121 243.151 544.704 236.745L543.702 236.115C533.337 229.036 525.373 219.176 519.811 206.535C514.667 194.044 512.015 179.418 511.854 162.656L511.847 161.028Z" fill="#020202"/>
<path d="M239.223 27.5391V293H417.082V247.113H296.107V179.989H405.705V135.999H296.107V73.4258H417.082V27.5391H239.223ZM418.082 74.4258H297.107V134.999H406.705V180.989H297.107V246.113H418.082V294H238.223V26.5391H418.082V74.4258Z" fill="#020202"/>
<path d="M-4.72266 26.5391H99.4277V27.5391H-3.72266V293H53.1621V190.987H86.1738L133.18 293H197.648L144.224 184.014C147.442 182.817 150.491 181.467 153.37 179.963L154.037 179.61C168.195 172.026 178.56 162.039 185.134 149.651C191.747 137.65 195.157 124.818 195.363 111.156L195.373 109.832C195.373 94.6629 191.834 80.8842 184.755 68.4961C177.929 56.1079 167.31 46.2478 152.899 38.916C139.184 31.5684 122.028 27.7794 101.432 27.5498L99.4277 27.5391V26.5391C121.029 26.5391 139.028 30.3499 153.372 38.0342C167.921 45.4398 178.689 55.4237 185.623 68C192.794 80.5488 196.373 94.5003 196.373 109.832L196.363 111.173C196.154 124.992 192.703 137.979 186.017 150.119C179.337 162.707 168.816 172.827 154.51 180.491C151.701 181.996 148.731 183.35 145.604 184.558L199.253 294H132.539L85.5332 191.987H54.1621V294H-4.72266V26.5391ZM136.352 112.107C136.352 101.292 133.215 92.7954 127.026 86.5039L126.418 85.9023L126.404 85.8896L126.392 85.876C120.083 79.3245 110.034 75.9424 96.0146 75.9424H54.1621V149.03H96.0146V150.03H53.1621V74.9424H96.0146C110.173 74.9424 120.539 78.3555 127.112 85.1816C133.938 91.755 137.352 100.731 137.352 112.107L137.341 113.19C137.134 124.311 133.725 133.178 127.112 139.791C120.539 146.617 110.173 150.03 96.0146 150.03V149.03C110.034 149.03 120.083 145.649 126.392 139.098L126.405 139.084C133.006 132.483 136.352 123.53 136.352 112.107Z" fill="#020202"/>
</g>
<defs>
<clipPath id="clip0_370_293">
<rect width="1514" height="317" fill="white"/>
</clipPath>
</defs>
</svg>
