<svg width="1513" height="151" viewBox="0 0 1513 151" fill="none" xmlns="http://www.w3.org/2000/svg">
<g clip-path="url(#clip0_227_39687)">
<path d="M1449.21 148.296V97.0585L1400.05 2.49805H1431.92L1466.28 74.5639H1460.66L1494.82 2.49805H1526.48L1477.32 97.0585V148.296H1449.21Z" fill="#020202"/>
<path d="M1293.53 148.296V2.49805H1347.89C1359.69 2.49805 1369.41 4.51145 1377.05 8.53826C1384.69 12.5651 1390.38 17.9804 1394.13 24.7843C1397.88 31.4494 1399.75 38.8781 1399.75 47.0706C1399.75 54.8465 1397.95 62.1364 1394.34 68.9403C1390.73 75.6053 1385.03 81.0207 1377.26 85.1864C1369.62 89.2132 1359.76 91.2266 1347.68 91.2266H1321.65V148.296H1293.53ZM1369.13 148.296L1339.14 84.1449H1369.55L1401.21 148.296H1369.13ZM1321.65 70.8148H1346.22C1354.69 70.8148 1360.94 68.732 1364.97 64.5664C1369 60.4007 1371.01 54.9159 1371.01 48.112C1371.01 41.3081 1369 35.9622 1364.97 32.0742C1361.08 28.0474 1354.83 26.034 1346.22 26.034H1321.65V70.8148Z" fill="#020202"/>
<path d="M1205.8 150.797C1191.64 150.797 1179.14 147.603 1168.31 141.216C1157.48 134.828 1149.01 126.011 1142.9 114.764C1136.79 103.378 1133.74 90.2559 1133.74 75.3984C1133.74 60.5409 1136.79 47.4885 1142.9 36.2412C1149.01 24.8551 1157.48 15.9684 1168.31 9.58101C1179.14 3.19367 1191.64 0 1205.8 0C1220.11 0 1232.67 3.19367 1243.5 9.58101C1254.33 15.9684 1262.73 24.8551 1268.71 36.2412C1274.82 47.4885 1277.87 60.5409 1277.87 75.3984C1277.87 90.2559 1274.82 103.378 1268.71 114.764C1262.73 126.011 1254.33 134.828 1243.5 141.216C1232.67 147.603 1220.11 150.797 1205.8 150.797ZM1205.8 125.595C1214.69 125.595 1222.33 123.581 1228.72 119.554C1235.24 115.389 1240.31 109.557 1243.92 102.059C1247.53 94.5604 1249.34 85.6737 1249.34 75.3984C1249.34 64.9843 1247.53 56.0975 1243.92 48.7382C1240.31 41.24 1235.24 35.4775 1228.72 31.4507C1222.33 27.4239 1214.69 25.4105 1205.8 25.4105C1197.06 25.4105 1189.42 27.4239 1182.89 31.4507C1176.37 35.4775 1171.3 41.24 1167.69 48.7382C1164.08 56.0975 1162.27 64.9843 1162.27 75.3984C1162.27 85.6737 1164.08 94.5604 1167.69 102.059C1171.3 109.557 1176.37 115.389 1182.89 119.554C1189.42 123.581 1197.06 125.595 1205.8 125.595Z" fill="#020202"/>
<path d="M1061.41 148.296V25.2009H1018.71V2.49805H1131.81V25.2009H1089.32V148.296H1061.41Z" fill="#020202"/>
<path d="M961.714 150.797C951.161 150.797 941.719 148.992 933.388 145.381C925.196 141.771 918.669 136.495 913.809 129.552C909.088 122.609 906.658 114.208 906.52 104.35H936.304C936.443 108.654 937.554 112.542 939.636 116.014C941.719 119.485 944.566 122.262 948.176 124.345C951.925 126.289 956.369 127.261 961.506 127.261C965.95 127.261 969.768 126.567 972.962 125.178C976.294 123.651 978.863 121.568 980.668 118.93C982.473 116.291 983.376 113.167 983.376 109.557C983.376 105.391 982.334 101.92 980.252 99.1427C978.308 96.3655 975.531 94.005 971.92 92.061C968.449 90.1171 964.353 88.3814 959.632 86.854C955.049 85.1877 950.19 83.452 945.052 81.6469C933.527 77.8978 924.71 72.899 918.6 66.6505C912.629 60.402 909.644 52.1401 909.644 41.8649C909.644 33.117 911.727 25.6188 915.892 19.3703C920.197 13.1218 926.098 8.33131 933.596 4.99879C941.094 1.66626 949.634 0 959.215 0C969.074 0 977.683 1.73569 985.042 5.20707C992.54 8.53959 998.442 13.3995 1002.75 19.7869C1007.19 26.1742 1009.48 33.6724 1009.62 42.2814H979.627C979.488 39.0878 978.516 36.1024 976.711 33.3253C975.045 30.4093 972.684 28.1182 969.629 26.4519C966.574 24.6468 962.964 23.7442 958.799 23.7442C955.188 23.6054 951.856 24.1608 948.801 25.4105C945.885 26.6602 943.524 28.5348 941.719 31.0341C940.053 33.3947 939.22 36.3801 939.22 39.9903C939.22 43.4617 940.053 46.3777 941.719 48.7382C943.524 51.0987 945.954 53.1816 949.009 54.9867C952.064 56.6529 955.674 58.2498 959.84 59.7772C964.006 61.1657 968.518 62.6237 973.378 64.1511C980.599 66.6505 987.264 69.6359 993.373 73.1073C999.483 76.4398 1004.34 80.8138 1007.95 86.2291C1011.56 91.6445 1013.37 98.7955 1013.37 107.682C1013.37 115.319 1011.36 122.401 1007.33 128.927C1003.3 135.453 997.47 140.73 989.833 144.757C982.335 148.783 972.962 150.797 961.714 150.797Z" fill="#020202"/>
<path d="M788.827 148.296V25.2009H746.129V2.49805H859.227V25.2009H816.737V148.296H788.827Z" fill="#020202"/>
<path d="M676.266 150.797C661.686 150.797 649.119 147.673 638.566 141.424C628.152 135.037 620.099 126.219 614.406 114.972C608.851 103.586 606.074 90.4642 606.074 75.6067C606.074 60.7492 608.851 47.6273 614.406 36.2412C620.099 24.8551 628.152 15.9684 638.566 9.58101C649.119 3.19367 661.686 0 676.266 0C693.9 0 708.341 4.37394 719.588 13.1218C730.836 21.8697 737.848 34.2278 740.625 50.1962H710.007C708.202 42.4203 704.384 36.3801 698.552 32.0756C692.859 27.6322 685.361 25.4105 676.057 25.4105C667.448 25.4105 660.019 27.4933 653.771 31.659C647.661 35.6858 642.94 41.4483 639.608 48.9465C636.275 56.3058 634.609 65.1925 634.609 75.6067C634.609 85.882 636.275 94.7687 639.608 102.267C642.94 109.765 647.661 115.528 653.771 119.554C660.019 123.581 667.448 125.595 676.057 125.595C685.361 125.595 692.859 123.581 698.552 119.554C704.245 115.389 707.994 109.626 709.799 102.267H740.625C737.848 117.402 730.836 129.274 719.588 137.883C708.341 146.492 693.9 150.797 676.266 150.797Z" fill="#020202"/>
<path d="M497.762 148.296V2.49805H593.572V25.2009H525.88V63.3167H587.323V85.1864H525.88V125.593H593.572V148.296H497.762Z" fill="#020202"/>
<path d="M432.362 150.795C422.92 150.795 414.589 148.99 407.368 145.38C400.287 141.77 394.802 136.493 390.914 129.551C387.026 122.469 385.082 113.929 385.082 103.932H413.2C413.2 108.375 413.825 112.263 415.075 115.596C416.463 118.789 418.477 121.289 421.115 123.094C423.892 124.76 427.433 125.593 431.737 125.593C435.903 125.593 439.236 124.83 441.735 123.302C444.373 121.636 446.248 119.345 447.359 116.429C448.608 113.374 449.233 109.764 449.233 105.598V2.49805H477.351V105.598C477.351 120.178 473.255 131.356 465.063 139.132C457.009 146.908 446.109 150.795 432.362 150.795Z" fill="#020202"/>
<path d="M305.687 150.797C291.524 150.797 279.027 147.603 268.196 141.216C257.365 134.828 248.895 126.011 242.786 114.764C236.676 103.378 233.621 90.2559 233.621 75.3984C233.621 60.5409 236.676 47.4885 242.786 36.2412C248.895 24.8551 257.365 15.9684 268.196 9.58101C279.027 3.19367 291.524 0 305.687 0C319.989 0 332.555 3.19367 343.386 9.58101C354.217 15.9684 362.618 24.8551 368.588 36.2412C374.698 47.4885 377.753 60.5409 377.753 75.3984C377.753 90.2559 374.698 103.378 368.588 114.764C362.618 126.011 354.217 134.828 343.386 141.216C332.555 147.603 319.989 150.797 305.687 150.797ZM305.687 125.595C314.574 125.595 322.211 123.581 328.598 119.554C335.124 115.389 340.193 109.557 343.803 102.059C347.413 94.5604 349.218 85.6737 349.218 75.3984C349.218 64.9843 347.413 56.0975 343.803 48.7382C340.193 41.24 335.124 35.4775 328.598 31.4507C322.211 27.4239 314.574 25.4105 305.687 25.4105C296.939 25.4105 289.302 27.4239 282.776 31.4507C276.25 35.4775 271.181 41.24 267.571 48.7382C263.961 56.0975 262.156 64.9843 262.156 75.3984C262.156 85.6737 263.961 94.5604 267.571 102.059C271.181 109.557 276.25 115.389 282.776 119.554C289.302 123.581 296.939 125.595 305.687 125.595Z" fill="#020202"/>
<path d="M115.348 148.296V2.49805H169.71C181.512 2.49805 191.232 4.51145 198.869 8.53826C206.506 12.5651 212.199 17.9804 215.948 24.7843C219.697 31.4494 221.572 38.8781 221.572 47.0706C221.572 54.8465 219.767 62.1364 216.157 68.9403C212.546 75.6053 206.853 81.0207 199.077 85.1864C191.44 89.2132 181.582 91.2266 169.501 91.2266H143.466V148.296H115.348ZM190.954 148.296L160.962 84.1449H191.371L223.03 148.296H190.954ZM143.466 70.8148H168.043C176.513 70.8148 182.762 68.732 186.789 64.5664C190.815 60.4007 192.829 54.9159 192.829 48.112C192.829 41.3081 190.815 35.9622 186.789 32.0742C182.901 28.0474 176.652 26.034 168.043 26.034H143.466V70.8148Z" fill="#020202"/>
<path d="M-4.26172 148.296V2.49805H50.3084C62.1111 2.49805 71.9004 4.51145 79.6763 8.53826C87.4522 12.5651 93.2147 17.9804 96.9638 24.7843C100.713 31.5882 102.587 39.3641 102.587 48.112C102.587 56.1656 100.782 63.5944 97.1721 70.3983C93.5618 77.2022 87.8688 82.7564 80.0929 87.0609C72.317 91.2266 62.3888 93.3094 50.3084 93.3094H23.8565V148.296H-4.26172ZM23.8565 70.6066H48.6421C57.6677 70.6066 64.1245 68.5932 68.0124 64.5664C72.0392 60.4007 74.0527 54.9159 74.0527 48.112C74.0527 40.8915 72.0392 35.3373 68.0124 31.4494C64.1245 27.4226 57.6677 25.4092 48.6421 25.4092H23.8565V70.6066Z" fill="#020202"/>
</g>
<defs>
<clipPath id="clip0_227_39687">
<rect width="1513" height="151" fill="white"/>
</clipPath>
</defs>
</svg>
