<svg width="375" height="170" viewBox="0 0 375 170" fill="none" xmlns="http://www.w3.org/2000/svg">
<g clip-path="url(#clip0_362_556)">
<path d="M354.963 142.235V119.39L333.047 77.2285H347.255L362.578 109.36H360.071L375.301 77.2285H389.417L367.5 119.39V142.235H354.963Z" fill="#020202"/>
<path d="M285.555 142.235V77.2285H309.793C315.055 77.2285 319.389 78.1262 322.794 79.9216C326.199 81.717 328.737 84.1316 330.409 87.1652C332.081 90.1369 332.916 93.4491 332.916 97.1019C332.916 100.569 332.112 103.819 330.502 106.853C328.892 109.825 326.354 112.239 322.887 114.096C319.482 115.892 315.086 116.789 309.7 116.789H298.092V142.235H285.555ZM319.265 142.235L305.892 113.632H319.451L333.566 142.235H319.265ZM298.092 107.689H309.05C312.826 107.689 315.612 106.76 317.408 104.903C319.203 103.045 320.101 100.6 320.101 97.5662C320.101 94.5326 319.203 92.149 317.408 90.4155C315.674 88.6201 312.888 87.7224 309.05 87.7224H298.092V107.689Z" fill="#020202"/>
<path d="M246.44 143.35C240.125 143.35 234.553 141.926 229.724 139.078C224.895 136.231 221.119 132.299 218.395 127.284C215.671 122.208 214.309 116.357 214.309 109.733C214.309 103.108 215.671 97.2887 218.395 92.2739C221.119 87.1972 224.895 83.235 229.724 80.3871C234.553 77.5392 240.125 76.1152 246.44 76.1152C252.817 76.1152 258.42 77.5392 263.249 80.3871C268.078 83.235 271.824 87.1972 274.486 92.2739C277.21 97.2887 278.572 103.108 278.572 109.733C278.572 116.357 277.21 122.208 274.486 127.284C271.824 132.299 268.078 136.231 263.249 139.078C258.42 141.926 252.817 143.35 246.44 143.35ZM246.44 132.113C250.403 132.113 253.808 131.216 256.655 129.42C259.565 127.563 261.825 124.963 263.435 121.62C265.044 118.276 265.849 114.314 265.849 109.733C265.849 105.089 265.044 101.127 263.435 97.8459C261.825 94.5027 259.565 91.9334 256.655 90.138C253.808 88.3426 250.403 87.4449 246.44 87.4449C242.54 87.4449 239.135 88.3426 236.225 90.138C233.315 91.9334 231.055 94.5027 229.446 97.8459C227.836 101.127 227.031 105.089 227.031 109.733C227.031 114.314 227.836 118.276 229.446 121.62C231.055 124.963 233.315 127.563 236.225 129.42C239.135 131.216 242.54 132.113 246.44 132.113Z" fill="#020202"/>
<path d="M182.061 142.235V87.3509H163.023V77.2285H213.45V87.3509H194.505V142.235H182.061Z" fill="#020202"/>
<path d="M137.609 143.35C132.904 143.35 128.694 142.545 124.98 140.936C121.327 139.326 118.417 136.973 116.25 133.878C114.145 130.782 113.062 127.037 113 122.641H126.28C126.342 124.56 126.837 126.294 127.766 127.842C128.694 129.389 129.964 130.628 131.573 131.556C133.245 132.423 135.226 132.856 137.517 132.856C139.498 132.856 141.2 132.547 142.624 131.928C144.11 131.247 145.255 130.318 146.06 129.142C146.865 127.965 147.268 126.572 147.268 124.963C147.268 123.105 146.803 121.558 145.875 120.319C145.008 119.081 143.77 118.029 142.16 117.162C140.612 116.295 138.786 115.521 136.681 114.84C134.638 114.097 132.471 113.324 130.18 112.519C125.042 110.847 121.11 108.618 118.386 105.832C115.724 103.046 114.393 99.3627 114.393 94.7813C114.393 90.8809 115.322 87.5378 117.179 84.7518C119.098 81.9658 121.729 79.8299 125.073 78.344C128.416 76.8582 132.223 76.1152 136.495 76.1152C140.891 76.1152 144.729 76.8891 148.011 78.4369C151.354 79.9227 153.985 82.0896 155.904 84.9375C157.885 87.7854 158.907 91.1286 158.969 94.967H145.596C145.534 93.5431 145.101 92.212 144.296 90.9738C143.553 89.6737 142.5 88.6522 141.138 87.9092C139.776 87.1044 138.167 86.702 136.309 86.702C134.7 86.6401 133.214 86.8877 131.852 87.4449C130.552 88.0021 129.499 88.8379 128.694 89.9523C127.951 91.0048 127.58 92.3358 127.58 93.9455C127.58 95.4933 127.951 96.7934 128.694 97.8459C129.499 98.8984 130.583 99.827 131.945 100.632C133.307 101.375 134.916 102.087 136.774 102.768C138.631 103.387 140.643 104.037 142.81 104.718C146.029 105.832 149.001 107.163 151.725 108.711C154.449 110.197 156.616 112.147 158.226 114.562C159.835 116.976 160.64 120.165 160.64 124.127C160.64 127.532 159.743 130.69 157.947 133.599C156.152 136.509 153.552 138.862 150.146 140.657C146.803 142.453 142.624 143.35 137.609 143.35Z" fill="#020202"/>
<path d="M351.612 66.1195V11.2357H332.574V1.11328H383V11.2357H364.056V66.1195H351.612Z" fill="#020202"/>
<path d="M301.421 67.235C294.92 67.235 289.317 65.842 284.612 63.0561C279.969 60.2082 276.378 56.2768 273.84 51.2621C271.363 46.1854 270.125 40.3348 270.125 33.7104C270.125 27.0859 271.363 21.2354 273.84 16.1587C276.378 11.082 279.969 7.11973 284.612 4.27184C289.317 1.42395 294.92 0 301.421 0C309.284 0 315.722 1.95019 320.737 5.85056C325.752 9.75093 328.878 15.261 330.116 22.3807H316.465C315.66 18.9137 313.958 16.2206 311.358 14.3014C308.819 12.3202 305.476 11.3297 301.328 11.3297C297.49 11.3297 294.177 12.2583 291.391 14.1156C288.667 15.9111 286.562 18.4803 285.076 21.8235C283.591 25.1048 282.848 29.0671 282.848 33.7104C282.848 38.2918 283.591 42.2541 285.076 45.5972C286.562 48.9404 288.667 51.5097 291.391 53.3051C294.177 55.1005 297.49 55.9982 301.328 55.9982C305.476 55.9982 308.819 55.1005 311.358 53.3051C313.896 51.4478 315.567 48.8785 316.372 45.5972H330.116C328.878 52.3455 325.752 57.6389 320.737 61.4773C315.722 65.3158 309.284 67.235 301.421 67.235Z" fill="#020202"/>
<path d="M221.836 66.1195V1.11328H264.554V11.2357H234.373V28.2302H261.768V37.9811H234.373V55.9971H264.554V66.1195H221.836Z" fill="#020202"/>
<path d="M192.674 67.2339C188.464 67.2339 184.75 66.4291 181.53 64.8194C178.373 63.2097 175.928 60.8571 174.194 57.7616C172.461 54.6041 171.594 50.7966 171.594 46.3391H184.131C184.131 48.3202 184.409 50.0537 184.966 51.5396C185.586 52.9635 186.483 54.0779 187.66 54.8827C188.898 55.6257 190.477 55.9971 192.396 55.9971C194.253 55.9971 195.739 55.6566 196.853 54.9756C198.03 54.2327 198.865 53.2111 199.361 51.911C199.918 50.549 200.197 48.9393 200.197 47.082V1.11328H212.733V47.082C212.733 53.5826 210.907 58.5664 207.254 62.0334C203.664 65.5004 198.804 67.2339 192.674 67.2339Z" fill="#020202"/>
<path d="M136.194 67.235C129.879 67.235 124.307 65.8111 119.478 62.9632C114.649 60.1153 110.873 56.184 108.149 51.1692C105.425 46.0925 104.062 40.242 104.062 33.6175C104.062 26.9931 105.425 21.1735 108.149 16.1587C110.873 11.082 114.649 7.11973 119.478 4.27184C124.307 1.42395 129.879 0 136.194 0C142.571 0 148.174 1.42395 153.003 4.27184C157.832 7.11973 161.578 11.082 164.24 16.1587C166.964 21.1735 168.326 26.9931 168.326 33.6175C168.326 40.242 166.964 46.0925 164.24 51.1692C161.578 56.184 157.832 60.1153 153.003 62.9632C148.174 65.8111 142.571 67.235 136.194 67.235ZM136.194 55.9982C140.156 55.9982 143.562 55.1005 146.409 53.3051C149.319 51.4478 151.579 48.8476 153.189 45.5044C154.798 42.1612 155.603 38.1989 155.603 33.6175C155.603 28.9742 154.798 25.0119 153.189 21.7307C151.579 18.3875 149.319 15.8182 146.409 14.0228C143.562 12.2274 140.156 11.3297 136.194 11.3297C132.294 11.3297 128.889 12.2274 125.979 14.0228C123.069 15.8182 120.809 18.3875 119.2 21.7307C117.59 25.0119 116.785 28.9742 116.785 33.6175C116.785 38.1989 117.59 42.1612 119.2 45.5044C120.809 48.8476 123.069 51.4478 125.979 53.3051C128.889 55.1005 132.294 55.9982 136.194 55.9982Z" fill="#020202"/>
<path d="M51.3281 66.1195V1.11328H75.5662C80.8286 1.11328 85.1623 2.01099 88.5674 3.8064C91.9725 5.60181 94.5108 8.01633 96.1824 11.0499C97.854 14.0217 98.6898 17.3339 98.6898 20.9866C98.6898 24.4536 97.885 27.7039 96.2753 30.7376C94.6656 33.7093 92.1273 36.1238 88.6603 37.9811C85.2552 39.7765 80.8595 40.6742 75.4733 40.6742H63.865V66.1195H51.3281ZM85.0385 66.1195L71.6658 37.5168H85.2242L99.3399 66.1195H85.0385ZM63.865 31.5734H74.8232C78.5998 31.5734 81.3858 30.6447 83.1812 28.7874C84.9766 26.9301 85.8743 24.4846 85.8743 21.451C85.8743 18.4173 84.9766 16.0338 83.1812 14.3003C81.4477 12.5049 78.6617 11.6071 74.8232 11.6071H63.865V31.5734Z" fill="#020202"/>
<path d="M-2 66.1195V1.11328H22.3309C27.5933 1.11328 31.958 2.01099 35.425 3.8064C38.892 5.60181 41.4613 8.01633 43.1329 11.0499C44.8045 14.0836 45.6403 17.5506 45.6403 21.451C45.6403 25.0418 44.8355 28.354 43.2258 31.3876C41.6161 34.4212 39.0778 36.8977 35.6108 38.8169C32.1438 40.6742 27.7171 41.6029 22.3309 41.6029H10.5369V66.1195H-2ZM10.5369 31.4805H21.588C25.6122 31.4805 28.491 30.5828 30.2245 28.7874C32.0199 26.9301 32.9176 24.4846 32.9176 21.451C32.9176 18.2316 32.0199 15.7552 30.2245 14.0217C28.491 12.2263 25.6122 11.3285 21.588 11.3285H10.5369V31.4805Z" fill="#020202"/>
<path d="M214.256 158.562C214.256 158.786 214.335 158.978 214.494 159.136C214.653 159.286 214.839 159.36 215.054 159.36C215.278 159.36 215.469 159.286 215.628 159.136C215.787 158.978 215.866 158.786 215.866 158.562C215.866 158.338 215.787 158.147 215.628 157.988C215.469 157.83 215.278 157.75 215.054 157.75C214.839 157.75 214.653 157.83 214.494 157.988C214.335 158.147 214.256 158.338 214.256 158.562ZM213.388 158.562C213.388 158.254 213.463 157.974 213.612 157.722C213.771 157.461 213.976 157.256 214.228 157.106C214.48 156.957 214.755 156.882 215.054 156.882C215.362 156.882 215.642 156.957 215.894 157.106C216.155 157.256 216.361 157.461 216.51 157.722C216.659 157.974 216.734 158.254 216.734 158.562C216.734 158.861 216.659 159.136 216.51 159.388C216.361 159.64 216.155 159.846 215.894 160.004C215.642 160.154 215.362 160.228 215.054 160.228C214.755 160.228 214.48 160.154 214.228 160.004C213.976 159.846 213.771 159.64 213.612 159.388C213.463 159.136 213.388 158.861 213.388 158.562ZM215.082 159.668C215.017 159.799 214.961 159.958 214.914 160.144C214.867 160.322 214.821 160.485 214.774 160.634C214.699 160.98 214.601 161.367 214.48 161.796C214.359 162.216 214.214 162.655 214.046 163.112C213.878 163.57 213.677 164.022 213.444 164.47C213.22 164.918 212.963 165.338 212.674 165.73C212.254 166.29 211.764 166.813 211.204 167.298C210.644 167.784 210.019 168.222 209.328 168.614C208.637 169.006 207.877 169.338 207.046 169.608L205.52 167.928C206.453 167.704 207.256 167.429 207.928 167.102C208.6 166.776 209.183 166.402 209.678 165.982C210.182 165.562 210.625 165.114 211.008 164.638C211.316 164.246 211.577 163.822 211.792 163.364C212.016 162.907 212.198 162.45 212.338 161.992C212.487 161.526 212.59 161.092 212.646 160.69C212.506 160.69 212.273 160.69 211.946 160.69C211.629 160.69 211.251 160.69 210.812 160.69C210.383 160.69 209.93 160.69 209.454 160.69C208.987 160.69 208.535 160.69 208.096 160.69C207.657 160.69 207.261 160.69 206.906 160.69C206.561 160.69 206.304 160.69 206.136 160.69C205.809 160.69 205.492 160.695 205.184 160.704C204.885 160.714 204.647 160.728 204.47 160.746V158.772C204.61 158.791 204.778 158.81 204.974 158.828C205.179 158.847 205.385 158.861 205.59 158.87C205.805 158.88 205.987 158.884 206.136 158.884C206.285 158.884 206.495 158.884 206.766 158.884C207.046 158.884 207.368 158.884 207.732 158.884C208.096 158.884 208.474 158.884 208.866 158.884C209.267 158.884 209.664 158.884 210.056 158.884C210.457 158.884 210.831 158.884 211.176 158.884C211.521 158.884 211.82 158.884 212.072 158.884C212.324 158.884 212.506 158.884 212.618 158.884C212.758 158.884 212.926 158.88 213.122 158.87C213.327 158.861 213.523 158.828 213.71 158.772L215.082 159.668ZM219.464 158.898C219.753 158.908 220.024 158.917 220.276 158.926C220.537 158.926 220.761 158.926 220.948 158.926C221.097 158.926 221.326 158.926 221.634 158.926C221.951 158.926 222.32 158.926 222.74 158.926C223.16 158.926 223.608 158.926 224.084 158.926C224.56 158.926 225.036 158.926 225.512 158.926C225.997 158.926 226.45 158.926 226.87 158.926C227.29 158.926 227.654 158.926 227.962 158.926C228.279 158.926 228.508 158.926 228.648 158.926C228.825 158.926 229.035 158.926 229.278 158.926C229.53 158.917 229.782 158.908 230.034 158.898C230.025 159.113 230.015 159.342 230.006 159.584C230.006 159.818 230.006 160.042 230.006 160.256C230.006 160.387 230.006 160.592 230.006 160.872C230.006 161.143 230.006 161.47 230.006 161.852C230.006 162.226 230.006 162.627 230.006 163.056C230.006 163.476 230.006 163.901 230.006 164.33C230.006 164.76 230.006 165.166 230.006 165.548C230.006 165.922 230.006 166.248 230.006 166.528C230.006 166.799 230.006 166.995 230.006 167.116C230.006 167.256 230.006 167.434 230.006 167.648C230.015 167.854 230.02 168.064 230.02 168.278C230.02 168.484 230.02 168.666 230.02 168.824C230.029 168.974 230.034 169.053 230.034 169.062H228.102C228.102 169.044 228.102 168.932 228.102 168.726C228.111 168.512 228.116 168.26 228.116 167.97C228.125 167.681 228.13 167.41 228.13 167.158C228.13 167.037 228.13 166.832 228.13 166.542C228.13 166.253 228.13 165.912 228.13 165.52C228.13 165.128 228.13 164.713 228.13 164.274C228.13 163.836 228.13 163.406 228.13 162.986C228.13 162.566 228.13 162.184 228.13 161.838C228.13 161.493 228.13 161.218 228.13 161.012C228.13 160.807 228.13 160.704 228.13 160.704H221.368C221.368 160.704 221.368 160.807 221.368 161.012C221.368 161.218 221.368 161.493 221.368 161.838C221.368 162.174 221.368 162.557 221.368 162.986C221.368 163.406 221.368 163.836 221.368 164.274C221.368 164.704 221.368 165.119 221.368 165.52C221.368 165.912 221.368 166.253 221.368 166.542C221.368 166.832 221.368 167.037 221.368 167.158C221.368 167.326 221.368 167.518 221.368 167.732C221.368 167.938 221.368 168.138 221.368 168.334C221.377 168.53 221.382 168.694 221.382 168.824C221.382 168.964 221.382 169.044 221.382 169.062H219.45C219.45 169.044 219.45 168.964 219.45 168.824C219.459 168.684 219.464 168.512 219.464 168.306C219.473 168.101 219.478 167.891 219.478 167.676C219.487 167.462 219.492 167.27 219.492 167.102C219.492 166.981 219.492 166.785 219.492 166.514C219.492 166.234 219.492 165.903 219.492 165.52C219.492 165.138 219.492 164.736 219.492 164.316C219.492 163.887 219.492 163.458 219.492 163.028C219.492 162.599 219.492 162.198 219.492 161.824C219.492 161.442 219.492 161.115 219.492 160.844C219.492 160.574 219.492 160.378 219.492 160.256C219.492 160.06 219.492 159.836 219.492 159.584C219.492 159.323 219.483 159.094 219.464 158.898ZM228.83 166.514V168.306H220.416V166.514H228.83ZM242.62 158.072C242.751 158.268 242.891 158.497 243.04 158.758C243.199 159.01 243.353 159.267 243.502 159.528C243.651 159.78 243.782 160.018 243.894 160.242L242.676 160.76C242.536 160.462 242.405 160.196 242.284 159.962C242.163 159.72 242.032 159.486 241.892 159.262C241.761 159.029 241.612 158.796 241.444 158.562L242.62 158.072ZM244.538 157.4C244.687 157.578 244.841 157.792 245 158.044C245.159 158.296 245.313 158.548 245.462 158.8C245.611 159.052 245.742 159.281 245.854 159.486L244.664 160.018C244.515 159.729 244.37 159.468 244.23 159.234C244.099 159.001 243.964 158.777 243.824 158.562C243.684 158.348 243.525 158.124 243.348 157.89L244.538 157.4ZM236.53 157.806C236.763 157.928 237.025 158.077 237.314 158.254C237.603 158.432 237.897 158.618 238.196 158.814C238.495 159.001 238.779 159.183 239.05 159.36C239.321 159.528 239.545 159.678 239.722 159.808L238.686 161.348C238.49 161.218 238.257 161.064 237.986 160.886C237.725 160.709 237.445 160.527 237.146 160.34C236.857 160.154 236.567 159.976 236.278 159.808C235.998 159.631 235.746 159.477 235.522 159.346L236.53 157.806ZM233.94 167.746C234.463 167.653 234.995 167.536 235.536 167.396C236.077 167.256 236.614 167.088 237.146 166.892C237.678 166.687 238.196 166.444 238.7 166.164C239.493 165.716 240.231 165.212 240.912 164.652C241.603 164.092 242.223 163.5 242.774 162.874C243.325 162.24 243.782 161.586 244.146 160.914L245.224 162.818C244.58 163.789 243.777 164.708 242.816 165.576C241.864 166.435 240.814 167.196 239.666 167.858C239.19 168.12 238.667 168.372 238.098 168.614C237.529 168.848 236.969 169.048 236.418 169.216C235.877 169.384 235.401 169.506 234.99 169.58L233.94 167.746ZM234.374 160.998C234.607 161.12 234.873 161.269 235.172 161.446C235.471 161.624 235.769 161.806 236.068 161.992C236.367 162.17 236.647 162.347 236.908 162.524C237.179 162.692 237.403 162.842 237.58 162.972L236.558 164.54C236.353 164.4 236.115 164.242 235.844 164.064C235.583 163.887 235.303 163.705 235.004 163.518C234.715 163.332 234.425 163.154 234.136 162.986C233.856 162.809 233.599 162.66 233.366 162.538L234.374 160.998ZM249.858 161.236C250.017 161.264 250.203 161.283 250.418 161.292C250.633 161.302 250.815 161.306 250.964 161.306H257.376C257.544 161.306 257.726 161.302 257.922 161.292C258.118 161.283 258.3 161.264 258.468 161.236V163C258.291 162.982 258.104 162.968 257.908 162.958C257.712 162.949 257.535 162.944 257.376 162.944H250.964C250.815 162.944 250.633 162.949 250.418 162.958C250.203 162.968 250.017 162.982 249.858 163V161.236ZM253.148 168.404V162.202H254.982V168.404H253.148ZM249.144 167.368C249.321 167.387 249.513 167.406 249.718 167.424C249.923 167.443 250.115 167.452 250.292 167.452H258.034C258.23 167.452 258.417 167.443 258.594 167.424C258.781 167.396 258.949 167.378 259.098 167.368V169.202C258.949 169.174 258.762 169.156 258.538 169.146C258.323 169.137 258.155 169.132 258.034 169.132H250.292C250.124 169.132 249.937 169.137 249.732 169.146C249.527 169.156 249.331 169.174 249.144 169.202V167.368ZM274.386 160.116C274.311 160.247 274.232 160.406 274.148 160.592C274.064 160.77 273.989 160.947 273.924 161.124C273.803 161.535 273.63 162.006 273.406 162.538C273.191 163.061 272.921 163.607 272.594 164.176C272.277 164.736 271.908 165.278 271.488 165.8C270.816 166.603 270.032 167.331 269.136 167.984C268.249 168.638 267.148 169.226 265.832 169.748L264.18 168.264C265.132 167.984 265.953 167.662 266.644 167.298C267.335 166.934 267.937 166.547 268.45 166.136C268.963 165.716 269.421 165.273 269.822 164.806C270.149 164.442 270.447 164.032 270.718 163.574C270.989 163.108 271.222 162.646 271.418 162.188C271.614 161.731 271.745 161.33 271.81 160.984H267.092L267.736 159.402C267.867 159.402 268.067 159.402 268.338 159.402C268.618 159.402 268.931 159.402 269.276 159.402C269.631 159.402 269.976 159.402 270.312 159.402C270.657 159.402 270.956 159.402 271.208 159.402C271.469 159.402 271.647 159.402 271.74 159.402C271.955 159.402 272.169 159.388 272.384 159.36C272.608 159.332 272.799 159.29 272.958 159.234L274.386 160.116ZM269.822 157.904C269.654 158.147 269.491 158.408 269.332 158.688C269.173 158.968 269.052 159.183 268.968 159.332C268.651 159.892 268.259 160.476 267.792 161.082C267.335 161.68 266.812 162.263 266.224 162.832C265.636 163.392 265.011 163.906 264.348 164.372L262.766 163.21C263.382 162.828 263.923 162.436 264.39 162.034C264.866 161.633 265.277 161.236 265.622 160.844C265.967 160.443 266.261 160.06 266.504 159.696C266.756 159.323 266.971 158.992 267.148 158.702C267.26 158.525 267.377 158.296 267.498 158.016C267.619 157.727 267.713 157.466 267.778 157.232L269.822 157.904ZM280.896 167.48C280.896 167.303 280.896 167.014 280.896 166.612C280.896 166.202 280.896 165.73 280.896 165.198C280.896 164.657 280.896 164.092 280.896 163.504C280.896 162.916 280.896 162.352 280.896 161.81C280.896 161.26 280.896 160.774 280.896 160.354C280.896 159.934 280.896 159.626 280.896 159.43C280.896 159.188 280.882 158.908 280.854 158.59C280.835 158.273 280.803 157.993 280.756 157.75H282.94C282.912 157.993 282.884 158.264 282.856 158.562C282.828 158.852 282.814 159.141 282.814 159.43C282.814 159.692 282.814 160.046 282.814 160.494C282.814 160.942 282.814 161.442 282.814 161.992C282.814 162.534 282.814 163.089 282.814 163.658C282.814 164.218 282.814 164.76 282.814 165.282C282.814 165.805 282.814 166.262 282.814 166.654C282.814 167.037 282.814 167.312 282.814 167.48C282.814 167.611 282.819 167.798 282.828 168.04C282.837 168.274 282.856 168.516 282.884 168.768C282.912 169.02 282.931 169.244 282.94 169.44H280.756C280.793 169.16 280.826 168.834 280.854 168.46C280.882 168.087 280.896 167.76 280.896 167.48ZM282.394 161.376C282.861 161.498 283.383 161.656 283.962 161.852C284.541 162.039 285.124 162.24 285.712 162.454C286.3 162.669 286.851 162.884 287.364 163.098C287.887 163.304 288.321 163.495 288.666 163.672L287.868 165.604C287.476 165.399 287.042 165.194 286.566 164.988C286.09 164.774 285.605 164.568 285.11 164.372C284.625 164.176 284.144 163.994 283.668 163.826C283.201 163.658 282.777 163.509 282.394 163.378V161.376ZM302.876 159.332C302.82 159.416 302.736 159.547 302.624 159.724C302.521 159.902 302.442 160.065 302.386 160.214C302.19 160.653 301.947 161.143 301.658 161.684C301.378 162.226 301.056 162.772 300.692 163.322C300.337 163.864 299.959 164.372 299.558 164.848C299.035 165.436 298.457 166.02 297.822 166.598C297.197 167.168 296.534 167.695 295.834 168.18C295.143 168.656 294.434 169.067 293.706 169.412L292.264 167.9C293.02 167.611 293.753 167.247 294.462 166.808C295.171 166.37 295.829 165.894 296.436 165.38C297.043 164.867 297.565 164.368 298.004 163.882C298.312 163.528 298.601 163.15 298.872 162.748C299.152 162.347 299.399 161.95 299.614 161.558C299.829 161.157 299.987 160.788 300.09 160.452C299.997 160.452 299.829 160.452 299.586 160.452C299.343 160.452 299.059 160.452 298.732 160.452C298.415 160.452 298.079 160.452 297.724 160.452C297.369 160.452 297.029 160.452 296.702 160.452C296.385 160.452 296.105 160.452 295.862 160.452C295.619 160.452 295.447 160.452 295.344 160.452C295.148 160.452 294.943 160.462 294.728 160.48C294.513 160.49 294.308 160.504 294.112 160.522C293.925 160.532 293.781 160.541 293.678 160.55V158.562C293.818 158.572 293.991 158.586 294.196 158.604C294.401 158.623 294.607 158.637 294.812 158.646C295.027 158.656 295.204 158.66 295.344 158.66C295.465 158.66 295.657 158.66 295.918 158.66C296.179 158.66 296.478 158.66 296.814 158.66C297.15 158.66 297.495 158.66 297.85 158.66C298.214 158.66 298.559 158.66 298.886 158.66C299.222 158.66 299.511 158.66 299.754 158.66C299.997 158.66 300.174 158.66 300.286 158.66C300.594 158.66 300.874 158.642 301.126 158.604C301.387 158.567 301.588 158.525 301.728 158.478L302.876 159.332ZM299.74 163.686C300.104 163.976 300.491 164.312 300.902 164.694C301.313 165.077 301.719 165.474 302.12 165.884C302.521 166.295 302.89 166.692 303.226 167.074C303.571 167.448 303.861 167.774 304.094 168.054L302.498 169.44C302.153 168.964 301.756 168.47 301.308 167.956C300.869 167.443 300.403 166.934 299.908 166.43C299.423 165.917 298.928 165.432 298.424 164.974L299.74 163.686ZM310.296 167.48C310.296 167.303 310.296 167.014 310.296 166.612C310.296 166.202 310.296 165.73 310.296 165.198C310.296 164.657 310.296 164.092 310.296 163.504C310.296 162.916 310.296 162.352 310.296 161.81C310.296 161.26 310.296 160.774 310.296 160.354C310.296 159.934 310.296 159.626 310.296 159.43C310.296 159.188 310.282 158.908 310.254 158.59C310.235 158.273 310.203 157.993 310.156 157.75H312.34C312.312 157.993 312.284 158.264 312.256 158.562C312.228 158.852 312.214 159.141 312.214 159.43C312.214 159.692 312.214 160.046 312.214 160.494C312.214 160.942 312.214 161.442 312.214 161.992C312.214 162.534 312.214 163.089 312.214 163.658C312.214 164.218 312.214 164.76 312.214 165.282C312.214 165.805 312.214 166.262 312.214 166.654C312.214 167.037 312.214 167.312 312.214 167.48C312.214 167.611 312.219 167.798 312.228 168.04C312.237 168.274 312.256 168.516 312.284 168.768C312.312 169.02 312.331 169.244 312.34 169.44H310.156C310.193 169.16 310.226 168.834 310.254 168.46C310.282 168.087 310.296 167.76 310.296 167.48ZM311.794 161.376C312.261 161.498 312.783 161.656 313.362 161.852C313.941 162.039 314.524 162.24 315.112 162.454C315.7 162.669 316.251 162.884 316.764 163.098C317.287 163.304 317.721 163.495 318.066 163.672L317.268 165.604C316.876 165.399 316.442 165.194 315.966 164.988C315.49 164.774 315.005 164.568 314.51 164.372C314.025 164.176 313.544 163.994 313.068 163.826C312.601 163.658 312.177 163.509 311.794 163.378V161.376ZM321.888 162.342C322.056 162.352 322.271 162.366 322.532 162.384C322.793 162.394 323.064 162.403 323.344 162.412C323.633 162.422 323.899 162.426 324.142 162.426C324.375 162.426 324.665 162.426 325.01 162.426C325.355 162.426 325.729 162.426 326.13 162.426C326.541 162.426 326.961 162.426 327.39 162.426C327.829 162.426 328.263 162.426 328.692 162.426C329.121 162.426 329.527 162.426 329.91 162.426C330.293 162.426 330.633 162.426 330.932 162.426C331.24 162.426 331.483 162.426 331.66 162.426C331.987 162.426 332.295 162.417 332.584 162.398C332.873 162.37 333.111 162.352 333.298 162.342V164.54C333.139 164.531 332.901 164.517 332.584 164.498C332.267 164.48 331.959 164.47 331.66 164.47C331.483 164.47 331.24 164.47 330.932 164.47C330.624 164.47 330.279 164.47 329.896 164.47C329.513 164.47 329.107 164.47 328.678 164.47C328.258 164.47 327.829 164.47 327.39 164.47C326.951 164.47 326.527 164.47 326.116 164.47C325.715 164.47 325.341 164.47 324.996 164.47C324.66 164.47 324.375 164.47 324.142 164.47C323.741 164.47 323.33 164.48 322.91 164.498C322.49 164.508 322.149 164.522 321.888 164.54V162.342ZM346.542 157.96C346.533 158.156 346.519 158.371 346.5 158.604C346.491 158.828 346.486 159.08 346.486 159.36C346.486 159.603 346.486 159.897 346.486 160.242C346.486 160.588 346.486 160.933 346.486 161.278C346.486 161.614 346.486 161.899 346.486 162.132C346.486 162.879 346.449 163.532 346.374 164.092C346.309 164.652 346.206 165.142 346.066 165.562C345.926 165.982 345.753 166.356 345.548 166.682C345.352 167 345.123 167.303 344.862 167.592C344.554 167.928 344.199 168.232 343.798 168.502C343.397 168.764 342.991 168.983 342.58 169.16C342.179 169.347 341.805 169.496 341.46 169.608L339.99 168.068C340.69 167.91 341.32 167.69 341.88 167.41C342.449 167.121 342.944 166.752 343.364 166.304C343.607 166.034 343.803 165.763 343.952 165.492C344.101 165.222 344.213 164.923 344.288 164.596C344.372 164.26 344.428 163.882 344.456 163.462C344.493 163.042 344.512 162.562 344.512 162.02C344.512 161.778 344.512 161.488 344.512 161.152C344.512 160.816 344.512 160.485 344.512 160.158C344.512 159.832 344.512 159.566 344.512 159.36C344.512 159.08 344.503 158.828 344.484 158.604C344.475 158.371 344.456 158.156 344.428 157.96H346.542ZM340.046 158.072C340.037 158.24 340.027 158.408 340.018 158.576C340.009 158.735 340.004 158.926 340.004 159.15C340.004 159.253 340.004 159.421 340.004 159.654C340.004 159.888 340.004 160.163 340.004 160.48C340.004 160.788 340.004 161.115 340.004 161.46C340.004 161.796 340.004 162.123 340.004 162.44C340.004 162.758 340.004 163.047 340.004 163.308C340.004 163.56 340.004 163.752 340.004 163.882C340.004 164.06 340.009 164.265 340.018 164.498C340.027 164.732 340.037 164.932 340.046 165.1H338.016C338.025 164.97 338.039 164.783 338.058 164.54C338.077 164.298 338.086 164.074 338.086 163.868C338.086 163.738 338.086 163.546 338.086 163.294C338.086 163.042 338.086 162.758 338.086 162.44C338.086 162.114 338.086 161.782 338.086 161.446C338.086 161.101 338.086 160.774 338.086 160.466C338.086 160.158 338.086 159.888 338.086 159.654C338.086 159.421 338.086 159.253 338.086 159.15C338.086 159.02 338.081 158.852 338.072 158.646C338.063 158.432 338.049 158.24 338.03 158.072H340.046ZM351.288 162.342C351.456 162.352 351.671 162.366 351.932 162.384C352.193 162.394 352.464 162.403 352.744 162.412C353.033 162.422 353.299 162.426 353.542 162.426C353.775 162.426 354.065 162.426 354.41 162.426C354.755 162.426 355.129 162.426 355.53 162.426C355.941 162.426 356.361 162.426 356.79 162.426C357.229 162.426 357.663 162.426 358.092 162.426C358.521 162.426 358.927 162.426 359.31 162.426C359.693 162.426 360.033 162.426 360.332 162.426C360.64 162.426 360.883 162.426 361.06 162.426C361.387 162.426 361.695 162.417 361.984 162.398C362.273 162.37 362.511 162.352 362.698 162.342V164.54C362.539 164.531 362.301 164.517 361.984 164.498C361.667 164.48 361.359 164.47 361.06 164.47C360.883 164.47 360.64 164.47 360.332 164.47C360.024 164.47 359.679 164.47 359.296 164.47C358.913 164.47 358.507 164.47 358.078 164.47C357.658 164.47 357.229 164.47 356.79 164.47C356.351 164.47 355.927 164.47 355.516 164.47C355.115 164.47 354.741 164.47 354.396 164.47C354.06 164.47 353.775 164.47 353.542 164.47C353.141 164.47 352.73 164.48 352.31 164.498C351.89 164.508 351.549 164.522 351.288 164.54V162.342Z" fill="#020202"/>
</g>
<defs>
<clipPath id="clip0_362_556">
<rect width="375" height="170" fill="white"/>
</clipPath>
</defs>
</svg>
