<svg width="1560" height="277" viewBox="0 0 1560 277" fill="none" xmlns="http://www.w3.org/2000/svg">
<path d="M1347.2 5.55078V51.4375H1424.18V271.012H1481.06V51.4375H1558.05V5.55078H1347.2ZM1559.05 52.4375H1482.06V272.012H1423.18V52.4375H1346.2V4.55078H1559.05V52.4375Z" fill="#020202"/>
<path d="M1254.98 5.55078V271.012H1311.86V5.55078H1254.98ZM1312.86 272.012H1253.98V4.55078H1312.86V272.012Z" fill="#020202"/>
<path d="M1046.64 167.861V5.55078H989.758V167.481L989.771 169.745C990.055 193.005 994.727 212.349 1003.79 227.779C1013.4 243.707 1026.29 255.716 1042.47 263.807C1058.39 271.399 1075.97 275.313 1095.21 275.551L1097.08 275.562C1117.05 275.562 1135.26 271.644 1151.69 263.807C1168.37 255.716 1181.65 243.707 1191.51 227.779C1201.62 211.852 1206.68 191.752 1206.68 167.481V5.55078H1149.79V167.861L1149.79 168.97C1149.66 180.374 1147.64 190.117 1143.72 198.199C1139.68 206.542 1133.74 212.863 1125.9 217.161L1125.18 217.534C1117.73 221.33 1108.61 223.229 1097.84 223.229V222.229C1108.84 222.229 1118.03 220.227 1125.43 216.278C1133.07 212.084 1138.87 205.924 1142.83 197.764C1146.79 189.589 1148.79 179.634 1148.79 167.861V4.55078H1207.68V167.481C1207.68 191.888 1202.59 212.188 1192.35 228.315C1182.39 244.398 1168.98 256.534 1152.12 264.706L1152.12 264.709C1135.54 272.616 1117.19 276.562 1097.08 276.562C1077.6 276.562 1059.77 272.859 1043.6 265.438L1042.04 264.709L1042.03 264.705L1042.02 264.701C1025.67 256.524 1012.63 244.381 1002.93 228.296L1002.93 228.286C993.458 212.164 988.758 191.876 988.758 167.481V4.55078H1047.64V167.861L1047.65 168.96C1047.76 180.259 1049.64 189.855 1053.24 197.778C1057.2 205.938 1062.87 212.094 1070.25 216.282C1077.92 220.232 1087.1 222.228 1097.84 222.229V223.229C1086.97 223.228 1077.61 221.206 1069.78 217.161C1062.19 212.863 1056.38 206.542 1052.33 198.199C1048.66 190.117 1046.76 180.374 1046.65 168.97L1046.64 167.861Z" fill="#020202"/>
<path d="M748.094 4.55078H852.244V5.55078H749.094V271.012H805.979V168.999H838.99L885.996 271.012H950.465L897.039 162.025C900.258 160.829 903.307 159.479 906.187 157.975L906.854 157.622C921.011 150.038 931.377 140.051 937.95 127.663C944.563 115.662 947.973 102.83 948.18 89.168L948.189 87.8438C948.189 72.6747 944.65 58.8959 937.571 46.5078C930.745 34.1197 920.126 24.2595 905.716 16.9277C892 9.58014 874.844 5.79113 854.248 5.56152L852.244 5.55078V4.55078C873.836 4.55078 891.828 8.35863 906.169 16.0361C920.727 23.4427 931.502 33.4303 938.438 46.0117C945.609 58.5605 949.189 72.512 949.189 87.8438L949.18 89.1846C948.97 103.009 945.517 116 938.825 128.145C932.145 140.726 921.627 150.841 907.325 158.503C904.516 160.008 901.547 161.361 898.42 162.569L952.068 272.012H885.355L838.35 169.999H806.979V272.012H748.094V4.55078ZM889.167 90.1191C889.167 79.3041 886.032 70.8071 879.843 64.5156L879.234 63.9141L879.221 63.9014L879.208 63.8877C872.899 57.3363 862.851 53.9541 848.831 53.9541H806.979V127.042H848.831V128.042H805.979V52.9541H848.831C862.989 52.9541 873.354 56.3674 879.928 63.1934C886.754 69.7667 890.167 78.7422 890.167 90.1191L890.157 91.2021C889.951 102.323 886.541 111.19 879.928 117.803C873.354 124.629 862.989 128.042 848.831 128.042V127.042C862.851 127.042 872.899 123.661 879.208 117.109L879.214 117.103L879.221 117.096C885.822 110.495 889.167 101.542 889.167 90.1191Z" fill="#020202"/>
<path d="M516.569 139.04C516.569 121.09 519.224 105.794 524.533 93.1533C530.095 80.2595 538.059 70.2723 548.425 63.1934C559.043 56.1146 571.81 52.5753 586.727 52.5752C602.401 52.5752 615.169 56.3675 625.029 63.9521C634.581 71.0548 640.93 81.0048 644.075 93.8018L644.37 95.0488H706.563C701.586 65.6821 688.892 42.8074 668.48 26.4248L667.503 25.6494C647.096 9.47304 620.809 1.25866 588.643 1.00586L587.106 1C560.56 1 537.68 6.94169 518.466 18.8242C499.252 30.4539 484.461 46.634 474.096 67.3652C463.73 87.8436 458.547 111.735 458.547 139.04L458.551 140.294C458.71 166.581 463.892 189.928 474.096 210.335C484.461 230.813 499.252 246.867 518.466 258.497C537.38 269.696 559.846 275.384 585.864 275.559L587.106 275.562C619.459 275.562 645.933 267.846 666.526 252.412L667.503 251.671C688.487 235.49 701.507 213.369 706.563 185.306H644.37C641.083 197.947 634.51 207.681 624.65 214.507L623.74 215.113C614.25 221.282 601.911 224.366 586.727 224.366V223.366C602.268 223.366 614.693 220.107 624.085 213.681C633.727 207.004 640.171 197.483 643.402 185.054L643.597 184.306H707.76L707.548 185.483C702.451 213.77 689.309 236.119 668.113 252.463L668.112 252.464C647.166 268.557 620.136 276.562 587.106 276.562C560.832 276.562 538.073 271.019 518.868 259.892L517.956 259.357L517.947 259.353C498.569 247.624 483.651 231.428 473.203 210.786L473.201 210.782C462.756 189.892 457.547 165.97 457.547 139.04C457.547 111.608 462.755 87.5565 473.203 66.9141C483.65 46.0215 498.567 29.6978 517.947 17.9678C537.344 5.97483 560.411 0 587.106 0C620.14 5.14031e-05 647.173 8.26037 668.119 24.8623C688.995 41.2106 702.045 64.1106 707.305 93.4785L707.55 94.8818L707.747 96.0488H643.571L643.395 95.2695C640.5 82.486 634.47 72.5638 625.327 65.4355L624.433 64.7549L624.426 64.75L624.42 64.7451C614.776 57.3266 602.239 53.5752 586.727 53.5752C571.974 53.5753 559.407 57.0736 548.979 64.0254C538.795 70.9831 530.949 80.8061 525.454 93.5391L525.455 93.54C520.211 106.027 517.569 121.184 517.569 139.04L517.577 140.659C517.737 157.32 520.372 171.812 525.455 184.159C530.945 196.63 538.785 206.327 548.966 213.286C559.395 219.991 571.967 223.366 586.727 223.366V224.366C572.276 224.366 559.843 221.163 549.427 214.757L548.425 214.127C538.059 207.048 530.095 197.188 524.533 184.547C519.39 172.056 516.738 157.43 516.577 140.668L516.569 139.04Z" fill="#020202"/>
<path d="M243.945 5.55078V271.012H421.805V225.125H300.83V158.001H410.428V114.011H300.83V51.4375H421.805V5.55078H243.945ZM422.805 52.4375H301.83V113.011H411.428V159.001H301.83V224.125H422.805V272.012H242.945V4.55078H422.805V52.4375Z" fill="#020202"/>
<path d="M0 4.55078H104.15V5.55078H1V271.012H57.8848V168.999H90.8965L137.902 271.012H202.371L148.946 162.025C152.164 160.829 155.213 159.479 158.093 157.975L158.76 157.622C172.918 150.038 183.283 140.051 189.856 127.663C196.469 115.662 199.879 102.83 200.086 89.168L200.096 87.8438C200.096 72.6746 196.556 58.8959 189.478 46.5078C182.651 34.1196 172.033 24.2595 157.622 16.9277C143.907 9.58012 126.751 5.79109 106.154 5.56152L104.15 5.55078V4.55078C125.751 4.55078 143.751 8.36165 158.095 16.0459C172.643 23.4515 183.412 33.4354 190.346 46.0117C197.516 58.5605 201.096 72.512 201.096 87.8438L201.086 89.1846C200.877 103.004 197.426 115.991 190.739 128.131C184.06 140.719 173.539 150.839 159.232 158.503C156.423 160.008 153.453 161.361 150.326 162.569L203.976 272.012H137.262L90.2559 169.999H58.8848V272.012H0V4.55078ZM141.074 90.1191C141.074 79.304 137.938 70.8071 131.749 64.5156L131.141 63.9141L131.127 63.9014L131.114 63.8877C124.805 57.3363 114.757 53.9541 100.737 53.9541H58.8848V127.042H100.737V128.042H57.8848V52.9541H100.737C114.895 52.9541 125.262 56.3672 131.835 63.1934C138.661 69.7667 142.074 78.7423 142.074 90.1191L142.063 91.2021C141.857 102.323 138.448 111.19 131.835 117.803C125.262 124.629 114.895 128.042 100.737 128.042V127.042C114.757 127.042 124.805 123.661 131.114 117.109L131.128 117.096C137.729 110.495 141.074 101.541 141.074 90.1191Z" fill="#020202"/>
</svg>
